<?xml version="1.0" encoding="utf-8" standalone="no"?>
<!DOCTYPE svg PUBLIC "-//W3C//DTD SVG 1.1//EN"
  "http://www.w3.org/Graphics/SVG/1.1/DTD/svg11.dtd">
<!-- Created with matplotlib (https://matplotlib.org/) -->
<svg height="161.545312pt" version="1.1" viewBox="0 0 464.947187 161.545312" width="464.947187pt" xmlns="http://www.w3.org/2000/svg" xmlns:xlink="http://www.w3.org/1999/xlink">
 <defs>
  <style type="text/css">
*{stroke-linecap:butt;stroke-linejoin:round;}
  </style>
 </defs>
 <g id="figure_1">
  <g id="patch_1">
   <path d="M 0 161.545312 
L 464.947187 161.545312 
L 464.947187 0 
L 0 0 
z
" style="fill:#ffffff;"/>
  </g>
  <g id="axes_1">
   <g id="patch_2">
    <path d="M 65.847188 128.2 
L 362.955188 128.2 
L 362.955188 19.48 
L 65.847188 19.48 
z
" style="fill:#ffffff;"/>
   </g>
   <g id="matplotlib.axis_1">
    <g id="xtick_1">
     <g id="line2d_1">
      <path clip-path="url(#pb6e9224d1d)" d="M 65.847188 128.2 
L 65.847188 19.48 
" style="fill:none;stroke:#cccccc;stroke-linecap:round;stroke-width:0.8;"/>
     </g>
     <g id="line2d_2"/>
     <g id="text_1">
      <!-- 0 -->
      <defs>
       <path d="M 4.15625 35.296875 
Q 4.15625 48 6.765625 55.734375 
Q 9.375 63.484375 14.515625 67.671875 
Q 19.671875 71.875 27.484375 71.875 
Q 33.25 71.875 37.59375 69.546875 
Q 41.9375 67.234375 44.765625 62.859375 
Q 47.609375 58.5 49.21875 52.21875 
Q 50.828125 45.953125 50.828125 35.296875 
Q 50.828125 22.703125 48.234375 14.96875 
Q 45.65625 7.234375 40.5 3 
Q 35.359375 -1.21875 27.484375 -1.21875 
Q 17.140625 -1.21875 11.234375 6.203125 
Q 4.15625 15.140625 4.15625 35.296875 
z
M 13.1875 35.296875 
Q 13.1875 17.671875 17.3125 11.828125 
Q 21.4375 6 27.484375 6 
Q 33.546875 6 37.671875 11.859375 
Q 41.796875 17.71875 41.796875 35.296875 
Q 41.796875 52.984375 37.671875 58.78125 
Q 33.546875 64.59375 27.390625 64.59375 
Q 21.34375 64.59375 17.71875 59.46875 
Q 13.1875 52.9375 13.1875 35.296875 
z
" id="ArialMT-48"/>
      </defs>
      <g style="fill:#262626;" transform="translate(63.066719 138.857812)scale(0.1 -0.1)">
       <use xlink:href="#ArialMT-48"/>
      </g>
     </g>
    </g>
    <g id="xtick_2">
     <g id="line2d_3">
      <path clip-path="url(#pb6e9224d1d)" d="M 125.268788 128.2 
L 125.268788 19.48 
" style="fill:none;stroke:#cccccc;stroke-linecap:round;stroke-width:0.8;"/>
     </g>
     <g id="line2d_4"/>
     <g id="text_2">
      <!-- 100 -->
      <defs>
       <path d="M 37.25 0 
L 28.46875 0 
L 28.46875 56 
Q 25.296875 52.984375 20.140625 49.953125 
Q 14.984375 46.921875 10.890625 45.40625 
L 10.890625 53.90625 
Q 18.265625 57.375 23.78125 62.296875 
Q 29.296875 67.234375 31.59375 71.875 
L 37.25 71.875 
z
" id="ArialMT-49"/>
      </defs>
      <g style="fill:#262626;" transform="translate(116.927381 138.857812)scale(0.1 -0.1)">
       <use xlink:href="#ArialMT-49"/>
       <use x="55.615234" xlink:href="#ArialMT-48"/>
       <use x="111.230469" xlink:href="#ArialMT-48"/>
      </g>
     </g>
    </g>
    <g id="xtick_3">
     <g id="line2d_5">
      <path clip-path="url(#pb6e9224d1d)" d="M 184.690387 128.2 
L 184.690387 19.48 
" style="fill:none;stroke:#cccccc;stroke-linecap:round;stroke-width:0.8;"/>
     </g>
     <g id="line2d_6"/>
     <g id="text_3">
      <!-- 200 -->
      <defs>
       <path d="M 50.34375 8.453125 
L 50.34375 0 
L 3.03125 0 
Q 2.9375 3.171875 4.046875 6.109375 
Q 5.859375 10.9375 9.828125 15.625 
Q 13.8125 20.3125 21.34375 26.46875 
Q 33.015625 36.03125 37.109375 41.625 
Q 41.21875 47.21875 41.21875 52.203125 
Q 41.21875 57.421875 37.46875 61 
Q 33.734375 64.59375 27.734375 64.59375 
Q 21.390625 64.59375 17.578125 60.78125 
Q 13.765625 56.984375 13.71875 50.25 
L 4.6875 51.171875 
Q 5.609375 61.28125 11.65625 66.578125 
Q 17.71875 71.875 27.9375 71.875 
Q 38.234375 71.875 44.234375 66.15625 
Q 50.25 60.453125 50.25 52 
Q 50.25 47.703125 48.484375 43.546875 
Q 46.734375 39.40625 42.65625 34.8125 
Q 38.578125 30.21875 29.109375 22.21875 
Q 21.1875 15.578125 18.9375 13.203125 
Q 16.703125 10.84375 15.234375 8.453125 
z
" id="ArialMT-50"/>
      </defs>
      <g style="fill:#262626;" transform="translate(176.348981 138.857812)scale(0.1 -0.1)">
       <use xlink:href="#ArialMT-50"/>
       <use x="55.615234" xlink:href="#ArialMT-48"/>
       <use x="111.230469" xlink:href="#ArialMT-48"/>
      </g>
     </g>
    </g>
    <g id="xtick_4">
     <g id="line2d_7">
      <path clip-path="url(#pb6e9224d1d)" d="M 244.111987 128.2 
L 244.111987 19.48 
" style="fill:none;stroke:#cccccc;stroke-linecap:round;stroke-width:0.8;"/>
     </g>
     <g id="line2d_8"/>
     <g id="text_4">
      <!-- 300 -->
      <defs>
       <path d="M 4.203125 18.890625 
L 12.984375 20.0625 
Q 14.5 12.59375 18.140625 9.296875 
Q 21.78125 6 27 6 
Q 33.203125 6 37.46875 10.296875 
Q 41.75 14.59375 41.75 20.953125 
Q 41.75 27 37.796875 30.921875 
Q 33.84375 34.859375 27.734375 34.859375 
Q 25.25 34.859375 21.53125 33.890625 
L 22.515625 41.609375 
Q 23.390625 41.5 23.921875 41.5 
Q 29.546875 41.5 34.03125 44.421875 
Q 38.53125 47.359375 38.53125 53.46875 
Q 38.53125 58.296875 35.25 61.46875 
Q 31.984375 64.65625 26.8125 64.65625 
Q 21.6875 64.65625 18.265625 61.421875 
Q 14.84375 58.203125 13.875 51.765625 
L 5.078125 53.328125 
Q 6.6875 62.15625 12.390625 67.015625 
Q 18.109375 71.875 26.609375 71.875 
Q 32.46875 71.875 37.390625 69.359375 
Q 42.328125 66.84375 44.9375 62.5 
Q 47.5625 58.15625 47.5625 53.265625 
Q 47.5625 48.640625 45.0625 44.828125 
Q 42.578125 41.015625 37.703125 38.765625 
Q 44.046875 37.3125 47.5625 32.6875 
Q 51.078125 28.078125 51.078125 21.140625 
Q 51.078125 11.765625 44.234375 5.25 
Q 37.40625 -1.265625 26.953125 -1.265625 
Q 17.53125 -1.265625 11.296875 4.34375 
Q 5.078125 9.96875 4.203125 18.890625 
z
" id="ArialMT-51"/>
      </defs>
      <g style="fill:#262626;" transform="translate(235.770581 138.857812)scale(0.1 -0.1)">
       <use xlink:href="#ArialMT-51"/>
       <use x="55.615234" xlink:href="#ArialMT-48"/>
       <use x="111.230469" xlink:href="#ArialMT-48"/>
      </g>
     </g>
    </g>
    <g id="xtick_5">
     <g id="line2d_9">
      <path clip-path="url(#pb6e9224d1d)" d="M 303.533588 128.2 
L 303.533588 19.48 
" style="fill:none;stroke:#cccccc;stroke-linecap:round;stroke-width:0.8;"/>
     </g>
     <g id="line2d_10"/>
     <g id="text_5">
      <!-- 400 -->
      <defs>
       <path d="M 32.328125 0 
L 32.328125 17.140625 
L 1.265625 17.140625 
L 1.265625 25.203125 
L 33.9375 71.578125 
L 41.109375 71.578125 
L 41.109375 25.203125 
L 50.78125 25.203125 
L 50.78125 17.140625 
L 41.109375 17.140625 
L 41.109375 0 
z
M 32.328125 25.203125 
L 32.328125 57.46875 
L 9.90625 25.203125 
z
" id="ArialMT-52"/>
      </defs>
      <g style="fill:#262626;" transform="translate(295.192181 138.857812)scale(0.1 -0.1)">
       <use xlink:href="#ArialMT-52"/>
       <use x="55.615234" xlink:href="#ArialMT-48"/>
       <use x="111.230469" xlink:href="#ArialMT-48"/>
      </g>
     </g>
    </g>
    <g id="xtick_6">
     <g id="line2d_11">
      <path clip-path="url(#pb6e9224d1d)" d="M 362.955188 128.2 
L 362.955188 19.48 
" style="fill:none;stroke:#cccccc;stroke-linecap:round;stroke-width:0.8;"/>
     </g>
     <g id="line2d_12"/>
     <g id="text_6">
      <!-- 500 -->
      <defs>
       <path d="M 4.15625 18.75 
L 13.375 19.53125 
Q 14.40625 12.796875 18.140625 9.390625 
Q 21.875 6 27.15625 6 
Q 33.5 6 37.890625 10.78125 
Q 42.28125 15.578125 42.28125 23.484375 
Q 42.28125 31 38.0625 35.34375 
Q 33.84375 39.703125 27 39.703125 
Q 22.75 39.703125 19.328125 37.765625 
Q 15.921875 35.84375 13.96875 32.765625 
L 5.71875 33.84375 
L 12.640625 70.609375 
L 48.25 70.609375 
L 48.25 62.203125 
L 19.671875 62.203125 
L 15.828125 42.96875 
Q 22.265625 47.46875 29.34375 47.46875 
Q 38.71875 47.46875 45.15625 40.96875 
Q 51.609375 34.46875 51.609375 24.265625 
Q 51.609375 14.546875 45.953125 7.46875 
Q 39.0625 -1.21875 27.15625 -1.21875 
Q 17.390625 -1.21875 11.203125 4.25 
Q 5.03125 9.71875 4.15625 18.75 
z
" id="ArialMT-53"/>
      </defs>
      <g style="fill:#262626;" transform="translate(354.613781 138.857812)scale(0.1 -0.1)">
       <use xlink:href="#ArialMT-53"/>
       <use x="55.615234" xlink:href="#ArialMT-48"/>
       <use x="111.230469" xlink:href="#ArialMT-48"/>
      </g>
     </g>
    </g>
    <g id="text_7">
     <!-- trajectory duration $T$ -->
     <defs>
      <path d="M 25.78125 7.859375 
L 27.046875 0.09375 
Q 23.34375 -0.6875 20.40625 -0.6875 
Q 15.625 -0.6875 12.984375 0.828125 
Q 10.359375 2.34375 9.28125 4.8125 
Q 8.203125 7.28125 8.203125 15.1875 
L 8.203125 45.015625 
L 1.765625 45.015625 
L 1.765625 51.859375 
L 8.203125 51.859375 
L 8.203125 64.703125 
L 16.9375 69.96875 
L 16.9375 51.859375 
L 25.78125 51.859375 
L 25.78125 45.015625 
L 16.9375 45.015625 
L 16.9375 14.703125 
Q 16.9375 10.9375 17.40625 9.859375 
Q 17.875 8.796875 18.921875 8.15625 
Q 19.96875 7.515625 21.921875 7.515625 
Q 23.390625 7.515625 25.78125 7.859375 
z
" id="ArialMT-116"/>
      <path d="M 6.5 0 
L 6.5 51.859375 
L 14.40625 51.859375 
L 14.40625 44 
Q 17.4375 49.515625 20 51.265625 
Q 22.5625 53.03125 25.640625 53.03125 
Q 30.078125 53.03125 34.671875 50.203125 
L 31.640625 42.046875 
Q 28.421875 43.953125 25.203125 43.953125 
Q 22.3125 43.953125 20.015625 42.21875 
Q 17.71875 40.484375 16.75 37.40625 
Q 15.28125 32.71875 15.28125 27.15625 
L 15.28125 0 
z
" id="ArialMT-114"/>
      <path d="M 40.4375 6.390625 
Q 35.546875 2.25 31.03125 0.53125 
Q 26.515625 -1.171875 21.34375 -1.171875 
Q 12.796875 -1.171875 8.203125 3 
Q 3.609375 7.171875 3.609375 13.671875 
Q 3.609375 17.484375 5.34375 20.625 
Q 7.078125 23.78125 9.890625 25.6875 
Q 12.703125 27.59375 16.21875 28.5625 
Q 18.796875 29.25 24.03125 29.890625 
Q 34.671875 31.15625 39.703125 32.90625 
Q 39.75 34.71875 39.75 35.203125 
Q 39.75 40.578125 37.25 42.78125 
Q 33.890625 45.75 27.25 45.75 
Q 21.046875 45.75 18.09375 43.578125 
Q 15.140625 41.40625 13.71875 35.890625 
L 5.125 37.0625 
Q 6.296875 42.578125 8.984375 45.96875 
Q 11.671875 49.359375 16.75 51.1875 
Q 21.828125 53.03125 28.515625 53.03125 
Q 35.15625 53.03125 39.296875 51.46875 
Q 43.453125 49.90625 45.40625 47.53125 
Q 47.359375 45.171875 48.140625 41.546875 
Q 48.578125 39.3125 48.578125 33.453125 
L 48.578125 21.734375 
Q 48.578125 9.46875 49.140625 6.21875 
Q 49.703125 2.984375 51.375 0 
L 42.1875 0 
Q 40.828125 2.734375 40.4375 6.390625 
z
M 39.703125 26.03125 
Q 34.90625 24.078125 25.34375 22.703125 
Q 19.921875 21.921875 17.671875 20.9375 
Q 15.4375 19.96875 14.203125 18.09375 
Q 12.984375 16.21875 12.984375 13.921875 
Q 12.984375 10.40625 15.640625 8.0625 
Q 18.3125 5.71875 23.4375 5.71875 
Q 28.515625 5.71875 32.46875 7.9375 
Q 36.421875 10.15625 38.28125 14.015625 
Q 39.703125 17 39.703125 22.796875 
z
" id="ArialMT-97"/>
      <path d="M 6.546875 61.375 
L 6.546875 71.578125 
L 15.328125 71.578125 
L 15.328125 61.375 
z
M -4.59375 -20.125 
L -2.9375 -12.640625 
Q -0.296875 -13.328125 1.21875 -13.328125 
Q 3.90625 -13.328125 5.21875 -11.546875 
Q 6.546875 -9.765625 6.546875 -2.640625 
L 6.546875 51.859375 
L 15.328125 51.859375 
L 15.328125 -2.828125 
Q 15.328125 -12.40625 12.84375 -16.15625 
Q 9.671875 -21.046875 2.296875 -21.046875 
Q -1.265625 -21.046875 -4.59375 -20.125 
z
" id="ArialMT-106"/>
      <path d="M 42.09375 16.703125 
L 51.171875 15.578125 
Q 49.03125 7.625 43.21875 3.21875 
Q 37.40625 -1.171875 28.375 -1.171875 
Q 17 -1.171875 10.328125 5.828125 
Q 3.65625 12.84375 3.65625 25.484375 
Q 3.65625 38.578125 10.390625 45.796875 
Q 17.140625 53.03125 27.875 53.03125 
Q 38.28125 53.03125 44.875 45.953125 
Q 51.46875 38.875 51.46875 26.03125 
Q 51.46875 25.25 51.421875 23.6875 
L 12.75 23.6875 
Q 13.234375 15.140625 17.578125 10.59375 
Q 21.921875 6.0625 28.421875 6.0625 
Q 33.25 6.0625 36.671875 8.59375 
Q 40.09375 11.140625 42.09375 16.703125 
z
M 13.234375 30.90625 
L 42.1875 30.90625 
Q 41.609375 37.453125 38.875 40.71875 
Q 34.671875 45.796875 27.984375 45.796875 
Q 21.921875 45.796875 17.796875 41.75 
Q 13.671875 37.703125 13.234375 30.90625 
z
" id="ArialMT-101"/>
      <path d="M 40.4375 19 
L 49.078125 17.875 
Q 47.65625 8.9375 41.8125 3.875 
Q 35.984375 -1.171875 27.484375 -1.171875 
Q 16.84375 -1.171875 10.375 5.78125 
Q 3.90625 12.75 3.90625 25.734375 
Q 3.90625 34.125 6.6875 40.421875 
Q 9.46875 46.734375 15.15625 49.875 
Q 20.84375 53.03125 27.546875 53.03125 
Q 35.984375 53.03125 41.359375 48.75 
Q 46.734375 44.484375 48.25 36.625 
L 39.703125 35.296875 
Q 38.484375 40.53125 35.375 43.15625 
Q 32.28125 45.796875 27.875 45.796875 
Q 21.234375 45.796875 17.078125 41.03125 
Q 12.9375 36.28125 12.9375 25.984375 
Q 12.9375 15.53125 16.9375 10.796875 
Q 20.953125 6.0625 27.390625 6.0625 
Q 32.5625 6.0625 36.03125 9.234375 
Q 39.5 12.40625 40.4375 19 
z
" id="ArialMT-99"/>
      <path d="M 3.328125 25.921875 
Q 3.328125 40.328125 11.328125 47.265625 
Q 18.015625 53.03125 27.640625 53.03125 
Q 38.328125 53.03125 45.109375 46.015625 
Q 51.90625 39.015625 51.90625 26.65625 
Q 51.90625 16.65625 48.90625 10.90625 
Q 45.90625 5.171875 40.15625 2 
Q 34.421875 -1.171875 27.640625 -1.171875 
Q 16.75 -1.171875 10.03125 5.8125 
Q 3.328125 12.796875 3.328125 25.921875 
z
M 12.359375 25.921875 
Q 12.359375 15.96875 16.703125 11.015625 
Q 21.046875 6.0625 27.640625 6.0625 
Q 34.1875 6.0625 38.53125 11.03125 
Q 42.875 16.015625 42.875 26.21875 
Q 42.875 35.84375 38.5 40.796875 
Q 34.125 45.75 27.640625 45.75 
Q 21.046875 45.75 16.703125 40.8125 
Q 12.359375 35.890625 12.359375 25.921875 
z
" id="ArialMT-111"/>
      <path d="M 6.203125 -19.96875 
L 5.21875 -11.71875 
Q 8.109375 -12.5 10.25 -12.5 
Q 13.1875 -12.5 14.9375 -11.515625 
Q 16.703125 -10.546875 17.828125 -8.796875 
Q 18.65625 -7.46875 20.515625 -2.25 
Q 20.75 -1.515625 21.296875 -0.09375 
L 1.609375 51.859375 
L 11.078125 51.859375 
L 21.875 21.828125 
Q 23.96875 16.109375 25.640625 9.8125 
Q 27.15625 15.875 29.25 21.625 
L 40.328125 51.859375 
L 49.125 51.859375 
L 29.390625 -0.875 
Q 26.21875 -9.421875 24.46875 -12.640625 
Q 22.125 -17 19.09375 -19.015625 
Q 16.0625 -21.046875 11.859375 -21.046875 
Q 9.328125 -21.046875 6.203125 -19.96875 
z
" id="ArialMT-121"/>
      <path id="ArialMT-32"/>
      <path d="M 40.234375 0 
L 40.234375 6.546875 
Q 35.296875 -1.171875 25.734375 -1.171875 
Q 19.53125 -1.171875 14.328125 2.25 
Q 9.125 5.671875 6.265625 11.796875 
Q 3.421875 17.921875 3.421875 25.875 
Q 3.421875 33.640625 6 39.96875 
Q 8.59375 46.296875 13.765625 49.65625 
Q 18.953125 53.03125 25.34375 53.03125 
Q 30.03125 53.03125 33.6875 51.046875 
Q 37.359375 49.078125 39.65625 45.90625 
L 39.65625 71.578125 
L 48.390625 71.578125 
L 48.390625 0 
z
M 12.453125 25.875 
Q 12.453125 15.921875 16.640625 10.984375 
Q 20.84375 6.0625 26.5625 6.0625 
Q 32.328125 6.0625 36.34375 10.765625 
Q 40.375 15.484375 40.375 25.140625 
Q 40.375 35.796875 36.265625 40.765625 
Q 32.171875 45.75 26.171875 45.75 
Q 20.3125 45.75 16.375 40.96875 
Q 12.453125 36.1875 12.453125 25.875 
z
" id="ArialMT-100"/>
      <path d="M 40.578125 0 
L 40.578125 7.625 
Q 34.515625 -1.171875 24.125 -1.171875 
Q 19.53125 -1.171875 15.546875 0.578125 
Q 11.578125 2.34375 9.640625 5 
Q 7.71875 7.671875 6.9375 11.53125 
Q 6.390625 14.109375 6.390625 19.734375 
L 6.390625 51.859375 
L 15.1875 51.859375 
L 15.1875 23.09375 
Q 15.1875 16.21875 15.71875 13.8125 
Q 16.546875 10.359375 19.234375 8.375 
Q 21.921875 6.390625 25.875 6.390625 
Q 29.828125 6.390625 33.296875 8.421875 
Q 36.765625 10.453125 38.203125 13.9375 
Q 39.65625 17.4375 39.65625 24.078125 
L 39.65625 51.859375 
L 48.4375 51.859375 
L 48.4375 0 
z
" id="ArialMT-117"/>
      <path d="M 6.640625 61.46875 
L 6.640625 71.578125 
L 15.4375 71.578125 
L 15.4375 61.46875 
z
M 6.640625 0 
L 6.640625 51.859375 
L 15.4375 51.859375 
L 15.4375 0 
z
" id="ArialMT-105"/>
      <path d="M 6.59375 0 
L 6.59375 51.859375 
L 14.5 51.859375 
L 14.5 44.484375 
Q 20.21875 53.03125 31 53.03125 
Q 35.6875 53.03125 39.625 51.34375 
Q 43.5625 49.65625 45.515625 46.921875 
Q 47.46875 44.1875 48.25 40.4375 
Q 48.734375 37.984375 48.734375 31.890625 
L 48.734375 0 
L 39.9375 0 
L 39.9375 31.546875 
Q 39.9375 36.921875 38.90625 39.578125 
Q 37.890625 42.234375 35.28125 43.8125 
Q 32.671875 45.40625 29.15625 45.40625 
Q 23.53125 45.40625 19.453125 41.84375 
Q 15.375 38.28125 15.375 28.328125 
L 15.375 0 
z
" id="ArialMT-110"/>
      <path d="M 5.90625 72.90625 
L 67.578125 72.90625 
L 66.015625 64.59375 
L 39.984375 64.59375 
L 27.484375 0 
L 17.578125 0 
L 30.078125 64.59375 
L 4.296875 64.59375 
z
" id="DejaVuSans-Oblique-84"/>
     </defs>
     <g style="fill:#262626;" transform="translate(169.901187 152.145312)scale(0.1 -0.1)">
      <use transform="translate(0 0.09375)" xlink:href="#ArialMT-116"/>
      <use transform="translate(27.783203 0.09375)" xlink:href="#ArialMT-114"/>
      <use transform="translate(61.083984 0.09375)" xlink:href="#ArialMT-97"/>
      <use transform="translate(116.699219 0.09375)" xlink:href="#ArialMT-106"/>
      <use transform="translate(138.916016 0.09375)" xlink:href="#ArialMT-101"/>
      <use transform="translate(194.53125 0.09375)" xlink:href="#ArialMT-99"/>
      <use transform="translate(244.53125 0.09375)" xlink:href="#ArialMT-116"/>
      <use transform="translate(272.314453 0.09375)" xlink:href="#ArialMT-111"/>
      <use transform="translate(327.929688 0.09375)" xlink:href="#ArialMT-114"/>
      <use transform="translate(361.230469 0.09375)" xlink:href="#ArialMT-121"/>
      <use transform="translate(411.230469 0.09375)" xlink:href="#ArialMT-32"/>
      <use transform="translate(439.013672 0.09375)" xlink:href="#ArialMT-100"/>
      <use transform="translate(494.628906 0.09375)" xlink:href="#ArialMT-117"/>
      <use transform="translate(550.244141 0.09375)" xlink:href="#ArialMT-114"/>
      <use transform="translate(583.544922 0.09375)" xlink:href="#ArialMT-97"/>
      <use transform="translate(639.160156 0.09375)" xlink:href="#ArialMT-116"/>
      <use transform="translate(666.943359 0.09375)" xlink:href="#ArialMT-105"/>
      <use transform="translate(689.160156 0.09375)" xlink:href="#ArialMT-111"/>
      <use transform="translate(744.775391 0.09375)" xlink:href="#ArialMT-110"/>
      <use transform="translate(800.390625 0.09375)" xlink:href="#ArialMT-32"/>
      <use transform="translate(828.173828 0.09375)" xlink:href="#DejaVuSans-Oblique-84"/>
     </g>
    </g>
   </g>
   <g id="matplotlib.axis_2">
    <g id="ytick_1">
     <g id="line2d_13">
      <path clip-path="url(#pb6e9224d1d)" d="M 65.847188 128.2 
L 362.955188 128.2 
" style="fill:none;stroke:#cccccc;stroke-linecap:round;stroke-width:0.8;"/>
     </g>
     <g id="line2d_14"/>
     <g id="text_8">
      <!-- 0.000 -->
      <defs>
       <path d="M 9.078125 0 
L 9.078125 10.015625 
L 19.09375 10.015625 
L 19.09375 0 
z
" id="ArialMT-46"/>
      </defs>
      <g style="fill:#262626;" transform="translate(37.325313 131.778906)scale(0.1 -0.1)">
       <use xlink:href="#ArialMT-48"/>
       <use x="55.615234" xlink:href="#ArialMT-46"/>
       <use x="83.398438" xlink:href="#ArialMT-48"/>
       <use x="139.013672" xlink:href="#ArialMT-48"/>
       <use x="194.628906" xlink:href="#ArialMT-48"/>
      </g>
     </g>
    </g>
    <g id="ytick_2">
     <g id="line2d_15">
      <path clip-path="url(#pb6e9224d1d)" d="M 65.847188 103.490909 
L 362.955188 103.490909 
" style="fill:none;stroke:#cccccc;stroke-linecap:round;stroke-width:0.8;"/>
     </g>
     <g id="line2d_16"/>
     <g id="text_9">
      <!-- 0.001 -->
      <g style="fill:#262626;" transform="translate(37.325313 107.069815)scale(0.1 -0.1)">
       <use xlink:href="#ArialMT-48"/>
       <use x="55.615234" xlink:href="#ArialMT-46"/>
       <use x="83.398438" xlink:href="#ArialMT-48"/>
       <use x="139.013672" xlink:href="#ArialMT-48"/>
       <use x="194.628906" xlink:href="#ArialMT-49"/>
      </g>
     </g>
    </g>
    <g id="ytick_3">
     <g id="line2d_17">
      <path clip-path="url(#pb6e9224d1d)" d="M 65.847188 78.781818 
L 362.955188 78.781818 
" style="fill:none;stroke:#cccccc;stroke-linecap:round;stroke-width:0.8;"/>
     </g>
     <g id="line2d_18"/>
     <g id="text_10">
      <!-- 0.002 -->
      <g style="fill:#262626;" transform="translate(37.325313 82.360724)scale(0.1 -0.1)">
       <use xlink:href="#ArialMT-48"/>
       <use x="55.615234" xlink:href="#ArialMT-46"/>
       <use x="83.398438" xlink:href="#ArialMT-48"/>
       <use x="139.013672" xlink:href="#ArialMT-48"/>
       <use x="194.628906" xlink:href="#ArialMT-50"/>
      </g>
     </g>
    </g>
    <g id="ytick_4">
     <g id="line2d_19">
      <path clip-path="url(#pb6e9224d1d)" d="M 65.847188 54.072727 
L 362.955188 54.072727 
" style="fill:none;stroke:#cccccc;stroke-linecap:round;stroke-width:0.8;"/>
     </g>
     <g id="line2d_20"/>
     <g id="text_11">
      <!-- 0.003 -->
      <g style="fill:#262626;" transform="translate(37.325313 57.651634)scale(0.1 -0.1)">
       <use xlink:href="#ArialMT-48"/>
       <use x="55.615234" xlink:href="#ArialMT-46"/>
       <use x="83.398438" xlink:href="#ArialMT-48"/>
       <use x="139.013672" xlink:href="#ArialMT-48"/>
       <use x="194.628906" xlink:href="#ArialMT-51"/>
      </g>
     </g>
    </g>
    <g id="ytick_5">
     <g id="line2d_21">
      <path clip-path="url(#pb6e9224d1d)" d="M 65.847188 29.363636 
L 362.955188 29.363636 
" style="fill:none;stroke:#cccccc;stroke-linecap:round;stroke-width:0.8;"/>
     </g>
     <g id="line2d_22"/>
     <g id="text_12">
      <!-- 0.004 -->
      <g style="fill:#262626;" transform="translate(37.325313 32.942543)scale(0.1 -0.1)">
       <use xlink:href="#ArialMT-48"/>
       <use x="55.615234" xlink:href="#ArialMT-46"/>
       <use x="83.398438" xlink:href="#ArialMT-48"/>
       <use x="139.013672" xlink:href="#ArialMT-48"/>
       <use x="194.628906" xlink:href="#ArialMT-52"/>
      </g>
     </g>
    </g>
    <g id="text_13">
     <!-- information rate -->
     <defs>
      <path d="M 8.6875 0 
L 8.6875 45.015625 
L 0.921875 45.015625 
L 0.921875 51.859375 
L 8.6875 51.859375 
L 8.6875 57.375 
Q 8.6875 62.59375 9.625 65.140625 
Q 10.890625 68.5625 14.078125 70.671875 
Q 17.28125 72.796875 23.046875 72.796875 
Q 26.765625 72.796875 31.25 71.921875 
L 29.9375 64.265625 
Q 27.203125 64.75 24.75 64.75 
Q 20.75 64.75 19.09375 63.03125 
Q 17.4375 61.328125 17.4375 56.640625 
L 17.4375 51.859375 
L 27.546875 51.859375 
L 27.546875 45.015625 
L 17.4375 45.015625 
L 17.4375 0 
z
" id="ArialMT-102"/>
      <path d="M 6.59375 0 
L 6.59375 51.859375 
L 14.453125 51.859375 
L 14.453125 44.578125 
Q 16.890625 48.390625 20.9375 50.703125 
Q 25 53.03125 30.171875 53.03125 
Q 35.9375 53.03125 39.625 50.640625 
Q 43.3125 48.25 44.828125 43.953125 
Q 50.984375 53.03125 60.84375 53.03125 
Q 68.5625 53.03125 72.703125 48.75 
Q 76.859375 44.484375 76.859375 35.59375 
L 76.859375 0 
L 68.109375 0 
L 68.109375 32.671875 
Q 68.109375 37.9375 67.25 40.25 
Q 66.40625 42.578125 64.15625 43.984375 
Q 61.921875 45.40625 58.890625 45.40625 
Q 53.421875 45.40625 49.796875 41.765625 
Q 46.1875 38.140625 46.1875 30.125 
L 46.1875 0 
L 37.40625 0 
L 37.40625 33.6875 
Q 37.40625 39.546875 35.25 42.46875 
Q 33.109375 45.40625 28.21875 45.40625 
Q 24.515625 45.40625 21.359375 43.453125 
Q 18.21875 41.5 16.796875 37.734375 
Q 15.375 33.984375 15.375 26.90625 
L 15.375 0 
z
" id="ArialMT-109"/>
     </defs>
     <g style="fill:#262626;" transform="translate(14.357813 108.575937)rotate(-90)scale(0.1 -0.1)">
      <use xlink:href="#ArialMT-105"/>
      <use x="22.216797" xlink:href="#ArialMT-110"/>
      <use x="77.832031" xlink:href="#ArialMT-102"/>
      <use x="105.615234" xlink:href="#ArialMT-111"/>
      <use x="161.230469" xlink:href="#ArialMT-114"/>
      <use x="194.53125" xlink:href="#ArialMT-109"/>
      <use x="277.832031" xlink:href="#ArialMT-97"/>
      <use x="333.447266" xlink:href="#ArialMT-116"/>
      <use x="361.230469" xlink:href="#ArialMT-105"/>
      <use x="383.447266" xlink:href="#ArialMT-111"/>
      <use x="439.0625" xlink:href="#ArialMT-110"/>
      <use x="494.677734" xlink:href="#ArialMT-32"/>
      <use x="522.460938" xlink:href="#ArialMT-114"/>
      <use x="555.761719" xlink:href="#ArialMT-97"/>
      <use x="611.376953" xlink:href="#ArialMT-116"/>
      <use x="639.160156" xlink:href="#ArialMT-101"/>
     </g>
     <!-- $I_R=\frac{I(\mathcal{S}_T,\mathcal{X}_T)}{T}$ -->
     <defs>
      <path d="M 16.890625 72.90625 
L 26.8125 72.90625 
L 12.59375 0 
L 2.6875 0 
z
" id="DejaVuSans-Oblique-73"/>
      <path d="M 25.203125 64.796875 
L 20.21875 38.921875 
L 32.90625 38.921875 
Q 40.375 38.921875 44.984375 43.046875 
Q 49.609375 47.171875 49.609375 53.8125 
Q 49.609375 59.125 46.5 61.953125 
Q 43.40625 64.796875 37.59375 64.796875 
z
M 43.3125 35.015625 
Q 46.4375 34.28125 48.515625 31.390625 
Q 50.59375 28.515625 53.328125 19.921875 
L 59.515625 0 
L 49.125 0 
L 43.40625 18.703125 
Q 41.21875 25.921875 38.328125 28.359375 
Q 35.453125 30.8125 29.5 30.8125 
L 18.609375 30.8125 
L 12.59375 0 
L 2.6875 0 
L 16.890625 72.90625 
L 39.109375 72.90625 
Q 49.21875 72.90625 54.609375 68.328125 
Q 60.015625 63.765625 60.015625 55.171875 
Q 60.015625 47.5625 55.421875 41.984375 
Q 50.828125 36.421875 43.3125 35.015625 
z
" id="DejaVuSans-Oblique-82"/>
      <path d="M 10.59375 45.40625 
L 73.1875 45.40625 
L 73.1875 37.203125 
L 10.59375 37.203125 
z
M 10.59375 25.484375 
L 73.1875 25.484375 
L 73.1875 17.1875 
L 10.59375 17.1875 
z
" id="DejaVuSans-61"/>
      <path d="M 31 75.875 
Q 24.46875 64.65625 21.28125 53.65625 
Q 18.109375 42.671875 18.109375 31.390625 
Q 18.109375 20.125 21.3125 9.0625 
Q 24.515625 -2 31 -13.1875 
L 23.1875 -13.1875 
Q 15.875 -1.703125 12.234375 9.375 
Q 8.59375 20.453125 8.59375 31.390625 
Q 8.59375 42.28125 12.203125 53.3125 
Q 15.828125 64.359375 23.1875 75.875 
z
" id="DejaVuSans-40"/>
      <path d="M 3.796875 19.296875 
L 6.40625 19.59375 
Q 8.09375 9.09375 17.796875 5.703125 
Q 22.203125 4.09375 27.59375 4.09375 
Q 36 4.09375 41.953125 8.046875 
Q 47.90625 12 47.90625 19.296875 
Q 47.90625 22.296875 45.046875 24.546875 
Q 42.203125 26.796875 38.203125 28.390625 
Q 34.203125 30 30.140625 31.953125 
Q 26.09375 33.90625 23.25 37.546875 
Q 20.40625 41.203125 20.40625 46.40625 
Q 20.40625 51.40625 23.546875 55.546875 
Q 26.703125 59.703125 31.25 62.09375 
Q 35.796875 64.5 40.1875 65.796875 
Q 44.59375 67.09375 47.796875 67.09375 
Q 56.296875 67.09375 61.6875 64.59375 
Q 67.09375 62.09375 67.09375 56.90625 
Q 67.09375 54.09375 65.34375 51.546875 
Q 63.59375 49 60.203125 49 
Q 58 49 56.296875 50.5 
Q 54.59375 52 54.59375 54 
Q 54.59375 56.296875 56.09375 57.9375 
Q 57.59375 59.59375 57.59375 60 
Q 57.59375 61.203125 56.6875 61.953125 
Q 55.796875 62.703125 54 63 
Q 52.203125 63.296875 51 63.34375 
Q 49.796875 63.40625 47.796875 63.40625 
Q 45.796875 63.40625 42.890625 62.65625 
Q 40 61.90625 36.75 60.40625 
Q 33.5 58.90625 31.25 55.953125 
Q 29 53 29 49.296875 
Q 29 45.796875 32.140625 43.296875 
Q 35.296875 40.796875 39.84375 39.09375 
Q 44.40625 37.40625 48.953125 35.453125 
Q 53.5 33.5 56.640625 30 
Q 59.796875 26.5 59.796875 21.5 
Q 59.796875 14.09375 50.09375 7.046875 
Q 40.40625 0 28.203125 0 
Q 15.5 0 9.640625 5.296875 
Q 3.796875 10.59375 3.796875 19.296875 
z
" id="STIXNonUnicode-Italic-57919"/>
      <path d="M 11.71875 12.40625 
L 22.015625 12.40625 
L 22.015625 4 
L 14.015625 -11.625 
L 7.71875 -11.625 
L 11.71875 4 
z
" id="DejaVuSans-44"/>
      <path d="M 44.40625 47.296875 
L 45.40625 37.796875 
Q 49.703125 39.796875 52.25 41.046875 
Q 54.796875 42.296875 58.1875 44.25 
Q 61.59375 46.203125 63.4375 47.796875 
Q 65.296875 49.40625 66.640625 51.40625 
Q 68 53.40625 68 55.5 
Q 68 57.90625 66.09375 57.90625 
Q 65.796875 57.90625 65.09375 57.296875 
Q 64.40625 56.703125 62.796875 56.703125 
Q 61.203125 56.703125 60.296875 58.09375 
Q 59.40625 59.5 59.40625 61.40625 
Q 59.40625 64 61.296875 65.59375 
Q 63.203125 67.203125 66.296875 67.203125 
Q 69.296875 67.203125 71.59375 64.703125 
Q 73.90625 62.203125 73.90625 57.703125 
Q 73.90625 50.90625 67.40625 45.75 
Q 60.90625 40.59375 46.09375 33.703125 
L 48.59375 16.5 
Q 50 6.203125 55.296875 6.203125 
Q 59 6.203125 61 9.5 
L 62.90625 8.09375 
Q 59 0 50.90625 0 
Q 45.90625 0 42.90625 3.703125 
Q 39.90625 7.40625 38.703125 17.09375 
L 37.09375 30 
Q 21.203125 22.09375 15.5 17.6875 
Q 9.796875 13.296875 9.796875 9.296875 
Q 9.796875 7.90625 10.59375 7.90625 
Q 10.796875 7.90625 11.59375 8.34375 
Q 12.40625 8.796875 13.203125 8.796875 
Q 17.203125 8.796875 17.203125 4.59375 
Q 17.203125 2.296875 15.34375 0.5 
Q 13.5 -1.296875 10.09375 -1.296875 
Q 7.5 -1.296875 5.640625 0.75 
Q 3.796875 2.796875 3.796875 6.59375 
Q 3.796875 10.59375 6.046875 14.046875 
Q 8.296875 17.5 12.796875 20.75 
Q 17.296875 24 22.546875 26.890625 
Q 27.796875 29.796875 35.296875 33.59375 
Q 36.203125 34 36.59375 34.203125 
L 34.203125 49.5 
Q 32.5 60 27.796875 60 
Q 24 60 22 56.59375 
L 19.796875 57.59375 
Q 23.90625 66.203125 32.203125 66.203125 
Q 37.296875 66.203125 40.296875 61.84375 
Q 43.296875 57.5 44.40625 47.296875 
z
" id="STIXNonUnicode-Italic-57924"/>
      <path d="M 8.015625 75.875 
L 15.828125 75.875 
Q 23.140625 64.359375 26.78125 53.3125 
Q 30.421875 42.28125 30.421875 31.390625 
Q 30.421875 20.453125 26.78125 9.375 
Q 23.140625 -1.703125 15.828125 -13.1875 
L 8.015625 -13.1875 
Q 14.5 -2 17.703125 9.0625 
Q 20.90625 20.125 20.90625 31.390625 
Q 20.90625 42.671875 17.703125 53.65625 
Q 14.5 64.65625 8.015625 75.875 
z
" id="DejaVuSans-41"/>
     </defs>
     <g style="fill:#262626;" transform="translate(29.425313 98.14)rotate(-90)scale(0.1 -0.1)">
      <use transform="translate(0 0.60625)" xlink:href="#DejaVuSans-Oblique-73"/>
      <use transform="translate(29.492188 -15.8)scale(0.7)" xlink:href="#DejaVuSans-Oblique-82"/>
      <use transform="translate(100.34668 0.60625)" xlink:href="#DejaVuSans-61"/>
      <use transform="translate(203.618164 55.8875)scale(0.7)" xlink:href="#DejaVuSans-Oblique-73"/>
      <use transform="translate(224.262695 55.8875)scale(0.7)" xlink:href="#DejaVuSans-40"/>
      <use transform="translate(251.572266 55.8875)scale(0.7)" xlink:href="#STIXNonUnicode-Italic-57919"/>
      <use transform="translate(296.622183 44.403125)scale(0.49)" xlink:href="#DejaVuSans-Oblique-84"/>
      <use transform="translate(328.467398 55.8875)scale(0.7)" xlink:href="#DejaVuSans-44"/>
      <use transform="translate(364.35607 55.8875)scale(0.7)" xlink:href="#STIXNonUnicode-Italic-57924"/>
      <use transform="translate(413.465979 44.403125)scale(0.49)" xlink:href="#DejaVuSans-Oblique-84"/>
      <use transform="translate(445.311194 55.8875)scale(0.7)" xlink:href="#DejaVuSans-41"/>
      <use transform="translate(316.618164 -37.88125)scale(0.7)" xlink:href="#DejaVuSans-Oblique-84"/>
      <path d="M 203.618164 19.403125 
L 203.618164 25.653125 
L 472.620764 25.653125 
L 472.620764 19.403125 
L 203.618164 19.403125 
z
"/>
     </g>
    </g>
   </g>
   <g id="line2d_23">
    <path clip-path="url(#pb6e9224d1d)" d="M 66.84086 87.765385 
L 67.834532 81.327531 
L 68.828204 48.120878 
L 69.821876 41.095782 
L 70.815549 56.26842 
L 71.809221 49.636415 
L 72.802893 44.0614 
L 73.796565 47.56314 
L 74.790238 47.072551 
L 75.78391 37.645282 
L 76.777582 35.579065 
L 77.771254 38.27223 
L 78.764927 33.195798 
L 79.758599 36.84396 
L 80.752271 30.934787 
L 81.745943 28.873595 
L 82.739616 27.540985 
L 83.733288 27.953126 
L 84.72696 26.428033 
L 85.720632 26.491126 
L 86.714305 20.313423 
L 87.707977 26.367886 
L 88.701649 22.040891 
L 89.695321 27.255208 
L 90.688994 25.411842 
L 91.682666 24.125043 
L 92.676338 24.180622 
L 93.67001 24.678623 
L 94.663682 27.632927 
L 95.657355 21.34915 
L 96.651027 20.732938 
L 97.644699 23.95388 
L 98.638371 24.880157 
L 99.632044 26.196044 
L 100.625716 25.755078 
L 101.619388 25.870522 
L 102.61306 25.496623 
L 103.606733 24.162342 
L 104.600405 23.111632 
L 105.594077 21.303235 
L 106.587749 23.643486 
L 107.581422 22.820562 
L 108.575094 23.524196 
L 109.568766 24.085309 
L 110.562438 24.369639 
L 111.556111 25.14654 
L 112.549783 24.934492 
L 114.537127 22.148984 
L 115.5308 22.912787 
L 116.524472 21.637592 
L 117.518144 21.411825 
L 118.511816 22.688008 
L 119.505489 22.739991 
L 120.499161 23.721048 
L 121.492833 23.55378 
L 122.486505 24.781425 
L 123.480177 23.539864 
L 124.47385 23.43045 
L 125.467522 24.212708 
L 126.461194 24.82458 
L 127.454866 23.88887 
L 128.448539 24.735858 
L 129.442211 24.394081 
L 131.429555 25.466029 
L 132.423228 24.032403 
L 133.4169 24.744043 
L 134.410572 24.380468 
L 135.404244 22.983729 
L 136.397917 23.850022 
L 137.391589 23.363579 
L 138.385261 23.822252 
L 139.378933 24.782798 
L 140.372606 23.941348 
L 142.35995 26.095804 
L 143.353622 25.66562 
L 144.347295 24.92734 
L 145.340967 26.173336 
L 146.334639 25.603918 
L 147.328311 26.730904 
L 148.321983 26.873791 
L 150.309328 26.481172 
L 151.303 26.63668 
L 152.296672 26.642826 
L 153.290345 26.418812 
L 154.284017 27.015776 
L 155.277689 27.262617 
L 156.271361 26.978691 
L 157.265034 27.391578 
L 158.258706 26.315197 
L 160.24605 27.20061 
L 161.239723 28.245705 
L 162.233395 28.039761 
L 163.227067 27.638455 
L 164.220739 28.110006 
L 165.214412 27.097605 
L 166.208084 26.596644 
L 167.201756 28.049263 
L 168.195428 28.046837 
L 169.189101 27.330775 
L 170.182773 28.064201 
L 171.176445 27.419765 
L 172.170117 28.008067 
L 173.16379 29.109741 
L 174.157462 29.17811 
L 175.151134 27.955509 
L 176.144806 28.563842 
L 177.138478 27.793492 
L 178.132151 28.348689 
L 179.125823 27.969214 
L 182.10684 29.151805 
L 183.100512 29.680403 
L 184.094184 29.306658 
L 185.087856 29.219504 
L 186.081529 29.536349 
L 187.075201 29.172651 
L 188.068873 29.910403 
L 189.062545 30.386393 
L 190.056218 29.877896 
L 191.04989 29.973357 
L 192.043562 29.461247 
L 193.037234 29.587204 
L 194.030907 28.986456 
L 195.024579 30.145582 
L 196.018251 29.25083 
L 198.005596 30.11961 
L 198.999268 30.073199 
L 199.99294 30.156853 
L 200.986612 29.448404 
L 201.980284 29.44781 
L 202.973957 29.266936 
L 203.967629 28.654118 
L 204.961301 29.784852 
L 205.954973 29.406592 
L 206.948646 29.60063 
L 207.942318 29.936364 
L 208.93599 29.225208 
L 209.929662 28.953293 
L 210.923335 29.441291 
L 211.917007 30.120405 
L 212.910679 29.839428 
L 213.904351 29.679079 
L 215.891696 29.650227 
L 216.885368 29.682382 
L 217.87904 29.314629 
L 218.872713 29.17038 
L 220.860057 30.076346 
L 221.853729 29.66777 
L 222.847402 29.785048 
L 223.841074 29.087465 
L 225.828418 28.847982 
L 226.822091 28.996002 
L 227.815763 29.010214 
L 228.809435 28.807957 
L 229.803107 29.092352 
L 231.790452 28.628775 
L 233.777796 29.199968 
L 234.771468 29.115872 
L 235.765141 28.908672 
L 236.758813 29.441329 
L 237.752485 28.579225 
L 238.746157 29.133675 
L 240.733502 28.234783 
L 241.727174 28.796963 
L 242.720846 28.983569 
L 244.708191 28.265441 
L 245.701863 28.499743 
L 246.695535 28.941407 
L 247.689208 28.215643 
L 248.68288 27.819594 
L 249.676552 27.724208 
L 253.651241 28.209187 
L 255.638585 28.114525 
L 256.632258 27.510978 
L 257.62593 27.621011 
L 258.619602 27.986291 
L 259.613274 27.798385 
L 260.606947 28.12842 
L 261.600619 27.951329 
L 262.594291 27.387674 
L 263.587963 27.911291 
L 265.575308 27.812295 
L 266.56898 27.145538 
L 267.562652 26.949717 
L 268.556325 26.936378 
L 269.549997 27.152247 
L 270.543669 26.959073 
L 272.531014 27.843966 
L 273.524686 27.499534 
L 274.518358 27.38638 
L 275.51203 27.674263 
L 277.499375 27.544944 
L 278.493047 27.679248 
L 279.486719 27.50971 
L 280.480392 27.143559 
L 281.474064 27.075139 
L 282.467736 26.806084 
L 283.461408 26.958223 
L 284.45508 27.245859 
L 285.448753 26.332293 
L 286.442425 26.883464 
L 287.436097 26.617145 
L 288.429769 26.805117 
L 290.417114 26.480372 
L 291.410786 26.675 
L 292.404458 26.031075 
L 293.398131 26.494425 
L 294.391803 26.330216 
L 295.385475 26.523957 
L 296.379147 26.221017 
L 297.37282 25.766512 
L 299.360164 25.537706 
L 301.347509 25.646078 
L 302.341181 25.517023 
L 303.334853 25.240361 
L 304.328525 25.17292 
L 305.322198 24.96431 
L 307.309542 25.025724 
L 308.303214 25.279991 
L 309.296886 24.957742 
L 310.290559 25.24504 
L 311.284231 25.010932 
L 312.277903 24.436828 
L 313.271575 24.327354 
L 314.265248 24.658598 
L 315.25892 24.34646 
L 318.239937 24.596173 
L 319.233609 24.827509 
L 321.220953 23.771813 
L 322.214626 24.23716 
L 323.208298 24.440882 
L 324.20197 24.503625 
L 325.195642 24.353228 
L 326.189315 24.031504 
L 327.182987 24.028318 
L 328.176659 23.652389 
L 329.170331 23.568455 
L 330.164004 23.325913 
L 331.157676 23.822997 
L 334.138693 23.586605 
L 336.126037 23.690484 
L 337.119709 24.074847 
L 338.113381 23.90693 
L 339.107054 23.331154 
L 340.100726 23.525099 
L 341.094398 23.236794 
L 342.08807 23.567886 
L 343.081743 23.447028 
L 344.075415 23.577919 
L 345.069087 23.865322 
L 349.043776 23.354771 
L 351.031121 23.494894 
L 352.024793 23.660143 
L 353.018465 23.615224 
L 354.012137 23.873097 
L 355.00581 23.62573 
L 356.993154 23.776061 
L 357.986826 23.410265 
L 359.974171 23.696286 
L 361.961515 23.183861 
L 362.955188 23.188824 
L 362.955188 23.188824 
" style="fill:none;stroke:#fcce25;stroke-linecap:round;"/>
   </g>
   <g id="line2d_24">
    <path clip-path="url(#pb6e9224d1d)" d="M 66.84086 99.18861 
L 67.834532 53.382553 
L 68.828204 52.39737 
L 69.821876 44.047417 
L 70.815549 45.824466 
L 71.809221 55.922675 
L 72.802893 60.228683 
L 73.796565 60.680896 
L 74.790238 57.004631 
L 75.78391 52.790648 
L 76.777582 42.183037 
L 77.771254 49.866831 
L 78.764927 48.829713 
L 79.758599 45.621585 
L 80.752271 47.780501 
L 81.745943 45.421522 
L 82.739616 45.463983 
L 83.733288 48.749113 
L 84.72696 44.602332 
L 85.720632 45.816575 
L 86.714305 43.483965 
L 87.707977 47.075245 
L 89.695321 45.32252 
L 91.682666 46.000244 
L 92.676338 48.191993 
L 93.67001 49.273785 
L 94.663682 48.041916 
L 95.657355 53.63279 
L 96.651027 50.223874 
L 97.644699 48.807257 
L 98.638371 48.106118 
L 99.632044 49.206493 
L 100.625716 48.824411 
L 101.619388 44.856924 
L 102.61306 46.880189 
L 103.606733 47.486444 
L 104.600405 47.046788 
L 105.594077 45.12459 
L 106.587749 45.880785 
L 107.581422 47.44437 
L 108.575094 47.042282 
L 109.568766 43.732651 
L 110.562438 42.849948 
L 111.556111 43.321022 
L 112.549783 46.540286 
L 113.543455 47.577491 
L 114.537127 46.117194 
L 115.5308 47.181393 
L 116.524472 44.959361 
L 117.518144 44.730447 
L 118.511816 46.001861 
L 119.505489 46.139188 
L 120.499161 46.41266 
L 121.492833 46.189056 
L 122.486505 44.239403 
L 123.480177 45.194219 
L 124.47385 45.460639 
L 125.467522 43.301799 
L 126.461194 43.495684 
L 127.454866 43.213388 
L 128.448539 42.653802 
L 129.442211 42.432963 
L 130.435883 43.09648 
L 131.429555 41.385088 
L 132.423228 41.742041 
L 133.4169 40.855673 
L 134.410572 42.764191 
L 135.404244 43.002581 
L 136.397917 43.52251 
L 137.391589 43.131206 
L 138.385261 41.78212 
L 139.378933 43.040199 
L 140.372606 42.36279 
L 141.366278 42.703163 
L 142.35995 42.115679 
L 143.353622 42.075922 
L 144.347295 42.164196 
L 145.340967 42.637923 
L 146.334639 42.782531 
L 147.328311 43.216576 
L 148.321983 43.436747 
L 149.315656 44.055905 
L 151.303 44.732545 
L 152.296672 44.842299 
L 153.290345 44.753867 
L 154.284017 44.394927 
L 155.277689 44.903644 
L 156.271361 43.825152 
L 157.265034 44.754118 
L 159.252378 44.450741 
L 160.24605 43.558564 
L 161.239723 44.224198 
L 162.233395 44.468187 
L 163.227067 43.679828 
L 164.220739 44.289421 
L 165.214412 43.81014 
L 166.208084 42.933543 
L 168.195428 43.594206 
L 169.189101 43.023881 
L 170.182773 43.499143 
L 171.176445 43.450938 
L 173.16379 44.36182 
L 174.157462 44.049949 
L 175.151134 43.45217 
L 176.144806 42.715157 
L 177.138478 43.355789 
L 178.132151 42.842615 
L 179.125823 42.625344 
L 180.119495 41.849051 
L 181.113167 41.711422 
L 182.10684 42.409082 
L 183.100512 42.317938 
L 184.094184 41.206516 
L 185.087856 41.24226 
L 186.081529 41.115248 
L 187.075201 42.253215 
L 188.068873 42.610759 
L 189.062545 43.169494 
L 190.056218 42.690478 
L 191.04989 41.711646 
L 193.037234 41.637025 
L 194.030907 41.789386 
L 195.024579 41.351573 
L 196.018251 41.334157 
L 197.011923 40.864329 
L 198.005596 41.718059 
L 198.999268 41.211409 
L 199.99294 42.141346 
L 200.986612 41.823424 
L 201.980284 42.438184 
L 202.973957 42.492129 
L 203.967629 41.400575 
L 204.961301 41.080712 
L 205.954973 41.334167 
L 206.948646 41.878447 
L 207.942318 40.964651 
L 209.929662 41.565679 
L 210.923335 41.415957 
L 211.917007 41.514047 
L 212.910679 41.137625 
L 214.898024 41.391971 
L 215.891696 40.510256 
L 216.885368 40.563109 
L 217.87904 40.310193 
L 218.872713 40.910677 
L 219.866385 40.999166 
L 220.860057 40.937116 
L 223.841074 40.249216 
L 224.834746 39.59005 
L 225.828418 39.611691 
L 226.822091 40.240254 
L 227.815763 39.839354 
L 228.809435 39.696585 
L 229.803107 40.471256 
L 231.790452 39.755716 
L 232.784124 40.384477 
L 233.777796 40.415173 
L 234.771468 39.610353 
L 235.765141 39.875017 
L 236.758813 39.725121 
L 237.752485 39.908996 
L 238.746157 39.401677 
L 239.73983 39.286681 
L 240.733502 38.802623 
L 242.720846 39.704722 
L 243.714519 39.29924 
L 244.708191 40.070276 
L 246.695535 39.457158 
L 247.689208 39.922342 
L 249.676552 40.005868 
L 252.657569 39.172085 
L 254.644913 39.373103 
L 255.638585 38.794935 
L 256.632258 38.517435 
L 257.62593 38.80917 
L 258.619602 38.605132 
L 259.613274 38.650121 
L 260.606947 39.377624 
L 261.600619 39.267897 
L 262.594291 38.798443 
L 263.587963 39.133152 
L 264.581636 38.924035 
L 265.575308 39.079797 
L 266.56898 38.8924 
L 267.562652 39.094959 
L 268.556325 39.069423 
L 269.549997 38.710493 
L 270.543669 39.077274 
L 272.531014 39.488162 
L 274.518358 38.576222 
L 275.51203 38.422759 
L 276.505703 38.783163 
L 278.493047 38.541036 
L 279.486719 38.751183 
L 280.480392 39.096022 
L 281.474064 38.630145 
L 282.467736 38.29218 
L 283.461408 38.273256 
L 285.448753 38.55268 
L 286.442425 38.361034 
L 287.436097 38.746516 
L 288.429769 38.787665 
L 290.417114 38.17107 
L 291.410786 38.285112 
L 292.404458 38.175442 
L 293.398131 37.814663 
L 294.391803 37.703997 
L 295.385475 37.760936 
L 296.379147 38.438971 
L 297.37282 38.124914 
L 298.366492 37.67943 
L 300.353836 38.582545 
L 301.347509 37.455024 
L 302.341181 37.820008 
L 303.334853 37.45337 
L 304.328525 37.552499 
L 306.31587 37.394883 
L 307.309542 37.865057 
L 308.303214 37.542016 
L 309.296886 37.562406 
L 310.290559 37.096226 
L 311.284231 37.285773 
L 312.277903 37.676959 
L 313.271575 37.472776 
L 314.265248 37.089876 
L 315.25892 37.05527 
L 316.252592 37.559448 
L 317.246264 37.292279 
L 319.233609 37.644463 
L 320.227281 37.185459 
L 322.214626 37.112183 
L 324.20197 37.312255 
L 325.195642 37.245159 
L 326.189315 36.852439 
L 328.176659 37.201456 
L 329.170331 37.279359 
L 330.164004 36.96989 
L 331.157676 36.788633 
L 332.151348 36.98123 
L 333.14502 36.695907 
L 334.138693 36.913078 
L 335.132365 37.274261 
L 337.119709 36.713852 
L 339.107054 36.817486 
L 340.100726 36.414392 
L 342.08807 36.099191 
L 343.081743 36.211553 
L 344.075415 35.896401 
L 345.069087 35.72211 
L 346.062759 35.927745 
L 348.050104 35.882995 
L 350.037448 35.299236 
L 351.031121 35.387483 
L 352.024793 35.305279 
L 353.018465 35.53856 
L 354.012137 35.31178 
L 355.00581 35.3046 
L 355.999482 35.456867 
L 356.993154 35.369193 
L 357.986826 35.107979 
L 358.980499 35.00033 
L 359.974171 35.216255 
L 360.967843 34.978238 
L 361.961515 35.489824 
L 362.955188 35.233354 
L 362.955188 35.233354 
" style="fill:none;stroke:#f89540;stroke-linecap:round;"/>
   </g>
   <g id="line2d_25">
    <path clip-path="url(#pb6e9224d1d)" d="M 66.84086 44.522207 
L 67.834532 80.278369 
L 68.828204 53.649907 
L 69.821876 96.670498 
L 70.815549 49.155126 
L 71.809221 62.689609 
L 72.802893 68.508162 
L 73.796565 56.812596 
L 74.790238 60.889301 
L 75.78391 52.936738 
L 76.777582 50.528282 
L 77.771254 56.315429 
L 78.764927 56.743351 
L 79.758599 58.092862 
L 80.752271 49.926597 
L 81.745943 54.83298 
L 82.739616 58.157115 
L 83.733288 53.281602 
L 84.72696 53.087265 
L 85.720632 51.042756 
L 86.714305 52.386983 
L 87.707977 49.120021 
L 88.701649 52.050315 
L 89.695321 53.889729 
L 90.688994 52.776391 
L 91.682666 50.023251 
L 92.676338 48.972389 
L 94.663682 45.632947 
L 95.657355 48.454214 
L 96.651027 47.683329 
L 97.644699 49.245037 
L 98.638371 46.899441 
L 99.632044 47.6496 
L 100.625716 46.36572 
L 101.619388 47.117921 
L 102.61306 47.276586 
L 103.606733 46.424994 
L 104.600405 47.143194 
L 105.594077 48.138356 
L 106.587749 45.803418 
L 107.581422 47.327442 
L 108.575094 43.936439 
L 109.568766 45.883232 
L 110.562438 46.785209 
L 111.556111 47.123553 
L 112.549783 46.268084 
L 113.543455 44.729298 
L 114.537127 43.991247 
L 115.5308 42.917723 
L 116.524472 42.990138 
L 117.518144 43.679643 
L 118.511816 42.747867 
L 121.492833 40.986622 
L 122.486505 42.302686 
L 123.480177 41.334724 
L 124.47385 41.39997 
L 125.467522 42.523363 
L 126.461194 40.686924 
L 127.454866 40.658628 
L 128.448539 41.568353 
L 129.442211 41.054817 
L 130.435883 42.542184 
L 131.429555 41.418864 
L 132.423228 40.843267 
L 133.4169 41.721011 
L 134.410572 41.273383 
L 135.404244 41.397951 
L 136.397917 42.090471 
L 137.391589 40.774539 
L 138.385261 40.091217 
L 139.378933 40.284152 
L 140.372606 40.948843 
L 141.366278 40.461992 
L 142.35995 40.457064 
L 144.347295 40.148037 
L 145.340967 40.987974 
L 146.334639 41.327315 
L 147.328311 43.744378 
L 148.321983 42.889407 
L 149.315656 42.297156 
L 150.309328 43.188101 
L 152.296672 42.426997 
L 153.290345 42.82029 
L 154.284017 42.797226 
L 155.277689 43.148541 
L 156.271361 41.966649 
L 157.265034 42.423806 
L 158.258706 42.548868 
L 159.252378 42.900413 
L 160.24605 44.185577 
L 161.239723 43.094773 
L 162.233395 42.354562 
L 163.227067 43.935007 
L 164.220739 44.183863 
L 165.214412 43.459506 
L 166.208084 42.929793 
L 167.201756 43.894956 
L 168.195428 43.323465 
L 170.182773 42.62874 
L 171.176445 43.839585 
L 172.170117 44.467054 
L 173.16379 44.58523 
L 174.157462 44.072654 
L 175.151134 43.838376 
L 176.144806 44.432979 
L 177.138478 44.305582 
L 178.132151 44.364482 
L 179.125823 43.664844 
L 180.119495 43.73496 
L 181.113167 43.514404 
L 182.10684 43.101484 
L 184.094184 42.713757 
L 185.087856 43.840873 
L 186.081529 44.499625 
L 187.075201 44.692635 
L 188.068873 44.523786 
L 189.062545 43.683448 
L 190.056218 44.209629 
L 192.043562 43.698541 
L 193.037234 44.153437 
L 194.030907 44.378192 
L 195.024579 44.776518 
L 196.018251 44.15446 
L 197.011923 44.994554 
L 198.005596 45.306497 
L 198.999268 44.961182 
L 199.99294 44.214806 
L 200.986612 44.342639 
L 201.980284 44.255903 
L 202.973957 43.770159 
L 203.967629 43.574012 
L 205.954973 43.71514 
L 206.948646 42.918067 
L 207.942318 42.512566 
L 208.93599 42.823883 
L 210.923335 43.136384 
L 211.917007 44.070532 
L 212.910679 44.065264 
L 213.904351 43.16042 
L 214.898024 43.520684 
L 216.885368 43.174572 
L 217.87904 43.587472 
L 218.872713 43.486079 
L 219.866385 42.705006 
L 220.860057 43.254824 
L 223.841074 42.901953 
L 224.834746 43.432361 
L 225.828418 43.272493 
L 226.822091 43.648987 
L 227.815763 43.621222 
L 228.809435 42.560309 
L 229.803107 43.121526 
L 230.796779 43.012436 
L 231.790452 43.170612 
L 232.784124 42.996322 
L 234.771468 43.192945 
L 235.765141 42.818758 
L 236.758813 42.78745 
L 237.752485 42.977882 
L 238.746157 43.578559 
L 239.73983 42.978594 
L 240.733502 42.595395 
L 241.727174 42.689781 
L 242.720846 42.612135 
L 243.714519 42.833433 
L 244.708191 42.898265 
L 245.701863 42.561698 
L 246.695535 42.388185 
L 247.689208 42.836894 
L 248.68288 42.470586 
L 249.676552 42.954699 
L 250.670224 42.728922 
L 251.663897 42.973503 
L 252.657569 42.82247 
L 253.651241 42.934104 
L 255.638585 42.489649 
L 256.632258 43.178664 
L 257.62593 42.672849 
L 258.619602 42.562623 
L 259.613274 42.847415 
L 260.606947 42.886509 
L 261.600619 43.099378 
L 262.594291 42.838641 
L 263.587963 43.052119 
L 264.581636 42.958056 
L 265.575308 43.092111 
L 266.56898 42.997597 
L 267.562652 42.210251 
L 268.556325 42.442039 
L 269.549997 42.983709 
L 270.543669 43.219956 
L 271.537341 43.253758 
L 272.531014 42.844312 
L 274.518358 43.116723 
L 275.51203 43.456328 
L 276.505703 42.675487 
L 277.499375 43.054776 
L 278.493047 42.989611 
L 279.486719 43.053199 
L 280.480392 42.987944 
L 281.474064 43.136876 
L 282.467736 42.650304 
L 283.461408 42.91969 
L 284.45508 43.050777 
L 285.448753 43.422615 
L 287.436097 43.465487 
L 288.429769 43.003008 
L 289.423442 43.564896 
L 290.417114 43.03452 
L 291.410786 43.364806 
L 292.404458 43.139525 
L 293.398131 43.455414 
L 294.391803 42.859927 
L 295.385475 43.196996 
L 296.379147 42.954722 
L 297.37282 42.83572 
L 299.360164 43.823981 
L 300.353836 43.566934 
L 303.334853 43.567886 
L 304.328525 44.364853 
L 305.322198 43.736831 
L 306.31587 43.797118 
L 307.309542 42.943018 
L 308.303214 43.342107 
L 309.296886 42.958253 
L 310.290559 43.095941 
L 311.284231 43.511935 
L 312.277903 42.983987 
L 313.271575 42.860259 
L 314.265248 43.089422 
L 315.25892 42.849946 
L 316.252592 43.326773 
L 317.246264 42.972895 
L 318.239937 43.070349 
L 320.227281 42.921069 
L 321.220953 42.973617 
L 322.214626 43.176085 
L 323.208298 43.059625 
L 324.20197 43.464751 
L 325.195642 43.083225 
L 326.189315 43.031396 
L 327.182987 43.263487 
L 328.176659 43.813062 
L 329.170331 43.39175 
L 330.164004 43.179863 
L 331.157676 43.439343 
L 332.151348 43.535276 
L 333.14502 43.419561 
L 334.138693 43.637783 
L 336.126037 43.26261 
L 337.119709 43.154847 
L 338.113381 43.421124 
L 339.107054 43.454231 
L 340.100726 43.350844 
L 341.094398 43.505536 
L 342.08807 43.525483 
L 343.081743 43.759022 
L 344.075415 43.677249 
L 345.069087 43.987936 
L 348.050104 44.032713 
L 349.043776 44.501318 
L 350.037448 43.992223 
L 355.00581 43.908639 
L 356.993154 43.918367 
L 357.986826 43.601258 
L 358.980499 43.682452 
L 359.974171 43.340159 
L 360.967843 43.493472 
L 361.961515 43.51061 
L 362.955188 43.141893 
L 362.955188 43.141893 
" style="fill:none;stroke:#e16462;stroke-linecap:round;"/>
   </g>
   <g id="line2d_26">
    <path clip-path="url(#pb6e9224d1d)" d="M 66.84086 124.615647 
L 67.834532 110.219818 
L 68.828204 74.463039 
L 69.821876 77.939982 
L 70.815549 80.349137 
L 71.809221 79.617335 
L 72.802893 67.600787 
L 73.796565 60.380403 
L 74.790238 54.677325 
L 75.78391 66.706991 
L 76.777582 61.847892 
L 77.771254 63.301236 
L 78.764927 62.100733 
L 79.758599 58.174262 
L 80.752271 58.945625 
L 81.745943 55.184931 
L 82.739616 56.445763 
L 83.733288 57.959278 
L 84.72696 58.280201 
L 85.720632 61.037536 
L 86.714305 60.365031 
L 87.707977 58.184849 
L 88.701649 56.62395 
L 89.695321 55.729545 
L 90.688994 55.744662 
L 91.682666 53.595003 
L 92.676338 52.286711 
L 93.67001 48.82899 
L 94.663682 51.930248 
L 95.657355 49.23622 
L 96.651027 50.141096 
L 97.644699 51.247002 
L 98.638371 49.332565 
L 99.632044 48.97093 
L 100.625716 48.990751 
L 101.619388 47.233407 
L 102.61306 48.73036 
L 103.606733 49.845605 
L 104.600405 48.124035 
L 105.594077 49.025996 
L 106.587749 47.786362 
L 107.581422 50.143175 
L 108.575094 49.79965 
L 109.568766 48.515972 
L 110.562438 49.321626 
L 111.556111 49.19891 
L 112.549783 48.778199 
L 113.543455 50.896027 
L 114.537127 51.759081 
L 115.5308 50.878576 
L 116.524472 51.865199 
L 117.518144 50.665669 
L 118.511816 50.961005 
L 119.505489 51.717388 
L 120.499161 50.023448 
L 121.492833 50.85532 
L 122.486505 51.53152 
L 123.480177 50.509922 
L 124.47385 49.809123 
L 125.467522 50.585521 
L 126.461194 50.506299 
L 127.454866 49.571271 
L 128.448539 50.344687 
L 129.442211 50.770763 
L 130.435883 50.65711 
L 131.429555 50.673552 
L 132.423228 49.414886 
L 133.4169 49.267175 
L 135.404244 50.090561 
L 137.391589 50.971145 
L 138.385261 50.466114 
L 139.378933 50.216843 
L 140.372606 51.031209 
L 141.366278 49.322373 
L 142.35995 49.685236 
L 143.353622 50.402897 
L 144.347295 50.618045 
L 145.340967 50.347823 
L 146.334639 50.860692 
L 147.328311 51.049022 
L 148.321983 49.779468 
L 149.315656 50.659195 
L 150.309328 50.123872 
L 151.303 51.503665 
L 152.296672 51.487902 
L 153.290345 50.516842 
L 154.284017 49.903623 
L 155.277689 50.224202 
L 156.271361 51.532739 
L 157.265034 52.535664 
L 158.258706 51.960206 
L 159.252378 52.264135 
L 160.24605 52.10384 
L 161.239723 53.254999 
L 162.233395 53.071644 
L 163.227067 51.763942 
L 165.214412 53.320982 
L 166.208084 52.854602 
L 167.201756 52.842508 
L 168.195428 53.405966 
L 169.189101 52.990767 
L 170.182773 52.201571 
L 171.176445 52.441291 
L 172.170117 52.941008 
L 173.16379 51.828159 
L 174.157462 51.689666 
L 175.151134 52.111 
L 177.138478 51.531742 
L 178.132151 51.638825 
L 179.125823 52.401528 
L 180.119495 52.314034 
L 181.113167 51.976157 
L 183.100512 51.733274 
L 184.094184 51.55186 
L 185.087856 51.800048 
L 187.075201 51.92935 
L 188.068873 51.550282 
L 189.062545 52.305214 
L 190.056218 51.718049 
L 191.04989 52.258749 
L 192.043562 52.580696 
L 193.037234 52.344297 
L 194.030907 52.237765 
L 195.024579 52.583489 
L 196.018251 52.674276 
L 197.011923 52.17773 
L 198.999268 52.274496 
L 200.986612 52.72111 
L 201.980284 52.676475 
L 202.973957 52.836899 
L 203.967629 52.554687 
L 204.961301 52.73512 
L 205.954973 53.531335 
L 206.948646 53.344199 
L 207.942318 52.898383 
L 208.93599 53.151558 
L 209.929662 52.755434 
L 210.923335 52.114035 
L 211.917007 52.617545 
L 212.910679 52.4849 
L 213.904351 52.975184 
L 214.898024 52.195724 
L 215.891696 52.106225 
L 218.872713 51.468761 
L 219.866385 51.730855 
L 220.860057 52.358792 
L 222.847402 52.108445 
L 223.841074 51.657197 
L 224.834746 51.037805 
L 225.828418 51.521082 
L 226.822091 51.863255 
L 227.815763 51.534858 
L 229.803107 51.219782 
L 230.796779 50.412165 
L 231.790452 50.674959 
L 232.784124 51.203406 
L 233.777796 51.262904 
L 234.771468 51.745594 
L 236.758813 51.721443 
L 237.752485 51.475701 
L 238.746157 51.536224 
L 239.73983 51.9261 
L 242.720846 51.051935 
L 244.708191 50.904911 
L 245.701863 50.818059 
L 246.695535 51.414342 
L 247.689208 51.473684 
L 248.68288 51.318858 
L 249.676552 50.568426 
L 250.670224 50.729722 
L 251.663897 50.624522 
L 252.657569 51.141501 
L 253.651241 50.506766 
L 254.644913 50.669385 
L 255.638585 51.165095 
L 256.632258 50.772669 
L 257.62593 50.763648 
L 258.619602 50.290338 
L 259.613274 50.674487 
L 260.606947 50.416073 
L 262.594291 50.261414 
L 263.587963 49.941143 
L 264.581636 49.863074 
L 265.575308 50.191624 
L 267.562652 50.343188 
L 268.556325 50.879133 
L 269.549997 50.740043 
L 272.531014 50.666694 
L 273.524686 50.193758 
L 274.518358 50.061041 
L 275.51203 49.741497 
L 276.505703 49.823592 
L 277.499375 50.142187 
L 279.486719 49.678917 
L 280.480392 49.990463 
L 281.474064 49.374526 
L 283.461408 49.658217 
L 284.45508 50.126111 
L 285.448753 49.56285 
L 286.442425 49.291424 
L 287.436097 49.436421 
L 288.429769 49.352648 
L 289.423442 49.652743 
L 290.417114 49.273355 
L 291.410786 49.89298 
L 292.404458 49.639792 
L 293.398131 49.820147 
L 294.391803 49.608176 
L 296.379147 49.539471 
L 297.37282 49.803289 
L 298.366492 49.869366 
L 300.353836 50.267202 
L 302.341181 49.874063 
L 303.334853 49.887989 
L 304.328525 50.190941 
L 305.322198 50.007766 
L 306.31587 50.410905 
L 307.309542 50.118933 
L 309.296886 49.962934 
L 310.290559 50.153484 
L 312.277903 49.858572 
L 314.265248 50.202048 
L 317.246264 50.388282 
L 318.239937 50.580976 
L 319.233609 50.405122 
L 320.227281 50.027438 
L 322.214626 50.497685 
L 323.208298 50.044223 
L 324.20197 50.536643 
L 327.182987 50.060555 
L 328.176659 49.867663 
L 331.157676 49.737506 
L 333.14502 50.124601 
L 334.138693 49.813198 
L 335.132365 50.192341 
L 337.119709 49.724692 
L 338.113381 50.037132 
L 339.107054 49.89519 
L 340.100726 49.925895 
L 341.094398 49.63511 
L 342.08807 49.684444 
L 343.081743 49.560414 
L 347.056432 49.639378 
L 348.050104 49.490786 
L 349.043776 49.490463 
L 350.037448 48.975324 
L 351.031121 49.32704 
L 352.024793 49.360004 
L 353.018465 49.25859 
L 354.012137 49.367148 
L 355.00581 49.603552 
L 355.999482 49.70332 
L 357.986826 49.361586 
L 358.980499 49.542868 
L 359.974171 49.452728 
L 360.967843 49.604427 
L 361.961515 49.427121 
L 362.955188 49.703516 
L 362.955188 49.703516 
" style="fill:none;stroke:#bf3984;stroke-linecap:round;"/>
   </g>
   <g id="line2d_27">
    <path clip-path="url(#pb6e9224d1d)" d="M 66.84086 75.564712 
L 67.834532 91.168967 
L 68.828204 64.637678 
L 69.821876 51.452633 
L 70.815549 51.753928 
L 71.809221 52.625323 
L 72.802893 48.292597 
L 73.796565 61.135405 
L 74.790238 54.43974 
L 75.78391 57.864734 
L 76.777582 50.228651 
L 77.771254 48.027846 
L 78.764927 55.202928 
L 79.758599 58.685823 
L 80.752271 58.078112 
L 81.745943 54.748976 
L 82.739616 49.623682 
L 83.733288 51.103873 
L 84.72696 52.922522 
L 85.720632 50.197443 
L 86.714305 46.305332 
L 87.707977 46.50842 
L 88.701649 47.26998 
L 89.695321 50.507263 
L 90.688994 51.611224 
L 91.682666 51.762011 
L 92.676338 53.021854 
L 93.67001 51.755375 
L 94.663682 47.432754 
L 95.657355 51.634406 
L 96.651027 49.513609 
L 97.644699 47.90612 
L 98.638371 46.688126 
L 99.632044 49.271079 
L 100.625716 50.150944 
L 101.619388 50.484896 
L 102.61306 53.558303 
L 103.606733 51.81704 
L 104.600405 51.936772 
L 106.587749 53.013044 
L 107.581422 51.089052 
L 108.575094 51.669882 
L 109.568766 50.071167 
L 110.562438 49.394345 
L 112.549783 48.531667 
L 113.543455 50.005649 
L 114.537127 48.180986 
L 115.5308 47.816476 
L 116.524472 49.006459 
L 117.518144 49.692189 
L 118.511816 48.778401 
L 119.505489 49.493888 
L 120.499161 49.761156 
L 122.486505 46.878759 
L 123.480177 47.937644 
L 124.47385 47.369159 
L 125.467522 48.540868 
L 126.461194 48.931295 
L 127.454866 48.800142 
L 128.448539 49.18431 
L 129.442211 49.744158 
L 130.435883 49.102657 
L 131.429555 49.000433 
L 132.423228 49.499229 
L 133.4169 48.266484 
L 134.410572 48.146328 
L 135.404244 49.709602 
L 136.397917 48.455695 
L 137.391589 48.756422 
L 139.378933 48.983306 
L 140.372606 48.396336 
L 141.366278 48.405996 
L 142.35995 49.270201 
L 143.353622 48.252258 
L 144.347295 48.818247 
L 145.340967 47.944876 
L 146.334639 48.546663 
L 147.328311 47.709225 
L 148.321983 48.83463 
L 149.315656 48.789807 
L 150.309328 47.879561 
L 151.303 49.020032 
L 152.296672 48.251938 
L 153.290345 49.420781 
L 154.284017 48.739372 
L 155.277689 48.82382 
L 156.271361 47.982124 
L 157.265034 48.660498 
L 158.258706 48.10753 
L 160.24605 48.184128 
L 161.239723 48.880991 
L 162.233395 49.416269 
L 163.227067 47.850908 
L 164.220739 48.731301 
L 165.214412 48.5705 
L 166.208084 47.311477 
L 167.201756 47.147204 
L 168.195428 48.090981 
L 169.189101 47.155611 
L 171.176445 48.084953 
L 172.170117 48.934697 
L 173.16379 48.15627 
L 174.157462 48.235774 
L 175.151134 48.515576 
L 177.138478 48.424535 
L 178.132151 48.659609 
L 179.125823 48.440675 
L 180.119495 48.559641 
L 181.113167 48.805051 
L 182.10684 48.060247 
L 183.100512 47.834314 
L 185.087856 48.496572 
L 186.081529 47.774226 
L 187.075201 47.906325 
L 188.068873 47.494293 
L 189.062545 47.883083 
L 190.056218 48.093365 
L 191.04989 47.618912 
L 192.043562 48.132202 
L 193.037234 47.824222 
L 194.030907 48.190178 
L 195.024579 48.20024 
L 196.018251 47.215869 
L 197.011923 47.819532 
L 198.005596 47.41213 
L 198.999268 48.490158 
L 201.980284 47.822321 
L 202.973957 48.316382 
L 204.961301 48.431763 
L 205.954973 48.885884 
L 207.942318 48.96263 
L 208.93599 49.231254 
L 209.929662 48.698778 
L 210.923335 49.137685 
L 211.917007 49.21975 
L 212.910679 48.963672 
L 214.898024 49.223641 
L 215.891696 48.72672 
L 216.885368 49.200322 
L 217.87904 49.067154 
L 218.872713 49.460175 
L 219.866385 49.048827 
L 221.853729 49.183213 
L 222.847402 49.488637 
L 223.841074 49.249839 
L 225.828418 49.331189 
L 226.822091 49.06388 
L 227.815763 49.130968 
L 228.809435 48.537319 
L 229.803107 49.254436 
L 230.796779 49.252029 
L 231.790452 48.721939 
L 233.777796 49.287776 
L 234.771468 48.698169 
L 235.765141 48.53921 
L 236.758813 48.622689 
L 237.752485 48.340399 
L 238.746157 48.236858 
L 239.73983 47.665988 
L 240.733502 47.585618 
L 241.727174 47.813869 
L 243.714519 47.692145 
L 244.708191 47.916552 
L 245.701863 48.346577 
L 246.695535 48.342358 
L 247.689208 48.602905 
L 248.68288 49.056201 
L 249.676552 48.683061 
L 250.670224 48.90316 
L 251.663897 48.821109 
L 253.651241 48.961254 
L 254.644913 48.975221 
L 255.638585 49.324929 
L 257.62593 49.40894 
L 258.619602 49.145085 
L 259.613274 49.410291 
L 260.606947 49.225959 
L 261.600619 49.389779 
L 262.594291 49.310359 
L 263.587963 49.581051 
L 264.581636 49.041809 
L 265.575308 49.008241 
L 266.56898 49.516321 
L 267.562652 49.622016 
L 268.556325 49.839965 
L 269.549997 50.290615 
L 270.543669 49.800111 
L 271.537341 49.508424 
L 272.531014 49.859866 
L 275.51203 49.638676 
L 276.505703 49.885924 
L 277.499375 50.008121 
L 278.493047 49.769872 
L 279.486719 49.71445 
L 280.480392 49.431843 
L 281.474064 49.633648 
L 283.461408 49.710638 
L 284.45508 49.621467 
L 285.448753 50.127877 
L 286.442425 50.348333 
L 287.436097 49.596976 
L 288.429769 49.931982 
L 290.417114 49.572482 
L 291.410786 49.37266 
L 293.398131 49.519361 
L 294.391803 49.689099 
L 295.385475 49.189283 
L 296.379147 49.434562 
L 297.37282 49.432078 
L 298.366492 49.088363 
L 299.360164 49.276791 
L 300.353836 49.816553 
L 301.347509 49.562307 
L 302.341181 49.78728 
L 304.328525 49.113005 
L 305.322198 49.663977 
L 307.309542 49.451202 
L 308.303214 49.605859 
L 310.290559 49.574295 
L 311.284231 49.485431 
L 312.277903 49.605555 
L 313.271575 49.483381 
L 314.265248 49.490556 
L 315.25892 49.899196 
L 316.252592 49.662982 
L 317.246264 49.786954 
L 318.239937 49.795443 
L 319.233609 50.04822 
L 322.214626 49.330291 
L 323.208298 49.271951 
L 324.20197 49.429361 
L 325.195642 49.785373 
L 326.189315 49.776332 
L 327.182987 49.980812 
L 328.176659 49.943551 
L 329.170331 50.19449 
L 330.164004 49.806275 
L 331.157676 49.583305 
L 332.151348 49.903453 
L 333.14502 49.830982 
L 334.138693 49.930439 
L 337.119709 49.002763 
L 338.113381 49.450356 
L 339.107054 49.51879 
L 340.100726 49.251927 
L 341.094398 49.390735 
L 343.081743 49.421202 
L 344.075415 49.447985 
L 345.069087 49.709872 
L 346.062759 49.715941 
L 347.056432 49.203402 
L 348.050104 49.470491 
L 349.043776 49.249042 
L 350.037448 49.50699 
L 351.031121 49.15378 
L 353.018465 49.188832 
L 354.012137 49.084074 
L 355.00581 48.718472 
L 355.999482 48.958762 
L 356.993154 48.577299 
L 358.980499 48.326509 
L 360.967843 48.761602 
L 361.961515 48.74031 
L 362.955188 48.299422 
L 362.955188 48.299422 
" style="fill:none;stroke:#8f0da4;stroke-linecap:round;"/>
   </g>
   <g id="line2d_28">
    <path clip-path="url(#pb6e9224d1d)" d="M 66.84086 119.232385 
L 67.834532 79.21886 
L 68.828204 85.156036 
L 69.821876 64.296404 
L 71.809221 59.799616 
L 72.802893 44.679021 
L 73.796565 46.163987 
L 74.790238 40.015323 
L 75.78391 48.461537 
L 76.777582 40.4815 
L 77.771254 42.235246 
L 78.764927 38.934386 
L 79.758599 39.763572 
L 80.752271 39.509333 
L 81.745943 34.897942 
L 82.739616 37.266801 
L 83.733288 33.872777 
L 84.72696 33.452557 
L 85.720632 36.287602 
L 86.714305 38.596492 
L 87.707977 34.495851 
L 88.701649 39.229793 
L 89.695321 34.745201 
L 90.688994 35.101258 
L 91.682666 37.795324 
L 92.676338 38.134706 
L 93.67001 38.890035 
L 94.663682 36.547653 
L 96.651027 40.355941 
L 97.644699 38.215373 
L 98.638371 39.995991 
L 99.632044 39.825327 
L 100.625716 41.245034 
L 101.619388 42.94801 
L 102.61306 41.14759 
L 103.606733 42.397575 
L 104.600405 41.182568 
L 105.594077 39.534621 
L 106.587749 38.382854 
L 108.575094 39.156767 
L 109.568766 39.230685 
L 110.562438 40.318654 
L 111.556111 42.433657 
L 112.549783 39.96458 
L 113.543455 40.029876 
L 114.537127 42.516627 
L 115.5308 41.971883 
L 116.524472 41.162554 
L 117.518144 42.646469 
L 118.511816 42.653727 
L 119.505489 43.965825 
L 120.499161 44.349656 
L 121.492833 44.487693 
L 122.486505 45.537979 
L 123.480177 46.796032 
L 124.47385 45.894511 
L 125.467522 46.108951 
L 126.461194 45.477904 
L 127.454866 45.692367 
L 128.448539 47.274238 
L 129.442211 45.413913 
L 130.435883 45.058457 
L 131.429555 45.470909 
L 132.423228 46.964106 
L 133.4169 45.600635 
L 134.410572 45.940583 
L 136.397917 45.992475 
L 137.391589 45.815474 
L 138.385261 45.375944 
L 139.378933 45.835297 
L 140.372606 46.61607 
L 141.366278 45.85476 
L 142.35995 45.353372 
L 143.353622 45.442305 
L 144.347295 45.917689 
L 145.340967 46.831955 
L 146.334639 45.399874 
L 147.328311 46.332026 
L 148.321983 46.235817 
L 149.315656 46.819212 
L 150.309328 46.776013 
L 151.303 45.848926 
L 153.290345 46.545584 
L 154.284017 46.743982 
L 155.277689 46.394062 
L 156.271361 46.980126 
L 157.265034 46.391588 
L 160.24605 46.352006 
L 161.239723 47.781774 
L 162.233395 47.350484 
L 163.227067 48.489016 
L 164.220739 48.880897 
L 165.214412 48.042457 
L 166.208084 48.091421 
L 167.201756 47.701397 
L 168.195428 48.200449 
L 169.189101 48.228138 
L 170.182773 47.463259 
L 171.176445 48.182834 
L 172.170117 48.507486 
L 173.16379 49.063642 
L 174.157462 48.673356 
L 175.151134 48.669863 
L 177.138478 49.323221 
L 178.132151 48.33113 
L 179.125823 48.29356 
L 180.119495 48.072009 
L 181.113167 48.755576 
L 182.10684 48.469112 
L 183.100512 48.876403 
L 184.094184 48.659177 
L 185.087856 47.757623 
L 186.081529 47.95573 
L 188.068873 47.635674 
L 189.062545 47.643201 
L 190.056218 48.369532 
L 191.04989 47.869314 
L 192.043562 49.069088 
L 193.037234 49.160178 
L 194.030907 49.083818 
L 195.024579 49.228385 
L 197.011923 48.943498 
L 198.005596 48.935324 
L 198.999268 48.623317 
L 199.99294 48.513572 
L 200.986612 48.08559 
L 201.980284 48.042164 
L 202.973957 48.408388 
L 203.967629 47.739995 
L 204.961301 48.180618 
L 205.954973 47.374755 
L 206.948646 47.639319 
L 208.93599 47.866619 
L 210.923335 47.348093 
L 211.917007 46.925283 
L 212.910679 47.207452 
L 213.904351 47.373007 
L 215.891696 47.208683 
L 216.885368 46.669973 
L 219.866385 46.283104 
L 220.860057 46.268953 
L 221.853729 46.915533 
L 222.847402 47.042561 
L 225.828418 46.785228 
L 226.822091 46.235695 
L 227.815763 46.338797 
L 228.809435 46.217725 
L 229.803107 46.766142 
L 230.796779 46.729604 
L 231.790452 46.419004 
L 232.784124 46.659036 
L 233.777796 47.358928 
L 235.765141 46.667979 
L 236.758813 47.339682 
L 237.752485 47.207533 
L 238.746157 46.787297 
L 239.73983 47.21597 
L 240.733502 46.745382 
L 241.727174 46.902239 
L 242.720846 46.72546 
L 244.708191 46.950091 
L 245.701863 46.493454 
L 246.695535 46.392124 
L 247.689208 46.013861 
L 248.68288 46.075154 
L 249.676552 45.98517 
L 250.670224 45.74502 
L 251.663897 45.958767 
L 252.657569 45.774646 
L 253.651241 45.879033 
L 254.644913 45.389534 
L 255.638585 45.415132 
L 256.632258 45.802641 
L 257.62593 45.646409 
L 260.606947 45.738543 
L 261.600619 45.016265 
L 262.594291 45.29888 
L 264.581636 44.902236 
L 265.575308 44.999748 
L 266.56898 44.445899 
L 268.556325 45.091983 
L 269.549997 45.004939 
L 271.537341 45.250183 
L 272.531014 45.591246 
L 273.524686 45.401828 
L 274.518358 45.812641 
L 275.51203 45.58723 
L 276.505703 45.243378 
L 277.499375 45.981598 
L 278.493047 45.747807 
L 279.486719 45.966004 
L 281.474064 45.519443 
L 283.461408 45.570457 
L 284.45508 45.308122 
L 285.448753 45.307925 
L 286.442425 45.64677 
L 287.436097 45.361511 
L 288.429769 45.47972 
L 289.423442 45.30528 
L 290.417114 44.801944 
L 291.410786 45.003579 
L 292.404458 45.077441 
L 294.391803 45.557696 
L 295.385475 45.140089 
L 296.379147 45.313366 
L 297.37282 45.61184 
L 299.360164 45.322664 
L 300.353836 45.631637 
L 301.347509 45.173262 
L 302.341181 45.293036 
L 303.334853 45.231497 
L 304.328525 45.382369 
L 305.322198 45.156433 
L 306.31587 45.334787 
L 307.309542 45.242636 
L 311.284231 46.137551 
L 312.277903 45.829259 
L 317.246264 46.004028 
L 318.239937 46.125783 
L 319.233609 45.780673 
L 320.227281 45.583677 
L 321.220953 45.979307 
L 323.208298 45.659168 
L 327.182987 46.182868 
L 329.170331 45.666092 
L 330.164004 46.131971 
L 333.14502 46.06797 
L 334.138693 46.180939 
L 336.126037 45.603905 
L 337.119709 45.88608 
L 338.113381 46.387845 
L 339.107054 46.053061 
L 340.100726 46.52499 
L 341.094398 46.407982 
L 342.08807 46.457142 
L 343.081743 46.302694 
L 345.069087 46.636677 
L 346.062759 46.581748 
L 348.050104 45.992456 
L 350.037448 46.644631 
L 351.031121 46.137112 
L 352.024793 45.892747 
L 353.018465 45.93143 
L 354.012137 46.301031 
L 355.00581 46.034629 
L 357.986826 46.130083 
L 358.980499 46.004624 
L 359.974171 46.113537 
L 360.967843 46.107069 
L 362.955188 46.496524 
L 362.955188 46.496524 
" style="fill:none;stroke:#5601a4;stroke-linecap:round;"/>
   </g>
   <g id="line2d_29">
    <path clip-path="url(#pb6e9224d1d)" d="M 66.84086 105.576444 
L 67.834532 30.617707 
L 68.828204 21.241616 
L 69.821876 44.419717 
L 70.815549 54.518053 
L 71.809221 54.620074 
L 72.802893 39.849868 
L 73.796565 37.214029 
L 74.790238 47.993835 
L 75.78391 37.486808 
L 76.777582 39.06908 
L 77.771254 37.196179 
L 78.764927 42.258552 
L 79.758599 43.697123 
L 80.752271 42.068187 
L 81.745943 41.137604 
L 82.739616 43.041519 
L 83.733288 46.326639 
L 84.72696 48.478828 
L 85.720632 45.668401 
L 86.714305 43.901466 
L 87.707977 46.832773 
L 89.695321 45.798242 
L 90.688994 46.844944 
L 91.682666 45.936914 
L 92.676338 45.4422 
L 93.67001 43.150225 
L 94.663682 42.715946 
L 96.651027 47.181395 
L 97.644699 48.135608 
L 98.638371 46.813359 
L 100.625716 48.231078 
L 101.619388 47.150781 
L 102.61306 48.327958 
L 103.606733 45.512237 
L 104.600405 45.348762 
L 105.594077 45.61188 
L 106.587749 47.888124 
L 107.581422 46.053032 
L 108.575094 45.651586 
L 109.568766 44.950586 
L 110.562438 46.541161 
L 111.556111 45.431717 
L 112.549783 46.263904 
L 113.543455 44.923753 
L 114.537127 45.660534 
L 115.5308 43.768376 
L 116.524472 43.421508 
L 117.518144 43.990237 
L 118.511816 43.299704 
L 119.505489 43.244336 
L 120.499161 43.940346 
L 121.492833 45.100572 
L 122.486505 43.490641 
L 123.480177 45.268272 
L 124.47385 44.744634 
L 125.467522 47.104076 
L 126.461194 45.29512 
L 127.454866 46.781084 
L 128.448539 46.71696 
L 129.442211 47.470185 
L 130.435883 47.048096 
L 131.429555 47.732211 
L 132.423228 47.317603 
L 133.4169 47.869535 
L 134.410572 46.827613 
L 135.404244 48.021609 
L 136.397917 46.570283 
L 137.391589 47.60921 
L 138.385261 46.032382 
L 140.372606 47.521874 
L 141.366278 47.719695 
L 142.35995 46.99302 
L 143.353622 48.866076 
L 144.347295 48.273846 
L 145.340967 48.588831 
L 146.334639 49.88786 
L 147.328311 49.564154 
L 148.321983 50.579417 
L 149.315656 49.997805 
L 150.309328 49.082875 
L 151.303 48.818987 
L 152.296672 49.534233 
L 154.284017 48.476885 
L 155.277689 47.604173 
L 156.271361 47.913845 
L 157.265034 48.030347 
L 158.258706 46.918579 
L 159.252378 47.637161 
L 160.24605 46.412583 
L 161.239723 46.452546 
L 162.233395 47.078982 
L 164.220739 47.080261 
L 165.214412 47.163901 
L 166.208084 46.933227 
L 167.201756 47.288366 
L 169.189101 46.731976 
L 170.182773 47.231407 
L 171.176445 48.0087 
L 172.170117 48.00628 
L 173.16379 47.701325 
L 174.157462 47.838092 
L 175.151134 47.683401 
L 176.144806 49.052917 
L 177.138478 48.486942 
L 178.132151 47.691003 
L 179.125823 48.279994 
L 180.119495 48.52837 
L 181.113167 47.869151 
L 182.10684 47.574449 
L 183.100512 47.671693 
L 184.094184 47.978874 
L 185.087856 47.844835 
L 186.081529 48.565538 
L 187.075201 48.624357 
L 188.068873 48.217149 
L 189.062545 47.986651 
L 190.056218 48.812055 
L 191.04989 48.42677 
L 192.043562 49.262173 
L 193.037234 48.924413 
L 194.030907 48.164051 
L 195.024579 48.469746 
L 196.018251 48.964588 
L 197.011923 48.700483 
L 198.005596 48.756653 
L 198.999268 48.999309 
L 199.99294 48.292086 
L 201.980284 47.738093 
L 202.973957 48.380554 
L 204.961301 49.32014 
L 206.948646 49.344749 
L 207.942318 49.573538 
L 208.93599 50.146219 
L 209.929662 49.958504 
L 210.923335 50.005412 
L 211.917007 50.242554 
L 212.910679 50.221251 
L 213.904351 50.589614 
L 214.898024 50.298345 
L 215.891696 50.365617 
L 216.885368 50.717412 
L 219.866385 51.228767 
L 220.860057 50.908296 
L 221.853729 50.31753 
L 222.847402 50.358738 
L 223.841074 50.233299 
L 224.834746 50.601049 
L 225.828418 50.225491 
L 226.822091 50.576218 
L 228.809435 50.492168 
L 229.803107 50.5855 
L 230.796779 49.923546 
L 231.790452 50.442898 
L 234.771468 50.841847 
L 236.758813 50.519529 
L 238.746157 50.661923 
L 239.73983 50.784239 
L 240.733502 51.087051 
L 241.727174 51.087145 
L 242.720846 52.398353 
L 243.714519 51.653273 
L 244.708191 51.459194 
L 245.701863 52.17075 
L 247.689208 51.932148 
L 248.68288 52.369549 
L 249.676552 51.819926 
L 250.670224 51.612564 
L 251.663897 51.86 
L 252.657569 51.313176 
L 253.651241 51.624847 
L 254.644913 51.774971 
L 255.638585 52.106226 
L 256.632258 52.128166 
L 258.619602 51.458816 
L 259.613274 51.011362 
L 260.606947 51.434321 
L 261.600619 51.152789 
L 262.594291 52.029286 
L 263.587963 52.22808 
L 264.581636 52.641441 
L 266.56898 52.155537 
L 267.562652 52.3027 
L 269.549997 51.561354 
L 270.543669 51.89966 
L 271.537341 52.001164 
L 272.531014 52.283351 
L 273.524686 52.248026 
L 274.518358 52.619534 
L 275.51203 51.964312 
L 276.505703 52.414009 
L 277.499375 52.230642 
L 278.493047 51.891344 
L 279.486719 51.975485 
L 280.480392 52.255049 
L 281.474064 52.398239 
L 283.461408 52.438849 
L 284.45508 52.495564 
L 285.448753 52.263776 
L 287.436097 52.554681 
L 288.429769 51.965356 
L 289.423442 52.248122 
L 290.417114 52.678091 
L 291.410786 52.709763 
L 292.404458 52.272141 
L 294.391803 53.129211 
L 295.385475 52.674792 
L 297.37282 53.107453 
L 298.366492 53.156027 
L 299.360164 53.402611 
L 301.347509 53.49698 
L 302.341181 53.287975 
L 303.334853 53.691047 
L 306.31587 53.366268 
L 307.309542 53.603854 
L 309.296886 53.416295 
L 310.290559 53.456099 
L 311.284231 53.918448 
L 312.277903 53.798163 
L 313.271575 53.415203 
L 314.265248 53.470126 
L 315.25892 53.130662 
L 318.239937 53.490099 
L 319.233609 53.152 
L 321.220953 53.037032 
L 322.214626 53.031204 
L 323.208298 52.699758 
L 324.20197 53.038891 
L 325.195642 52.964246 
L 326.189315 53.256393 
L 327.182987 53.094861 
L 329.170331 53.465324 
L 330.164004 53.841591 
L 331.157676 53.621329 
L 332.151348 53.081247 
L 333.14502 53.277185 
L 334.138693 52.940613 
L 335.132365 53.112332 
L 336.126037 53.155898 
L 337.119709 52.643097 
L 338.113381 52.954668 
L 339.107054 52.795552 
L 340.100726 53.102949 
L 341.094398 52.553257 
L 342.08807 52.618779 
L 343.081743 52.809682 
L 344.075415 52.575538 
L 345.069087 53.281132 
L 347.056432 52.812805 
L 349.043776 52.691124 
L 350.037448 52.860077 
L 351.031121 52.689162 
L 352.024793 52.161475 
L 353.018465 52.510016 
L 354.012137 52.53943 
L 355.00581 52.40273 
L 355.999482 52.09063 
L 356.993154 52.324563 
L 359.974171 52.105575 
L 360.967843 52.306 
L 361.961515 52.13312 
L 362.955188 52.3164 
L 362.955188 52.3164 
" style="fill:none;stroke:#0d0887;stroke-linecap:round;"/>
   </g>
   <g id="line2d_30">
    <path clip-path="url(#pb6e9224d1d)" d="M 65.847188 82.982364 
L 362.955188 82.982364 
" style="fill:none;stroke:#cd401a;stroke-dasharray:1.5,2.475;stroke-dashoffset:0;stroke-width:1.5;"/>
   </g>
   <g id="patch_3">
    <path d="M 65.847188 128.2 
L 65.847188 19.48 
" style="fill:none;stroke:#cccccc;stroke-linecap:square;stroke-linejoin:miter;"/>
   </g>
   <g id="patch_4">
    <path d="M 362.955188 128.2 
L 362.955188 19.48 
" style="fill:none;stroke:#cccccc;stroke-linecap:square;stroke-linejoin:miter;"/>
   </g>
   <g id="patch_5">
    <path d="M 65.847188 128.2 
L 362.955188 128.2 
" style="fill:none;stroke:#cccccc;stroke-linecap:square;stroke-linejoin:miter;"/>
   </g>
   <g id="patch_6">
    <path d="M 65.847188 19.48 
L 362.955188 19.48 
" style="fill:none;stroke:#cccccc;stroke-linecap:square;stroke-linejoin:miter;"/>
   </g>
  </g>
  <g id="legend_1">
   <g id="line2d_31">
    <path d="M 377.947187 12.8125 
L 397.947187 12.8125 
" style="fill:none;stroke:#fcce25;stroke-linecap:round;"/>
   </g>
   <g id="line2d_32"/>
   <g id="text_14">
    <!-- $N_S=10$ -->
    <defs>
     <path d="M 16.890625 72.90625 
L 30.171875 72.90625 
L 50.296875 10.40625 
L 62.5 72.90625 
L 72.125 72.90625 
L 57.90625 0 
L 44.578125 0 
L 24.515625 62.890625 
L 12.3125 0 
L 2.6875 0 
z
" id="DejaVuSans-Oblique-78"/>
     <path d="M 60.296875 70.515625 
L 58.40625 60.890625 
Q 53.46875 63.53125 48.609375 64.875 
Q 43.75 66.21875 39.203125 66.21875 
Q 30.375 66.21875 25.140625 62.359375 
Q 19.921875 58.5 19.921875 52.09375 
Q 19.921875 48.578125 21.84375 46.703125 
Q 23.78125 44.828125 31.78125 42.671875 
L 37.703125 41.21875 
Q 47.703125 38.625 51.609375 34.640625 
Q 55.515625 30.671875 55.515625 23.484375 
Q 55.515625 12.453125 46.84375 5.515625 
Q 38.1875 -1.421875 24.03125 -1.421875 
Q 18.21875 -1.421875 12.359375 -0.265625 
Q 6.5 0.875 0.59375 3.21875 
L 2.59375 13.375 
Q 8.015625 10.015625 13.453125 8.296875 
Q 18.890625 6.59375 24.3125 6.59375 
Q 33.546875 6.59375 39.109375 10.6875 
Q 44.671875 14.796875 44.671875 21.390625 
Q 44.671875 25.78125 42.453125 28.046875 
Q 40.234375 30.328125 32.90625 32.171875 
L 27 33.6875 
Q 16.890625 36.328125 13.203125 39.765625 
Q 9.515625 43.21875 9.515625 49.421875 
Q 9.515625 60.296875 17.890625 67.25 
Q 26.265625 74.21875 39.703125 74.21875 
Q 44.921875 74.21875 50.046875 73.28125 
Q 55.171875 72.359375 60.296875 70.515625 
z
" id="DejaVuSans-Oblique-83"/>
     <path d="M 12.40625 8.296875 
L 28.515625 8.296875 
L 28.515625 63.921875 
L 10.984375 60.40625 
L 10.984375 69.390625 
L 28.421875 72.90625 
L 38.28125 72.90625 
L 38.28125 8.296875 
L 54.390625 8.296875 
L 54.390625 0 
L 12.40625 0 
z
" id="DejaVuSans-49"/>
     <path d="M 31.78125 66.40625 
Q 24.171875 66.40625 20.328125 58.90625 
Q 16.5 51.421875 16.5 36.375 
Q 16.5 21.390625 20.328125 13.890625 
Q 24.171875 6.390625 31.78125 6.390625 
Q 39.453125 6.390625 43.28125 13.890625 
Q 47.125 21.390625 47.125 36.375 
Q 47.125 51.421875 43.28125 58.90625 
Q 39.453125 66.40625 31.78125 66.40625 
z
M 31.78125 74.21875 
Q 44.046875 74.21875 50.515625 64.515625 
Q 56.984375 54.828125 56.984375 36.375 
Q 56.984375 17.96875 50.515625 8.265625 
Q 44.046875 -1.421875 31.78125 -1.421875 
Q 19.53125 -1.421875 13.0625 8.265625 
Q 6.59375 17.96875 6.59375 36.375 
Q 6.59375 54.828125 13.0625 64.515625 
Q 19.53125 74.21875 31.78125 74.21875 
z
" id="DejaVuSans-48"/>
    </defs>
    <g style="fill:#262626;" transform="translate(405.947187 16.3125)scale(0.1 -0.1)">
     <use transform="translate(0 0.78125)" xlink:href="#DejaVuSans-Oblique-78"/>
     <use transform="translate(74.804688 -15.625)scale(0.7)" xlink:href="#DejaVuSans-Oblique-83"/>
     <use transform="translate(141.455078 0.78125)" xlink:href="#DejaVuSans-61"/>
     <use transform="translate(244.726562 0.78125)" xlink:href="#DejaVuSans-49"/>
     <use transform="translate(308.349609 0.78125)" xlink:href="#DejaVuSans-48"/>
    </g>
   </g>
   <g id="line2d_33">
    <path d="M 377.947187 27.1125 
L 397.947187 27.1125 
" style="fill:none;stroke:#f89540;stroke-linecap:round;"/>
   </g>
   <g id="line2d_34"/>
   <g id="text_15">
    <!-- $N_S=20$ -->
    <defs>
     <path d="M 19.1875 8.296875 
L 53.609375 8.296875 
L 53.609375 0 
L 7.328125 0 
L 7.328125 8.296875 
Q 12.9375 14.109375 22.625 23.890625 
Q 32.328125 33.6875 34.8125 36.53125 
Q 39.546875 41.84375 41.421875 45.53125 
Q 43.3125 49.21875 43.3125 52.78125 
Q 43.3125 58.59375 39.234375 62.25 
Q 35.15625 65.921875 28.609375 65.921875 
Q 23.96875 65.921875 18.8125 64.3125 
Q 13.671875 62.703125 7.8125 59.421875 
L 7.8125 69.390625 
Q 13.765625 71.78125 18.9375 73 
Q 24.125 74.21875 28.421875 74.21875 
Q 39.75 74.21875 46.484375 68.546875 
Q 53.21875 62.890625 53.21875 53.421875 
Q 53.21875 48.921875 51.53125 44.890625 
Q 49.859375 40.875 45.40625 35.40625 
Q 44.1875 33.984375 37.640625 27.21875 
Q 31.109375 20.453125 19.1875 8.296875 
z
" id="DejaVuSans-50"/>
    </defs>
    <g style="fill:#262626;" transform="translate(405.947187 30.6125)scale(0.1 -0.1)">
     <use transform="translate(0 0.78125)" xlink:href="#DejaVuSans-Oblique-78"/>
     <use transform="translate(74.804688 -15.625)scale(0.7)" xlink:href="#DejaVuSans-Oblique-83"/>
     <use transform="translate(141.455078 0.78125)" xlink:href="#DejaVuSans-61"/>
     <use transform="translate(244.726562 0.78125)" xlink:href="#DejaVuSans-50"/>
     <use transform="translate(308.349609 0.78125)" xlink:href="#DejaVuSans-48"/>
    </g>
   </g>
   <g id="line2d_35">
    <path d="M 377.947187 41.4125 
L 397.947187 41.4125 
" style="fill:none;stroke:#e16462;stroke-linecap:round;"/>
   </g>
   <g id="line2d_36"/>
   <g id="text_16">
    <!-- $N_S=50$ -->
    <defs>
     <path d="M 10.796875 72.90625 
L 49.515625 72.90625 
L 49.515625 64.59375 
L 19.828125 64.59375 
L 19.828125 46.734375 
Q 21.96875 47.46875 24.109375 47.828125 
Q 26.265625 48.1875 28.421875 48.1875 
Q 40.625 48.1875 47.75 41.5 
Q 54.890625 34.8125 54.890625 23.390625 
Q 54.890625 11.625 47.5625 5.09375 
Q 40.234375 -1.421875 26.90625 -1.421875 
Q 22.3125 -1.421875 17.546875 -0.640625 
Q 12.796875 0.140625 7.71875 1.703125 
L 7.71875 11.625 
Q 12.109375 9.234375 16.796875 8.0625 
Q 21.484375 6.890625 26.703125 6.890625 
Q 35.15625 6.890625 40.078125 11.328125 
Q 45.015625 15.765625 45.015625 23.390625 
Q 45.015625 31 40.078125 35.4375 
Q 35.15625 39.890625 26.703125 39.890625 
Q 22.75 39.890625 18.8125 39.015625 
Q 14.890625 38.140625 10.796875 36.28125 
z
" id="DejaVuSans-53"/>
    </defs>
    <g style="fill:#262626;" transform="translate(405.947187 44.9125)scale(0.1 -0.1)">
     <use transform="translate(0 0.78125)" xlink:href="#DejaVuSans-Oblique-78"/>
     <use transform="translate(74.804688 -15.625)scale(0.7)" xlink:href="#DejaVuSans-Oblique-83"/>
     <use transform="translate(141.455078 0.78125)" xlink:href="#DejaVuSans-61"/>
     <use transform="translate(244.726562 0.78125)" xlink:href="#DejaVuSans-53"/>
     <use transform="translate(308.349609 0.78125)" xlink:href="#DejaVuSans-48"/>
    </g>
   </g>
   <g id="line2d_37">
    <path d="M 377.947187 55.7125 
L 397.947187 55.7125 
" style="fill:none;stroke:#bf3984;stroke-linecap:round;"/>
   </g>
   <g id="line2d_38"/>
   <g id="text_17">
    <!-- $N_S=100$ -->
    <g style="fill:#262626;" transform="translate(405.947187 59.2125)scale(0.1 -0.1)">
     <use transform="translate(0 0.78125)" xlink:href="#DejaVuSans-Oblique-78"/>
     <use transform="translate(74.804688 -15.625)scale(0.7)" xlink:href="#DejaVuSans-Oblique-83"/>
     <use transform="translate(141.455078 0.78125)" xlink:href="#DejaVuSans-61"/>
     <use transform="translate(244.726562 0.78125)" xlink:href="#DejaVuSans-49"/>
     <use transform="translate(308.349609 0.78125)" xlink:href="#DejaVuSans-48"/>
     <use transform="translate(371.972656 0.78125)" xlink:href="#DejaVuSans-48"/>
    </g>
   </g>
   <g id="line2d_39">
    <path d="M 377.947187 70.0125 
L 397.947187 70.0125 
" style="fill:none;stroke:#8f0da4;stroke-linecap:round;"/>
   </g>
   <g id="line2d_40"/>
   <g id="text_18">
    <!-- $N_S=200$ -->
    <g style="fill:#262626;" transform="translate(405.947187 73.5125)scale(0.1 -0.1)">
     <use transform="translate(0 0.78125)" xlink:href="#DejaVuSans-Oblique-78"/>
     <use transform="translate(74.804688 -15.625)scale(0.7)" xlink:href="#DejaVuSans-Oblique-83"/>
     <use transform="translate(141.455078 0.78125)" xlink:href="#DejaVuSans-61"/>
     <use transform="translate(244.726562 0.78125)" xlink:href="#DejaVuSans-50"/>
     <use transform="translate(308.349609 0.78125)" xlink:href="#DejaVuSans-48"/>
     <use transform="translate(371.972656 0.78125)" xlink:href="#DejaVuSans-48"/>
    </g>
   </g>
   <g id="line2d_41">
    <path d="M 377.947187 84.3125 
L 397.947187 84.3125 
" style="fill:none;stroke:#5601a4;stroke-linecap:round;"/>
   </g>
   <g id="line2d_42"/>
   <g id="text_19">
    <!-- $N_S=500$ -->
    <g style="fill:#262626;" transform="translate(405.947187 87.8125)scale(0.1 -0.1)">
     <use transform="translate(0 0.78125)" xlink:href="#DejaVuSans-Oblique-78"/>
     <use transform="translate(74.804688 -15.625)scale(0.7)" xlink:href="#DejaVuSans-Oblique-83"/>
     <use transform="translate(141.455078 0.78125)" xlink:href="#DejaVuSans-61"/>
     <use transform="translate(244.726562 0.78125)" xlink:href="#DejaVuSans-53"/>
     <use transform="translate(308.349609 0.78125)" xlink:href="#DejaVuSans-48"/>
     <use transform="translate(371.972656 0.78125)" xlink:href="#DejaVuSans-48"/>
    </g>
   </g>
   <g id="line2d_43">
    <path d="M 377.947187 98.6125 
L 397.947187 98.6125 
" style="fill:none;stroke:#0d0887;stroke-linecap:round;"/>
   </g>
   <g id="line2d_44"/>
   <g id="text_20">
    <!-- $N_S=1000$ -->
    <g style="fill:#262626;" transform="translate(405.947187 102.1125)scale(0.1 -0.1)">
     <use transform="translate(0 0.78125)" xlink:href="#DejaVuSans-Oblique-78"/>
     <use transform="translate(74.804688 -15.625)scale(0.7)" xlink:href="#DejaVuSans-Oblique-83"/>
     <use transform="translate(141.455078 0.78125)" xlink:href="#DejaVuSans-61"/>
     <use transform="translate(244.726562 0.78125)" xlink:href="#DejaVuSans-49"/>
     <use transform="translate(308.349609 0.78125)" xlink:href="#DejaVuSans-48"/>
     <use transform="translate(371.972656 0.78125)" xlink:href="#DejaVuSans-48"/>
     <use transform="translate(435.595703 0.78125)" xlink:href="#DejaVuSans-48"/>
    </g>
   </g>
   <g id="line2d_45">
    <path d="M 377.947187 112.757812 
L 397.947187 112.757812 
" style="fill:none;stroke:#cd401a;stroke-dasharray:1.5,2.475;stroke-dashoffset:0;stroke-width:1.5;"/>
   </g>
   <g id="line2d_46"/>
   <g id="text_21">
    <!-- reference -->
    <g style="fill:#262626;" transform="translate(405.947187 116.257812)scale(0.1 -0.1)">
     <use xlink:href="#ArialMT-114"/>
     <use x="33.300781" xlink:href="#ArialMT-101"/>
     <use x="88.916016" xlink:href="#ArialMT-102"/>
     <use x="116.699219" xlink:href="#ArialMT-101"/>
     <use x="172.314453" xlink:href="#ArialMT-114"/>
     <use x="205.615234" xlink:href="#ArialMT-101"/>
     <use x="261.230469" xlink:href="#ArialMT-110"/>
     <use x="316.845703" xlink:href="#ArialMT-99"/>
     <use x="366.845703" xlink:href="#ArialMT-101"/>
    </g>
   </g>
  </g>
 </g>
 <defs>
  <clipPath id="pb6e9224d1d">
   <rect height="108.72" width="297.108" x="65.847188" y="19.48"/>
  </clipPath>
 </defs>
</svg>
