<?xml version="1.0" encoding="utf-8" standalone="no"?>
<!DOCTYPE svg PUBLIC "-//W3C//DTD SVG 1.1//EN"
  "http://www.w3.org/Graphics/SVG/1.1/DTD/svg11.dtd">
<!-- Created with matplotlib (https://matplotlib.org/) -->
<svg height="152.844219pt" version="1.1" viewBox="0 0 464.947187 152.844219" width="464.947187pt" xmlns="http://www.w3.org/2000/svg" xmlns:xlink="http://www.w3.org/1999/xlink">
 <defs>
  <style type="text/css">
*{stroke-linecap:butt;stroke-linejoin:round;}
  </style>
 </defs>
 <g id="figure_1">
  <g id="patch_1">
   <path d="M 0 152.844219 
L 464.947187 152.844219 
L 464.947187 0 
L 0 0 
z
" style="fill:#ffffff;"/>
  </g>
  <g id="axes_1">
   <g id="patch_2">
    <path d="M 65.847188 119.498906 
L 362.955188 119.498906 
L 362.955188 10.778906 
L 65.847188 10.778906 
z
" style="fill:#ffffff;"/>
   </g>
   <g id="matplotlib.axis_1">
    <g id="xtick_1">
     <g id="line2d_1">
      <path clip-path="url(#p3668ca671c)" d="M 65.847188 119.498906 
L 65.847188 10.778906 
" style="fill:none;stroke:#cccccc;stroke-linecap:round;stroke-width:0.8;"/>
     </g>
     <g id="line2d_2"/>
     <g id="text_1">
      <!-- 0 -->
      <defs>
       <path d="M 4.15625 35.296875 
Q 4.15625 48 6.765625 55.734375 
Q 9.375 63.484375 14.515625 67.671875 
Q 19.671875 71.875 27.484375 71.875 
Q 33.25 71.875 37.59375 69.546875 
Q 41.9375 67.234375 44.765625 62.859375 
Q 47.609375 58.5 49.21875 52.21875 
Q 50.828125 45.953125 50.828125 35.296875 
Q 50.828125 22.703125 48.234375 14.96875 
Q 45.65625 7.234375 40.5 3 
Q 35.359375 -1.21875 27.484375 -1.21875 
Q 17.140625 -1.21875 11.234375 6.203125 
Q 4.15625 15.140625 4.15625 35.296875 
z
M 13.1875 35.296875 
Q 13.1875 17.671875 17.3125 11.828125 
Q 21.4375 6 27.484375 6 
Q 33.546875 6 37.671875 11.859375 
Q 41.796875 17.71875 41.796875 35.296875 
Q 41.796875 52.984375 37.671875 58.78125 
Q 33.546875 64.59375 27.390625 64.59375 
Q 21.34375 64.59375 17.71875 59.46875 
Q 13.1875 52.9375 13.1875 35.296875 
z
" id="ArialMT-48"/>
      </defs>
      <g style="fill:#262626;" transform="translate(63.066719 130.156719)scale(0.1 -0.1)">
       <use xlink:href="#ArialMT-48"/>
      </g>
     </g>
    </g>
    <g id="xtick_2">
     <g id="line2d_3">
      <path clip-path="url(#p3668ca671c)" d="M 125.268788 119.498906 
L 125.268788 10.778906 
" style="fill:none;stroke:#cccccc;stroke-linecap:round;stroke-width:0.8;"/>
     </g>
     <g id="line2d_4"/>
     <g id="text_2">
      <!-- 100 -->
      <defs>
       <path d="M 37.25 0 
L 28.46875 0 
L 28.46875 56 
Q 25.296875 52.984375 20.140625 49.953125 
Q 14.984375 46.921875 10.890625 45.40625 
L 10.890625 53.90625 
Q 18.265625 57.375 23.78125 62.296875 
Q 29.296875 67.234375 31.59375 71.875 
L 37.25 71.875 
z
" id="ArialMT-49"/>
      </defs>
      <g style="fill:#262626;" transform="translate(116.927381 130.156719)scale(0.1 -0.1)">
       <use xlink:href="#ArialMT-49"/>
       <use x="55.615234" xlink:href="#ArialMT-48"/>
       <use x="111.230469" xlink:href="#ArialMT-48"/>
      </g>
     </g>
    </g>
    <g id="xtick_3">
     <g id="line2d_5">
      <path clip-path="url(#p3668ca671c)" d="M 184.690387 119.498906 
L 184.690387 10.778906 
" style="fill:none;stroke:#cccccc;stroke-linecap:round;stroke-width:0.8;"/>
     </g>
     <g id="line2d_6"/>
     <g id="text_3">
      <!-- 200 -->
      <defs>
       <path d="M 50.34375 8.453125 
L 50.34375 0 
L 3.03125 0 
Q 2.9375 3.171875 4.046875 6.109375 
Q 5.859375 10.9375 9.828125 15.625 
Q 13.8125 20.3125 21.34375 26.46875 
Q 33.015625 36.03125 37.109375 41.625 
Q 41.21875 47.21875 41.21875 52.203125 
Q 41.21875 57.421875 37.46875 61 
Q 33.734375 64.59375 27.734375 64.59375 
Q 21.390625 64.59375 17.578125 60.78125 
Q 13.765625 56.984375 13.71875 50.25 
L 4.6875 51.171875 
Q 5.609375 61.28125 11.65625 66.578125 
Q 17.71875 71.875 27.9375 71.875 
Q 38.234375 71.875 44.234375 66.15625 
Q 50.25 60.453125 50.25 52 
Q 50.25 47.703125 48.484375 43.546875 
Q 46.734375 39.40625 42.65625 34.8125 
Q 38.578125 30.21875 29.109375 22.21875 
Q 21.1875 15.578125 18.9375 13.203125 
Q 16.703125 10.84375 15.234375 8.453125 
z
" id="ArialMT-50"/>
      </defs>
      <g style="fill:#262626;" transform="translate(176.348981 130.156719)scale(0.1 -0.1)">
       <use xlink:href="#ArialMT-50"/>
       <use x="55.615234" xlink:href="#ArialMT-48"/>
       <use x="111.230469" xlink:href="#ArialMT-48"/>
      </g>
     </g>
    </g>
    <g id="xtick_4">
     <g id="line2d_7">
      <path clip-path="url(#p3668ca671c)" d="M 244.111987 119.498906 
L 244.111987 10.778906 
" style="fill:none;stroke:#cccccc;stroke-linecap:round;stroke-width:0.8;"/>
     </g>
     <g id="line2d_8"/>
     <g id="text_4">
      <!-- 300 -->
      <defs>
       <path d="M 4.203125 18.890625 
L 12.984375 20.0625 
Q 14.5 12.59375 18.140625 9.296875 
Q 21.78125 6 27 6 
Q 33.203125 6 37.46875 10.296875 
Q 41.75 14.59375 41.75 20.953125 
Q 41.75 27 37.796875 30.921875 
Q 33.84375 34.859375 27.734375 34.859375 
Q 25.25 34.859375 21.53125 33.890625 
L 22.515625 41.609375 
Q 23.390625 41.5 23.921875 41.5 
Q 29.546875 41.5 34.03125 44.421875 
Q 38.53125 47.359375 38.53125 53.46875 
Q 38.53125 58.296875 35.25 61.46875 
Q 31.984375 64.65625 26.8125 64.65625 
Q 21.6875 64.65625 18.265625 61.421875 
Q 14.84375 58.203125 13.875 51.765625 
L 5.078125 53.328125 
Q 6.6875 62.15625 12.390625 67.015625 
Q 18.109375 71.875 26.609375 71.875 
Q 32.46875 71.875 37.390625 69.359375 
Q 42.328125 66.84375 44.9375 62.5 
Q 47.5625 58.15625 47.5625 53.265625 
Q 47.5625 48.640625 45.0625 44.828125 
Q 42.578125 41.015625 37.703125 38.765625 
Q 44.046875 37.3125 47.5625 32.6875 
Q 51.078125 28.078125 51.078125 21.140625 
Q 51.078125 11.765625 44.234375 5.25 
Q 37.40625 -1.265625 26.953125 -1.265625 
Q 17.53125 -1.265625 11.296875 4.34375 
Q 5.078125 9.96875 4.203125 18.890625 
z
" id="ArialMT-51"/>
      </defs>
      <g style="fill:#262626;" transform="translate(235.770581 130.156719)scale(0.1 -0.1)">
       <use xlink:href="#ArialMT-51"/>
       <use x="55.615234" xlink:href="#ArialMT-48"/>
       <use x="111.230469" xlink:href="#ArialMT-48"/>
      </g>
     </g>
    </g>
    <g id="xtick_5">
     <g id="line2d_9">
      <path clip-path="url(#p3668ca671c)" d="M 303.533588 119.498906 
L 303.533588 10.778906 
" style="fill:none;stroke:#cccccc;stroke-linecap:round;stroke-width:0.8;"/>
     </g>
     <g id="line2d_10"/>
     <g id="text_5">
      <!-- 400 -->
      <defs>
       <path d="M 32.328125 0 
L 32.328125 17.140625 
L 1.265625 17.140625 
L 1.265625 25.203125 
L 33.9375 71.578125 
L 41.109375 71.578125 
L 41.109375 25.203125 
L 50.78125 25.203125 
L 50.78125 17.140625 
L 41.109375 17.140625 
L 41.109375 0 
z
M 32.328125 25.203125 
L 32.328125 57.46875 
L 9.90625 25.203125 
z
" id="ArialMT-52"/>
      </defs>
      <g style="fill:#262626;" transform="translate(295.192181 130.156719)scale(0.1 -0.1)">
       <use xlink:href="#ArialMT-52"/>
       <use x="55.615234" xlink:href="#ArialMT-48"/>
       <use x="111.230469" xlink:href="#ArialMT-48"/>
      </g>
     </g>
    </g>
    <g id="xtick_6">
     <g id="line2d_11">
      <path clip-path="url(#p3668ca671c)" d="M 362.955188 119.498906 
L 362.955188 10.778906 
" style="fill:none;stroke:#cccccc;stroke-linecap:round;stroke-width:0.8;"/>
     </g>
     <g id="line2d_12"/>
     <g id="text_6">
      <!-- 500 -->
      <defs>
       <path d="M 4.15625 18.75 
L 13.375 19.53125 
Q 14.40625 12.796875 18.140625 9.390625 
Q 21.875 6 27.15625 6 
Q 33.5 6 37.890625 10.78125 
Q 42.28125 15.578125 42.28125 23.484375 
Q 42.28125 31 38.0625 35.34375 
Q 33.84375 39.703125 27 39.703125 
Q 22.75 39.703125 19.328125 37.765625 
Q 15.921875 35.84375 13.96875 32.765625 
L 5.71875 33.84375 
L 12.640625 70.609375 
L 48.25 70.609375 
L 48.25 62.203125 
L 19.671875 62.203125 
L 15.828125 42.96875 
Q 22.265625 47.46875 29.34375 47.46875 
Q 38.71875 47.46875 45.15625 40.96875 
Q 51.609375 34.46875 51.609375 24.265625 
Q 51.609375 14.546875 45.953125 7.46875 
Q 39.0625 -1.21875 27.15625 -1.21875 
Q 17.390625 -1.21875 11.203125 4.25 
Q 5.03125 9.71875 4.15625 18.75 
z
" id="ArialMT-53"/>
      </defs>
      <g style="fill:#262626;" transform="translate(354.613781 130.156719)scale(0.1 -0.1)">
       <use xlink:href="#ArialMT-53"/>
       <use x="55.615234" xlink:href="#ArialMT-48"/>
       <use x="111.230469" xlink:href="#ArialMT-48"/>
      </g>
     </g>
    </g>
    <g id="text_7">
     <!-- trajectory duration $T$ -->
     <defs>
      <path d="M 25.78125 7.859375 
L 27.046875 0.09375 
Q 23.34375 -0.6875 20.40625 -0.6875 
Q 15.625 -0.6875 12.984375 0.828125 
Q 10.359375 2.34375 9.28125 4.8125 
Q 8.203125 7.28125 8.203125 15.1875 
L 8.203125 45.015625 
L 1.765625 45.015625 
L 1.765625 51.859375 
L 8.203125 51.859375 
L 8.203125 64.703125 
L 16.9375 69.96875 
L 16.9375 51.859375 
L 25.78125 51.859375 
L 25.78125 45.015625 
L 16.9375 45.015625 
L 16.9375 14.703125 
Q 16.9375 10.9375 17.40625 9.859375 
Q 17.875 8.796875 18.921875 8.15625 
Q 19.96875 7.515625 21.921875 7.515625 
Q 23.390625 7.515625 25.78125 7.859375 
z
" id="ArialMT-116"/>
      <path d="M 6.5 0 
L 6.5 51.859375 
L 14.40625 51.859375 
L 14.40625 44 
Q 17.4375 49.515625 20 51.265625 
Q 22.5625 53.03125 25.640625 53.03125 
Q 30.078125 53.03125 34.671875 50.203125 
L 31.640625 42.046875 
Q 28.421875 43.953125 25.203125 43.953125 
Q 22.3125 43.953125 20.015625 42.21875 
Q 17.71875 40.484375 16.75 37.40625 
Q 15.28125 32.71875 15.28125 27.15625 
L 15.28125 0 
z
" id="ArialMT-114"/>
      <path d="M 40.4375 6.390625 
Q 35.546875 2.25 31.03125 0.53125 
Q 26.515625 -1.171875 21.34375 -1.171875 
Q 12.796875 -1.171875 8.203125 3 
Q 3.609375 7.171875 3.609375 13.671875 
Q 3.609375 17.484375 5.34375 20.625 
Q 7.078125 23.78125 9.890625 25.6875 
Q 12.703125 27.59375 16.21875 28.5625 
Q 18.796875 29.25 24.03125 29.890625 
Q 34.671875 31.15625 39.703125 32.90625 
Q 39.75 34.71875 39.75 35.203125 
Q 39.75 40.578125 37.25 42.78125 
Q 33.890625 45.75 27.25 45.75 
Q 21.046875 45.75 18.09375 43.578125 
Q 15.140625 41.40625 13.71875 35.890625 
L 5.125 37.0625 
Q 6.296875 42.578125 8.984375 45.96875 
Q 11.671875 49.359375 16.75 51.1875 
Q 21.828125 53.03125 28.515625 53.03125 
Q 35.15625 53.03125 39.296875 51.46875 
Q 43.453125 49.90625 45.40625 47.53125 
Q 47.359375 45.171875 48.140625 41.546875 
Q 48.578125 39.3125 48.578125 33.453125 
L 48.578125 21.734375 
Q 48.578125 9.46875 49.140625 6.21875 
Q 49.703125 2.984375 51.375 0 
L 42.1875 0 
Q 40.828125 2.734375 40.4375 6.390625 
z
M 39.703125 26.03125 
Q 34.90625 24.078125 25.34375 22.703125 
Q 19.921875 21.921875 17.671875 20.9375 
Q 15.4375 19.96875 14.203125 18.09375 
Q 12.984375 16.21875 12.984375 13.921875 
Q 12.984375 10.40625 15.640625 8.0625 
Q 18.3125 5.71875 23.4375 5.71875 
Q 28.515625 5.71875 32.46875 7.9375 
Q 36.421875 10.15625 38.28125 14.015625 
Q 39.703125 17 39.703125 22.796875 
z
" id="ArialMT-97"/>
      <path d="M 6.546875 61.375 
L 6.546875 71.578125 
L 15.328125 71.578125 
L 15.328125 61.375 
z
M -4.59375 -20.125 
L -2.9375 -12.640625 
Q -0.296875 -13.328125 1.21875 -13.328125 
Q 3.90625 -13.328125 5.21875 -11.546875 
Q 6.546875 -9.765625 6.546875 -2.640625 
L 6.546875 51.859375 
L 15.328125 51.859375 
L 15.328125 -2.828125 
Q 15.328125 -12.40625 12.84375 -16.15625 
Q 9.671875 -21.046875 2.296875 -21.046875 
Q -1.265625 -21.046875 -4.59375 -20.125 
z
" id="ArialMT-106"/>
      <path d="M 42.09375 16.703125 
L 51.171875 15.578125 
Q 49.03125 7.625 43.21875 3.21875 
Q 37.40625 -1.171875 28.375 -1.171875 
Q 17 -1.171875 10.328125 5.828125 
Q 3.65625 12.84375 3.65625 25.484375 
Q 3.65625 38.578125 10.390625 45.796875 
Q 17.140625 53.03125 27.875 53.03125 
Q 38.28125 53.03125 44.875 45.953125 
Q 51.46875 38.875 51.46875 26.03125 
Q 51.46875 25.25 51.421875 23.6875 
L 12.75 23.6875 
Q 13.234375 15.140625 17.578125 10.59375 
Q 21.921875 6.0625 28.421875 6.0625 
Q 33.25 6.0625 36.671875 8.59375 
Q 40.09375 11.140625 42.09375 16.703125 
z
M 13.234375 30.90625 
L 42.1875 30.90625 
Q 41.609375 37.453125 38.875 40.71875 
Q 34.671875 45.796875 27.984375 45.796875 
Q 21.921875 45.796875 17.796875 41.75 
Q 13.671875 37.703125 13.234375 30.90625 
z
" id="ArialMT-101"/>
      <path d="M 40.4375 19 
L 49.078125 17.875 
Q 47.65625 8.9375 41.8125 3.875 
Q 35.984375 -1.171875 27.484375 -1.171875 
Q 16.84375 -1.171875 10.375 5.78125 
Q 3.90625 12.75 3.90625 25.734375 
Q 3.90625 34.125 6.6875 40.421875 
Q 9.46875 46.734375 15.15625 49.875 
Q 20.84375 53.03125 27.546875 53.03125 
Q 35.984375 53.03125 41.359375 48.75 
Q 46.734375 44.484375 48.25 36.625 
L 39.703125 35.296875 
Q 38.484375 40.53125 35.375 43.15625 
Q 32.28125 45.796875 27.875 45.796875 
Q 21.234375 45.796875 17.078125 41.03125 
Q 12.9375 36.28125 12.9375 25.984375 
Q 12.9375 15.53125 16.9375 10.796875 
Q 20.953125 6.0625 27.390625 6.0625 
Q 32.5625 6.0625 36.03125 9.234375 
Q 39.5 12.40625 40.4375 19 
z
" id="ArialMT-99"/>
      <path d="M 3.328125 25.921875 
Q 3.328125 40.328125 11.328125 47.265625 
Q 18.015625 53.03125 27.640625 53.03125 
Q 38.328125 53.03125 45.109375 46.015625 
Q 51.90625 39.015625 51.90625 26.65625 
Q 51.90625 16.65625 48.90625 10.90625 
Q 45.90625 5.171875 40.15625 2 
Q 34.421875 -1.171875 27.640625 -1.171875 
Q 16.75 -1.171875 10.03125 5.8125 
Q 3.328125 12.796875 3.328125 25.921875 
z
M 12.359375 25.921875 
Q 12.359375 15.96875 16.703125 11.015625 
Q 21.046875 6.0625 27.640625 6.0625 
Q 34.1875 6.0625 38.53125 11.03125 
Q 42.875 16.015625 42.875 26.21875 
Q 42.875 35.84375 38.5 40.796875 
Q 34.125 45.75 27.640625 45.75 
Q 21.046875 45.75 16.703125 40.8125 
Q 12.359375 35.890625 12.359375 25.921875 
z
" id="ArialMT-111"/>
      <path d="M 6.203125 -19.96875 
L 5.21875 -11.71875 
Q 8.109375 -12.5 10.25 -12.5 
Q 13.1875 -12.5 14.9375 -11.515625 
Q 16.703125 -10.546875 17.828125 -8.796875 
Q 18.65625 -7.46875 20.515625 -2.25 
Q 20.75 -1.515625 21.296875 -0.09375 
L 1.609375 51.859375 
L 11.078125 51.859375 
L 21.875 21.828125 
Q 23.96875 16.109375 25.640625 9.8125 
Q 27.15625 15.875 29.25 21.625 
L 40.328125 51.859375 
L 49.125 51.859375 
L 29.390625 -0.875 
Q 26.21875 -9.421875 24.46875 -12.640625 
Q 22.125 -17 19.09375 -19.015625 
Q 16.0625 -21.046875 11.859375 -21.046875 
Q 9.328125 -21.046875 6.203125 -19.96875 
z
" id="ArialMT-121"/>
      <path id="ArialMT-32"/>
      <path d="M 40.234375 0 
L 40.234375 6.546875 
Q 35.296875 -1.171875 25.734375 -1.171875 
Q 19.53125 -1.171875 14.328125 2.25 
Q 9.125 5.671875 6.265625 11.796875 
Q 3.421875 17.921875 3.421875 25.875 
Q 3.421875 33.640625 6 39.96875 
Q 8.59375 46.296875 13.765625 49.65625 
Q 18.953125 53.03125 25.34375 53.03125 
Q 30.03125 53.03125 33.6875 51.046875 
Q 37.359375 49.078125 39.65625 45.90625 
L 39.65625 71.578125 
L 48.390625 71.578125 
L 48.390625 0 
z
M 12.453125 25.875 
Q 12.453125 15.921875 16.640625 10.984375 
Q 20.84375 6.0625 26.5625 6.0625 
Q 32.328125 6.0625 36.34375 10.765625 
Q 40.375 15.484375 40.375 25.140625 
Q 40.375 35.796875 36.265625 40.765625 
Q 32.171875 45.75 26.171875 45.75 
Q 20.3125 45.75 16.375 40.96875 
Q 12.453125 36.1875 12.453125 25.875 
z
" id="ArialMT-100"/>
      <path d="M 40.578125 0 
L 40.578125 7.625 
Q 34.515625 -1.171875 24.125 -1.171875 
Q 19.53125 -1.171875 15.546875 0.578125 
Q 11.578125 2.34375 9.640625 5 
Q 7.71875 7.671875 6.9375 11.53125 
Q 6.390625 14.109375 6.390625 19.734375 
L 6.390625 51.859375 
L 15.1875 51.859375 
L 15.1875 23.09375 
Q 15.1875 16.21875 15.71875 13.8125 
Q 16.546875 10.359375 19.234375 8.375 
Q 21.921875 6.390625 25.875 6.390625 
Q 29.828125 6.390625 33.296875 8.421875 
Q 36.765625 10.453125 38.203125 13.9375 
Q 39.65625 17.4375 39.65625 24.078125 
L 39.65625 51.859375 
L 48.4375 51.859375 
L 48.4375 0 
z
" id="ArialMT-117"/>
      <path d="M 6.640625 61.46875 
L 6.640625 71.578125 
L 15.4375 71.578125 
L 15.4375 61.46875 
z
M 6.640625 0 
L 6.640625 51.859375 
L 15.4375 51.859375 
L 15.4375 0 
z
" id="ArialMT-105"/>
      <path d="M 6.59375 0 
L 6.59375 51.859375 
L 14.5 51.859375 
L 14.5 44.484375 
Q 20.21875 53.03125 31 53.03125 
Q 35.6875 53.03125 39.625 51.34375 
Q 43.5625 49.65625 45.515625 46.921875 
Q 47.46875 44.1875 48.25 40.4375 
Q 48.734375 37.984375 48.734375 31.890625 
L 48.734375 0 
L 39.9375 0 
L 39.9375 31.546875 
Q 39.9375 36.921875 38.90625 39.578125 
Q 37.890625 42.234375 35.28125 43.8125 
Q 32.671875 45.40625 29.15625 45.40625 
Q 23.53125 45.40625 19.453125 41.84375 
Q 15.375 38.28125 15.375 28.328125 
L 15.375 0 
z
" id="ArialMT-110"/>
      <path d="M 5.90625 72.90625 
L 67.578125 72.90625 
L 66.015625 64.59375 
L 39.984375 64.59375 
L 27.484375 0 
L 17.578125 0 
L 30.078125 64.59375 
L 4.296875 64.59375 
z
" id="DejaVuSans-Oblique-84"/>
     </defs>
     <g style="fill:#262626;" transform="translate(169.901187 143.444219)scale(0.1 -0.1)">
      <use transform="translate(0 0.09375)" xlink:href="#ArialMT-116"/>
      <use transform="translate(27.783203 0.09375)" xlink:href="#ArialMT-114"/>
      <use transform="translate(61.083984 0.09375)" xlink:href="#ArialMT-97"/>
      <use transform="translate(116.699219 0.09375)" xlink:href="#ArialMT-106"/>
      <use transform="translate(138.916016 0.09375)" xlink:href="#ArialMT-101"/>
      <use transform="translate(194.53125 0.09375)" xlink:href="#ArialMT-99"/>
      <use transform="translate(244.53125 0.09375)" xlink:href="#ArialMT-116"/>
      <use transform="translate(272.314453 0.09375)" xlink:href="#ArialMT-111"/>
      <use transform="translate(327.929688 0.09375)" xlink:href="#ArialMT-114"/>
      <use transform="translate(361.230469 0.09375)" xlink:href="#ArialMT-121"/>
      <use transform="translate(411.230469 0.09375)" xlink:href="#ArialMT-32"/>
      <use transform="translate(439.013672 0.09375)" xlink:href="#ArialMT-100"/>
      <use transform="translate(494.628906 0.09375)" xlink:href="#ArialMT-117"/>
      <use transform="translate(550.244141 0.09375)" xlink:href="#ArialMT-114"/>
      <use transform="translate(583.544922 0.09375)" xlink:href="#ArialMT-97"/>
      <use transform="translate(639.160156 0.09375)" xlink:href="#ArialMT-116"/>
      <use transform="translate(666.943359 0.09375)" xlink:href="#ArialMT-105"/>
      <use transform="translate(689.160156 0.09375)" xlink:href="#ArialMT-111"/>
      <use transform="translate(744.775391 0.09375)" xlink:href="#ArialMT-110"/>
      <use transform="translate(800.390625 0.09375)" xlink:href="#ArialMT-32"/>
      <use transform="translate(828.173828 0.09375)" xlink:href="#DejaVuSans-Oblique-84"/>
     </g>
    </g>
   </g>
   <g id="matplotlib.axis_2">
    <g id="ytick_1">
     <g id="line2d_13">
      <path clip-path="url(#p3668ca671c)" d="M 65.847188 119.498906 
L 362.955188 119.498906 
" style="fill:none;stroke:#cccccc;stroke-linecap:round;stroke-width:0.8;"/>
     </g>
     <g id="line2d_14"/>
     <g id="text_8">
      <!-- 0.000 -->
      <defs>
       <path d="M 9.078125 0 
L 9.078125 10.015625 
L 19.09375 10.015625 
L 19.09375 0 
z
" id="ArialMT-46"/>
      </defs>
      <g style="fill:#262626;" transform="translate(37.325313 123.077812)scale(0.1 -0.1)">
       <use xlink:href="#ArialMT-48"/>
       <use x="55.615234" xlink:href="#ArialMT-46"/>
       <use x="83.398438" xlink:href="#ArialMT-48"/>
       <use x="139.013672" xlink:href="#ArialMT-48"/>
       <use x="194.628906" xlink:href="#ArialMT-48"/>
      </g>
     </g>
    </g>
    <g id="ytick_2">
     <g id="line2d_15">
      <path clip-path="url(#p3668ca671c)" d="M 65.847188 92.318906 
L 362.955188 92.318906 
" style="fill:none;stroke:#cccccc;stroke-linecap:round;stroke-width:0.8;"/>
     </g>
     <g id="line2d_16"/>
     <g id="text_9">
      <!-- 0.001 -->
      <g style="fill:#262626;" transform="translate(37.325313 95.897812)scale(0.1 -0.1)">
       <use xlink:href="#ArialMT-48"/>
       <use x="55.615234" xlink:href="#ArialMT-46"/>
       <use x="83.398438" xlink:href="#ArialMT-48"/>
       <use x="139.013672" xlink:href="#ArialMT-48"/>
       <use x="194.628906" xlink:href="#ArialMT-49"/>
      </g>
     </g>
    </g>
    <g id="ytick_3">
     <g id="line2d_17">
      <path clip-path="url(#p3668ca671c)" d="M 65.847188 65.138906 
L 362.955188 65.138906 
" style="fill:none;stroke:#cccccc;stroke-linecap:round;stroke-width:0.8;"/>
     </g>
     <g id="line2d_18"/>
     <g id="text_10">
      <!-- 0.002 -->
      <g style="fill:#262626;" transform="translate(37.325313 68.717812)scale(0.1 -0.1)">
       <use xlink:href="#ArialMT-48"/>
       <use x="55.615234" xlink:href="#ArialMT-46"/>
       <use x="83.398438" xlink:href="#ArialMT-48"/>
       <use x="139.013672" xlink:href="#ArialMT-48"/>
       <use x="194.628906" xlink:href="#ArialMT-50"/>
      </g>
     </g>
    </g>
    <g id="ytick_4">
     <g id="line2d_19">
      <path clip-path="url(#p3668ca671c)" d="M 65.847188 37.958906 
L 362.955188 37.958906 
" style="fill:none;stroke:#cccccc;stroke-linecap:round;stroke-width:0.8;"/>
     </g>
     <g id="line2d_20"/>
     <g id="text_11">
      <!-- 0.003 -->
      <g style="fill:#262626;" transform="translate(37.325313 41.537812)scale(0.1 -0.1)">
       <use xlink:href="#ArialMT-48"/>
       <use x="55.615234" xlink:href="#ArialMT-46"/>
       <use x="83.398438" xlink:href="#ArialMT-48"/>
       <use x="139.013672" xlink:href="#ArialMT-48"/>
       <use x="194.628906" xlink:href="#ArialMT-51"/>
      </g>
     </g>
    </g>
    <g id="ytick_5">
     <g id="line2d_21">
      <path clip-path="url(#p3668ca671c)" d="M 65.847188 10.778906 
L 362.955188 10.778906 
" style="fill:none;stroke:#cccccc;stroke-linecap:round;stroke-width:0.8;"/>
     </g>
     <g id="line2d_22"/>
     <g id="text_12">
      <!-- 0.004 -->
      <g style="fill:#262626;" transform="translate(37.325313 14.357812)scale(0.1 -0.1)">
       <use xlink:href="#ArialMT-48"/>
       <use x="55.615234" xlink:href="#ArialMT-46"/>
       <use x="83.398438" xlink:href="#ArialMT-48"/>
       <use x="139.013672" xlink:href="#ArialMT-48"/>
       <use x="194.628906" xlink:href="#ArialMT-52"/>
      </g>
     </g>
    </g>
    <g id="text_13">
     <!-- information rate -->
     <defs>
      <path d="M 8.6875 0 
L 8.6875 45.015625 
L 0.921875 45.015625 
L 0.921875 51.859375 
L 8.6875 51.859375 
L 8.6875 57.375 
Q 8.6875 62.59375 9.625 65.140625 
Q 10.890625 68.5625 14.078125 70.671875 
Q 17.28125 72.796875 23.046875 72.796875 
Q 26.765625 72.796875 31.25 71.921875 
L 29.9375 64.265625 
Q 27.203125 64.75 24.75 64.75 
Q 20.75 64.75 19.09375 63.03125 
Q 17.4375 61.328125 17.4375 56.640625 
L 17.4375 51.859375 
L 27.546875 51.859375 
L 27.546875 45.015625 
L 17.4375 45.015625 
L 17.4375 0 
z
" id="ArialMT-102"/>
      <path d="M 6.59375 0 
L 6.59375 51.859375 
L 14.453125 51.859375 
L 14.453125 44.578125 
Q 16.890625 48.390625 20.9375 50.703125 
Q 25 53.03125 30.171875 53.03125 
Q 35.9375 53.03125 39.625 50.640625 
Q 43.3125 48.25 44.828125 43.953125 
Q 50.984375 53.03125 60.84375 53.03125 
Q 68.5625 53.03125 72.703125 48.75 
Q 76.859375 44.484375 76.859375 35.59375 
L 76.859375 0 
L 68.109375 0 
L 68.109375 32.671875 
Q 68.109375 37.9375 67.25 40.25 
Q 66.40625 42.578125 64.15625 43.984375 
Q 61.921875 45.40625 58.890625 45.40625 
Q 53.421875 45.40625 49.796875 41.765625 
Q 46.1875 38.140625 46.1875 30.125 
L 46.1875 0 
L 37.40625 0 
L 37.40625 33.6875 
Q 37.40625 39.546875 35.25 42.46875 
Q 33.109375 45.40625 28.21875 45.40625 
Q 24.515625 45.40625 21.359375 43.453125 
Q 18.21875 41.5 16.796875 37.734375 
Q 15.375 33.984375 15.375 26.90625 
L 15.375 0 
z
" id="ArialMT-109"/>
     </defs>
     <g style="fill:#262626;" transform="translate(14.357813 99.874844)rotate(-90)scale(0.1 -0.1)">
      <use xlink:href="#ArialMT-105"/>
      <use x="22.216797" xlink:href="#ArialMT-110"/>
      <use x="77.832031" xlink:href="#ArialMT-102"/>
      <use x="105.615234" xlink:href="#ArialMT-111"/>
      <use x="161.230469" xlink:href="#ArialMT-114"/>
      <use x="194.53125" xlink:href="#ArialMT-109"/>
      <use x="277.832031" xlink:href="#ArialMT-97"/>
      <use x="333.447266" xlink:href="#ArialMT-116"/>
      <use x="361.230469" xlink:href="#ArialMT-105"/>
      <use x="383.447266" xlink:href="#ArialMT-111"/>
      <use x="439.0625" xlink:href="#ArialMT-110"/>
      <use x="494.677734" xlink:href="#ArialMT-32"/>
      <use x="522.460938" xlink:href="#ArialMT-114"/>
      <use x="555.761719" xlink:href="#ArialMT-97"/>
      <use x="611.376953" xlink:href="#ArialMT-116"/>
      <use x="639.160156" xlink:href="#ArialMT-101"/>
     </g>
     <!-- $I_R=\frac{I(\mathcal{S}_T,\mathcal{X}_T)}{T}$ -->
     <defs>
      <path d="M 16.890625 72.90625 
L 26.8125 72.90625 
L 12.59375 0 
L 2.6875 0 
z
" id="DejaVuSans-Oblique-73"/>
      <path d="M 25.203125 64.796875 
L 20.21875 38.921875 
L 32.90625 38.921875 
Q 40.375 38.921875 44.984375 43.046875 
Q 49.609375 47.171875 49.609375 53.8125 
Q 49.609375 59.125 46.5 61.953125 
Q 43.40625 64.796875 37.59375 64.796875 
z
M 43.3125 35.015625 
Q 46.4375 34.28125 48.515625 31.390625 
Q 50.59375 28.515625 53.328125 19.921875 
L 59.515625 0 
L 49.125 0 
L 43.40625 18.703125 
Q 41.21875 25.921875 38.328125 28.359375 
Q 35.453125 30.8125 29.5 30.8125 
L 18.609375 30.8125 
L 12.59375 0 
L 2.6875 0 
L 16.890625 72.90625 
L 39.109375 72.90625 
Q 49.21875 72.90625 54.609375 68.328125 
Q 60.015625 63.765625 60.015625 55.171875 
Q 60.015625 47.5625 55.421875 41.984375 
Q 50.828125 36.421875 43.3125 35.015625 
z
" id="DejaVuSans-Oblique-82"/>
      <path d="M 10.59375 45.40625 
L 73.1875 45.40625 
L 73.1875 37.203125 
L 10.59375 37.203125 
z
M 10.59375 25.484375 
L 73.1875 25.484375 
L 73.1875 17.1875 
L 10.59375 17.1875 
z
" id="DejaVuSans-61"/>
      <path d="M 31 75.875 
Q 24.46875 64.65625 21.28125 53.65625 
Q 18.109375 42.671875 18.109375 31.390625 
Q 18.109375 20.125 21.3125 9.0625 
Q 24.515625 -2 31 -13.1875 
L 23.1875 -13.1875 
Q 15.875 -1.703125 12.234375 9.375 
Q 8.59375 20.453125 8.59375 31.390625 
Q 8.59375 42.28125 12.203125 53.3125 
Q 15.828125 64.359375 23.1875 75.875 
z
" id="DejaVuSans-40"/>
      <path d="M 3.796875 19.296875 
L 6.40625 19.59375 
Q 8.09375 9.09375 17.796875 5.703125 
Q 22.203125 4.09375 27.59375 4.09375 
Q 36 4.09375 41.953125 8.046875 
Q 47.90625 12 47.90625 19.296875 
Q 47.90625 22.296875 45.046875 24.546875 
Q 42.203125 26.796875 38.203125 28.390625 
Q 34.203125 30 30.140625 31.953125 
Q 26.09375 33.90625 23.25 37.546875 
Q 20.40625 41.203125 20.40625 46.40625 
Q 20.40625 51.40625 23.546875 55.546875 
Q 26.703125 59.703125 31.25 62.09375 
Q 35.796875 64.5 40.1875 65.796875 
Q 44.59375 67.09375 47.796875 67.09375 
Q 56.296875 67.09375 61.6875 64.59375 
Q 67.09375 62.09375 67.09375 56.90625 
Q 67.09375 54.09375 65.34375 51.546875 
Q 63.59375 49 60.203125 49 
Q 58 49 56.296875 50.5 
Q 54.59375 52 54.59375 54 
Q 54.59375 56.296875 56.09375 57.9375 
Q 57.59375 59.59375 57.59375 60 
Q 57.59375 61.203125 56.6875 61.953125 
Q 55.796875 62.703125 54 63 
Q 52.203125 63.296875 51 63.34375 
Q 49.796875 63.40625 47.796875 63.40625 
Q 45.796875 63.40625 42.890625 62.65625 
Q 40 61.90625 36.75 60.40625 
Q 33.5 58.90625 31.25 55.953125 
Q 29 53 29 49.296875 
Q 29 45.796875 32.140625 43.296875 
Q 35.296875 40.796875 39.84375 39.09375 
Q 44.40625 37.40625 48.953125 35.453125 
Q 53.5 33.5 56.640625 30 
Q 59.796875 26.5 59.796875 21.5 
Q 59.796875 14.09375 50.09375 7.046875 
Q 40.40625 0 28.203125 0 
Q 15.5 0 9.640625 5.296875 
Q 3.796875 10.59375 3.796875 19.296875 
z
" id="STIXNonUnicode-Italic-57919"/>
      <path d="M 11.71875 12.40625 
L 22.015625 12.40625 
L 22.015625 4 
L 14.015625 -11.625 
L 7.71875 -11.625 
L 11.71875 4 
z
" id="DejaVuSans-44"/>
      <path d="M 44.40625 47.296875 
L 45.40625 37.796875 
Q 49.703125 39.796875 52.25 41.046875 
Q 54.796875 42.296875 58.1875 44.25 
Q 61.59375 46.203125 63.4375 47.796875 
Q 65.296875 49.40625 66.640625 51.40625 
Q 68 53.40625 68 55.5 
Q 68 57.90625 66.09375 57.90625 
Q 65.796875 57.90625 65.09375 57.296875 
Q 64.40625 56.703125 62.796875 56.703125 
Q 61.203125 56.703125 60.296875 58.09375 
Q 59.40625 59.5 59.40625 61.40625 
Q 59.40625 64 61.296875 65.59375 
Q 63.203125 67.203125 66.296875 67.203125 
Q 69.296875 67.203125 71.59375 64.703125 
Q 73.90625 62.203125 73.90625 57.703125 
Q 73.90625 50.90625 67.40625 45.75 
Q 60.90625 40.59375 46.09375 33.703125 
L 48.59375 16.5 
Q 50 6.203125 55.296875 6.203125 
Q 59 6.203125 61 9.5 
L 62.90625 8.09375 
Q 59 0 50.90625 0 
Q 45.90625 0 42.90625 3.703125 
Q 39.90625 7.40625 38.703125 17.09375 
L 37.09375 30 
Q 21.203125 22.09375 15.5 17.6875 
Q 9.796875 13.296875 9.796875 9.296875 
Q 9.796875 7.90625 10.59375 7.90625 
Q 10.796875 7.90625 11.59375 8.34375 
Q 12.40625 8.796875 13.203125 8.796875 
Q 17.203125 8.796875 17.203125 4.59375 
Q 17.203125 2.296875 15.34375 0.5 
Q 13.5 -1.296875 10.09375 -1.296875 
Q 7.5 -1.296875 5.640625 0.75 
Q 3.796875 2.796875 3.796875 6.59375 
Q 3.796875 10.59375 6.046875 14.046875 
Q 8.296875 17.5 12.796875 20.75 
Q 17.296875 24 22.546875 26.890625 
Q 27.796875 29.796875 35.296875 33.59375 
Q 36.203125 34 36.59375 34.203125 
L 34.203125 49.5 
Q 32.5 60 27.796875 60 
Q 24 60 22 56.59375 
L 19.796875 57.59375 
Q 23.90625 66.203125 32.203125 66.203125 
Q 37.296875 66.203125 40.296875 61.84375 
Q 43.296875 57.5 44.40625 47.296875 
z
" id="STIXNonUnicode-Italic-57924"/>
      <path d="M 8.015625 75.875 
L 15.828125 75.875 
Q 23.140625 64.359375 26.78125 53.3125 
Q 30.421875 42.28125 30.421875 31.390625 
Q 30.421875 20.453125 26.78125 9.375 
Q 23.140625 -1.703125 15.828125 -13.1875 
L 8.015625 -13.1875 
Q 14.5 -2 17.703125 9.0625 
Q 20.90625 20.125 20.90625 31.390625 
Q 20.90625 42.671875 17.703125 53.65625 
Q 14.5 64.65625 8.015625 75.875 
z
" id="DejaVuSans-41"/>
     </defs>
     <g style="fill:#262626;" transform="translate(29.425313 89.438906)rotate(-90)scale(0.1 -0.1)">
      <use transform="translate(0 0.60625)" xlink:href="#DejaVuSans-Oblique-73"/>
      <use transform="translate(29.492188 -15.8)scale(0.7)" xlink:href="#DejaVuSans-Oblique-82"/>
      <use transform="translate(100.34668 0.60625)" xlink:href="#DejaVuSans-61"/>
      <use transform="translate(203.618164 55.8875)scale(0.7)" xlink:href="#DejaVuSans-Oblique-73"/>
      <use transform="translate(224.262695 55.8875)scale(0.7)" xlink:href="#DejaVuSans-40"/>
      <use transform="translate(251.572266 55.8875)scale(0.7)" xlink:href="#STIXNonUnicode-Italic-57919"/>
      <use transform="translate(296.622183 44.403125)scale(0.49)" xlink:href="#DejaVuSans-Oblique-84"/>
      <use transform="translate(328.467398 55.8875)scale(0.7)" xlink:href="#DejaVuSans-44"/>
      <use transform="translate(364.35607 55.8875)scale(0.7)" xlink:href="#STIXNonUnicode-Italic-57924"/>
      <use transform="translate(413.465979 44.403125)scale(0.49)" xlink:href="#DejaVuSans-Oblique-84"/>
      <use transform="translate(445.311194 55.8875)scale(0.7)" xlink:href="#DejaVuSans-41"/>
      <use transform="translate(316.618164 -37.88125)scale(0.7)" xlink:href="#DejaVuSans-Oblique-84"/>
      <path d="M 203.618164 19.403125 
L 203.618164 25.653125 
L 472.620764 25.653125 
L 472.620764 19.403125 
L 203.618164 19.403125 
z
"/>
     </g>
    </g>
   </g>
   <g id="line2d_23">
    <path clip-path="url(#p3668ca671c)" d="M 66.84086 94.612995 
L 67.834532 12.158383 
L 68.828204 1.844684 
L 69.821876 27.340595 
L 70.815549 38.448764 
L 71.809221 38.560987 
L 72.802893 22.313761 
L 73.796565 19.414338 
L 74.790238 31.272125 
L 75.78391 19.714395 
L 76.777582 21.454895 
L 77.771254 19.394703 
L 78.764927 24.963313 
L 79.758599 26.545741 
L 80.752271 24.753912 
L 81.745943 23.730271 
L 82.739616 25.824578 
L 83.733288 29.438209 
L 84.72696 31.805617 
L 85.720632 28.714148 
L 86.714305 26.770519 
L 87.707977 29.994957 
L 89.695321 28.856972 
L 90.688994 30.008345 
L 91.682666 29.009512 
L 92.676338 28.465326 
L 93.67001 25.944154 
L 94.663682 25.466447 
L 96.651027 30.378441 
L 97.644699 31.428075 
L 98.638371 29.973601 
L 100.625716 31.533092 
L 101.619388 30.344766 
L 102.61306 31.63966 
L 103.606733 28.542367 
L 104.600405 28.362545 
L 105.594077 28.651974 
L 106.587749 31.155842 
L 107.581422 29.137242 
L 108.575094 28.695651 
L 109.568766 27.924551 
L 110.562438 29.674183 
L 111.556111 28.453795 
L 112.549783 29.369201 
L 113.543455 27.895034 
L 114.537127 28.705493 
L 115.5308 26.624119 
L 116.524472 26.242565 
L 117.518144 26.868167 
L 118.511816 26.108581 
L 119.505489 26.047676 
L 120.499161 26.813287 
L 121.492833 28.089536 
L 122.486505 26.318611 
L 123.480177 28.274006 
L 124.47385 27.698003 
L 125.467522 30.29339 
L 126.461194 28.303539 
L 127.454866 29.938098 
L 128.448539 29.867562 
L 129.442211 30.69611 
L 130.435883 30.231812 
L 131.429555 30.984338 
L 132.423228 30.528269 
L 133.4169 31.135395 
L 134.410572 29.98928 
L 135.404244 31.302676 
L 136.397917 29.706217 
L 137.391589 30.849037 
L 138.385261 29.114526 
L 140.372606 30.752967 
L 141.366278 30.97057 
L 142.35995 30.171228 
L 143.353622 32.23159 
L 144.347295 31.580137 
L 145.340967 31.926621 
L 146.334639 33.355552 
L 147.328311 32.999476 
L 148.321983 34.116265 
L 149.315656 33.476492 
L 150.309328 32.470069 
L 151.303 32.179792 
L 152.296672 32.966562 
L 153.290345 32.450117 
L 154.284017 31.803479 
L 155.277689 30.843496 
L 156.271361 31.184135 
L 157.265034 31.312288 
L 158.258706 30.089343 
L 159.252378 30.879783 
L 160.24605 29.532748 
L 161.239723 29.576707 
L 162.233395 30.265787 
L 164.220739 30.267193 
L 165.214412 30.359197 
L 166.208084 30.105456 
L 167.201756 30.496109 
L 169.189101 29.88408 
L 170.182773 30.433454 
L 171.176445 31.288476 
L 172.170117 31.285814 
L 173.16379 30.950364 
L 174.157462 31.100807 
L 175.151134 30.930648 
L 176.144806 32.437115 
L 177.138478 31.814543 
L 178.132151 30.939009 
L 179.125823 31.586899 
L 180.119495 31.860113 
L 181.113167 31.134973 
L 182.10684 30.8108 
L 183.100512 30.917769 
L 184.094184 31.255668 
L 185.087856 31.108225 
L 186.081529 31.900998 
L 187.075201 31.965699 
L 188.068873 31.51777 
L 189.062545 31.264222 
L 190.056218 32.172167 
L 191.04989 31.748353 
L 192.043562 32.667297 
L 193.037234 32.295761 
L 194.030907 31.459363 
L 195.024579 31.795627 
L 196.018251 32.339953 
L 197.011923 32.049437 
L 198.005596 32.111225 
L 198.999268 32.378146 
L 199.99294 31.600201 
L 200.986612 31.356313 
L 201.980284 30.990809 
L 202.973957 31.697516 
L 204.961301 32.731061 
L 206.948646 32.75813 
L 207.942318 33.009798 
L 208.93599 33.639748 
L 209.929662 33.43326 
L 210.923335 33.484859 
L 211.917007 33.745716 
L 212.910679 33.722283 
L 213.904351 34.127481 
L 214.898024 33.807086 
L 215.891696 33.881084 
L 216.885368 34.26806 
L 219.866385 34.83055 
L 220.860057 34.478032 
L 221.853729 33.828189 
L 222.847402 33.873518 
L 223.841074 33.735535 
L 224.834746 34.14006 
L 225.828418 33.726946 
L 226.822091 34.112746 
L 228.809435 34.020291 
L 229.803107 34.122957 
L 230.796779 33.394806 
L 231.790452 33.966094 
L 234.771468 34.404938 
L 236.758813 34.050388 
L 238.746157 34.207022 
L 239.73983 34.341569 
L 240.733502 34.674662 
L 241.727174 34.674765 
L 242.720846 36.117094 
L 243.714519 35.297507 
L 244.708191 35.084019 
L 245.701863 35.866731 
L 247.689208 35.604269 
L 248.68288 36.08541 
L 249.676552 35.480825 
L 250.670224 35.252727 
L 251.663897 35.524907 
L 252.657569 34.9234 
L 253.651241 35.266238 
L 254.644913 35.431375 
L 255.638585 35.795755 
L 256.632258 35.819888 
L 258.619602 35.083604 
L 259.613274 34.591404 
L 260.606947 35.056659 
L 261.600619 34.746974 
L 262.594291 35.711121 
L 263.587963 35.929794 
L 264.581636 36.384491 
L 265.575308 36.179201 
L 266.56898 35.849997 
L 267.562652 36.011876 
L 268.556325 35.665243 
L 269.549997 35.196395 
L 270.543669 35.568533 
L 271.537341 35.680186 
L 272.531014 35.990592 
L 273.524686 35.951735 
L 274.518358 36.360393 
L 275.51203 35.639649 
L 276.505703 36.134316 
L 277.499375 35.932613 
L 278.493047 35.559385 
L 279.486719 35.65194 
L 280.480392 35.959461 
L 281.474064 36.11697 
L 283.461408 36.16164 
L 284.45508 36.224026 
L 285.448753 35.96906 
L 287.436097 36.289055 
L 288.429769 35.640797 
L 289.423442 35.951841 
L 290.417114 36.424807 
L 291.410786 36.459645 
L 292.404458 35.978261 
L 294.391803 36.921038 
L 295.385475 36.421178 
L 297.37282 36.897105 
L 298.366492 36.950536 
L 299.360164 37.221778 
L 301.347509 37.325584 
L 302.341181 37.095679 
L 303.334853 37.539058 
L 306.31587 37.181801 
L 307.309542 37.443146 
L 309.296886 37.23683 
L 310.290559 37.280615 
L 311.284231 37.789199 
L 312.277903 37.656885 
L 313.271575 37.235629 
L 314.265248 37.296044 
L 315.25892 36.922634 
L 318.239937 37.318015 
L 319.233609 36.946107 
L 320.227281 36.942887 
L 321.220953 36.819642 
L 322.214626 36.813231 
L 323.208298 36.44864 
L 324.20197 36.821686 
L 325.195642 36.739577 
L 326.189315 37.060938 
L 327.182987 36.883253 
L 329.170331 37.290763 
L 330.164004 37.704656 
L 331.157676 37.462368 
L 332.151348 36.868277 
L 333.14502 37.083809 
L 334.138693 36.713581 
L 335.132365 36.902472 
L 336.126037 36.950394 
L 337.119709 36.386313 
L 338.113381 36.729041 
L 339.107054 36.554014 
L 340.100726 36.89215 
L 341.094398 36.287488 
L 342.08807 36.359563 
L 343.081743 36.569556 
L 344.075415 36.311998 
L 345.069087 37.088152 
L 347.056432 36.572992 
L 349.043776 36.439143 
L 350.037448 36.624991 
L 351.031121 36.436985 
L 352.024793 35.856529 
L 353.018465 36.239924 
L 354.012137 36.27228 
L 355.00581 36.121909 
L 355.999482 35.778599 
L 356.993154 36.035925 
L 359.974171 35.795038 
L 360.967843 36.015507 
L 361.961515 35.825339 
L 362.955188 36.026946 
L 362.955188 36.026946 
" style="fill:none;stroke:#1b9e77;stroke-linecap:round;stroke-width:1.3;"/>
   </g>
   <g id="line2d_24">
    <path clip-path="url(#p3668ca671c)" d="M 66.591819 93.489208 
L 67.027322 153.844219 
M 67.608036 153.844219 
L 68.081082 79.223434 
L 68.825714 78.15566 
L 69.570345 80.241487 
L 70.314977 60.269281 
L 71.059609 45.067839 
L 71.80424 68.999861 
L 72.548872 30.374331 
L 73.293503 75.401688 
L 74.038135 67.4544 
L 75.527398 36.289721 
L 76.27203 52.983746 
L 77.016661 43.458152 
L 77.761293 60.383555 
L 79.250556 41.539919 
L 79.995188 51.255034 
L 80.739819 38.31531 
L 81.484451 35.879703 
L 82.229082 37.498834 
L 82.973714 32.827448 
L 83.718345 40.541416 
L 84.462977 31.150353 
L 85.207609 31.161799 
L 85.95224 31.756205 
L 87.441503 36.602186 
L 88.186135 30.378194 
L 88.930766 22.5854 
L 89.675398 24.905113 
L 90.42003 34.495706 
L 91.164661 27.179512 
L 91.909293 29.511477 
L 92.653924 27.084382 
L 93.398556 20.257162 
L 94.143187 23.352044 
L 94.887819 31.283147 
L 95.632451 29.302809 
L 96.377082 25.910856 
L 97.121714 27.229296 
L 97.866345 22.956384 
L 98.610977 24.282683 
L 99.355609 26.472832 
L 100.10024 24.276341 
L 100.844872 23.054754 
L 101.589503 26.376758 
L 102.334135 27.20278 
L 103.078766 23.424478 
L 103.823398 28.049358 
L 104.56803 28.656714 
L 105.312661 30.742682 
L 106.057293 31.388933 
L 106.801924 27.001281 
L 107.546556 27.640878 
L 108.291188 30.544618 
L 109.035819 31.038893 
L 109.780451 36.645847 
L 110.525082 36.2618 
L 111.269714 33.3686 
L 112.014345 34.991743 
L 112.758977 35.930992 
L 113.503609 31.611228 
L 114.24824 29.450058 
L 114.992872 28.973351 
L 115.737503 31.931085 
L 116.482135 30.660537 
L 117.226766 31.715649 
L 117.971398 30.360726 
L 118.71603 31.45063 
L 119.460661 32.106896 
L 120.205293 30.218948 
L 120.949924 31.133836 
L 121.694556 30.400526 
L 122.439188 31.255679 
L 123.183819 29.087172 
L 123.928451 30.689503 
L 124.673082 28.720161 
L 125.417714 27.174281 
L 126.162345 30.896716 
L 126.906977 33.016994 
L 127.651609 33.238593 
L 128.39624 34.382404 
L 129.140872 32.222783 
L 130.630135 32.317235 
L 131.374766 34.112031 
L 132.119398 32.73545 
L 132.86403 32.878232 
L 133.608661 31.777689 
L 134.353293 30.424131 
L 135.097924 30.818248 
L 135.842556 33.129854 
L 136.587187 32.889761 
L 137.331819 32.772092 
L 138.076451 34.451492 
L 139.565714 32.21931 
L 140.310345 32.341466 
L 141.054977 32.181549 
L 141.799609 30.999853 
L 142.54424 30.832326 
L 143.288872 31.790811 
L 144.033503 31.192298 
L 144.778135 29.829164 
L 145.522766 29.143034 
L 146.267398 30.175588 
L 147.01203 30.056102 
L 147.756661 28.554599 
L 148.501293 29.008604 
L 149.245924 31.682314 
L 149.990556 32.767551 
L 150.735187 32.164498 
L 151.479819 32.483395 
L 152.224451 33.584761 
L 152.969082 34.265511 
L 153.713714 34.539906 
L 154.458345 32.374466 
L 155.202977 33.268562 
L 155.947609 33.748076 
L 156.69224 31.852385 
L 157.436872 32.856698 
L 158.181503 32.930549 
L 158.926135 33.296699 
L 160.415398 36.252659 
L 161.16003 33.691063 
L 161.904661 33.230686 
L 162.649293 34.805784 
L 163.393924 33.663829 
L 164.138556 33.318024 
L 164.883187 33.349111 
L 165.627819 35.604168 
L 167.117082 32.217798 
L 167.861714 31.184679 
L 168.606345 32.07465 
L 169.350977 30.230604 
L 170.095609 32.667919 
L 171.584872 31.223698 
L 172.329503 32.032126 
L 173.074135 31.542126 
L 173.818766 30.071573 
L 174.563398 31.23705 
L 175.30803 31.07348 
L 176.052661 29.595565 
L 176.797293 29.868482 
L 177.541924 29.15001 
L 178.286556 30.398091 
L 179.031187 30.341312 
L 179.775819 28.569013 
L 180.520451 29.773755 
L 181.265082 28.477374 
L 182.009714 29.184131 
L 182.754345 29.132768 
L 183.498977 30.240839 
L 184.243609 28.622993 
L 184.98824 28.011967 
L 185.732872 29.51306 
L 186.477503 29.620168 
L 187.222135 28.87048 
L 187.966766 27.878021 
L 188.711398 29.82361 
L 189.45603 29.659009 
L 190.200661 28.918375 
L 190.945293 28.841618 
L 191.689924 27.485602 
L 192.434556 29.676699 
L 193.923819 29.11695 
L 194.668451 28.452527 
L 195.413082 27.57722 
L 196.157714 28.568419 
L 196.902345 26.118325 
L 197.646977 27.355074 
L 198.391609 27.476998 
L 199.880872 27.029313 
L 201.370135 29.666032 
L 202.114766 27.521948 
L 202.859398 28.68357 
L 203.60403 28.769234 
L 204.348661 29.192996 
L 205.093293 28.70678 
L 205.837924 29.814773 
L 206.582556 30.592448 
L 207.327187 29.836396 
L 208.071819 29.992042 
L 209.561082 31.111369 
L 210.305714 30.705199 
L 211.050345 31.064523 
L 211.794977 30.083253 
L 212.539609 31.317935 
L 213.28424 30.804656 
L 214.028872 30.106434 
L 214.773503 30.166395 
L 215.518135 29.261335 
L 216.262766 29.882065 
L 217.007398 30.249878 
L 217.75203 29.69814 
L 219.241293 29.388961 
L 220.730556 30.417499 
L 221.475187 29.736443 
L 222.219819 30.783374 
L 222.964451 28.901048 
L 223.709082 30.184995 
L 224.453714 30.028615 
L 226.687609 28.962949 
L 227.43224 27.873634 
L 228.921503 27.839351 
L 229.666135 28.127301 
L 231.155398 28.990785 
L 231.90003 28.710092 
L 232.644661 27.974341 
L 233.389293 28.380936 
L 234.133924 27.566368 
L 234.878556 27.461054 
L 235.623187 28.271046 
L 236.367819 28.156645 
L 237.112451 27.53871 
L 237.857082 27.197623 
L 238.601714 27.309444 
L 239.346345 28.118666 
L 240.090977 27.983514 
L 240.835609 27.23532 
L 241.58024 28.886215 
L 242.324872 27.509651 
L 243.069503 27.459994 
L 243.814135 26.632942 
L 244.558766 26.658503 
L 245.303398 26.180346 
L 246.04803 27.439894 
L 246.792661 27.652136 
L 247.537293 26.574589 
L 248.281924 26.88164 
L 249.026556 26.786181 
L 249.771187 27.078043 
L 250.515819 27.136831 
L 251.260451 26.143103 
L 252.005082 26.829433 
L 252.749714 26.152777 
L 253.494345 26.248048 
L 254.238977 26.205257 
L 254.983609 26.624813 
L 255.72824 27.296932 
L 256.472872 26.994384 
L 257.217503 26.344746 
L 257.962135 26.68682 
L 258.706766 27.457421 
L 259.451398 27.469643 
L 260.19603 26.043847 
L 261.685293 26.50715 
L 262.429924 27.039519 
L 263.174556 26.490314 
L 264.663819 26.938601 
L 265.408451 26.673825 
L 266.153082 26.189046 
L 266.897714 27.148735 
L 267.642345 26.336211 
L 268.386977 25.789293 
L 269.131609 25.827672 
L 269.87624 25.651395 
L 270.620872 26.659399 
L 271.365503 25.876761 
L 272.110135 25.994322 
L 272.854766 26.30499 
L 273.599398 26.216675 
L 274.34403 26.649766 
L 275.088661 26.389279 
L 275.833293 25.848788 
L 277.322556 26.399449 
L 278.067187 25.917231 
L 278.811819 25.883038 
L 279.556451 26.370142 
L 280.301082 25.987593 
L 281.045714 25.861282 
L 281.790345 25.374004 
L 282.534977 25.670603 
L 283.279609 26.324835 
L 284.02424 25.984045 
L 284.768872 25.381979 
L 285.513503 25.403547 
L 286.258135 25.66908 
L 287.002766 25.516967 
L 287.747398 24.837118 
L 288.49203 24.759802 
L 289.236661 25.668806 
L 289.981293 25.539204 
L 290.725924 25.11865 
L 291.470556 25.210338 
L 292.215187 25.178551 
L 292.959819 25.431907 
L 293.704451 25.290925 
L 294.449082 24.623696 
L 295.193714 25.413404 
L 295.938345 25.39899 
L 296.682977 26.149679 
L 297.427609 26.134476 
L 298.17224 26.652081 
L 298.916872 26.754262 
L 299.661503 27.047403 
L 300.406135 26.547347 
L 301.150766 26.65915 
L 301.895398 26.266528 
L 302.64003 27.099699 
L 304.129293 26.865109 
L 304.873924 27.064453 
L 305.618556 26.661081 
L 306.363187 26.502593 
L 307.107819 26.99119 
L 307.852451 26.96804 
L 308.597082 27.13637 
L 309.341714 27.498463 
L 310.086345 26.981608 
L 310.830977 26.771231 
L 311.575609 26.827198 
L 312.32024 26.62413 
L 313.064872 26.230729 
L 313.809503 25.676123 
L 314.554135 25.333503 
L 316.78803 25.815405 
L 317.532661 26.273279 
L 319.021924 25.093075 
L 319.766556 25.084445 
L 320.511188 25.537744 
L 321.255819 25.280372 
L 322.000451 25.290125 
L 322.745082 25.002416 
L 323.489714 24.918833 
L 324.978977 24.378676 
L 325.723609 24.277402 
L 326.46824 25.331366 
L 327.212872 24.115335 
L 327.957503 23.622852 
L 328.702135 24.249335 
L 329.446766 24.229556 
L 330.191398 23.754349 
L 330.93603 24.547829 
L 331.680661 24.519435 
L 332.425293 24.875944 
L 333.169924 24.992986 
L 333.914556 24.872726 
L 334.659187 25.332645 
L 335.403819 24.569085 
L 336.148451 24.933548 
L 336.893082 24.827222 
L 337.637714 24.600366 
L 338.382345 25.119641 
L 339.126977 25.366014 
L 339.871609 25.297567 
L 340.61624 24.963143 
L 341.360872 25.290612 
L 342.105503 25.31851 
L 342.850135 24.717872 
L 343.594766 25.848177 
L 344.339398 26.649303 
L 345.08403 25.322649 
L 345.828661 25.606493 
L 346.573293 25.249397 
L 348.062556 26.064241 
L 348.807187 25.574992 
L 349.551819 26.012759 
L 350.296451 26.074075 
L 351.041082 26.332042 
L 351.785714 26.880046 
L 352.530345 26.122751 
L 353.274977 25.549651 
L 354.019609 25.447067 
L 354.76424 25.513981 
L 355.508872 25.306747 
L 356.998135 25.55107 
L 357.742766 25.02837 
L 358.487398 25.408531 
L 359.23203 25.200194 
L 359.976661 25.231353 
L 360.721293 24.732694 
L 361.465924 24.743772 
L 362.210556 24.932445 
L 362.955188 24.914886 
L 362.955188 24.914886 
" style="fill:none;stroke:#d95f02;stroke-dasharray:4.81,2.08;stroke-dashoffset:0;stroke-width:1.3;"/>
   </g>
   <g id="line2d_25">
    <path clip-path="url(#p3668ca671c)" d="M 68.467825 -1 
L 68.825714 20.817703 
L 69.570345 15.546629 
L 71.059609 63.16029 
L 71.80424 45.893673 
L 72.548872 42.652067 
L 73.293503 30.580757 
L 74.038135 15.690481 
L 74.782766 13.115045 
L 75.527398 0.354463 
L 76.27203 15.932042 
L 77.016661 4.541773 
L 77.761293 21.036683 
L 78.505924 12.15057 
L 79.250556 11.940239 
L 79.995188 0.651135 
L 80.341004 -1 
M 80.948812 -1 
L 81.484451 3.880339 
L 82.229082 8.905013 
L 82.973714 12.429312 
L 83.718345 14.328601 
L 84.462977 18.455387 
L 85.207609 10.382336 
L 85.95224 20.7818 
L 86.696872 16.025811 
L 87.441503 18.034842 
L 88.186135 13.689108 
L 88.930766 18.613248 
L 89.675398 27.296553 
L 90.42003 21.407596 
L 91.164661 20.360371 
L 91.909293 17.86149 
L 92.653924 22.52392 
L 93.398556 31.196789 
L 94.143187 30.207833 
L 94.887819 27.88153 
L 96.377082 18.152583 
L 97.121714 21.63695 
L 97.866345 23.483228 
L 98.610977 28.146178 
L 99.355609 29.134807 
L 100.10024 32.559863 
L 100.844872 33.16421 
L 101.589503 32.912377 
L 102.334135 31.348361 
L 103.078766 26.857818 
L 103.823398 29.664622 
L 104.56803 26.656447 
L 105.312661 27.535171 
L 106.057293 29.544369 
L 106.801924 30.937356 
L 107.546556 28.762444 
L 108.291188 23.012468 
L 109.035819 27.009726 
L 109.780451 28.529637 
L 110.525082 29.466107 
L 111.269714 29.789199 
L 112.758977 29.425119 
L 113.503609 33.134314 
L 114.24824 34.498952 
L 114.992872 33.690272 
L 115.737503 33.928532 
L 116.482135 32.574799 
L 117.226766 31.894603 
L 117.971398 34.218971 
L 118.71603 33.619597 
L 119.460661 31.176635 
L 120.205293 31.086543 
L 120.949924 32.464749 
L 121.694556 29.401253 
L 122.439188 32.527103 
L 123.183819 30.93321 
L 123.928451 30.967171 
L 124.673082 29.612414 
L 125.417714 28.953958 
L 126.162345 30.706374 
L 127.651609 28.203162 
L 128.39624 29.532189 
L 129.140872 29.113184 
L 129.885503 33.560903 
L 130.630135 33.067459 
L 131.374766 31.699089 
L 132.119398 29.355312 
L 132.86403 32.326848 
L 133.608661 33.229245 
L 134.353293 33.321008 
L 135.097924 32.639609 
L 135.842556 32.158779 
L 136.587187 32.333576 
L 137.331819 29.878028 
L 138.076451 30.264402 
L 139.565714 32.158712 
L 140.310345 32.505314 
L 141.054977 32.054436 
L 141.799609 32.740798 
L 142.54424 34.238002 
L 143.288872 32.212956 
L 144.033503 31.167522 
L 144.778135 31.5803 
L 145.522766 30.722786 
L 146.267398 33.562779 
L 147.01203 32.227952 
L 147.756661 32.774567 
L 148.501293 31.917943 
L 149.245924 32.932705 
L 149.990556 31.849352 
L 151.479819 35.702713 
L 152.224451 34.65444 
L 152.969082 34.645179 
L 153.713714 37.446609 
L 154.458345 38.783682 
L 155.202977 35.286539 
L 156.69224 35.724977 
L 157.436872 36.659219 
L 158.181503 36.949387 
L 158.926135 35.831577 
L 159.670766 36.361215 
L 161.16003 36.941888 
L 161.904661 36.597198 
L 162.649293 39.033428 
L 163.393924 37.64811 
L 164.138556 37.236431 
L 164.883187 38.173689 
L 165.627819 38.169898 
L 167.117082 37.432259 
L 167.861714 36.742005 
L 168.606345 40.205035 
L 169.350977 39.423458 
L 170.84024 38.422454 
L 171.584872 38.350587 
L 172.329503 37.388543 
L 173.074135 37.542899 
L 173.818766 38.2585 
L 174.563398 36.86458 
L 175.30803 36.951553 
L 176.052661 37.172428 
L 176.797293 37.968632 
L 177.541924 37.380811 
L 178.286556 37.042392 
L 179.031187 36.566604 
L 179.775819 34.908289 
L 180.520451 34.525028 
L 181.265082 35.098124 
L 182.009714 36.24633 
L 182.754345 36.056973 
L 183.498977 36.298542 
L 184.243609 35.659108 
L 184.98824 35.363137 
L 185.732872 33.883689 
L 186.477503 34.488199 
L 187.222135 34.685826 
L 187.966766 33.680856 
L 188.711398 35.028224 
L 189.45603 34.181536 
L 190.200661 32.684435 
L 190.945293 33.140186 
L 191.689924 32.56259 
L 192.434556 32.619928 
L 193.179188 31.895551 
L 193.923819 33.37459 
L 194.668451 32.342777 
L 195.413082 33.181046 
L 196.157714 33.465578 
L 196.902345 32.820259 
L 197.646977 32.688171 
L 198.391609 33.798425 
L 199.13624 32.806452 
L 200.625503 32.165474 
L 201.370135 32.967412 
L 202.114766 32.586742 
L 203.60403 32.80903 
L 204.348661 32.17502 
L 205.093293 32.483245 
L 205.837924 32.652551 
L 206.582556 32.968999 
L 207.327187 33.120412 
L 208.071819 31.658927 
L 208.816451 31.650175 
L 209.561082 32.337525 
L 210.305714 31.743661 
L 211.050345 31.688297 
L 211.794977 32.507586 
L 212.539609 32.757393 
L 213.28424 31.350124 
L 214.028872 32.25135 
L 214.773503 31.610176 
L 215.518135 31.816067 
L 216.262766 32.450548 
L 217.007398 32.352837 
L 217.75203 32.589017 
L 218.496661 33.365515 
L 219.241293 31.94619 
L 219.985924 31.835656 
L 220.730556 32.172635 
L 221.475187 31.554915 
L 222.219819 32.569643 
L 222.964451 32.755583 
L 224.453714 32.243759 
L 225.198345 32.607073 
L 226.687609 34.110352 
L 227.43224 33.363119 
L 228.176872 33.546024 
L 228.921503 33.013033 
L 229.666135 33.428007 
L 230.410766 32.932986 
L 231.155398 31.776279 
L 231.90003 34.142602 
L 232.644661 33.446277 
L 233.389293 33.934806 
L 234.133924 32.988222 
L 234.878556 32.791252 
L 235.623187 32.798102 
L 236.367819 33.804355 
L 237.857082 33.303372 
L 238.601714 32.387735 
L 239.346345 33.267497 
L 240.090977 33.846303 
L 240.835609 33.396567 
L 241.58024 33.259681 
L 242.324872 33.44776 
L 243.814135 32.543195 
L 244.558766 32.890646 
L 245.303398 32.657931 
L 246.04803 31.844805 
L 246.792661 32.772907 
L 247.537293 32.234783 
L 248.281924 32.299373 
L 249.026556 31.937249 
L 249.771187 32.491578 
L 250.515819 32.06771 
L 251.260451 33.783152 
L 252.005082 33.157766 
L 252.749714 33.185269 
L 253.494345 33.734401 
L 254.238977 32.829023 
L 254.983609 33.77629 
L 255.72824 34.447119 
L 257.217503 33.946202 
L 257.962135 32.915695 
L 258.706766 33.239746 
L 259.451398 32.567563 
L 260.19603 32.881518 
L 261.685293 32.602683 
L 262.429924 33.2455 
L 263.174556 33.366984 
L 263.919187 32.475722 
L 264.663819 32.69662 
L 265.408451 32.745064 
L 266.153082 32.508911 
L 266.897714 32.557851 
L 267.642345 32.287501 
L 268.386977 33.374435 
L 269.131609 33.317589 
L 269.87624 33.432563 
L 270.620872 33.292997 
L 271.365503 34.535932 
L 272.110135 34.647483 
L 272.854766 33.719271 
L 273.599398 33.721065 
L 274.34403 33.952814 
L 275.088661 33.811676 
L 275.833293 33.939996 
L 278.067187 33.450368 
L 278.811819 33.766994 
L 279.556451 34.39664 
L 280.301082 33.912906 
L 281.045714 33.951989 
L 281.790345 33.392359 
L 282.534977 33.5718 
L 283.279609 32.847357 
L 284.02424 33.212811 
L 284.768872 31.732498 
L 285.513503 32.597149 
L 286.258135 32.60823 
L 287.002766 32.385701 
L 287.747398 32.537644 
L 288.49203 32.48744 
L 289.236661 32.638436 
L 289.981293 32.209326 
L 290.725924 31.259567 
L 291.470556 32.041516 
L 292.215187 31.824093 
L 292.959819 30.66889 
L 294.449082 30.914153 
L 295.193714 30.878561 
L 295.938345 30.404927 
L 296.682977 30.416561 
L 297.427609 30.786221 
L 298.17224 30.824411 
L 298.916872 30.677002 
L 299.661503 30.146678 
L 300.406135 30.236411 
L 301.150766 30.209935 
L 301.895398 30.319558 
L 302.64003 30.261839 
L 303.384661 30.051251 
L 304.873924 31.011318 
L 305.618556 30.549848 
L 306.363187 30.776321 
L 307.107819 30.160324 
L 307.852451 30.534428 
L 308.597082 30.546713 
L 309.341714 30.382305 
L 310.086345 30.741954 
L 310.830977 30.285497 
L 311.575609 30.256714 
L 312.32024 29.775914 
L 313.064872 30.147853 
L 313.809503 30.857307 
L 314.554135 30.74553 
L 315.298766 30.167145 
L 316.043398 29.893018 
L 316.78803 30.237074 
L 317.532661 30.306576 
L 318.277293 29.666197 
L 319.021924 29.85011 
L 319.766556 29.110618 
L 320.511188 29.784071 
L 321.255819 30.671978 
L 322.000451 31.14098 
L 323.489714 31.199099 
L 324.234345 30.298511 
L 324.978977 31.021414 
L 325.723609 30.369444 
L 326.46824 30.597792 
L 327.957503 30.596124 
L 328.702135 30.767631 
L 329.446766 30.72958 
L 330.191398 31.095088 
L 330.93603 30.514925 
L 332.425293 30.199823 
L 333.169924 30.375347 
L 333.914556 30.20416 
L 334.659187 30.512326 
L 336.148451 30.502914 
L 336.893082 30.178695 
L 337.637714 30.266637 
L 338.382345 30.564494 
L 339.126977 29.961135 
L 339.871609 29.623648 
L 340.61624 29.843746 
L 341.360872 29.137158 
L 342.105503 29.10029 
L 342.850135 29.42378 
L 345.08403 29.679914 
L 345.828661 30.338353 
L 347.317924 29.969514 
L 348.062556 30.387064 
L 348.807187 31.063314 
L 350.296451 30.660376 
L 351.041082 30.922801 
L 351.785714 30.598048 
L 352.530345 30.831678 
L 353.274977 30.401243 
L 355.508872 31.253729 
L 356.998135 31.696295 
L 357.742766 32.202209 
L 358.487398 30.715336 
L 359.23203 31.200002 
L 359.976661 30.707572 
L 360.721293 31.242512 
L 361.465924 31.067594 
L 362.210556 31.504992 
L 362.955188 31.414683 
L 362.955188 31.414683 
" style="fill:none;stroke:#7570b3;stroke-dasharray:8.32,2.08,1.3,2.08;stroke-dashoffset:0;stroke-width:1.3;"/>
   </g>
   <g id="line2d_26">
    <path clip-path="url(#p3668ca671c)" d="M 65.847188 69.759506 
L 362.955188 69.759506 
" style="fill:none;stroke:#cd401a;stroke-dasharray:1.5,2.475;stroke-dashoffset:0;stroke-width:1.5;"/>
   </g>
   <g id="patch_3">
    <path d="M 65.847188 119.498906 
L 65.847188 10.778906 
" style="fill:none;stroke:#cccccc;stroke-linecap:square;stroke-linejoin:miter;"/>
   </g>
   <g id="patch_4">
    <path d="M 362.955188 119.498906 
L 362.955188 10.778906 
" style="fill:none;stroke:#cccccc;stroke-linecap:square;stroke-linejoin:miter;"/>
   </g>
   <g id="patch_5">
    <path d="M 65.847188 119.498906 
L 362.955188 119.498906 
" style="fill:none;stroke:#cccccc;stroke-linecap:square;stroke-linejoin:miter;"/>
   </g>
   <g id="patch_6">
    <path d="M 65.847188 10.778906 
L 362.955188 10.778906 
" style="fill:none;stroke:#cccccc;stroke-linecap:square;stroke-linejoin:miter;"/>
   </g>
  </g>
  <g id="legend_1">
   <g id="line2d_27">
    <path d="M 367.247187 53.511953 
L 387.247187 53.511953 
" style="fill:none;stroke:#1b9e77;stroke-linecap:round;stroke-width:1.3;"/>
   </g>
   <g id="line2d_28"/>
   <g id="text_14">
    <!-- $N_S=10^3$ -->
    <defs>
     <path d="M 16.890625 72.90625 
L 30.171875 72.90625 
L 50.296875 10.40625 
L 62.5 72.90625 
L 72.125 72.90625 
L 57.90625 0 
L 44.578125 0 
L 24.515625 62.890625 
L 12.3125 0 
L 2.6875 0 
z
" id="DejaVuSans-Oblique-78"/>
     <path d="M 60.296875 70.515625 
L 58.40625 60.890625 
Q 53.46875 63.53125 48.609375 64.875 
Q 43.75 66.21875 39.203125 66.21875 
Q 30.375 66.21875 25.140625 62.359375 
Q 19.921875 58.5 19.921875 52.09375 
Q 19.921875 48.578125 21.84375 46.703125 
Q 23.78125 44.828125 31.78125 42.671875 
L 37.703125 41.21875 
Q 47.703125 38.625 51.609375 34.640625 
Q 55.515625 30.671875 55.515625 23.484375 
Q 55.515625 12.453125 46.84375 5.515625 
Q 38.1875 -1.421875 24.03125 -1.421875 
Q 18.21875 -1.421875 12.359375 -0.265625 
Q 6.5 0.875 0.59375 3.21875 
L 2.59375 13.375 
Q 8.015625 10.015625 13.453125 8.296875 
Q 18.890625 6.59375 24.3125 6.59375 
Q 33.546875 6.59375 39.109375 10.6875 
Q 44.671875 14.796875 44.671875 21.390625 
Q 44.671875 25.78125 42.453125 28.046875 
Q 40.234375 30.328125 32.90625 32.171875 
L 27 33.6875 
Q 16.890625 36.328125 13.203125 39.765625 
Q 9.515625 43.21875 9.515625 49.421875 
Q 9.515625 60.296875 17.890625 67.25 
Q 26.265625 74.21875 39.703125 74.21875 
Q 44.921875 74.21875 50.046875 73.28125 
Q 55.171875 72.359375 60.296875 70.515625 
z
" id="DejaVuSans-Oblique-83"/>
     <path d="M 12.40625 8.296875 
L 28.515625 8.296875 
L 28.515625 63.921875 
L 10.984375 60.40625 
L 10.984375 69.390625 
L 28.421875 72.90625 
L 38.28125 72.90625 
L 38.28125 8.296875 
L 54.390625 8.296875 
L 54.390625 0 
L 12.40625 0 
z
" id="DejaVuSans-49"/>
     <path d="M 31.78125 66.40625 
Q 24.171875 66.40625 20.328125 58.90625 
Q 16.5 51.421875 16.5 36.375 
Q 16.5 21.390625 20.328125 13.890625 
Q 24.171875 6.390625 31.78125 6.390625 
Q 39.453125 6.390625 43.28125 13.890625 
Q 47.125 21.390625 47.125 36.375 
Q 47.125 51.421875 43.28125 58.90625 
Q 39.453125 66.40625 31.78125 66.40625 
z
M 31.78125 74.21875 
Q 44.046875 74.21875 50.515625 64.515625 
Q 56.984375 54.828125 56.984375 36.375 
Q 56.984375 17.96875 50.515625 8.265625 
Q 44.046875 -1.421875 31.78125 -1.421875 
Q 19.53125 -1.421875 13.0625 8.265625 
Q 6.59375 17.96875 6.59375 36.375 
Q 6.59375 54.828125 13.0625 64.515625 
Q 19.53125 74.21875 31.78125 74.21875 
z
" id="DejaVuSans-48"/>
     <path d="M 40.578125 39.3125 
Q 47.65625 37.796875 51.625 33 
Q 55.609375 28.21875 55.609375 21.1875 
Q 55.609375 10.40625 48.1875 4.484375 
Q 40.765625 -1.421875 27.09375 -1.421875 
Q 22.515625 -1.421875 17.65625 -0.515625 
Q 12.796875 0.390625 7.625 2.203125 
L 7.625 11.71875 
Q 11.71875 9.328125 16.59375 8.109375 
Q 21.484375 6.890625 26.8125 6.890625 
Q 36.078125 6.890625 40.9375 10.546875 
Q 45.796875 14.203125 45.796875 21.1875 
Q 45.796875 27.640625 41.28125 31.265625 
Q 36.765625 34.90625 28.71875 34.90625 
L 20.21875 34.90625 
L 20.21875 43.015625 
L 29.109375 43.015625 
Q 36.375 43.015625 40.234375 45.921875 
Q 44.09375 48.828125 44.09375 54.296875 
Q 44.09375 59.90625 40.109375 62.90625 
Q 36.140625 65.921875 28.71875 65.921875 
Q 24.65625 65.921875 20.015625 65.03125 
Q 15.375 64.15625 9.8125 62.3125 
L 9.8125 71.09375 
Q 15.4375 72.65625 20.34375 73.4375 
Q 25.25 74.21875 29.59375 74.21875 
Q 40.828125 74.21875 47.359375 69.109375 
Q 53.90625 64.015625 53.90625 55.328125 
Q 53.90625 49.265625 50.4375 45.09375 
Q 46.96875 40.921875 40.578125 39.3125 
z
" id="DejaVuSans-51"/>
    </defs>
    <g style="fill:#262626;" transform="translate(395.247187 57.011953)scale(0.1 -0.1)">
     <use transform="translate(0 0.765625)" xlink:href="#DejaVuSans-Oblique-78"/>
     <use transform="translate(74.804688 -15.640625)scale(0.7)" xlink:href="#DejaVuSans-Oblique-83"/>
     <use transform="translate(141.455078 0.765625)" xlink:href="#DejaVuSans-61"/>
     <use transform="translate(244.726562 0.765625)" xlink:href="#DejaVuSans-49"/>
     <use transform="translate(308.349609 0.765625)" xlink:href="#DejaVuSans-48"/>
     <use transform="translate(372.929688 39.046875)scale(0.7)" xlink:href="#DejaVuSans-51"/>
    </g>
   </g>
   <g id="line2d_29">
    <path d="M 367.247187 69.311953 
L 387.247187 69.311953 
" style="fill:none;stroke:#d95f02;stroke-dasharray:4.81,2.08;stroke-dashoffset:0;stroke-width:1.3;"/>
   </g>
   <g id="line2d_30"/>
   <g id="text_15">
    <!-- $N_S=5\times 10^4$ -->
    <defs>
     <path d="M 10.796875 72.90625 
L 49.515625 72.90625 
L 49.515625 64.59375 
L 19.828125 64.59375 
L 19.828125 46.734375 
Q 21.96875 47.46875 24.109375 47.828125 
Q 26.265625 48.1875 28.421875 48.1875 
Q 40.625 48.1875 47.75 41.5 
Q 54.890625 34.8125 54.890625 23.390625 
Q 54.890625 11.625 47.5625 5.09375 
Q 40.234375 -1.421875 26.90625 -1.421875 
Q 22.3125 -1.421875 17.546875 -0.640625 
Q 12.796875 0.140625 7.71875 1.703125 
L 7.71875 11.625 
Q 12.109375 9.234375 16.796875 8.0625 
Q 21.484375 6.890625 26.703125 6.890625 
Q 35.15625 6.890625 40.078125 11.328125 
Q 45.015625 15.765625 45.015625 23.390625 
Q 45.015625 31 40.078125 35.4375 
Q 35.15625 39.890625 26.703125 39.890625 
Q 22.75 39.890625 18.8125 39.015625 
Q 14.890625 38.140625 10.796875 36.28125 
z
" id="DejaVuSans-53"/>
     <path d="M 70.125 53.71875 
L 47.796875 31.296875 
L 70.125 8.984375 
L 64.3125 3.078125 
L 41.890625 25.484375 
L 19.484375 3.078125 
L 13.71875 8.984375 
L 35.984375 31.296875 
L 13.71875 53.71875 
L 19.484375 59.625 
L 41.890625 37.203125 
L 64.3125 59.625 
z
" id="DejaVuSans-215"/>
     <path d="M 37.796875 64.3125 
L 12.890625 25.390625 
L 37.796875 25.390625 
z
M 35.203125 72.90625 
L 47.609375 72.90625 
L 47.609375 25.390625 
L 58.015625 25.390625 
L 58.015625 17.1875 
L 47.609375 17.1875 
L 47.609375 0 
L 37.796875 0 
L 37.796875 17.1875 
L 4.890625 17.1875 
L 4.890625 26.703125 
z
" id="DejaVuSans-52"/>
    </defs>
    <g style="fill:#262626;" transform="translate(395.247187 72.811953)scale(0.1 -0.1)">
     <use transform="translate(0 0.684375)" xlink:href="#DejaVuSans-Oblique-78"/>
     <use transform="translate(74.804688 -15.721875)scale(0.7)" xlink:href="#DejaVuSans-Oblique-83"/>
     <use transform="translate(141.455078 0.684375)" xlink:href="#DejaVuSans-61"/>
     <use transform="translate(244.726562 0.684375)" xlink:href="#DejaVuSans-53"/>
     <use transform="translate(327.832031 0.684375)" xlink:href="#DejaVuSans-215"/>
     <use transform="translate(431.103516 0.684375)" xlink:href="#DejaVuSans-49"/>
     <use transform="translate(494.726562 0.684375)" xlink:href="#DejaVuSans-48"/>
     <use transform="translate(559.306641 38.965625)scale(0.7)" xlink:href="#DejaVuSans-52"/>
    </g>
   </g>
   <g id="line2d_31">
    <path d="M 367.247187 85.111953 
L 387.247187 85.111953 
" style="fill:none;stroke:#7570b3;stroke-dasharray:8.32,2.08,1.3,2.08;stroke-dashoffset:0;stroke-width:1.3;"/>
   </g>
   <g id="line2d_32"/>
   <g id="text_16">
    <!-- $N_S=2\times 10^5$ -->
    <defs>
     <path d="M 19.1875 8.296875 
L 53.609375 8.296875 
L 53.609375 0 
L 7.328125 0 
L 7.328125 8.296875 
Q 12.9375 14.109375 22.625 23.890625 
Q 32.328125 33.6875 34.8125 36.53125 
Q 39.546875 41.84375 41.421875 45.53125 
Q 43.3125 49.21875 43.3125 52.78125 
Q 43.3125 58.59375 39.234375 62.25 
Q 35.15625 65.921875 28.609375 65.921875 
Q 23.96875 65.921875 18.8125 64.3125 
Q 13.671875 62.703125 7.8125 59.421875 
L 7.8125 69.390625 
Q 13.765625 71.78125 18.9375 73 
Q 24.125 74.21875 28.421875 74.21875 
Q 39.75 74.21875 46.484375 68.546875 
Q 53.21875 62.890625 53.21875 53.421875 
Q 53.21875 48.921875 51.53125 44.890625 
Q 49.859375 40.875 45.40625 35.40625 
Q 44.1875 33.984375 37.640625 27.21875 
Q 31.109375 20.453125 19.1875 8.296875 
z
" id="DejaVuSans-50"/>
    </defs>
    <g style="fill:#262626;" transform="translate(395.247187 88.611953)scale(0.1 -0.1)">
     <use transform="translate(0 0.684375)" xlink:href="#DejaVuSans-Oblique-78"/>
     <use transform="translate(74.804688 -15.721875)scale(0.7)" xlink:href="#DejaVuSans-Oblique-83"/>
     <use transform="translate(141.455078 0.684375)" xlink:href="#DejaVuSans-61"/>
     <use transform="translate(244.726562 0.684375)" xlink:href="#DejaVuSans-50"/>
     <use transform="translate(327.832031 0.684375)" xlink:href="#DejaVuSans-215"/>
     <use transform="translate(431.103516 0.684375)" xlink:href="#DejaVuSans-49"/>
     <use transform="translate(494.726562 0.684375)" xlink:href="#DejaVuSans-48"/>
     <use transform="translate(559.306641 38.965625)scale(0.7)" xlink:href="#DejaVuSans-53"/>
    </g>
   </g>
   <g id="line2d_33">
    <path d="M 367.247187 99.257266 
L 387.247187 99.257266 
" style="fill:none;stroke:#cd401a;stroke-dasharray:1.5,2.475;stroke-dashoffset:0;stroke-width:1.5;"/>
   </g>
   <g id="line2d_34"/>
   <g id="text_17">
    <!-- reference -->
    <g style="fill:#262626;" transform="translate(395.247187 102.757266)scale(0.1 -0.1)">
     <use xlink:href="#ArialMT-114"/>
     <use x="33.300781" xlink:href="#ArialMT-101"/>
     <use x="88.916016" xlink:href="#ArialMT-102"/>
     <use x="116.699219" xlink:href="#ArialMT-101"/>
     <use x="172.314453" xlink:href="#ArialMT-114"/>
     <use x="205.615234" xlink:href="#ArialMT-101"/>
     <use x="261.230469" xlink:href="#ArialMT-110"/>
     <use x="316.845703" xlink:href="#ArialMT-99"/>
     <use x="366.845703" xlink:href="#ArialMT-101"/>
    </g>
   </g>
  </g>
 </g>
 <defs>
  <clipPath id="p3668ca671c">
   <rect height="108.72" width="297.108" x="65.847188" y="10.778906"/>
  </clipPath>
 </defs>
</svg>
