<?xml version="1.0" encoding="utf-8" standalone="no"?>
<!DOCTYPE svg PUBLIC "-//W3C//DTD SVG 1.1//EN"
  "http://www.w3.org/Graphics/SVG/1.1/DTD/svg11.dtd">
<!-- Created with matplotlib (https://matplotlib.org/) -->
<svg height="161.545312pt" version="1.1" viewBox="0 0 437 161.545312" width="437pt" xmlns="http://www.w3.org/2000/svg" xmlns:xlink="http://www.w3.org/1999/xlink">
 <defs>
  <style type="text/css">
*{stroke-linecap:butt;stroke-linejoin:round;}
  </style>
 </defs>
 <g id="figure_1">
  <g id="patch_1">
   <path d="M 0 161.545312 
L 437 161.545312 
L 437 0 
L 0 0 
z
" style="fill:#ffffff;"/>
  </g>
  <g id="axes_1">
   <g id="patch_2">
    <path d="M 37.9 128.2 
L 335.008 128.2 
L 335.008 19.48 
L 37.9 19.48 
z
" style="fill:#ffffff;"/>
   </g>
   <g id="matplotlib.axis_1">
    <g id="xtick_1">
     <g id="line2d_1">
      <path clip-path="url(#p8ae44b4671)" d="M 96.845275 128.2 
L 96.845275 19.48 
" style="fill:none;stroke:#cccccc;stroke-linecap:round;stroke-width:0.8;"/>
     </g>
     <g id="line2d_2"/>
     <g id="text_1">
      <!-- 100 -->
      <defs>
       <path d="M 37.25 0 
L 28.46875 0 
L 28.46875 56 
Q 25.296875 52.984375 20.140625 49.953125 
Q 14.984375 46.921875 10.890625 45.40625 
L 10.890625 53.90625 
Q 18.265625 57.375 23.78125 62.296875 
Q 29.296875 67.234375 31.59375 71.875 
L 37.25 71.875 
z
" id="ArialMT-49"/>
       <path d="M 4.15625 35.296875 
Q 4.15625 48 6.765625 55.734375 
Q 9.375 63.484375 14.515625 67.671875 
Q 19.671875 71.875 27.484375 71.875 
Q 33.25 71.875 37.59375 69.546875 
Q 41.9375 67.234375 44.765625 62.859375 
Q 47.609375 58.5 49.21875 52.21875 
Q 50.828125 45.953125 50.828125 35.296875 
Q 50.828125 22.703125 48.234375 14.96875 
Q 45.65625 7.234375 40.5 3 
Q 35.359375 -1.21875 27.484375 -1.21875 
Q 17.140625 -1.21875 11.234375 6.203125 
Q 4.15625 15.140625 4.15625 35.296875 
z
M 13.1875 35.296875 
Q 13.1875 17.671875 17.3125 11.828125 
Q 21.4375 6 27.484375 6 
Q 33.546875 6 37.671875 11.859375 
Q 41.796875 17.71875 41.796875 35.296875 
Q 41.796875 52.984375 37.671875 58.78125 
Q 33.546875 64.59375 27.390625 64.59375 
Q 21.34375 64.59375 17.71875 59.46875 
Q 13.1875 52.9375 13.1875 35.296875 
z
" id="ArialMT-48"/>
      </defs>
      <g style="fill:#262626;" transform="translate(88.503868 138.857812)scale(0.1 -0.1)">
       <use xlink:href="#ArialMT-49"/>
       <use x="55.615234" xlink:href="#ArialMT-48"/>
       <use x="111.230469" xlink:href="#ArialMT-48"/>
      </g>
     </g>
    </g>
    <g id="xtick_2">
     <g id="line2d_3">
      <path clip-path="url(#p8ae44b4671)" d="M 156.385956 128.2 
L 156.385956 19.48 
" style="fill:none;stroke:#cccccc;stroke-linecap:round;stroke-width:0.8;"/>
     </g>
     <g id="line2d_4"/>
     <g id="text_2">
      <!-- 200 -->
      <defs>
       <path d="M 50.34375 8.453125 
L 50.34375 0 
L 3.03125 0 
Q 2.9375 3.171875 4.046875 6.109375 
Q 5.859375 10.9375 9.828125 15.625 
Q 13.8125 20.3125 21.34375 26.46875 
Q 33.015625 36.03125 37.109375 41.625 
Q 41.21875 47.21875 41.21875 52.203125 
Q 41.21875 57.421875 37.46875 61 
Q 33.734375 64.59375 27.734375 64.59375 
Q 21.390625 64.59375 17.578125 60.78125 
Q 13.765625 56.984375 13.71875 50.25 
L 4.6875 51.171875 
Q 5.609375 61.28125 11.65625 66.578125 
Q 17.71875 71.875 27.9375 71.875 
Q 38.234375 71.875 44.234375 66.15625 
Q 50.25 60.453125 50.25 52 
Q 50.25 47.703125 48.484375 43.546875 
Q 46.734375 39.40625 42.65625 34.8125 
Q 38.578125 30.21875 29.109375 22.21875 
Q 21.1875 15.578125 18.9375 13.203125 
Q 16.703125 10.84375 15.234375 8.453125 
z
" id="ArialMT-50"/>
      </defs>
      <g style="fill:#262626;" transform="translate(148.04455 138.857812)scale(0.1 -0.1)">
       <use xlink:href="#ArialMT-50"/>
       <use x="55.615234" xlink:href="#ArialMT-48"/>
       <use x="111.230469" xlink:href="#ArialMT-48"/>
      </g>
     </g>
    </g>
    <g id="xtick_3">
     <g id="line2d_5">
      <path clip-path="url(#p8ae44b4671)" d="M 215.926637 128.2 
L 215.926637 19.48 
" style="fill:none;stroke:#cccccc;stroke-linecap:round;stroke-width:0.8;"/>
     </g>
     <g id="line2d_6"/>
     <g id="text_3">
      <!-- 300 -->
      <defs>
       <path d="M 4.203125 18.890625 
L 12.984375 20.0625 
Q 14.5 12.59375 18.140625 9.296875 
Q 21.78125 6 27 6 
Q 33.203125 6 37.46875 10.296875 
Q 41.75 14.59375 41.75 20.953125 
Q 41.75 27 37.796875 30.921875 
Q 33.84375 34.859375 27.734375 34.859375 
Q 25.25 34.859375 21.53125 33.890625 
L 22.515625 41.609375 
Q 23.390625 41.5 23.921875 41.5 
Q 29.546875 41.5 34.03125 44.421875 
Q 38.53125 47.359375 38.53125 53.46875 
Q 38.53125 58.296875 35.25 61.46875 
Q 31.984375 64.65625 26.8125 64.65625 
Q 21.6875 64.65625 18.265625 61.421875 
Q 14.84375 58.203125 13.875 51.765625 
L 5.078125 53.328125 
Q 6.6875 62.15625 12.390625 67.015625 
Q 18.109375 71.875 26.609375 71.875 
Q 32.46875 71.875 37.390625 69.359375 
Q 42.328125 66.84375 44.9375 62.5 
Q 47.5625 58.15625 47.5625 53.265625 
Q 47.5625 48.640625 45.0625 44.828125 
Q 42.578125 41.015625 37.703125 38.765625 
Q 44.046875 37.3125 47.5625 32.6875 
Q 51.078125 28.078125 51.078125 21.140625 
Q 51.078125 11.765625 44.234375 5.25 
Q 37.40625 -1.265625 26.953125 -1.265625 
Q 17.53125 -1.265625 11.296875 4.34375 
Q 5.078125 9.96875 4.203125 18.890625 
z
" id="ArialMT-51"/>
      </defs>
      <g style="fill:#262626;" transform="translate(207.585231 138.857812)scale(0.1 -0.1)">
       <use xlink:href="#ArialMT-51"/>
       <use x="55.615234" xlink:href="#ArialMT-48"/>
       <use x="111.230469" xlink:href="#ArialMT-48"/>
      </g>
     </g>
    </g>
    <g id="xtick_4">
     <g id="line2d_7">
      <path clip-path="url(#p8ae44b4671)" d="M 275.467319 128.2 
L 275.467319 19.48 
" style="fill:none;stroke:#cccccc;stroke-linecap:round;stroke-width:0.8;"/>
     </g>
     <g id="line2d_8"/>
     <g id="text_4">
      <!-- 400 -->
      <defs>
       <path d="M 32.328125 0 
L 32.328125 17.140625 
L 1.265625 17.140625 
L 1.265625 25.203125 
L 33.9375 71.578125 
L 41.109375 71.578125 
L 41.109375 25.203125 
L 50.78125 25.203125 
L 50.78125 17.140625 
L 41.109375 17.140625 
L 41.109375 0 
z
M 32.328125 25.203125 
L 32.328125 57.46875 
L 9.90625 25.203125 
z
" id="ArialMT-52"/>
      </defs>
      <g style="fill:#262626;" transform="translate(267.125912 138.857812)scale(0.1 -0.1)">
       <use xlink:href="#ArialMT-52"/>
       <use x="55.615234" xlink:href="#ArialMT-48"/>
       <use x="111.230469" xlink:href="#ArialMT-48"/>
      </g>
     </g>
    </g>
    <g id="xtick_5">
     <g id="line2d_9">
      <path clip-path="url(#p8ae44b4671)" d="M 335.008 128.2 
L 335.008 19.48 
" style="fill:none;stroke:#cccccc;stroke-linecap:round;stroke-width:0.8;"/>
     </g>
     <g id="line2d_10"/>
     <g id="text_5">
      <!-- 500 -->
      <defs>
       <path d="M 4.15625 18.75 
L 13.375 19.53125 
Q 14.40625 12.796875 18.140625 9.390625 
Q 21.875 6 27.15625 6 
Q 33.5 6 37.890625 10.78125 
Q 42.28125 15.578125 42.28125 23.484375 
Q 42.28125 31 38.0625 35.34375 
Q 33.84375 39.703125 27 39.703125 
Q 22.75 39.703125 19.328125 37.765625 
Q 15.921875 35.84375 13.96875 32.765625 
L 5.71875 33.84375 
L 12.640625 70.609375 
L 48.25 70.609375 
L 48.25 62.203125 
L 19.671875 62.203125 
L 15.828125 42.96875 
Q 22.265625 47.46875 29.34375 47.46875 
Q 38.71875 47.46875 45.15625 40.96875 
Q 51.609375 34.46875 51.609375 24.265625 
Q 51.609375 14.546875 45.953125 7.46875 
Q 39.0625 -1.21875 27.15625 -1.21875 
Q 17.390625 -1.21875 11.203125 4.25 
Q 5.03125 9.71875 4.15625 18.75 
z
" id="ArialMT-53"/>
      </defs>
      <g style="fill:#262626;" transform="translate(326.666594 138.857812)scale(0.1 -0.1)">
       <use xlink:href="#ArialMT-53"/>
       <use x="55.615234" xlink:href="#ArialMT-48"/>
       <use x="111.230469" xlink:href="#ArialMT-48"/>
      </g>
     </g>
    </g>
    <g id="text_6">
     <!-- trajectory duration $T$ -->
     <defs>
      <path d="M 25.78125 7.859375 
L 27.046875 0.09375 
Q 23.34375 -0.6875 20.40625 -0.6875 
Q 15.625 -0.6875 12.984375 0.828125 
Q 10.359375 2.34375 9.28125 4.8125 
Q 8.203125 7.28125 8.203125 15.1875 
L 8.203125 45.015625 
L 1.765625 45.015625 
L 1.765625 51.859375 
L 8.203125 51.859375 
L 8.203125 64.703125 
L 16.9375 69.96875 
L 16.9375 51.859375 
L 25.78125 51.859375 
L 25.78125 45.015625 
L 16.9375 45.015625 
L 16.9375 14.703125 
Q 16.9375 10.9375 17.40625 9.859375 
Q 17.875 8.796875 18.921875 8.15625 
Q 19.96875 7.515625 21.921875 7.515625 
Q 23.390625 7.515625 25.78125 7.859375 
z
" id="ArialMT-116"/>
      <path d="M 6.5 0 
L 6.5 51.859375 
L 14.40625 51.859375 
L 14.40625 44 
Q 17.4375 49.515625 20 51.265625 
Q 22.5625 53.03125 25.640625 53.03125 
Q 30.078125 53.03125 34.671875 50.203125 
L 31.640625 42.046875 
Q 28.421875 43.953125 25.203125 43.953125 
Q 22.3125 43.953125 20.015625 42.21875 
Q 17.71875 40.484375 16.75 37.40625 
Q 15.28125 32.71875 15.28125 27.15625 
L 15.28125 0 
z
" id="ArialMT-114"/>
      <path d="M 40.4375 6.390625 
Q 35.546875 2.25 31.03125 0.53125 
Q 26.515625 -1.171875 21.34375 -1.171875 
Q 12.796875 -1.171875 8.203125 3 
Q 3.609375 7.171875 3.609375 13.671875 
Q 3.609375 17.484375 5.34375 20.625 
Q 7.078125 23.78125 9.890625 25.6875 
Q 12.703125 27.59375 16.21875 28.5625 
Q 18.796875 29.25 24.03125 29.890625 
Q 34.671875 31.15625 39.703125 32.90625 
Q 39.75 34.71875 39.75 35.203125 
Q 39.75 40.578125 37.25 42.78125 
Q 33.890625 45.75 27.25 45.75 
Q 21.046875 45.75 18.09375 43.578125 
Q 15.140625 41.40625 13.71875 35.890625 
L 5.125 37.0625 
Q 6.296875 42.578125 8.984375 45.96875 
Q 11.671875 49.359375 16.75 51.1875 
Q 21.828125 53.03125 28.515625 53.03125 
Q 35.15625 53.03125 39.296875 51.46875 
Q 43.453125 49.90625 45.40625 47.53125 
Q 47.359375 45.171875 48.140625 41.546875 
Q 48.578125 39.3125 48.578125 33.453125 
L 48.578125 21.734375 
Q 48.578125 9.46875 49.140625 6.21875 
Q 49.703125 2.984375 51.375 0 
L 42.1875 0 
Q 40.828125 2.734375 40.4375 6.390625 
z
M 39.703125 26.03125 
Q 34.90625 24.078125 25.34375 22.703125 
Q 19.921875 21.921875 17.671875 20.9375 
Q 15.4375 19.96875 14.203125 18.09375 
Q 12.984375 16.21875 12.984375 13.921875 
Q 12.984375 10.40625 15.640625 8.0625 
Q 18.3125 5.71875 23.4375 5.71875 
Q 28.515625 5.71875 32.46875 7.9375 
Q 36.421875 10.15625 38.28125 14.015625 
Q 39.703125 17 39.703125 22.796875 
z
" id="ArialMT-97"/>
      <path d="M 6.546875 61.375 
L 6.546875 71.578125 
L 15.328125 71.578125 
L 15.328125 61.375 
z
M -4.59375 -20.125 
L -2.9375 -12.640625 
Q -0.296875 -13.328125 1.21875 -13.328125 
Q 3.90625 -13.328125 5.21875 -11.546875 
Q 6.546875 -9.765625 6.546875 -2.640625 
L 6.546875 51.859375 
L 15.328125 51.859375 
L 15.328125 -2.828125 
Q 15.328125 -12.40625 12.84375 -16.15625 
Q 9.671875 -21.046875 2.296875 -21.046875 
Q -1.265625 -21.046875 -4.59375 -20.125 
z
" id="ArialMT-106"/>
      <path d="M 42.09375 16.703125 
L 51.171875 15.578125 
Q 49.03125 7.625 43.21875 3.21875 
Q 37.40625 -1.171875 28.375 -1.171875 
Q 17 -1.171875 10.328125 5.828125 
Q 3.65625 12.84375 3.65625 25.484375 
Q 3.65625 38.578125 10.390625 45.796875 
Q 17.140625 53.03125 27.875 53.03125 
Q 38.28125 53.03125 44.875 45.953125 
Q 51.46875 38.875 51.46875 26.03125 
Q 51.46875 25.25 51.421875 23.6875 
L 12.75 23.6875 
Q 13.234375 15.140625 17.578125 10.59375 
Q 21.921875 6.0625 28.421875 6.0625 
Q 33.25 6.0625 36.671875 8.59375 
Q 40.09375 11.140625 42.09375 16.703125 
z
M 13.234375 30.90625 
L 42.1875 30.90625 
Q 41.609375 37.453125 38.875 40.71875 
Q 34.671875 45.796875 27.984375 45.796875 
Q 21.921875 45.796875 17.796875 41.75 
Q 13.671875 37.703125 13.234375 30.90625 
z
" id="ArialMT-101"/>
      <path d="M 40.4375 19 
L 49.078125 17.875 
Q 47.65625 8.9375 41.8125 3.875 
Q 35.984375 -1.171875 27.484375 -1.171875 
Q 16.84375 -1.171875 10.375 5.78125 
Q 3.90625 12.75 3.90625 25.734375 
Q 3.90625 34.125 6.6875 40.421875 
Q 9.46875 46.734375 15.15625 49.875 
Q 20.84375 53.03125 27.546875 53.03125 
Q 35.984375 53.03125 41.359375 48.75 
Q 46.734375 44.484375 48.25 36.625 
L 39.703125 35.296875 
Q 38.484375 40.53125 35.375 43.15625 
Q 32.28125 45.796875 27.875 45.796875 
Q 21.234375 45.796875 17.078125 41.03125 
Q 12.9375 36.28125 12.9375 25.984375 
Q 12.9375 15.53125 16.9375 10.796875 
Q 20.953125 6.0625 27.390625 6.0625 
Q 32.5625 6.0625 36.03125 9.234375 
Q 39.5 12.40625 40.4375 19 
z
" id="ArialMT-99"/>
      <path d="M 3.328125 25.921875 
Q 3.328125 40.328125 11.328125 47.265625 
Q 18.015625 53.03125 27.640625 53.03125 
Q 38.328125 53.03125 45.109375 46.015625 
Q 51.90625 39.015625 51.90625 26.65625 
Q 51.90625 16.65625 48.90625 10.90625 
Q 45.90625 5.171875 40.15625 2 
Q 34.421875 -1.171875 27.640625 -1.171875 
Q 16.75 -1.171875 10.03125 5.8125 
Q 3.328125 12.796875 3.328125 25.921875 
z
M 12.359375 25.921875 
Q 12.359375 15.96875 16.703125 11.015625 
Q 21.046875 6.0625 27.640625 6.0625 
Q 34.1875 6.0625 38.53125 11.03125 
Q 42.875 16.015625 42.875 26.21875 
Q 42.875 35.84375 38.5 40.796875 
Q 34.125 45.75 27.640625 45.75 
Q 21.046875 45.75 16.703125 40.8125 
Q 12.359375 35.890625 12.359375 25.921875 
z
" id="ArialMT-111"/>
      <path d="M 6.203125 -19.96875 
L 5.21875 -11.71875 
Q 8.109375 -12.5 10.25 -12.5 
Q 13.1875 -12.5 14.9375 -11.515625 
Q 16.703125 -10.546875 17.828125 -8.796875 
Q 18.65625 -7.46875 20.515625 -2.25 
Q 20.75 -1.515625 21.296875 -0.09375 
L 1.609375 51.859375 
L 11.078125 51.859375 
L 21.875 21.828125 
Q 23.96875 16.109375 25.640625 9.8125 
Q 27.15625 15.875 29.25 21.625 
L 40.328125 51.859375 
L 49.125 51.859375 
L 29.390625 -0.875 
Q 26.21875 -9.421875 24.46875 -12.640625 
Q 22.125 -17 19.09375 -19.015625 
Q 16.0625 -21.046875 11.859375 -21.046875 
Q 9.328125 -21.046875 6.203125 -19.96875 
z
" id="ArialMT-121"/>
      <path id="ArialMT-32"/>
      <path d="M 40.234375 0 
L 40.234375 6.546875 
Q 35.296875 -1.171875 25.734375 -1.171875 
Q 19.53125 -1.171875 14.328125 2.25 
Q 9.125 5.671875 6.265625 11.796875 
Q 3.421875 17.921875 3.421875 25.875 
Q 3.421875 33.640625 6 39.96875 
Q 8.59375 46.296875 13.765625 49.65625 
Q 18.953125 53.03125 25.34375 53.03125 
Q 30.03125 53.03125 33.6875 51.046875 
Q 37.359375 49.078125 39.65625 45.90625 
L 39.65625 71.578125 
L 48.390625 71.578125 
L 48.390625 0 
z
M 12.453125 25.875 
Q 12.453125 15.921875 16.640625 10.984375 
Q 20.84375 6.0625 26.5625 6.0625 
Q 32.328125 6.0625 36.34375 10.765625 
Q 40.375 15.484375 40.375 25.140625 
Q 40.375 35.796875 36.265625 40.765625 
Q 32.171875 45.75 26.171875 45.75 
Q 20.3125 45.75 16.375 40.96875 
Q 12.453125 36.1875 12.453125 25.875 
z
" id="ArialMT-100"/>
      <path d="M 40.578125 0 
L 40.578125 7.625 
Q 34.515625 -1.171875 24.125 -1.171875 
Q 19.53125 -1.171875 15.546875 0.578125 
Q 11.578125 2.34375 9.640625 5 
Q 7.71875 7.671875 6.9375 11.53125 
Q 6.390625 14.109375 6.390625 19.734375 
L 6.390625 51.859375 
L 15.1875 51.859375 
L 15.1875 23.09375 
Q 15.1875 16.21875 15.71875 13.8125 
Q 16.546875 10.359375 19.234375 8.375 
Q 21.921875 6.390625 25.875 6.390625 
Q 29.828125 6.390625 33.296875 8.421875 
Q 36.765625 10.453125 38.203125 13.9375 
Q 39.65625 17.4375 39.65625 24.078125 
L 39.65625 51.859375 
L 48.4375 51.859375 
L 48.4375 0 
z
" id="ArialMT-117"/>
      <path d="M 6.640625 61.46875 
L 6.640625 71.578125 
L 15.4375 71.578125 
L 15.4375 61.46875 
z
M 6.640625 0 
L 6.640625 51.859375 
L 15.4375 51.859375 
L 15.4375 0 
z
" id="ArialMT-105"/>
      <path d="M 6.59375 0 
L 6.59375 51.859375 
L 14.5 51.859375 
L 14.5 44.484375 
Q 20.21875 53.03125 31 53.03125 
Q 35.6875 53.03125 39.625 51.34375 
Q 43.5625 49.65625 45.515625 46.921875 
Q 47.46875 44.1875 48.25 40.4375 
Q 48.734375 37.984375 48.734375 31.890625 
L 48.734375 0 
L 39.9375 0 
L 39.9375 31.546875 
Q 39.9375 36.921875 38.90625 39.578125 
Q 37.890625 42.234375 35.28125 43.8125 
Q 32.671875 45.40625 29.15625 45.40625 
Q 23.53125 45.40625 19.453125 41.84375 
Q 15.375 38.28125 15.375 28.328125 
L 15.375 0 
z
" id="ArialMT-110"/>
      <path d="M 5.90625 72.90625 
L 67.578125 72.90625 
L 66.015625 64.59375 
L 39.984375 64.59375 
L 27.484375 0 
L 17.578125 0 
L 30.078125 64.59375 
L 4.296875 64.59375 
z
" id="DejaVuSans-Oblique-84"/>
     </defs>
     <g style="fill:#262626;" transform="translate(141.954 152.145312)scale(0.1 -0.1)">
      <use transform="translate(0 0.09375)" xlink:href="#ArialMT-116"/>
      <use transform="translate(27.783203 0.09375)" xlink:href="#ArialMT-114"/>
      <use transform="translate(61.083984 0.09375)" xlink:href="#ArialMT-97"/>
      <use transform="translate(116.699219 0.09375)" xlink:href="#ArialMT-106"/>
      <use transform="translate(138.916016 0.09375)" xlink:href="#ArialMT-101"/>
      <use transform="translate(194.53125 0.09375)" xlink:href="#ArialMT-99"/>
      <use transform="translate(244.53125 0.09375)" xlink:href="#ArialMT-116"/>
      <use transform="translate(272.314453 0.09375)" xlink:href="#ArialMT-111"/>
      <use transform="translate(327.929688 0.09375)" xlink:href="#ArialMT-114"/>
      <use transform="translate(361.230469 0.09375)" xlink:href="#ArialMT-121"/>
      <use transform="translate(411.230469 0.09375)" xlink:href="#ArialMT-32"/>
      <use transform="translate(439.013672 0.09375)" xlink:href="#ArialMT-100"/>
      <use transform="translate(494.628906 0.09375)" xlink:href="#ArialMT-117"/>
      <use transform="translate(550.244141 0.09375)" xlink:href="#ArialMT-114"/>
      <use transform="translate(583.544922 0.09375)" xlink:href="#ArialMT-97"/>
      <use transform="translate(639.160156 0.09375)" xlink:href="#ArialMT-116"/>
      <use transform="translate(666.943359 0.09375)" xlink:href="#ArialMT-105"/>
      <use transform="translate(689.160156 0.09375)" xlink:href="#ArialMT-111"/>
      <use transform="translate(744.775391 0.09375)" xlink:href="#ArialMT-110"/>
      <use transform="translate(800.390625 0.09375)" xlink:href="#ArialMT-32"/>
      <use transform="translate(828.173828 0.09375)" xlink:href="#DejaVuSans-Oblique-84"/>
     </g>
    </g>
   </g>
   <g id="matplotlib.axis_2">
    <g id="ytick_1">
     <g id="line2d_11">
      <path clip-path="url(#p8ae44b4671)" d="M 37.9 123.8512 
L 335.008 123.8512 
" style="fill:none;stroke:#cccccc;stroke-linecap:round;stroke-width:0.8;"/>
     </g>
     <g id="line2d_12"/>
     <g id="text_7">
      <!-- 0.0 -->
      <defs>
       <path d="M 9.078125 0 
L 9.078125 10.015625 
L 19.09375 10.015625 
L 19.09375 0 
z
" id="ArialMT-46"/>
      </defs>
      <g style="fill:#262626;" transform="translate(20.5 127.430106)scale(0.1 -0.1)">
       <use xlink:href="#ArialMT-48"/>
       <use x="55.615234" xlink:href="#ArialMT-46"/>
       <use x="83.398438" xlink:href="#ArialMT-48"/>
      </g>
     </g>
    </g>
    <g id="ytick_2">
     <g id="line2d_13">
      <path clip-path="url(#p8ae44b4671)" d="M 37.9 102.1072 
L 335.008 102.1072 
" style="fill:none;stroke:#cccccc;stroke-linecap:round;stroke-width:0.8;"/>
     </g>
     <g id="line2d_14"/>
     <g id="text_8">
      <!-- 0.5 -->
      <g style="fill:#262626;" transform="translate(20.5 105.686106)scale(0.1 -0.1)">
       <use xlink:href="#ArialMT-48"/>
       <use x="55.615234" xlink:href="#ArialMT-46"/>
       <use x="83.398438" xlink:href="#ArialMT-53"/>
      </g>
     </g>
    </g>
    <g id="ytick_3">
     <g id="line2d_15">
      <path clip-path="url(#p8ae44b4671)" d="M 37.9 80.3632 
L 335.008 80.3632 
" style="fill:none;stroke:#cccccc;stroke-linecap:round;stroke-width:0.8;"/>
     </g>
     <g id="line2d_16"/>
     <g id="text_9">
      <!-- 1.0 -->
      <g style="fill:#262626;" transform="translate(20.5 83.942106)scale(0.1 -0.1)">
       <use xlink:href="#ArialMT-49"/>
       <use x="55.615234" xlink:href="#ArialMT-46"/>
       <use x="83.398438" xlink:href="#ArialMT-48"/>
      </g>
     </g>
    </g>
    <g id="ytick_4">
     <g id="line2d_17">
      <path clip-path="url(#p8ae44b4671)" d="M 37.9 58.6192 
L 335.008 58.6192 
" style="fill:none;stroke:#cccccc;stroke-linecap:round;stroke-width:0.8;"/>
     </g>
     <g id="line2d_18"/>
     <g id="text_10">
      <!-- 1.5 -->
      <g style="fill:#262626;" transform="translate(20.5 62.198106)scale(0.1 -0.1)">
       <use xlink:href="#ArialMT-49"/>
       <use x="55.615234" xlink:href="#ArialMT-46"/>
       <use x="83.398438" xlink:href="#ArialMT-53"/>
      </g>
     </g>
    </g>
    <g id="ytick_5">
     <g id="line2d_19">
      <path clip-path="url(#p8ae44b4671)" d="M 37.9 36.8752 
L 335.008 36.8752 
" style="fill:none;stroke:#cccccc;stroke-linecap:round;stroke-width:0.8;"/>
     </g>
     <g id="line2d_20"/>
     <g id="text_11">
      <!-- 2.0 -->
      <g style="fill:#262626;" transform="translate(20.5 40.454106)scale(0.1 -0.1)">
       <use xlink:href="#ArialMT-50"/>
       <use x="55.615234" xlink:href="#ArialMT-46"/>
       <use x="83.398438" xlink:href="#ArialMT-48"/>
      </g>
     </g>
    </g>
    <g id="text_12">
     <!-- Mutual Information $I(\mathcal{S}_T,\mathcal{X}_T)$ -->
     <defs>
      <path d="M 7.421875 0 
L 7.421875 71.578125 
L 21.6875 71.578125 
L 38.625 20.90625 
Q 40.96875 13.8125 42.046875 10.296875 
Q 43.265625 14.203125 45.84375 21.78125 
L 62.984375 71.578125 
L 75.734375 71.578125 
L 75.734375 0 
L 66.609375 0 
L 66.609375 59.90625 
L 45.796875 0 
L 37.25 0 
L 16.546875 60.9375 
L 16.546875 0 
z
" id="ArialMT-77"/>
      <path d="M 6.390625 0 
L 6.390625 71.578125 
L 15.1875 71.578125 
L 15.1875 0 
z
" id="ArialMT-108"/>
      <path d="M 9.328125 0 
L 9.328125 71.578125 
L 18.796875 71.578125 
L 18.796875 0 
z
" id="ArialMT-73"/>
      <path d="M 8.6875 0 
L 8.6875 45.015625 
L 0.921875 45.015625 
L 0.921875 51.859375 
L 8.6875 51.859375 
L 8.6875 57.375 
Q 8.6875 62.59375 9.625 65.140625 
Q 10.890625 68.5625 14.078125 70.671875 
Q 17.28125 72.796875 23.046875 72.796875 
Q 26.765625 72.796875 31.25 71.921875 
L 29.9375 64.265625 
Q 27.203125 64.75 24.75 64.75 
Q 20.75 64.75 19.09375 63.03125 
Q 17.4375 61.328125 17.4375 56.640625 
L 17.4375 51.859375 
L 27.546875 51.859375 
L 27.546875 45.015625 
L 17.4375 45.015625 
L 17.4375 0 
z
" id="ArialMT-102"/>
      <path d="M 6.59375 0 
L 6.59375 51.859375 
L 14.453125 51.859375 
L 14.453125 44.578125 
Q 16.890625 48.390625 20.9375 50.703125 
Q 25 53.03125 30.171875 53.03125 
Q 35.9375 53.03125 39.625 50.640625 
Q 43.3125 48.25 44.828125 43.953125 
Q 50.984375 53.03125 60.84375 53.03125 
Q 68.5625 53.03125 72.703125 48.75 
Q 76.859375 44.484375 76.859375 35.59375 
L 76.859375 0 
L 68.109375 0 
L 68.109375 32.671875 
Q 68.109375 37.9375 67.25 40.25 
Q 66.40625 42.578125 64.15625 43.984375 
Q 61.921875 45.40625 58.890625 45.40625 
Q 53.421875 45.40625 49.796875 41.765625 
Q 46.1875 38.140625 46.1875 30.125 
L 46.1875 0 
L 37.40625 0 
L 37.40625 33.6875 
Q 37.40625 39.546875 35.25 42.46875 
Q 33.109375 45.40625 28.21875 45.40625 
Q 24.515625 45.40625 21.359375 43.453125 
Q 18.21875 41.5 16.796875 37.734375 
Q 15.375 33.984375 15.375 26.90625 
L 15.375 0 
z
" id="ArialMT-109"/>
      <path d="M 16.890625 72.90625 
L 26.8125 72.90625 
L 12.59375 0 
L 2.6875 0 
z
" id="DejaVuSans-Oblique-73"/>
      <path d="M 31 75.875 
Q 24.46875 64.65625 21.28125 53.65625 
Q 18.109375 42.671875 18.109375 31.390625 
Q 18.109375 20.125 21.3125 9.0625 
Q 24.515625 -2 31 -13.1875 
L 23.1875 -13.1875 
Q 15.875 -1.703125 12.234375 9.375 
Q 8.59375 20.453125 8.59375 31.390625 
Q 8.59375 42.28125 12.203125 53.3125 
Q 15.828125 64.359375 23.1875 75.875 
z
" id="DejaVuSans-40"/>
      <path d="M 3.796875 19.296875 
L 6.40625 19.59375 
Q 8.09375 9.09375 17.796875 5.703125 
Q 22.203125 4.09375 27.59375 4.09375 
Q 36 4.09375 41.953125 8.046875 
Q 47.90625 12 47.90625 19.296875 
Q 47.90625 22.296875 45.046875 24.546875 
Q 42.203125 26.796875 38.203125 28.390625 
Q 34.203125 30 30.140625 31.953125 
Q 26.09375 33.90625 23.25 37.546875 
Q 20.40625 41.203125 20.40625 46.40625 
Q 20.40625 51.40625 23.546875 55.546875 
Q 26.703125 59.703125 31.25 62.09375 
Q 35.796875 64.5 40.1875 65.796875 
Q 44.59375 67.09375 47.796875 67.09375 
Q 56.296875 67.09375 61.6875 64.59375 
Q 67.09375 62.09375 67.09375 56.90625 
Q 67.09375 54.09375 65.34375 51.546875 
Q 63.59375 49 60.203125 49 
Q 58 49 56.296875 50.5 
Q 54.59375 52 54.59375 54 
Q 54.59375 56.296875 56.09375 57.9375 
Q 57.59375 59.59375 57.59375 60 
Q 57.59375 61.203125 56.6875 61.953125 
Q 55.796875 62.703125 54 63 
Q 52.203125 63.296875 51 63.34375 
Q 49.796875 63.40625 47.796875 63.40625 
Q 45.796875 63.40625 42.890625 62.65625 
Q 40 61.90625 36.75 60.40625 
Q 33.5 58.90625 31.25 55.953125 
Q 29 53 29 49.296875 
Q 29 45.796875 32.140625 43.296875 
Q 35.296875 40.796875 39.84375 39.09375 
Q 44.40625 37.40625 48.953125 35.453125 
Q 53.5 33.5 56.640625 30 
Q 59.796875 26.5 59.796875 21.5 
Q 59.796875 14.09375 50.09375 7.046875 
Q 40.40625 0 28.203125 0 
Q 15.5 0 9.640625 5.296875 
Q 3.796875 10.59375 3.796875 19.296875 
z
" id="STIXNonUnicode-Italic-57919"/>
      <path d="M 11.71875 12.40625 
L 22.015625 12.40625 
L 22.015625 4 
L 14.015625 -11.625 
L 7.71875 -11.625 
L 11.71875 4 
z
" id="DejaVuSans-44"/>
      <path d="M 44.40625 47.296875 
L 45.40625 37.796875 
Q 49.703125 39.796875 52.25 41.046875 
Q 54.796875 42.296875 58.1875 44.25 
Q 61.59375 46.203125 63.4375 47.796875 
Q 65.296875 49.40625 66.640625 51.40625 
Q 68 53.40625 68 55.5 
Q 68 57.90625 66.09375 57.90625 
Q 65.796875 57.90625 65.09375 57.296875 
Q 64.40625 56.703125 62.796875 56.703125 
Q 61.203125 56.703125 60.296875 58.09375 
Q 59.40625 59.5 59.40625 61.40625 
Q 59.40625 64 61.296875 65.59375 
Q 63.203125 67.203125 66.296875 67.203125 
Q 69.296875 67.203125 71.59375 64.703125 
Q 73.90625 62.203125 73.90625 57.703125 
Q 73.90625 50.90625 67.40625 45.75 
Q 60.90625 40.59375 46.09375 33.703125 
L 48.59375 16.5 
Q 50 6.203125 55.296875 6.203125 
Q 59 6.203125 61 9.5 
L 62.90625 8.09375 
Q 59 0 50.90625 0 
Q 45.90625 0 42.90625 3.703125 
Q 39.90625 7.40625 38.703125 17.09375 
L 37.09375 30 
Q 21.203125 22.09375 15.5 17.6875 
Q 9.796875 13.296875 9.796875 9.296875 
Q 9.796875 7.90625 10.59375 7.90625 
Q 10.796875 7.90625 11.59375 8.34375 
Q 12.40625 8.796875 13.203125 8.796875 
Q 17.203125 8.796875 17.203125 4.59375 
Q 17.203125 2.296875 15.34375 0.5 
Q 13.5 -1.296875 10.09375 -1.296875 
Q 7.5 -1.296875 5.640625 0.75 
Q 3.796875 2.796875 3.796875 6.59375 
Q 3.796875 10.59375 6.046875 14.046875 
Q 8.296875 17.5 12.796875 20.75 
Q 17.296875 24 22.546875 26.890625 
Q 27.796875 29.796875 35.296875 33.59375 
Q 36.203125 34 36.59375 34.203125 
L 34.203125 49.5 
Q 32.5 60 27.796875 60 
Q 24 60 22 56.59375 
L 19.796875 57.59375 
Q 23.90625 66.203125 32.203125 66.203125 
Q 37.296875 66.203125 40.296875 61.84375 
Q 43.296875 57.5 44.40625 47.296875 
z
" id="STIXNonUnicode-Italic-57924"/>
      <path d="M 8.015625 75.875 
L 15.828125 75.875 
Q 23.140625 64.359375 26.78125 53.3125 
Q 30.421875 42.28125 30.421875 31.390625 
Q 30.421875 20.453125 26.78125 9.375 
Q 23.140625 -1.703125 15.828125 -13.1875 
L 8.015625 -13.1875 
Q 14.5 -2 17.703125 9.0625 
Q 20.90625 20.125 20.90625 31.390625 
Q 20.90625 42.671875 17.703125 53.65625 
Q 14.5 64.65625 8.015625 75.875 
z
" id="DejaVuSans-41"/>
     </defs>
     <g style="fill:#262626;" transform="translate(14.5125 135.89)rotate(-90)scale(0.1 -0.1)">
      <use transform="translate(0 0.125)" xlink:href="#ArialMT-77"/>
      <use transform="translate(83.300781 0.125)" xlink:href="#ArialMT-117"/>
      <use transform="translate(138.916016 0.125)" xlink:href="#ArialMT-116"/>
      <use transform="translate(166.699219 0.125)" xlink:href="#ArialMT-117"/>
      <use transform="translate(222.314453 0.125)" xlink:href="#ArialMT-97"/>
      <use transform="translate(277.929688 0.125)" xlink:href="#ArialMT-108"/>
      <use transform="translate(300.146484 0.125)" xlink:href="#ArialMT-32"/>
      <use transform="translate(327.929688 0.125)" xlink:href="#ArialMT-73"/>
      <use transform="translate(355.712891 0.125)" xlink:href="#ArialMT-110"/>
      <use transform="translate(411.328125 0.125)" xlink:href="#ArialMT-102"/>
      <use transform="translate(439.111328 0.125)" xlink:href="#ArialMT-111"/>
      <use transform="translate(494.726562 0.125)" xlink:href="#ArialMT-114"/>
      <use transform="translate(528.027344 0.125)" xlink:href="#ArialMT-109"/>
      <use transform="translate(611.328125 0.125)" xlink:href="#ArialMT-97"/>
      <use transform="translate(666.943359 0.125)" xlink:href="#ArialMT-116"/>
      <use transform="translate(694.726562 0.125)" xlink:href="#ArialMT-105"/>
      <use transform="translate(716.943359 0.125)" xlink:href="#ArialMT-111"/>
      <use transform="translate(772.558594 0.125)" xlink:href="#ArialMT-110"/>
      <use transform="translate(828.173828 0.125)" xlink:href="#ArialMT-32"/>
      <use transform="translate(855.957031 0.125)" xlink:href="#DejaVuSans-Oblique-73"/>
      <use transform="translate(885.449219 0.125)" xlink:href="#DejaVuSans-40"/>
      <use transform="translate(924.462891 0.125)" xlink:href="#STIXNonUnicode-Italic-57919"/>
      <use transform="translate(988.819916 -16.28125)scale(0.7)" xlink:href="#DejaVuSans-Oblique-84"/>
      <use transform="translate(1034.31308 0.125)" xlink:href="#DejaVuSans-44"/>
      <use transform="translate(1085.582611 0.125)" xlink:href="#STIXNonUnicode-Italic-57924"/>
      <use transform="translate(1155.739624 -16.28125)scale(0.7)" xlink:href="#DejaVuSans-Oblique-84"/>
      <use transform="translate(1201.232788 0.125)" xlink:href="#DejaVuSans-41"/>
     </g>
    </g>
   </g>
   <g id="line2d_21">
    <path clip-path="url(#p8ae44b4671)" d="M 37.304593 117.143983 
L 39.29592 116.868078 
L 41.287247 116.118542 
L 42.282911 116.085458 
L 44.274238 115.410559 
L 46.265565 114.995055 
L 47.261229 114.478827 
L 48.256892 114.145419 
L 49.252556 113.967938 
L 50.24822 113.509039 
L 51.243883 113.379747 
L 52.239547 112.85 
L 54.230874 112.107665 
L 56.222201 111.452922 
L 57.217865 111.157106 
L 58.213528 110.475943 
L 59.209192 110.550439 
L 60.204855 109.957828 
L 61.200519 110.013702 
L 63.191846 109.179986 
L 65.183173 108.61299 
L 66.178837 108.560465 
L 67.1745 107.70966 
L 68.170164 107.338961 
L 69.165827 107.32602 
L 72.152818 106.591128 
L 74.144145 105.959963 
L 77.131136 104.559481 
L 78.126799 104.527264 
L 79.122463 104.117815 
L 83.105117 103.19213 
L 84.100781 102.859496 
L 86.092108 101.849937 
L 87.087772 101.650212 
L 88.083435 101.14893 
L 89.079099 100.800749 
L 90.074762 100.685524 
L 91.070426 100.383248 
L 92.066089 100.231671 
L 93.061753 99.896606 
L 94.057417 99.794566 
L 95.05308 99.278253 
L 96.048744 98.951223 
L 98.040071 98.58481 
L 99.035734 98.109818 
L 100.031398 97.959862 
L 101.027062 97.590975 
L 103.018389 97.188167 
L 104.014052 96.603108 
L 105.009716 96.438951 
L 106.005379 96.060632 
L 107.001043 95.46732 
L 107.996707 95.338676 
L 108.99237 94.928479 
L 110.983697 94.620477 
L 111.979361 94.130367 
L 113.970688 94.004918 
L 115.962015 93.132226 
L 116.957679 93.121651 
L 117.953342 92.685626 
L 118.949006 92.655655 
L 120.940333 92.038258 
L 122.93166 91.437253 
L 125.918651 90.639807 
L 126.914314 90.407392 
L 127.909978 90.034276 
L 128.905641 89.848164 
L 129.901305 89.256852 
L 131.892632 88.904688 
L 132.888296 88.902716 
L 134.879623 88.139208 
L 135.875286 87.980637 
L 136.87095 87.388094 
L 137.866614 86.941621 
L 138.862277 87.078665 
L 139.857941 86.783171 
L 140.853604 86.269229 
L 141.849268 86.199007 
L 142.844931 85.703246 
L 143.840595 85.591901 
L 144.836259 85.647199 
L 145.831922 85.377496 
L 146.827586 84.690248 
L 147.823249 84.59395 
L 148.818913 84.046774 
L 149.814576 83.935908 
L 150.81024 83.51471 
L 154.792894 82.929016 
L 156.784221 82.186323 
L 157.779885 82.007844 
L 158.775548 81.586872 
L 160.766876 81.446923 
L 161.762539 80.971971 
L 162.758203 80.717995 
L 163.753866 80.237484 
L 164.74953 79.994333 
L 165.745193 79.476018 
L 166.740857 79.62751 
L 167.736521 78.993948 
L 169.727848 78.751578 
L 171.719175 78.189047 
L 172.714838 77.616923 
L 174.706166 76.961938 
L 175.701829 76.420062 
L 176.697493 76.592992 
L 177.693156 76.146371 
L 179.684483 75.787809 
L 180.680147 75.197208 
L 181.675811 74.78987 
L 183.667138 74.710617 
L 185.658465 73.939758 
L 188.645456 73.071352 
L 190.636783 72.259387 
L 192.62811 72.092427 
L 193.623773 71.614843 
L 194.619437 71.379384 
L 195.6151 70.763294 
L 197.606428 70.066411 
L 199.597755 69.559424 
L 200.593418 69.16987 
L 201.589082 69.015452 
L 203.580409 68.204226 
L 205.571736 67.902227 
L 207.563063 67.172882 
L 208.558727 67.150296 
L 209.55439 66.420682 
L 210.550054 66.411422 
L 212.541381 65.362669 
L 213.537045 65.361317 
L 214.532708 65.166519 
L 216.524035 64.202063 
L 218.515363 63.975902 
L 219.511026 63.292876 
L 220.50669 62.784132 
L 221.502353 62.436762 
L 225.485008 61.523675 
L 227.476335 60.881887 
L 228.471998 60.246267 
L 229.467662 60.012426 
L 230.463325 59.924971 
L 231.458989 59.522186 
L 232.454653 59.417073 
L 233.450316 59.01987 
L 234.44598 58.396358 
L 235.441643 58.406328 
L 237.43297 57.757437 
L 238.428634 57.065584 
L 240.419961 56.345169 
L 241.415625 56.177379 
L 242.411288 55.762862 
L 244.402615 55.708637 
L 245.398279 55.201409 
L 246.393942 54.835096 
L 247.389606 54.717164 
L 249.380933 54.044372 
L 250.376597 53.832718 
L 251.37226 53.429592 
L 252.367924 52.900477 
L 253.363587 52.559356 
L 254.359251 52.089103 
L 256.350578 51.777021 
L 257.346242 50.885683 
L 258.341905 50.945994 
L 259.337569 50.473014 
L 260.333232 50.297965 
L 262.32456 49.485121 
L 263.320223 49.315775 
L 264.315887 48.584875 
L 265.31155 48.596466 
L 266.307214 48.185975 
L 267.302877 48.017876 
L 270.289868 46.512821 
L 271.285532 46.138758 
L 273.276859 45.61005 
L 276.263849 44.37034 
L 277.259513 43.91915 
L 280.246504 43.234337 
L 281.242167 42.699064 
L 282.237831 42.603214 
L 283.233494 42.130017 
L 284.229158 41.407278 
L 285.224822 41.021661 
L 286.220485 40.959674 
L 287.216149 40.424351 
L 290.203139 39.694059 
L 291.198803 39.562755 
L 293.19013 38.155759 
L 294.185794 38.201765 
L 296.177121 37.793713 
L 297.172784 37.372991 
L 298.168448 36.819272 
L 299.164112 36.510223 
L 300.159775 35.911538 
L 301.155439 35.538376 
L 302.151102 35.040551 
L 303.146766 35.122509 
L 306.133757 34.01307 
L 308.125084 33.480445 
L 309.120747 33.481686 
L 310.116411 33.039819 
L 311.112074 32.266857 
L 312.107738 32.115755 
L 313.103402 31.572642 
L 314.099065 31.534617 
L 315.094729 31.127429 
L 316.090392 30.92699 
L 317.086056 30.856761 
L 321.06871 29.200225 
L 323.060037 28.701436 
L 324.055701 28.533342 
L 325.051364 28.18746 
L 326.047028 28.09975 
L 327.042691 27.580842 
L 329.034019 27.094924 
L 330.029682 26.471072 
L 332.021009 26.103423 
L 334.012336 25.038858 
L 335.008 24.734148 
L 335.008 24.734148 
" style="fill:none;stroke:#fcce25;stroke-linecap:round;"/>
   </g>
   <g id="line2d_22">
    <path clip-path="url(#p8ae44b4671)" d="M 37.304593 117.050869 
L 38.300257 116.965484 
L 39.29592 116.610472 
L 43.278575 115.774534 
L 45.269902 115.461122 
L 47.261229 114.831463 
L 48.256892 114.266106 
L 49.252556 114.28432 
L 54.230874 112.911301 
L 55.226537 112.841832 
L 56.222201 112.37611 
L 57.217865 112.201544 
L 58.213528 111.814908 
L 59.209192 111.798109 
L 62.196182 110.975911 
L 63.191846 110.760801 
L 65.183173 110.546715 
L 66.178837 110.209283 
L 67.1745 110.467008 
L 68.170164 109.936526 
L 70.161491 109.271851 
L 71.157154 109.146234 
L 72.152818 108.874387 
L 73.148482 108.220405 
L 74.144145 108.195441 
L 75.139809 108.023908 
L 76.135472 107.735892 
L 77.131136 107.270754 
L 80.118127 106.779939 
L 81.11379 106.112489 
L 82.109454 105.746983 
L 83.105117 105.559561 
L 84.100781 105.755064 
L 85.096444 105.661254 
L 86.092108 105.213375 
L 87.087772 105.128398 
L 88.083435 104.556421 
L 89.079099 104.276398 
L 90.074762 104.229059 
L 93.061753 103.534149 
L 94.057417 102.965707 
L 95.05308 102.881588 
L 96.048744 102.683553 
L 97.044407 102.058812 
L 99.035734 101.542944 
L 101.027062 100.895687 
L 102.022725 100.770196 
L 103.018389 100.18729 
L 104.014052 100.002169 
L 105.009716 99.570319 
L 106.005379 99.700828 
L 108.99237 99.024251 
L 109.988034 98.484031 
L 110.983697 98.503691 
L 111.979361 98.103525 
L 112.975024 97.927028 
L 113.970688 97.542262 
L 115.962015 97.046825 
L 118.949006 96.541157 
L 120.940333 96.248422 
L 123.927324 95.706837 
L 126.914314 94.987085 
L 127.909978 94.453084 
L 128.905641 94.456292 
L 130.896969 93.881174 
L 131.892632 93.385237 
L 132.888296 93.324194 
L 133.883959 93.146697 
L 134.879623 92.672877 
L 135.875286 92.60174 
L 136.87095 92.21372 
L 137.866614 91.704773 
L 139.857941 91.403146 
L 140.853604 90.97957 
L 141.849268 90.875755 
L 142.844931 90.611429 
L 144.836259 90.402105 
L 146.827586 89.614113 
L 147.823249 89.123914 
L 148.818913 89.083493 
L 151.805903 87.824394 
L 152.801567 87.523263 
L 153.797231 87.508953 
L 154.792894 87.224804 
L 155.788558 86.582783 
L 157.779885 86.038212 
L 158.775548 86.190512 
L 160.766876 86.019 
L 161.762539 85.592516 
L 162.758203 84.977863 
L 167.736521 83.559584 
L 168.732184 83.121399 
L 169.727848 83.19854 
L 170.723511 82.744198 
L 171.719175 82.857665 
L 172.714838 82.477128 
L 173.710502 82.470787 
L 174.706166 82.240288 
L 175.701829 81.541486 
L 176.697493 81.154226 
L 177.693156 81.003001 
L 178.68882 80.974811 
L 179.684483 80.336166 
L 181.675811 80.079166 
L 184.662801 79.12778 
L 186.654128 78.727592 
L 187.649792 78.080256 
L 188.645456 77.845817 
L 189.641119 77.474001 
L 190.636783 77.487494 
L 192.62811 76.985823 
L 195.6151 75.893432 
L 196.610764 75.324177 
L 197.606428 75.07364 
L 198.602091 75.112603 
L 199.597755 74.6614 
L 200.593418 74.332432 
L 201.589082 74.448148 
L 203.580409 73.58006 
L 204.576073 73.630645 
L 205.571736 73.387459 
L 206.5674 72.726417 
L 207.563063 72.598884 
L 208.558727 72.263051 
L 209.55439 72.096279 
L 210.550054 71.576624 
L 211.545718 71.256049 
L 212.541381 70.743626 
L 214.532708 70.689998 
L 215.528372 70.215927 
L 216.524035 70.362748 
L 218.515363 69.515573 
L 219.511026 69.504936 
L 222.498017 68.608286 
L 224.489344 67.790741 
L 226.480671 67.379106 
L 227.476335 66.792664 
L 228.471998 66.372721 
L 229.467662 66.274486 
L 230.463325 65.894896 
L 231.458989 65.657026 
L 232.454653 65.813132 
L 233.450316 65.488095 
L 234.44598 64.952784 
L 235.441643 64.885697 
L 236.437307 64.500468 
L 237.43297 64.32986 
L 238.428634 63.956157 
L 239.424297 63.814332 
L 240.419961 63.536751 
L 241.415625 63.057869 
L 243.406952 62.880321 
L 244.402615 62.743796 
L 246.393942 61.657979 
L 247.389606 61.298902 
L 248.38527 61.259548 
L 250.376597 60.580715 
L 252.367924 60.405772 
L 254.359251 59.365531 
L 255.354915 59.088722 
L 257.346242 58.741134 
L 258.341905 58.352072 
L 259.337569 58.340663 
L 260.333232 58.104516 
L 262.32456 57.168081 
L 263.320223 56.979304 
L 264.315887 56.641079 
L 265.31155 56.132965 
L 267.302877 55.564404 
L 268.298541 55.761198 
L 270.289868 54.709746 
L 272.281195 54.804203 
L 273.276859 53.753972 
L 274.272522 53.742556 
L 275.268186 53.218657 
L 277.259513 52.723367 
L 278.255177 52.37576 
L 279.25084 52.444768 
L 280.246504 51.946915 
L 281.242167 51.694798 
L 282.237831 51.090518 
L 283.233494 50.960179 
L 284.229158 50.978132 
L 285.224822 50.562076 
L 286.220485 50.013319 
L 287.216149 49.719605 
L 288.211812 49.825288 
L 289.207476 49.359581 
L 291.198803 49.088787 
L 292.194467 48.476435 
L 294.185794 47.885056 
L 296.177121 47.501986 
L 297.172784 47.182949 
L 298.168448 46.612428 
L 300.159775 46.345913 
L 301.155439 46.138851 
L 303.146766 45.218044 
L 304.142429 45.10092 
L 305.138093 44.606558 
L 306.133757 44.509824 
L 307.12942 44.52923 
L 309.120747 43.543738 
L 311.112074 43.089102 
L 312.107738 42.492714 
L 314.099065 41.694542 
L 315.094729 41.515741 
L 317.086056 40.569489 
L 318.081719 40.467983 
L 320.073046 39.887438 
L 322.064374 38.85266 
L 323.060037 38.653781 
L 324.055701 38.310942 
L 325.051364 38.235961 
L 326.047028 37.769686 
L 327.042691 37.490153 
L 328.038355 37.347607 
L 329.034019 36.999046 
L 330.029682 36.499806 
L 331.025346 36.132359 
L 332.021009 36.046167 
L 333.016673 35.564449 
L 334.012336 35.738774 
L 335.008 35.240221 
L 335.008 35.240221 
" style="fill:none;stroke:#f89540;stroke-linecap:round;"/>
   </g>
   <g id="line2d_23">
    <path clip-path="url(#p8ae44b4671)" d="M 37.304593 117.521362 
L 38.300257 117.275086 
L 39.29592 117.239281 
L 40.291584 116.863127 
L 41.287247 117.150178 
L 42.282911 116.358159 
L 44.274238 116.29159 
L 45.269902 115.840534 
L 46.265565 115.738416 
L 47.261229 115.306256 
L 48.256892 115.006772 
L 49.252556 114.982562 
L 51.243883 114.632666 
L 52.239547 114.065813 
L 54.230874 114.016875 
L 55.226537 113.55244 
L 58.213528 112.835661 
L 59.209192 112.400999 
L 61.200519 112.272422 
L 62.196182 111.971798 
L 64.18751 111.225549 
L 66.178837 110.474167 
L 67.1745 110.480262 
L 68.170164 110.175225 
L 69.165827 110.085336 
L 70.161491 109.625147 
L 71.157154 109.460934 
L 72.152818 109.09161 
L 74.144145 108.7091 
L 75.139809 108.375689 
L 77.131136 108.096044 
L 78.126799 107.578657 
L 79.122463 107.52454 
L 80.118127 106.857371 
L 81.11379 106.861478 
L 83.105117 106.544858 
L 86.092108 105.377277 
L 87.087772 104.971461 
L 90.074762 104.191972 
L 93.061753 103.147197 
L 94.057417 103.111297 
L 95.05308 102.693256 
L 96.048744 102.448928 
L 97.044407 102.391842 
L 98.040071 101.809984 
L 99.035734 101.547257 
L 100.031398 101.45829 
L 101.027062 101.10659 
L 102.022725 101.134649 
L 104.014052 100.295432 
L 105.009716 100.213995 
L 107.001043 99.638398 
L 107.996707 99.527638 
L 108.99237 98.995351 
L 109.988034 98.591234 
L 113.970688 97.636876 
L 115.962015 97.048544 
L 116.957679 96.987159 
L 117.953342 96.811378 
L 118.949006 97.139028 
L 120.940333 96.28411 
L 121.935996 96.254171 
L 123.927324 95.558883 
L 125.918651 95.150976 
L 126.914314 94.992681 
L 127.909978 94.425821 
L 129.901305 94.077587 
L 130.896969 93.92276 
L 131.892632 94.031041 
L 133.883959 93.013781 
L 134.879623 93.216971 
L 135.875286 93.041476 
L 137.866614 92.174151 
L 138.862277 92.212931 
L 140.853604 91.447939 
L 141.849268 91.077267 
L 142.844931 91.203169 
L 143.840595 91.152485 
L 144.836259 90.94361 
L 146.827586 90.209639 
L 147.823249 90.1556 
L 149.814576 89.639743 
L 150.81024 89.158262 
L 152.801567 88.609303 
L 154.792894 87.889178 
L 155.788558 87.581163 
L 156.784221 87.727637 
L 157.779885 87.713951 
L 158.775548 87.536911 
L 159.771212 87.230012 
L 160.766876 86.67706 
L 161.762539 86.621894 
L 163.753866 85.936469 
L 166.740857 85.602812 
L 167.736521 85.117449 
L 168.732184 85.196463 
L 169.727848 85.073684 
L 170.723511 84.693531 
L 171.719175 84.151993 
L 173.710502 83.674204 
L 175.701829 82.901125 
L 177.693156 82.461558 
L 178.68882 81.879788 
L 179.684483 81.458129 
L 181.675811 81.137986 
L 182.671474 80.969611 
L 183.667138 81.123409 
L 184.662801 80.873509 
L 185.658465 80.229089 
L 186.654128 80.137851 
L 188.645456 79.484568 
L 189.641119 79.420255 
L 190.636783 79.125273 
L 191.632446 78.519632 
L 192.62811 78.520446 
L 195.6151 77.605299 
L 196.610764 77.604025 
L 197.606428 77.278789 
L 198.602091 77.208344 
L 199.597755 76.946178 
L 200.593418 76.185174 
L 201.589082 76.205661 
L 202.584745 75.901966 
L 203.580409 75.728991 
L 204.576073 75.39256 
L 206.5674 74.989404 
L 207.563063 74.550896 
L 209.55439 74.129338 
L 210.550054 74.186127 
L 212.541381 73.178749 
L 216.524035 72.331412 
L 218.515363 71.556076 
L 219.511026 71.545192 
L 220.50669 71.095587 
L 221.502353 71.106863 
L 222.498017 70.732378 
L 223.49368 70.615434 
L 224.489344 70.281032 
L 225.485008 70.091851 
L 227.476335 69.340105 
L 228.471998 69.477198 
L 229.467662 68.939652 
L 230.463325 68.624997 
L 231.458989 68.5364 
L 238.428634 66.867251 
L 239.424297 66.146082 
L 240.419961 66.032167 
L 241.415625 66.106583 
L 242.411288 65.999012 
L 243.406952 65.769497 
L 244.402615 65.268836 
L 246.393942 64.934774 
L 247.389606 64.895258 
L 248.38527 64.158642 
L 249.380933 64.144704 
L 252.367924 63.350433 
L 253.363587 63.194759 
L 254.359251 62.632219 
L 257.346242 62.379202 
L 259.337569 61.908315 
L 260.333232 61.354034 
L 261.328896 61.475373 
L 262.32456 60.8735 
L 263.320223 60.843508 
L 264.315887 60.442653 
L 265.31155 60.405211 
L 266.307214 59.752697 
L 267.302877 59.73069 
L 269.294205 58.982593 
L 271.285532 59.163633 
L 272.281195 58.736762 
L 275.268186 57.99017 
L 276.263849 58.304027 
L 277.259513 57.611834 
L 278.255177 57.406185 
L 279.25084 56.546937 
L 280.246504 56.58261 
L 281.242167 56.056075 
L 282.237831 55.904884 
L 283.233494 55.95682 
L 284.229158 55.322222 
L 285.224822 54.980746 
L 286.220485 54.898194 
L 287.216149 54.470793 
L 288.211812 54.573245 
L 289.207476 54.059948 
L 290.203139 53.881965 
L 292.194467 53.268393 
L 293.19013 53.057151 
L 294.185794 52.960058 
L 295.181457 52.621046 
L 296.177121 52.680475 
L 297.172784 52.138014 
L 298.168448 51.847537 
L 299.164112 51.776524 
L 300.159775 51.953557 
L 301.155439 51.3766 
L 302.151102 50.961115 
L 303.146766 50.914793 
L 304.142429 50.740998 
L 305.138093 50.400206 
L 306.133757 50.324095 
L 309.120747 49.18943 
L 310.116411 49.153862 
L 314.099065 48.241182 
L 315.094729 48.18374 
L 316.090392 47.86783 
L 317.086056 47.876013 
L 320.073046 47.169896 
L 321.06871 47.315243 
L 322.064374 46.64038 
L 327.042691 45.329617 
L 329.034019 44.841843 
L 330.029682 44.3194 
L 331.025346 44.140909 
L 332.021009 43.593965 
L 333.016673 43.478224 
L 334.012336 43.243952 
L 335.008 42.670227 
L 335.008 42.670227 
" style="fill:none;stroke:#e16462;stroke-linecap:round;"/>
   </g>
   <g id="line2d_24">
    <path clip-path="url(#p8ae44b4671)" d="M 37.304593 117.596162 
L 39.29592 117.490325 
L 40.291584 117.121695 
L 43.278575 116.738247 
L 46.265565 115.648672 
L 47.261229 115.786334 
L 48.256892 115.44804 
L 50.24822 115.067146 
L 51.243883 114.71082 
L 52.239547 114.538778 
L 53.23521 114.15786 
L 58.213528 113.403552 
L 61.200519 112.477178 
L 62.196182 112.265 
L 65.183173 111.055353 
L 66.178837 111.086449 
L 67.1745 110.624109 
L 69.165827 110.348682 
L 70.161491 109.936261 
L 74.144145 108.94221 
L 75.139809 108.833048 
L 76.135472 108.404834 
L 77.131136 108.275343 
L 78.126799 107.892737 
L 79.122463 107.947398 
L 80.118127 107.674191 
L 81.11379 107.277213 
L 82.109454 107.149394 
L 84.100781 106.609922 
L 85.096444 106.67536 
L 86.092108 106.572308 
L 87.087772 106.217758 
L 88.083435 106.138283 
L 89.079099 105.730038 
L 91.070426 105.440798 
L 92.066089 104.941496 
L 94.057417 104.734319 
L 96.048744 103.98394 
L 97.044407 103.890327 
L 98.040071 103.647674 
L 99.035734 103.248391 
L 101.027062 103.011497 
L 103.018389 102.536844 
L 104.014052 102.060475 
L 106.005379 101.643536 
L 108.99237 101.230877 
L 110.983697 100.612004 
L 111.979361 100.562248 
L 112.975024 99.952899 
L 118.949006 98.976715 
L 119.944669 98.439521 
L 120.940333 98.426207 
L 121.935996 98.064074 
L 122.93166 98.183524 
L 123.927324 97.95376 
L 125.918651 97.087224 
L 126.914314 96.941703 
L 128.905641 97.108588 
L 129.901305 96.728387 
L 130.896969 96.588086 
L 131.892632 96.319777 
L 132.888296 96.421066 
L 133.883959 96.148147 
L 134.879623 95.549855 
L 136.87095 95.55819 
L 137.866614 95.199175 
L 138.862277 94.973792 
L 139.857941 94.922813 
L 140.853604 94.575596 
L 141.849268 94.11036 
L 143.840595 93.895872 
L 144.836259 93.320644 
L 145.831922 93.051442 
L 146.827586 92.962666 
L 149.814576 92.13381 
L 150.81024 92.16438 
L 154.792894 91.039958 
L 155.788558 90.751368 
L 157.779885 90.402335 
L 158.775548 90.210152 
L 159.771212 89.848451 
L 160.766876 89.898372 
L 161.762539 89.458989 
L 163.753866 89.331234 
L 165.745193 88.755918 
L 167.736521 88.47708 
L 168.732184 88.061891 
L 171.719175 87.511448 
L 172.714838 87.384411 
L 176.697493 86.501602 
L 177.693156 86.609915 
L 181.675811 85.399752 
L 182.671474 84.902099 
L 183.667138 84.896007 
L 184.662801 84.615778 
L 185.658465 84.607941 
L 186.654128 84.042435 
L 188.645456 83.453961 
L 190.636783 82.818177 
L 191.632446 82.71191 
L 192.62811 82.775155 
L 194.619437 82.212316 
L 196.610764 81.260252 
L 198.602091 81.199619 
L 200.593418 80.537848 
L 201.589082 80.213126 
L 202.584745 79.591991 
L 203.580409 79.492215 
L 204.576073 79.525337 
L 205.571736 79.328319 
L 206.5674 79.343389 
L 210.550054 78.336104 
L 211.545718 78.311277 
L 215.528372 76.885967 
L 217.519699 76.374103 
L 218.515363 76.465757 
L 219.511026 76.271727 
L 220.50669 75.962066 
L 221.502353 75.327198 
L 222.498017 75.187014 
L 223.49368 74.901109 
L 224.489344 74.958844 
L 225.485008 74.378976 
L 226.480671 74.24125 
L 227.476335 74.291724 
L 228.471998 73.843246 
L 229.467662 73.610242 
L 230.463325 73.11209 
L 231.458989 73.103259 
L 233.450316 72.456574 
L 234.44598 72.178037 
L 235.441643 71.761075 
L 236.437307 71.484794 
L 237.43297 71.448598 
L 239.424297 71.079972 
L 240.419961 71.17261 
L 242.411288 70.619486 
L 243.406952 70.441645 
L 244.402615 70.132294 
L 245.398279 69.613192 
L 246.393942 69.301581 
L 247.389606 68.873169 
L 248.38527 68.693477 
L 249.380933 68.662528 
L 251.37226 67.909911 
L 252.367924 67.876868 
L 253.363587 67.253311 
L 255.354915 66.972174 
L 256.350578 67.043971 
L 257.346242 66.447824 
L 258.341905 66.03904 
L 259.337569 65.901965 
L 260.333232 65.614924 
L 261.328896 65.58159 
L 262.32456 65.098064 
L 263.320223 65.279739 
L 264.315887 64.879372 
L 265.31155 64.769714 
L 267.302877 64.126511 
L 268.298541 63.886016 
L 269.294205 63.83542 
L 271.285532 63.566087 
L 272.281195 63.465448 
L 275.268186 62.510603 
L 276.263849 62.49411 
L 277.259513 62.134593 
L 278.255177 62.191595 
L 279.25084 61.753836 
L 281.242167 61.181742 
L 282.237831 61.08944 
L 284.229158 60.41478 
L 286.220485 60.206365 
L 289.207476 59.65636 
L 290.203139 59.571398 
L 291.198803 59.210976 
L 292.194467 58.69745 
L 294.185794 58.594377 
L 295.181457 58.020026 
L 296.177121 58.166811 
L 299.164112 57.112572 
L 301.155439 56.442906 
L 304.142429 55.853607 
L 305.138093 55.783425 
L 306.133757 55.306181 
L 307.12942 55.377879 
L 309.120747 54.542958 
L 310.116411 54.563952 
L 311.112074 54.219024 
L 312.107738 54.013505 
L 313.103402 53.54607 
L 314.099065 53.355207 
L 315.094729 53.022278 
L 319.077383 52.162258 
L 320.073046 51.806841 
L 321.06871 51.574918 
L 322.064374 50.909652 
L 323.060037 50.973571 
L 324.055701 50.769377 
L 325.051364 50.45108 
L 329.034019 49.784494 
L 330.029682 49.378522 
L 331.025346 49.303883 
L 332.021009 48.993856 
L 333.016673 48.894694 
L 334.012336 48.507868 
L 335.008 48.519256 
L 335.008 48.519256 
" style="fill:none;stroke:#bf3984;stroke-linecap:round;"/>
   </g>
   <g id="line2d_25">
    <path clip-path="url(#p8ae44b4671)" d="M 37.304593 117.604329 
L 40.291584 117.043109 
L 41.287247 116.700814 
L 44.274238 115.958076 
L 45.269902 116.025283 
L 46.265565 115.650545 
L 47.261229 115.534261 
L 48.256892 115.080039 
L 49.252556 114.77283 
L 51.243883 114.740066 
L 52.239547 114.508647 
L 55.226537 113.520039 
L 56.222201 113.394832 
L 59.209192 112.314867 
L 60.204855 112.125989 
L 61.200519 112.116467 
L 64.18751 111.630306 
L 65.183173 111.304678 
L 66.178837 110.71075 
L 67.1745 110.844022 
L 70.161491 109.68759 
L 71.157154 109.706157 
L 73.148482 109.370166 
L 74.144145 109.476122 
L 75.139809 109.061699 
L 78.126799 108.531602 
L 79.122463 108.072487 
L 80.118127 107.919045 
L 82.109454 107.167192 
L 84.100781 106.583987 
L 85.096444 106.557742 
L 86.092108 106.064463 
L 87.087772 105.775315 
L 89.079099 105.58922 
L 90.074762 105.215622 
L 92.066089 104.907205 
L 94.057417 103.961942 
L 95.05308 103.903356 
L 96.048744 103.568418 
L 97.044407 103.537432 
L 101.027062 102.826292 
L 103.018389 102.220011 
L 104.014052 102.085274 
L 105.009716 101.606932 
L 106.005379 101.347275 
L 107.001043 101.433732 
L 107.996707 100.940703 
L 110.983697 100.351515 
L 111.979361 99.988804 
L 112.975024 99.756091 
L 113.970688 99.717094 
L 114.966351 99.251108 
L 115.962015 99.147407 
L 116.957679 98.708139 
L 117.953342 98.615399 
L 118.949006 98.178863 
L 119.944669 98.216882 
L 120.940333 97.972217 
L 121.935996 97.510787 
L 122.93166 97.563058 
L 123.927324 97.133347 
L 124.922987 97.200774 
L 125.918651 96.790428 
L 126.914314 96.578933 
L 127.909978 96.119889 
L 128.905641 96.067479 
L 129.901305 95.682028 
L 131.892632 95.231998 
L 133.883959 95.112759 
L 134.879623 94.429393 
L 135.875286 94.449435 
L 136.87095 94.168222 
L 137.866614 93.559606 
L 138.862277 93.272225 
L 139.857941 93.319775 
L 140.853604 92.797698 
L 143.840595 92.642386 
L 144.836259 92.161666 
L 152.801567 90.498521 
L 153.797231 90.008379 
L 154.792894 89.694052 
L 156.784221 89.45489 
L 157.779885 88.96307 
L 158.775548 88.773797 
L 159.771212 88.388323 
L 161.762539 88.13366 
L 162.758203 87.72195 
L 163.753866 87.676646 
L 164.74953 87.324972 
L 165.745193 87.227356 
L 166.740857 86.995725 
L 167.736521 86.380748 
L 168.732184 86.37692 
L 169.727848 85.980876 
L 170.723511 86.16826 
L 173.710502 85.195188 
L 174.706166 85.15929 
L 176.697493 84.736614 
L 177.693156 84.690297 
L 179.684483 84.255731 
L 180.680147 84.136371 
L 181.675811 83.676717 
L 182.671474 83.631331 
L 183.667138 83.434144 
L 184.662801 83.09015 
L 186.654128 82.738511 
L 187.649792 82.285233 
L 188.645456 82.263202 
L 189.641119 81.970729 
L 190.636783 81.915964 
L 191.632446 81.496569 
L 193.623773 81.092759 
L 194.619437 81.002228 
L 195.6151 80.658822 
L 197.606428 80.232646 
L 198.602091 79.873074 
L 199.597755 79.672349 
L 200.593418 79.153097 
L 201.589082 79.266884 
L 202.584745 79.03336 
L 203.580409 78.540463 
L 205.571736 78.354074 
L 206.5674 77.826824 
L 207.563063 77.512838 
L 208.558727 77.320644 
L 212.541381 75.846618 
L 213.537045 75.728262 
L 215.528372 75.190959 
L 219.511026 74.733706 
L 220.50669 74.744918 
L 221.502353 74.308818 
L 222.498017 74.195276 
L 224.489344 73.738229 
L 226.480671 73.302044 
L 227.476335 73.265459 
L 229.467662 72.848898 
L 230.463325 72.466352 
L 231.458989 72.385887 
L 232.454653 72.047665 
L 233.450316 71.910215 
L 234.44598 71.631984 
L 235.441643 71.558341 
L 236.437307 71.00954 
L 237.43297 70.756709 
L 238.428634 70.825697 
L 240.419961 70.556859 
L 241.415625 70.598131 
L 243.406952 69.662999 
L 244.402615 69.646542 
L 247.389606 68.817484 
L 249.380933 68.58665 
L 252.367924 67.529909 
L 254.359251 67.219135 
L 256.350578 66.725386 
L 257.346242 66.823505 
L 258.341905 66.737768 
L 259.337569 66.015508 
L 260.333232 66.005025 
L 264.315887 64.745707 
L 266.307214 64.458488 
L 267.302877 63.887611 
L 268.298541 63.82255 
L 269.294205 63.589028 
L 270.289868 63.120488 
L 271.285532 63.017975 
L 272.281195 63.160602 
L 273.276859 62.752565 
L 274.272522 62.67871 
L 276.263849 61.740872 
L 277.259513 61.898911 
L 280.246504 61.163747 
L 282.237831 60.678266 
L 283.233494 60.382259 
L 284.229158 60.23827 
L 286.220485 59.691026 
L 287.216149 59.761247 
L 288.211812 59.355602 
L 291.198803 58.951287 
L 294.185794 57.716105 
L 295.181457 57.439509 
L 296.177121 57.327666 
L 297.172784 57.369307 
L 298.168448 57.13155 
L 299.164112 57.059014 
L 300.159775 56.799853 
L 301.155439 56.765249 
L 302.151102 56.231743 
L 303.146766 55.825805 
L 304.142429 55.846945 
L 305.138093 55.559132 
L 306.133757 55.407514 
L 309.120747 53.97107 
L 310.116411 54.09893 
L 311.112074 53.922546 
L 312.107738 53.474202 
L 313.103402 53.35501 
L 315.094729 52.916133 
L 316.090392 52.706347 
L 317.086056 52.691156 
L 318.081719 52.465185 
L 319.077383 51.807296 
L 320.073046 51.798045 
L 321.06871 51.380582 
L 322.064374 51.365342 
L 323.060037 50.835387 
L 325.051364 50.399913 
L 326.047028 50.077959 
L 327.042691 49.531989 
L 328.038355 49.504567 
L 329.034019 48.942398 
L 331.025346 48.255973 
L 333.016673 48.166135 
L 334.012336 47.913662 
L 335.008 47.29182 
L 335.008 47.29182 
" style="fill:none;stroke:#8f0da4;stroke-linecap:round;"/>
   </g>
   <g id="line2d_26">
    <path clip-path="url(#p8ae44b4671)" d="M 37.304593 117.624422 
L 38.300257 117.598029 
L 39.29592 117.336105 
L 40.291584 117.244368 
L 41.287247 116.872112 
L 43.278575 116.416549 
L 44.274238 115.903722 
L 45.269902 115.692872 
L 46.265565 115.28856 
L 47.261229 115.277604 
L 48.256892 114.784572 
L 49.252556 114.588342 
L 50.24822 114.209042 
L 52.239547 113.708981 
L 53.23521 113.2308 
L 54.230874 113.074721 
L 55.226537 112.627288 
L 56.222201 112.32617 
L 58.213528 112.086386 
L 59.209192 111.557157 
L 60.204855 111.601823 
L 61.200519 111.0232 
L 62.196182 110.774347 
L 63.191846 110.706499 
L 65.183173 110.264564 
L 66.178837 109.801787 
L 68.170164 109.609753 
L 69.165827 109.149616 
L 70.161491 109.057718 
L 71.157154 108.781043 
L 73.148482 108.591703 
L 74.144145 108.144735 
L 75.139809 108.028325 
L 79.122463 106.564189 
L 82.109454 105.985287 
L 83.105117 106.012979 
L 84.100781 105.419014 
L 85.096444 105.168549 
L 86.092108 105.267676 
L 88.083435 104.560072 
L 89.079099 104.531012 
L 90.074762 104.280348 
L 91.070426 104.237104 
L 94.057417 103.757108 
L 95.05308 103.728574 
L 96.048744 103.332446 
L 97.044407 103.128076 
L 98.040071 102.773178 
L 99.035734 102.568849 
L 100.031398 102.619324 
L 101.027062 102.030735 
L 102.022725 101.719083 
L 103.018389 101.554504 
L 104.014052 101.605465 
L 105.009716 101.093499 
L 107.001043 100.680324 
L 108.99237 100.166618 
L 109.988034 99.829715 
L 111.979361 99.615929 
L 113.970688 98.849547 
L 115.962015 98.493097 
L 116.957679 98.466193 
L 117.953342 97.885315 
L 118.949006 97.866586 
L 119.944669 97.602135 
L 120.940333 97.505132 
L 121.935996 97.254809 
L 122.93166 96.780512 
L 125.918651 96.287849 
L 126.914314 95.955424 
L 127.909978 95.871621 
L 128.905641 95.473221 
L 131.892632 94.739832 
L 132.888296 94.902911 
L 133.883959 94.543102 
L 134.879623 94.633535 
L 135.875286 94.513117 
L 136.87095 94.032904 
L 137.866614 93.811544 
L 138.862277 93.458688 
L 139.857941 93.373053 
L 140.853604 93.146078 
L 141.849268 92.674339 
L 142.844931 92.661207 
L 144.836259 92.470176 
L 145.831922 92.112062 
L 146.827586 91.876873 
L 148.818913 91.624103 
L 149.814576 91.062013 
L 151.805903 90.504179 
L 152.801567 90.501724 
L 153.797231 90.169264 
L 154.792894 90.076053 
L 155.788558 89.766512 
L 156.784221 89.214004 
L 157.779885 89.0478 
L 160.766876 88.225232 
L 161.762539 88.255354 
L 162.758203 87.834902 
L 163.753866 88.046928 
L 166.740857 87.409195 
L 173.710502 85.303925 
L 174.706166 85.216752 
L 175.701829 84.708476 
L 176.697493 84.653225 
L 177.693156 84.083297 
L 179.684483 83.776958 
L 180.680147 83.578114 
L 183.667138 82.461554 
L 185.658465 82.179488 
L 187.649792 81.630689 
L 188.645456 81.151324 
L 192.62811 80.007385 
L 193.623773 80.065017 
L 195.6151 79.599724 
L 200.593418 78.05358 
L 201.589082 78.078616 
L 202.584745 77.821093 
L 203.580409 77.428652 
L 204.576073 77.306642 
L 205.571736 77.414776 
L 207.563063 76.591183 
L 208.558727 76.691252 
L 209.55439 76.385983 
L 210.550054 75.932405 
L 211.545718 75.913584 
L 212.541381 75.431475 
L 213.537045 75.273454 
L 214.532708 74.941573 
L 216.524035 74.580992 
L 217.519699 74.098607 
L 218.515363 73.803855 
L 219.511026 73.359353 
L 221.502353 72.859959 
L 222.498017 72.486525 
L 223.49368 72.361488 
L 224.489344 72.017564 
L 225.485008 71.83304 
L 226.480671 71.317031 
L 227.476335 71.087698 
L 228.471998 71.063025 
L 230.463325 70.504009 
L 232.454653 70.05602 
L 233.450316 69.394548 
L 234.44598 69.314418 
L 236.437307 68.592963 
L 237.43297 68.40549 
L 238.428634 67.831348 
L 240.419961 67.726257 
L 241.415625 67.429141 
L 243.406952 67.088842 
L 244.402615 67.053498 
L 245.398279 66.693854 
L 246.393942 66.704074 
L 248.38527 65.863929 
L 249.380933 66.082559 
L 250.376597 65.693328 
L 251.37226 65.58873 
L 253.363587 64.819475 
L 255.354915 64.365674 
L 256.350578 63.952624 
L 257.346242 63.708534 
L 258.341905 63.685964 
L 259.337569 63.255777 
L 260.333232 63.089902 
L 261.328896 62.730928 
L 262.32456 62.152164 
L 266.307214 61.68194 
L 267.302877 61.154794 
L 269.294205 60.989384 
L 271.285532 60.303241 
L 272.281195 60.273928 
L 273.276859 59.71119 
L 274.272522 59.550728 
L 275.268186 59.263434 
L 276.263849 59.125815 
L 277.259513 58.721814 
L 278.255177 58.604437 
L 279.25084 58.294647 
L 283.233494 57.96859 
L 284.229158 57.502045 
L 289.207476 56.420037 
L 290.203139 56.269141 
L 292.194467 55.377581 
L 293.19013 55.43368 
L 295.181457 54.705671 
L 299.164112 54.139322 
L 301.155439 53.253495 
L 302.151102 53.375311 
L 307.12942 51.996894 
L 308.125084 51.503347 
L 309.120747 51.486977 
L 310.116411 51.649349 
L 311.112074 51.137602 
L 312.107738 51.279183 
L 313.103402 50.943411 
L 314.099065 50.742908 
L 315.094729 50.375504 
L 317.086056 50.169644 
L 318.081719 49.884002 
L 320.073046 48.911012 
L 322.064374 48.976076 
L 323.060037 48.307355 
L 324.055701 47.858702 
L 325.051364 47.649363 
L 326.047028 47.722693 
L 327.042691 47.253492 
L 333.016673 45.865865 
L 335.008 45.725363 
L 335.008 45.725363 
" style="fill:none;stroke:#5601a4;stroke-linecap:round;"/>
   </g>
   <g id="line2d_27">
    <path clip-path="url(#p8ae44b4671)" d="M 37.304593 117.532303 
L 38.300257 117.465718 
L 39.29592 116.957905 
L 40.291584 116.587921 
L 42.282911 116.44802 
L 43.278575 116.232965 
L 44.274238 115.712113 
L 45.269902 115.390024 
L 46.265565 115.407778 
L 47.261229 114.862483 
L 52.239547 113.729828 
L 53.23521 113.432508 
L 55.226537 113.194931 
L 56.222201 113.074316 
L 58.213528 112.322146 
L 59.209192 112.263843 
L 66.178837 110.236139 
L 69.165827 109.99179 
L 70.161491 109.627727 
L 72.152818 109.294701 
L 73.148482 108.944881 
L 74.144145 108.834531 
L 75.139809 108.284548 
L 77.131136 107.809554 
L 78.126799 107.841157 
L 79.122463 107.377948 
L 81.11379 106.751643 
L 82.109454 106.717286 
L 83.105117 106.326751 
L 84.100781 106.198266 
L 85.096444 105.767792 
L 86.092108 105.628952 
L 87.087772 105.107582 
L 88.083435 104.807023 
L 89.079099 104.644548 
L 91.070426 104.030319 
L 93.061753 103.836183 
L 94.057417 103.321529 
L 95.05308 103.375663 
L 96.048744 103.040655 
L 97.044407 103.211685 
L 98.040071 102.648243 
L 99.035734 102.675393 
L 100.031398 102.423875 
L 101.027062 102.325938 
L 102.022725 102.007591 
L 103.018389 101.901637 
L 104.014052 101.583051 
L 105.009716 101.455463 
L 106.005379 101.007449 
L 107.001043 101.013945 
L 107.996707 100.474695 
L 108.99237 100.454602 
L 109.988034 99.878631 
L 111.979361 99.723753 
L 112.975024 99.530554 
L 113.970688 99.129009 
L 114.966351 99.319993 
L 115.962015 98.948804 
L 116.957679 98.787733 
L 117.953342 98.863108 
L 118.949006 98.554501 
L 119.944669 98.571074 
L 122.93166 97.440145 
L 123.927324 97.389657 
L 125.918651 96.649646 
L 126.914314 96.183843 
L 128.905641 95.824827 
L 129.901305 95.284572 
L 130.896969 95.244149 
L 131.892632 94.66465 
L 132.888296 94.43523 
L 133.883959 94.373473 
L 141.849268 92.51057 
L 142.844931 92.514763 
L 146.827586 91.465391 
L 147.823249 91.675824 
L 149.814576 90.757003 
L 150.81024 90.717671 
L 151.805903 90.56652 
L 153.797231 89.76907 
L 156.784221 89.152686 
L 157.779885 89.172846 
L 158.775548 88.95959 
L 160.766876 88.258454 
L 161.762539 88.326035 
L 162.758203 87.949508 
L 163.753866 88.02698 
L 164.74953 87.667413 
L 165.745193 87.14541 
L 167.736521 86.982944 
L 168.732184 86.647139 
L 170.723511 86.297034 
L 171.719175 85.782938 
L 173.710502 85.089201 
L 175.701829 85.056202 
L 176.697493 85.030635 
L 179.684483 84.440818 
L 180.680147 84.452119 
L 182.671474 83.932167 
L 185.658465 83.497942 
L 186.654128 83.140937 
L 187.649792 82.941557 
L 189.641119 82.70528 
L 191.632446 82.419004 
L 192.62811 82.045329 
L 193.623773 81.544871 
L 196.610764 80.990723 
L 197.606428 80.584381 
L 198.602091 80.522114 
L 201.589082 79.841248 
L 202.584745 79.289412 
L 203.580409 79.314297 
L 206.5674 78.827354 
L 208.558727 78.208838 
L 211.545718 77.659302 
L 212.541381 77.588311 
L 213.537045 77.361405 
L 214.532708 77.821366 
L 215.528372 77.205746 
L 216.524035 76.877641 
L 217.519699 77.030835 
L 219.511026 76.454795 
L 220.50669 76.467197 
L 221.502353 75.944758 
L 222.498017 75.606445 
L 223.49368 75.517218 
L 224.489344 74.989975 
L 227.476335 74.756913 
L 228.471998 74.545356 
L 231.458989 73.232737 
L 232.454653 73.249546 
L 233.450316 72.860382 
L 234.44598 73.144393 
L 235.441643 73.036642 
L 236.437307 73.056361 
L 238.428634 72.322725 
L 239.424297 72.186839 
L 241.415625 71.292798 
L 242.411288 71.272351 
L 245.398279 70.812948 
L 246.393942 70.819024 
L 247.389606 70.189685 
L 248.38527 70.2459 
L 251.37226 69.299265 
L 253.363587 69.120583 
L 258.341905 67.979744 
L 259.337569 67.884686 
L 260.333232 67.27353 
L 263.320223 67.097755 
L 264.315887 66.581916 
L 266.307214 66.715153 
L 267.302877 66.185265 
L 271.285532 65.799527 
L 273.276859 65.425072 
L 274.272522 65.058809 
L 275.268186 65.121858 
L 278.255177 64.232666 
L 279.25084 64.182337 
L 281.242167 63.607999 
L 282.237831 63.416718 
L 283.233494 63.532844 
L 284.229158 63.226427 
L 285.224822 62.726802 
L 286.220485 62.547111 
L 287.216149 62.076398 
L 290.203139 61.682279 
L 291.198803 61.208653 
L 294.185794 60.454298 
L 295.181457 59.980412 
L 296.177121 60.017715 
L 297.172784 59.739166 
L 298.168448 59.743011 
L 299.164112 59.397409 
L 301.155439 59.244255 
L 302.151102 59.31887 
L 303.146766 58.926936 
L 304.142429 58.281444 
L 305.138093 58.215484 
L 306.133757 57.727519 
L 308.125084 57.456864 
L 309.120747 56.823974 
L 310.116411 56.852856 
L 311.112074 56.502616 
L 312.107738 56.53039 
L 313.103402 55.861232 
L 315.094729 55.626514 
L 316.090392 55.211676 
L 317.086056 55.572645 
L 319.077383 54.741577 
L 321.06871 54.195761 
L 322.064374 54.115742 
L 323.060037 53.749637 
L 324.055701 53.080116 
L 325.051364 53.152782 
L 326.047028 52.955121 
L 327.042691 52.615363 
L 328.038355 52.124063 
L 329.034019 52.101792 
L 332.021009 51.241079 
L 333.016673 51.192317 
L 334.012336 50.817325 
L 335.008 50.754734 
L 335.008 50.754734 
" style="fill:none;stroke:#0d0887;stroke-linecap:round;"/>
   </g>
   <g id="line2d_28">
    <path clip-path="url(#p8ae44b4671)" d="M 39.209895 116.868181 
L 40.135861 116.75665 
L 41.511841 116.565464 
L 43.556539 116.294639 
L 46.594949 115.88048 
L 51.110009 115.291185 
L 57.819362 114.383524 
L 67.789422 113.062144 
L 82.604875 111.072615 
L 104.620553 108.128825 
L 137.335725 103.753744 
L 185.950284 97.26342 
L 258.19124 87.623782 
L 365.540889 73.2758 
L 438 63.60105 
" style="fill:none;stroke:#cd401a;stroke-dasharray:1.5,2.475;stroke-dashoffset:0;stroke-width:1.5;"/>
   </g>
   <g id="patch_3">
    <path d="M 37.9 128.2 
L 37.9 19.48 
" style="fill:none;stroke:#cccccc;stroke-linecap:square;stroke-linejoin:miter;"/>
   </g>
   <g id="patch_4">
    <path d="M 335.008 128.2 
L 335.008 19.48 
" style="fill:none;stroke:#cccccc;stroke-linecap:square;stroke-linejoin:miter;"/>
   </g>
   <g id="patch_5">
    <path d="M 37.9 128.2 
L 335.008 128.2 
" style="fill:none;stroke:#cccccc;stroke-linecap:square;stroke-linejoin:miter;"/>
   </g>
   <g id="patch_6">
    <path d="M 37.9 19.48 
L 335.008 19.48 
" style="fill:none;stroke:#cccccc;stroke-linecap:square;stroke-linejoin:miter;"/>
   </g>
  </g>
  <g id="legend_1">
   <g id="line2d_29">
    <path d="M 350 12.8125 
L 370 12.8125 
" style="fill:none;stroke:#fcce25;stroke-linecap:round;"/>
   </g>
   <g id="line2d_30"/>
   <g id="text_13">
    <!-- $N_S=10$ -->
    <defs>
     <path d="M 16.890625 72.90625 
L 30.171875 72.90625 
L 50.296875 10.40625 
L 62.5 72.90625 
L 72.125 72.90625 
L 57.90625 0 
L 44.578125 0 
L 24.515625 62.890625 
L 12.3125 0 
L 2.6875 0 
z
" id="DejaVuSans-Oblique-78"/>
     <path d="M 60.296875 70.515625 
L 58.40625 60.890625 
Q 53.46875 63.53125 48.609375 64.875 
Q 43.75 66.21875 39.203125 66.21875 
Q 30.375 66.21875 25.140625 62.359375 
Q 19.921875 58.5 19.921875 52.09375 
Q 19.921875 48.578125 21.84375 46.703125 
Q 23.78125 44.828125 31.78125 42.671875 
L 37.703125 41.21875 
Q 47.703125 38.625 51.609375 34.640625 
Q 55.515625 30.671875 55.515625 23.484375 
Q 55.515625 12.453125 46.84375 5.515625 
Q 38.1875 -1.421875 24.03125 -1.421875 
Q 18.21875 -1.421875 12.359375 -0.265625 
Q 6.5 0.875 0.59375 3.21875 
L 2.59375 13.375 
Q 8.015625 10.015625 13.453125 8.296875 
Q 18.890625 6.59375 24.3125 6.59375 
Q 33.546875 6.59375 39.109375 10.6875 
Q 44.671875 14.796875 44.671875 21.390625 
Q 44.671875 25.78125 42.453125 28.046875 
Q 40.234375 30.328125 32.90625 32.171875 
L 27 33.6875 
Q 16.890625 36.328125 13.203125 39.765625 
Q 9.515625 43.21875 9.515625 49.421875 
Q 9.515625 60.296875 17.890625 67.25 
Q 26.265625 74.21875 39.703125 74.21875 
Q 44.921875 74.21875 50.046875 73.28125 
Q 55.171875 72.359375 60.296875 70.515625 
z
" id="DejaVuSans-Oblique-83"/>
     <path d="M 10.59375 45.40625 
L 73.1875 45.40625 
L 73.1875 37.203125 
L 10.59375 37.203125 
z
M 10.59375 25.484375 
L 73.1875 25.484375 
L 73.1875 17.1875 
L 10.59375 17.1875 
z
" id="DejaVuSans-61"/>
     <path d="M 12.40625 8.296875 
L 28.515625 8.296875 
L 28.515625 63.921875 
L 10.984375 60.40625 
L 10.984375 69.390625 
L 28.421875 72.90625 
L 38.28125 72.90625 
L 38.28125 8.296875 
L 54.390625 8.296875 
L 54.390625 0 
L 12.40625 0 
z
" id="DejaVuSans-49"/>
     <path d="M 31.78125 66.40625 
Q 24.171875 66.40625 20.328125 58.90625 
Q 16.5 51.421875 16.5 36.375 
Q 16.5 21.390625 20.328125 13.890625 
Q 24.171875 6.390625 31.78125 6.390625 
Q 39.453125 6.390625 43.28125 13.890625 
Q 47.125 21.390625 47.125 36.375 
Q 47.125 51.421875 43.28125 58.90625 
Q 39.453125 66.40625 31.78125 66.40625 
z
M 31.78125 74.21875 
Q 44.046875 74.21875 50.515625 64.515625 
Q 56.984375 54.828125 56.984375 36.375 
Q 56.984375 17.96875 50.515625 8.265625 
Q 44.046875 -1.421875 31.78125 -1.421875 
Q 19.53125 -1.421875 13.0625 8.265625 
Q 6.59375 17.96875 6.59375 36.375 
Q 6.59375 54.828125 13.0625 64.515625 
Q 19.53125 74.21875 31.78125 74.21875 
z
" id="DejaVuSans-48"/>
    </defs>
    <g style="fill:#262626;" transform="translate(378 16.3125)scale(0.1 -0.1)">
     <use transform="translate(0 0.78125)" xlink:href="#DejaVuSans-Oblique-78"/>
     <use transform="translate(74.804688 -15.625)scale(0.7)" xlink:href="#DejaVuSans-Oblique-83"/>
     <use transform="translate(141.455078 0.78125)" xlink:href="#DejaVuSans-61"/>
     <use transform="translate(244.726562 0.78125)" xlink:href="#DejaVuSans-49"/>
     <use transform="translate(308.349609 0.78125)" xlink:href="#DejaVuSans-48"/>
    </g>
   </g>
   <g id="line2d_31">
    <path d="M 350 27.1125 
L 370 27.1125 
" style="fill:none;stroke:#f89540;stroke-linecap:round;"/>
   </g>
   <g id="line2d_32"/>
   <g id="text_14">
    <!-- $N_S=20$ -->
    <defs>
     <path d="M 19.1875 8.296875 
L 53.609375 8.296875 
L 53.609375 0 
L 7.328125 0 
L 7.328125 8.296875 
Q 12.9375 14.109375 22.625 23.890625 
Q 32.328125 33.6875 34.8125 36.53125 
Q 39.546875 41.84375 41.421875 45.53125 
Q 43.3125 49.21875 43.3125 52.78125 
Q 43.3125 58.59375 39.234375 62.25 
Q 35.15625 65.921875 28.609375 65.921875 
Q 23.96875 65.921875 18.8125 64.3125 
Q 13.671875 62.703125 7.8125 59.421875 
L 7.8125 69.390625 
Q 13.765625 71.78125 18.9375 73 
Q 24.125 74.21875 28.421875 74.21875 
Q 39.75 74.21875 46.484375 68.546875 
Q 53.21875 62.890625 53.21875 53.421875 
Q 53.21875 48.921875 51.53125 44.890625 
Q 49.859375 40.875 45.40625 35.40625 
Q 44.1875 33.984375 37.640625 27.21875 
Q 31.109375 20.453125 19.1875 8.296875 
z
" id="DejaVuSans-50"/>
    </defs>
    <g style="fill:#262626;" transform="translate(378 30.6125)scale(0.1 -0.1)">
     <use transform="translate(0 0.78125)" xlink:href="#DejaVuSans-Oblique-78"/>
     <use transform="translate(74.804688 -15.625)scale(0.7)" xlink:href="#DejaVuSans-Oblique-83"/>
     <use transform="translate(141.455078 0.78125)" xlink:href="#DejaVuSans-61"/>
     <use transform="translate(244.726562 0.78125)" xlink:href="#DejaVuSans-50"/>
     <use transform="translate(308.349609 0.78125)" xlink:href="#DejaVuSans-48"/>
    </g>
   </g>
   <g id="line2d_33">
    <path d="M 350 41.4125 
L 370 41.4125 
" style="fill:none;stroke:#e16462;stroke-linecap:round;"/>
   </g>
   <g id="line2d_34"/>
   <g id="text_15">
    <!-- $N_S=50$ -->
    <defs>
     <path d="M 10.796875 72.90625 
L 49.515625 72.90625 
L 49.515625 64.59375 
L 19.828125 64.59375 
L 19.828125 46.734375 
Q 21.96875 47.46875 24.109375 47.828125 
Q 26.265625 48.1875 28.421875 48.1875 
Q 40.625 48.1875 47.75 41.5 
Q 54.890625 34.8125 54.890625 23.390625 
Q 54.890625 11.625 47.5625 5.09375 
Q 40.234375 -1.421875 26.90625 -1.421875 
Q 22.3125 -1.421875 17.546875 -0.640625 
Q 12.796875 0.140625 7.71875 1.703125 
L 7.71875 11.625 
Q 12.109375 9.234375 16.796875 8.0625 
Q 21.484375 6.890625 26.703125 6.890625 
Q 35.15625 6.890625 40.078125 11.328125 
Q 45.015625 15.765625 45.015625 23.390625 
Q 45.015625 31 40.078125 35.4375 
Q 35.15625 39.890625 26.703125 39.890625 
Q 22.75 39.890625 18.8125 39.015625 
Q 14.890625 38.140625 10.796875 36.28125 
z
" id="DejaVuSans-53"/>
    </defs>
    <g style="fill:#262626;" transform="translate(378 44.9125)scale(0.1 -0.1)">
     <use transform="translate(0 0.78125)" xlink:href="#DejaVuSans-Oblique-78"/>
     <use transform="translate(74.804688 -15.625)scale(0.7)" xlink:href="#DejaVuSans-Oblique-83"/>
     <use transform="translate(141.455078 0.78125)" xlink:href="#DejaVuSans-61"/>
     <use transform="translate(244.726562 0.78125)" xlink:href="#DejaVuSans-53"/>
     <use transform="translate(308.349609 0.78125)" xlink:href="#DejaVuSans-48"/>
    </g>
   </g>
   <g id="line2d_35">
    <path d="M 350 55.7125 
L 370 55.7125 
" style="fill:none;stroke:#bf3984;stroke-linecap:round;"/>
   </g>
   <g id="line2d_36"/>
   <g id="text_16">
    <!-- $N_S=100$ -->
    <g style="fill:#262626;" transform="translate(378 59.2125)scale(0.1 -0.1)">
     <use transform="translate(0 0.78125)" xlink:href="#DejaVuSans-Oblique-78"/>
     <use transform="translate(74.804688 -15.625)scale(0.7)" xlink:href="#DejaVuSans-Oblique-83"/>
     <use transform="translate(141.455078 0.78125)" xlink:href="#DejaVuSans-61"/>
     <use transform="translate(244.726562 0.78125)" xlink:href="#DejaVuSans-49"/>
     <use transform="translate(308.349609 0.78125)" xlink:href="#DejaVuSans-48"/>
     <use transform="translate(371.972656 0.78125)" xlink:href="#DejaVuSans-48"/>
    </g>
   </g>
   <g id="line2d_37">
    <path d="M 350 70.0125 
L 370 70.0125 
" style="fill:none;stroke:#8f0da4;stroke-linecap:round;"/>
   </g>
   <g id="line2d_38"/>
   <g id="text_17">
    <!-- $N_S=200$ -->
    <g style="fill:#262626;" transform="translate(378 73.5125)scale(0.1 -0.1)">
     <use transform="translate(0 0.78125)" xlink:href="#DejaVuSans-Oblique-78"/>
     <use transform="translate(74.804688 -15.625)scale(0.7)" xlink:href="#DejaVuSans-Oblique-83"/>
     <use transform="translate(141.455078 0.78125)" xlink:href="#DejaVuSans-61"/>
     <use transform="translate(244.726562 0.78125)" xlink:href="#DejaVuSans-50"/>
     <use transform="translate(308.349609 0.78125)" xlink:href="#DejaVuSans-48"/>
     <use transform="translate(371.972656 0.78125)" xlink:href="#DejaVuSans-48"/>
    </g>
   </g>
   <g id="line2d_39">
    <path d="M 350 84.3125 
L 370 84.3125 
" style="fill:none;stroke:#5601a4;stroke-linecap:round;"/>
   </g>
   <g id="line2d_40"/>
   <g id="text_18">
    <!-- $N_S=500$ -->
    <g style="fill:#262626;" transform="translate(378 87.8125)scale(0.1 -0.1)">
     <use transform="translate(0 0.78125)" xlink:href="#DejaVuSans-Oblique-78"/>
     <use transform="translate(74.804688 -15.625)scale(0.7)" xlink:href="#DejaVuSans-Oblique-83"/>
     <use transform="translate(141.455078 0.78125)" xlink:href="#DejaVuSans-61"/>
     <use transform="translate(244.726562 0.78125)" xlink:href="#DejaVuSans-53"/>
     <use transform="translate(308.349609 0.78125)" xlink:href="#DejaVuSans-48"/>
     <use transform="translate(371.972656 0.78125)" xlink:href="#DejaVuSans-48"/>
    </g>
   </g>
   <g id="line2d_41">
    <path d="M 350 98.6125 
L 370 98.6125 
" style="fill:none;stroke:#0d0887;stroke-linecap:round;"/>
   </g>
   <g id="line2d_42"/>
   <g id="text_19">
    <!-- $N_S=1000$ -->
    <g style="fill:#262626;" transform="translate(378 102.1125)scale(0.1 -0.1)">
     <use transform="translate(0 0.78125)" xlink:href="#DejaVuSans-Oblique-78"/>
     <use transform="translate(74.804688 -15.625)scale(0.7)" xlink:href="#DejaVuSans-Oblique-83"/>
     <use transform="translate(141.455078 0.78125)" xlink:href="#DejaVuSans-61"/>
     <use transform="translate(244.726562 0.78125)" xlink:href="#DejaVuSans-49"/>
     <use transform="translate(308.349609 0.78125)" xlink:href="#DejaVuSans-48"/>
     <use transform="translate(371.972656 0.78125)" xlink:href="#DejaVuSans-48"/>
     <use transform="translate(435.595703 0.78125)" xlink:href="#DejaVuSans-48"/>
    </g>
   </g>
   <g id="line2d_43">
    <path d="M 350 112.757812 
L 370 112.757812 
" style="fill:none;stroke:#cd401a;stroke-dasharray:1.5,2.475;stroke-dashoffset:0;stroke-width:1.5;"/>
   </g>
   <g id="line2d_44"/>
   <g id="text_20">
    <!-- reference -->
    <g style="fill:#262626;" transform="translate(378 116.257812)scale(0.1 -0.1)">
     <use xlink:href="#ArialMT-114"/>
     <use x="33.300781" xlink:href="#ArialMT-101"/>
     <use x="88.916016" xlink:href="#ArialMT-102"/>
     <use x="116.699219" xlink:href="#ArialMT-101"/>
     <use x="172.314453" xlink:href="#ArialMT-114"/>
     <use x="205.615234" xlink:href="#ArialMT-101"/>
     <use x="261.230469" xlink:href="#ArialMT-110"/>
     <use x="316.845703" xlink:href="#ArialMT-99"/>
     <use x="366.845703" xlink:href="#ArialMT-101"/>
    </g>
   </g>
  </g>
 </g>
 <defs>
  <clipPath id="p8ae44b4671">
   <rect height="108.72" width="297.108" x="37.9" y="19.48"/>
  </clipPath>
 </defs>
</svg>
