<?xml version="1.0" encoding="utf-8" standalone="no"?>
<!DOCTYPE svg PUBLIC "-//W3C//DTD SVG 1.1//EN"
  "http://www.w3.org/Graphics/SVG/1.1/DTD/svg11.dtd">
<!-- Created with matplotlib (https://matplotlib.org/) -->
<svg height="142.808437pt" version="1.1" viewBox="0 0 333.446906 142.808437" width="333.446906pt" xmlns="http://www.w3.org/2000/svg" xmlns:xlink="http://www.w3.org/1999/xlink">
 <defs>
  <style type="text/css">
*{stroke-linecap:butt;stroke-linejoin:round;}
  </style>
 </defs>
 <g id="figure_1">
  <g id="patch_1">
   <path d="M 0 142.808437 
L 333.446906 142.808437 
L 333.446906 0 
L 0 0 
z
" style="fill:#ffffff;"/>
  </g>
  <g id="axes_1">
   <g id="patch_2">
    <path d="M 59.748625 99.84875 
L 244.845156 99.84875 
L 244.845156 18.26875 
L 59.748625 18.26875 
z
" style="fill:#ffffff;"/>
   </g>
   <g id="matplotlib.axis_1">
    <g id="xtick_1">
     <g id="line2d_1">
      <path clip-path="url(#pe035c5fe21)" d="M 116.239125 99.84875 
L 116.239125 18.26875 
" style="fill:none;stroke:#cccccc;stroke-linecap:round;"/>
     </g>
     <g id="text_1">
      <!-- 100 -->
      <defs>
       <path d="M 12.40625 8.296875 
L 28.515625 8.296875 
L 28.515625 63.921875 
L 10.984375 60.40625 
L 10.984375 69.390625 
L 28.421875 72.90625 
L 38.28125 72.90625 
L 38.28125 8.296875 
L 54.390625 8.296875 
L 54.390625 0 
L 12.40625 0 
z
" id="DejaVuSans-49"/>
       <path d="M 31.78125 66.40625 
Q 24.171875 66.40625 20.328125 58.90625 
Q 16.5 51.421875 16.5 36.375 
Q 16.5 21.390625 20.328125 13.890625 
Q 24.171875 6.390625 31.78125 6.390625 
Q 39.453125 6.390625 43.28125 13.890625 
Q 47.125 21.390625 47.125 36.375 
Q 47.125 51.421875 43.28125 58.90625 
Q 39.453125 66.40625 31.78125 66.40625 
z
M 31.78125 74.21875 
Q 44.046875 74.21875 50.515625 64.515625 
Q 56.984375 54.828125 56.984375 36.375 
Q 56.984375 17.96875 50.515625 8.265625 
Q 44.046875 -1.421875 31.78125 -1.421875 
Q 19.53125 -1.421875 13.0625 8.265625 
Q 6.59375 17.96875 6.59375 36.375 
Q 6.59375 54.828125 13.0625 64.515625 
Q 19.53125 74.21875 31.78125 74.21875 
z
" id="DejaVuSans-48"/>
      </defs>
      <g style="fill:#262626;" transform="translate(105.741 117.707031)scale(0.11 -0.11)">
       <use xlink:href="#DejaVuSans-49"/>
       <use x="63.623047" xlink:href="#DejaVuSans-48"/>
       <use x="127.246094" xlink:href="#DejaVuSans-48"/>
      </g>
     </g>
    </g>
    <g id="xtick_2">
     <g id="line2d_2">
      <path clip-path="url(#pe035c5fe21)" d="M 176.335401 99.84875 
L 176.335401 18.26875 
" style="fill:none;stroke:#cccccc;stroke-linecap:round;"/>
     </g>
     <g id="text_2">
      <!-- 200 -->
      <defs>
       <path d="M 19.1875 8.296875 
L 53.609375 8.296875 
L 53.609375 0 
L 7.328125 0 
L 7.328125 8.296875 
Q 12.9375 14.109375 22.625 23.890625 
Q 32.328125 33.6875 34.8125 36.53125 
Q 39.546875 41.84375 41.421875 45.53125 
Q 43.3125 49.21875 43.3125 52.78125 
Q 43.3125 58.59375 39.234375 62.25 
Q 35.15625 65.921875 28.609375 65.921875 
Q 23.96875 65.921875 18.8125 64.3125 
Q 13.671875 62.703125 7.8125 59.421875 
L 7.8125 69.390625 
Q 13.765625 71.78125 18.9375 73 
Q 24.125 74.21875 28.421875 74.21875 
Q 39.75 74.21875 46.484375 68.546875 
Q 53.21875 62.890625 53.21875 53.421875 
Q 53.21875 48.921875 51.53125 44.890625 
Q 49.859375 40.875 45.40625 35.40625 
Q 44.1875 33.984375 37.640625 27.21875 
Q 31.109375 20.453125 19.1875 8.296875 
z
" id="DejaVuSans-50"/>
      </defs>
      <g style="fill:#262626;" transform="translate(165.837276 117.707031)scale(0.11 -0.11)">
       <use xlink:href="#DejaVuSans-50"/>
       <use x="63.623047" xlink:href="#DejaVuSans-48"/>
       <use x="127.246094" xlink:href="#DejaVuSans-48"/>
      </g>
     </g>
    </g>
    <g id="xtick_3">
     <g id="line2d_3">
      <path clip-path="url(#pe035c5fe21)" d="M 236.431678 99.84875 
L 236.431678 18.26875 
" style="fill:none;stroke:#cccccc;stroke-linecap:round;"/>
     </g>
     <g id="text_3">
      <!-- 300 -->
      <defs>
       <path d="M 40.578125 39.3125 
Q 47.65625 37.796875 51.625 33 
Q 55.609375 28.21875 55.609375 21.1875 
Q 55.609375 10.40625 48.1875 4.484375 
Q 40.765625 -1.421875 27.09375 -1.421875 
Q 22.515625 -1.421875 17.65625 -0.515625 
Q 12.796875 0.390625 7.625 2.203125 
L 7.625 11.71875 
Q 11.71875 9.328125 16.59375 8.109375 
Q 21.484375 6.890625 26.8125 6.890625 
Q 36.078125 6.890625 40.9375 10.546875 
Q 45.796875 14.203125 45.796875 21.1875 
Q 45.796875 27.640625 41.28125 31.265625 
Q 36.765625 34.90625 28.71875 34.90625 
L 20.21875 34.90625 
L 20.21875 43.015625 
L 29.109375 43.015625 
Q 36.375 43.015625 40.234375 45.921875 
Q 44.09375 48.828125 44.09375 54.296875 
Q 44.09375 59.90625 40.109375 62.90625 
Q 36.140625 65.921875 28.71875 65.921875 
Q 24.65625 65.921875 20.015625 65.03125 
Q 15.375 64.15625 9.8125 62.3125 
L 9.8125 71.09375 
Q 15.4375 72.65625 20.34375 73.4375 
Q 25.25 74.21875 29.59375 74.21875 
Q 40.828125 74.21875 47.359375 69.109375 
Q 53.90625 64.015625 53.90625 55.328125 
Q 53.90625 49.265625 50.4375 45.09375 
Q 46.96875 40.921875 40.578125 39.3125 
z
" id="DejaVuSans-51"/>
      </defs>
      <g style="fill:#262626;" transform="translate(225.933553 117.707031)scale(0.11 -0.11)">
       <use xlink:href="#DejaVuSans-51"/>
       <use x="63.623047" xlink:href="#DejaVuSans-48"/>
       <use x="127.246094" xlink:href="#DejaVuSans-48"/>
      </g>
     </g>
    </g>
    <g id="text_4">
     <!-- dimensions -->
     <defs>
      <path d="M 45.40625 46.390625 
L 45.40625 75.984375 
L 54.390625 75.984375 
L 54.390625 0 
L 45.40625 0 
L 45.40625 8.203125 
Q 42.578125 3.328125 38.25 0.953125 
Q 33.9375 -1.421875 27.875 -1.421875 
Q 17.96875 -1.421875 11.734375 6.484375 
Q 5.515625 14.40625 5.515625 27.296875 
Q 5.515625 40.1875 11.734375 48.09375 
Q 17.96875 56 27.875 56 
Q 33.9375 56 38.25 53.625 
Q 42.578125 51.265625 45.40625 46.390625 
z
M 14.796875 27.296875 
Q 14.796875 17.390625 18.875 11.75 
Q 22.953125 6.109375 30.078125 6.109375 
Q 37.203125 6.109375 41.296875 11.75 
Q 45.40625 17.390625 45.40625 27.296875 
Q 45.40625 37.203125 41.296875 42.84375 
Q 37.203125 48.484375 30.078125 48.484375 
Q 22.953125 48.484375 18.875 42.84375 
Q 14.796875 37.203125 14.796875 27.296875 
z
" id="DejaVuSans-100"/>
      <path d="M 9.421875 54.6875 
L 18.40625 54.6875 
L 18.40625 0 
L 9.421875 0 
z
M 9.421875 75.984375 
L 18.40625 75.984375 
L 18.40625 64.59375 
L 9.421875 64.59375 
z
" id="DejaVuSans-105"/>
      <path d="M 52 44.1875 
Q 55.375 50.25 60.0625 53.125 
Q 64.75 56 71.09375 56 
Q 79.640625 56 84.28125 50.015625 
Q 88.921875 44.046875 88.921875 33.015625 
L 88.921875 0 
L 79.890625 0 
L 79.890625 32.71875 
Q 79.890625 40.578125 77.09375 44.375 
Q 74.3125 48.1875 68.609375 48.1875 
Q 61.625 48.1875 57.5625 43.546875 
Q 53.515625 38.921875 53.515625 30.90625 
L 53.515625 0 
L 44.484375 0 
L 44.484375 32.71875 
Q 44.484375 40.625 41.703125 44.40625 
Q 38.921875 48.1875 33.109375 48.1875 
Q 26.21875 48.1875 22.15625 43.53125 
Q 18.109375 38.875 18.109375 30.90625 
L 18.109375 0 
L 9.078125 0 
L 9.078125 54.6875 
L 18.109375 54.6875 
L 18.109375 46.1875 
Q 21.1875 51.21875 25.484375 53.609375 
Q 29.78125 56 35.6875 56 
Q 41.65625 56 45.828125 52.96875 
Q 50 49.953125 52 44.1875 
z
" id="DejaVuSans-109"/>
      <path d="M 56.203125 29.59375 
L 56.203125 25.203125 
L 14.890625 25.203125 
Q 15.484375 15.921875 20.484375 11.0625 
Q 25.484375 6.203125 34.421875 6.203125 
Q 39.59375 6.203125 44.453125 7.46875 
Q 49.3125 8.734375 54.109375 11.28125 
L 54.109375 2.78125 
Q 49.265625 0.734375 44.1875 -0.34375 
Q 39.109375 -1.421875 33.890625 -1.421875 
Q 20.796875 -1.421875 13.15625 6.1875 
Q 5.515625 13.8125 5.515625 26.8125 
Q 5.515625 40.234375 12.765625 48.109375 
Q 20.015625 56 32.328125 56 
Q 43.359375 56 49.78125 48.890625 
Q 56.203125 41.796875 56.203125 29.59375 
z
M 47.21875 32.234375 
Q 47.125 39.59375 43.09375 43.984375 
Q 39.0625 48.390625 32.421875 48.390625 
Q 24.90625 48.390625 20.390625 44.140625 
Q 15.875 39.890625 15.1875 32.171875 
z
" id="DejaVuSans-101"/>
      <path d="M 54.890625 33.015625 
L 54.890625 0 
L 45.90625 0 
L 45.90625 32.71875 
Q 45.90625 40.484375 42.875 44.328125 
Q 39.84375 48.1875 33.796875 48.1875 
Q 26.515625 48.1875 22.3125 43.546875 
Q 18.109375 38.921875 18.109375 30.90625 
L 18.109375 0 
L 9.078125 0 
L 9.078125 54.6875 
L 18.109375 54.6875 
L 18.109375 46.1875 
Q 21.34375 51.125 25.703125 53.5625 
Q 30.078125 56 35.796875 56 
Q 45.21875 56 50.046875 50.171875 
Q 54.890625 44.34375 54.890625 33.015625 
z
" id="DejaVuSans-110"/>
      <path d="M 44.28125 53.078125 
L 44.28125 44.578125 
Q 40.484375 46.53125 36.375 47.5 
Q 32.28125 48.484375 27.875 48.484375 
Q 21.1875 48.484375 17.84375 46.4375 
Q 14.5 44.390625 14.5 40.28125 
Q 14.5 37.15625 16.890625 35.375 
Q 19.28125 33.59375 26.515625 31.984375 
L 29.59375 31.296875 
Q 39.15625 29.25 43.1875 25.515625 
Q 47.21875 21.78125 47.21875 15.09375 
Q 47.21875 7.46875 41.1875 3.015625 
Q 35.15625 -1.421875 24.609375 -1.421875 
Q 20.21875 -1.421875 15.453125 -0.5625 
Q 10.6875 0.296875 5.421875 2 
L 5.421875 11.28125 
Q 10.40625 8.6875 15.234375 7.390625 
Q 20.0625 6.109375 24.8125 6.109375 
Q 31.15625 6.109375 34.5625 8.28125 
Q 37.984375 10.453125 37.984375 14.40625 
Q 37.984375 18.0625 35.515625 20.015625 
Q 33.0625 21.96875 24.703125 23.78125 
L 21.578125 24.515625 
Q 13.234375 26.265625 9.515625 29.90625 
Q 5.8125 33.546875 5.8125 39.890625 
Q 5.8125 47.609375 11.28125 51.796875 
Q 16.75 56 26.8125 56 
Q 31.78125 56 36.171875 55.265625 
Q 40.578125 54.546875 44.28125 53.078125 
z
" id="DejaVuSans-115"/>
      <path d="M 30.609375 48.390625 
Q 23.390625 48.390625 19.1875 42.75 
Q 14.984375 37.109375 14.984375 27.296875 
Q 14.984375 17.484375 19.15625 11.84375 
Q 23.34375 6.203125 30.609375 6.203125 
Q 37.796875 6.203125 41.984375 11.859375 
Q 46.1875 17.53125 46.1875 27.296875 
Q 46.1875 37.015625 41.984375 42.703125 
Q 37.796875 48.390625 30.609375 48.390625 
z
M 30.609375 56 
Q 42.328125 56 49.015625 48.375 
Q 55.71875 40.765625 55.71875 27.296875 
Q 55.71875 13.875 49.015625 6.21875 
Q 42.328125 -1.421875 30.609375 -1.421875 
Q 18.84375 -1.421875 12.171875 6.21875 
Q 5.515625 13.875 5.515625 27.296875 
Q 5.515625 40.765625 12.171875 48.375 
Q 18.84375 56 30.609375 56 
z
" id="DejaVuSans-111"/>
     </defs>
     <g style="fill:#262626;" transform="translate(118.090328 133.112812)scale(0.12 -0.12)">
      <use xlink:href="#DejaVuSans-100"/>
      <use x="63.476562" xlink:href="#DejaVuSans-105"/>
      <use x="91.259766" xlink:href="#DejaVuSans-109"/>
      <use x="188.671875" xlink:href="#DejaVuSans-101"/>
      <use x="250.195312" xlink:href="#DejaVuSans-110"/>
      <use x="313.574219" xlink:href="#DejaVuSans-115"/>
      <use x="365.673828" xlink:href="#DejaVuSans-105"/>
      <use x="393.457031" xlink:href="#DejaVuSans-111"/>
      <use x="454.638672" xlink:href="#DejaVuSans-110"/>
      <use x="518.017578" xlink:href="#DejaVuSans-115"/>
     </g>
    </g>
   </g>
   <g id="matplotlib.axis_2">
    <g id="ytick_1">
     <g id="line2d_4">
      <path clip-path="url(#pe035c5fe21)" d="M 59.748625 97.72126 
L 244.845156 97.72126 
" style="fill:none;stroke:#cccccc;stroke-linecap:round;"/>
     </g>
     <g id="text_5">
      <!-- 0 -->
      <g style="fill:#262626;" transform="translate(43.249875 101.900401)scale(0.11 -0.11)">
       <use xlink:href="#DejaVuSans-48"/>
      </g>
     </g>
    </g>
    <g id="ytick_2">
     <g id="line2d_5">
      <path clip-path="url(#pe035c5fe21)" d="M 59.748625 59.916672 
L 244.845156 59.916672 
" style="fill:none;stroke:#cccccc;stroke-linecap:round;"/>
     </g>
     <g id="text_6">
      <!-- 5 -->
      <defs>
       <path d="M 10.796875 72.90625 
L 49.515625 72.90625 
L 49.515625 64.59375 
L 19.828125 64.59375 
L 19.828125 46.734375 
Q 21.96875 47.46875 24.109375 47.828125 
Q 26.265625 48.1875 28.421875 48.1875 
Q 40.625 48.1875 47.75 41.5 
Q 54.890625 34.8125 54.890625 23.390625 
Q 54.890625 11.625 47.5625 5.09375 
Q 40.234375 -1.421875 26.90625 -1.421875 
Q 22.3125 -1.421875 17.546875 -0.640625 
Q 12.796875 0.140625 7.71875 1.703125 
L 7.71875 11.625 
Q 12.109375 9.234375 16.796875 8.0625 
Q 21.484375 6.890625 26.703125 6.890625 
Q 35.15625 6.890625 40.078125 11.328125 
Q 45.015625 15.765625 45.015625 23.390625 
Q 45.015625 31 40.078125 35.4375 
Q 35.15625 39.890625 26.703125 39.890625 
Q 22.75 39.890625 18.8125 39.015625 
Q 14.890625 38.140625 10.796875 36.28125 
z
" id="DejaVuSans-53"/>
      </defs>
      <g style="fill:#262626;" transform="translate(43.249875 64.095813)scale(0.11 -0.11)">
       <use xlink:href="#DejaVuSans-53"/>
      </g>
     </g>
    </g>
    <g id="ytick_3">
     <g id="line2d_6">
      <path clip-path="url(#pe035c5fe21)" d="M 59.748625 22.112084 
L 244.845156 22.112084 
" style="fill:none;stroke:#cccccc;stroke-linecap:round;"/>
     </g>
     <g id="text_7">
      <!-- 10 -->
      <g style="fill:#262626;" transform="translate(36.251125 26.291225)scale(0.11 -0.11)">
       <use xlink:href="#DejaVuSans-49"/>
       <use x="63.623047" xlink:href="#DejaVuSans-48"/>
      </g>
     </g>
    </g>
    <g id="text_8">
     <!-- marginal entropy -->
     <defs>
      <path d="M 34.28125 27.484375 
Q 23.390625 27.484375 19.1875 25 
Q 14.984375 22.515625 14.984375 16.5 
Q 14.984375 11.71875 18.140625 8.90625 
Q 21.296875 6.109375 26.703125 6.109375 
Q 34.1875 6.109375 38.703125 11.40625 
Q 43.21875 16.703125 43.21875 25.484375 
L 43.21875 27.484375 
z
M 52.203125 31.203125 
L 52.203125 0 
L 43.21875 0 
L 43.21875 8.296875 
Q 40.140625 3.328125 35.546875 0.953125 
Q 30.953125 -1.421875 24.3125 -1.421875 
Q 15.921875 -1.421875 10.953125 3.296875 
Q 6 8.015625 6 15.921875 
Q 6 25.140625 12.171875 29.828125 
Q 18.359375 34.515625 30.609375 34.515625 
L 43.21875 34.515625 
L 43.21875 35.40625 
Q 43.21875 41.609375 39.140625 45 
Q 35.0625 48.390625 27.6875 48.390625 
Q 23 48.390625 18.546875 47.265625 
Q 14.109375 46.140625 10.015625 43.890625 
L 10.015625 52.203125 
Q 14.9375 54.109375 19.578125 55.046875 
Q 24.21875 56 28.609375 56 
Q 40.484375 56 46.34375 49.84375 
Q 52.203125 43.703125 52.203125 31.203125 
z
" id="DejaVuSans-97"/>
      <path d="M 41.109375 46.296875 
Q 39.59375 47.171875 37.8125 47.578125 
Q 36.03125 48 33.890625 48 
Q 26.265625 48 22.1875 43.046875 
Q 18.109375 38.09375 18.109375 28.8125 
L 18.109375 0 
L 9.078125 0 
L 9.078125 54.6875 
L 18.109375 54.6875 
L 18.109375 46.1875 
Q 20.953125 51.171875 25.484375 53.578125 
Q 30.03125 56 36.53125 56 
Q 37.453125 56 38.578125 55.875 
Q 39.703125 55.765625 41.0625 55.515625 
z
" id="DejaVuSans-114"/>
      <path d="M 45.40625 27.984375 
Q 45.40625 37.75 41.375 43.109375 
Q 37.359375 48.484375 30.078125 48.484375 
Q 22.859375 48.484375 18.828125 43.109375 
Q 14.796875 37.75 14.796875 27.984375 
Q 14.796875 18.265625 18.828125 12.890625 
Q 22.859375 7.515625 30.078125 7.515625 
Q 37.359375 7.515625 41.375 12.890625 
Q 45.40625 18.265625 45.40625 27.984375 
z
M 54.390625 6.78125 
Q 54.390625 -7.171875 48.1875 -13.984375 
Q 42 -20.796875 29.203125 -20.796875 
Q 24.46875 -20.796875 20.265625 -20.09375 
Q 16.0625 -19.390625 12.109375 -17.921875 
L 12.109375 -9.1875 
Q 16.0625 -11.328125 19.921875 -12.34375 
Q 23.78125 -13.375 27.78125 -13.375 
Q 36.625 -13.375 41.015625 -8.765625 
Q 45.40625 -4.15625 45.40625 5.171875 
L 45.40625 9.625 
Q 42.625 4.78125 38.28125 2.390625 
Q 33.9375 0 27.875 0 
Q 17.828125 0 11.671875 7.65625 
Q 5.515625 15.328125 5.515625 27.984375 
Q 5.515625 40.671875 11.671875 48.328125 
Q 17.828125 56 27.875 56 
Q 33.9375 56 38.28125 53.609375 
Q 42.625 51.21875 45.40625 46.390625 
L 45.40625 54.6875 
L 54.390625 54.6875 
z
" id="DejaVuSans-103"/>
      <path d="M 9.421875 75.984375 
L 18.40625 75.984375 
L 18.40625 0 
L 9.421875 0 
z
" id="DejaVuSans-108"/>
      <path id="DejaVuSans-32"/>
      <path d="M 18.3125 70.21875 
L 18.3125 54.6875 
L 36.8125 54.6875 
L 36.8125 47.703125 
L 18.3125 47.703125 
L 18.3125 18.015625 
Q 18.3125 11.328125 20.140625 9.421875 
Q 21.96875 7.515625 27.59375 7.515625 
L 36.8125 7.515625 
L 36.8125 0 
L 27.59375 0 
Q 17.1875 0 13.234375 3.875 
Q 9.28125 7.765625 9.28125 18.015625 
L 9.28125 47.703125 
L 2.6875 47.703125 
L 2.6875 54.6875 
L 9.28125 54.6875 
L 9.28125 70.21875 
z
" id="DejaVuSans-116"/>
      <path d="M 18.109375 8.203125 
L 18.109375 -20.796875 
L 9.078125 -20.796875 
L 9.078125 54.6875 
L 18.109375 54.6875 
L 18.109375 46.390625 
Q 20.953125 51.265625 25.265625 53.625 
Q 29.59375 56 35.59375 56 
Q 45.5625 56 51.78125 48.09375 
Q 58.015625 40.1875 58.015625 27.296875 
Q 58.015625 14.40625 51.78125 6.484375 
Q 45.5625 -1.421875 35.59375 -1.421875 
Q 29.59375 -1.421875 25.265625 0.953125 
Q 20.953125 3.328125 18.109375 8.203125 
z
M 48.6875 27.296875 
Q 48.6875 37.203125 44.609375 42.84375 
Q 40.53125 48.484375 33.40625 48.484375 
Q 26.265625 48.484375 22.1875 42.84375 
Q 18.109375 37.203125 18.109375 27.296875 
Q 18.109375 17.390625 22.1875 11.75 
Q 26.265625 6.109375 33.40625 6.109375 
Q 40.53125 6.109375 44.609375 11.75 
Q 48.6875 17.390625 48.6875 27.296875 
z
" id="DejaVuSans-112"/>
      <path d="M 32.171875 -5.078125 
Q 28.375 -14.84375 24.75 -17.8125 
Q 21.140625 -20.796875 15.09375 -20.796875 
L 7.90625 -20.796875 
L 7.90625 -13.28125 
L 13.1875 -13.28125 
Q 16.890625 -13.28125 18.9375 -11.515625 
Q 21 -9.765625 23.484375 -3.21875 
L 25.09375 0.875 
L 2.984375 54.6875 
L 12.5 54.6875 
L 29.59375 11.921875 
L 46.6875 54.6875 
L 56.203125 54.6875 
z
" id="DejaVuSans-121"/>
     </defs>
     <g style="fill:#262626;" transform="translate(16.318125 110.9175)rotate(-90)scale(0.12 -0.12)">
      <use xlink:href="#DejaVuSans-109"/>
      <use x="97.412109" xlink:href="#DejaVuSans-97"/>
      <use x="158.691406" xlink:href="#DejaVuSans-114"/>
      <use x="199.789062" xlink:href="#DejaVuSans-103"/>
      <use x="263.265625" xlink:href="#DejaVuSans-105"/>
      <use x="291.048828" xlink:href="#DejaVuSans-110"/>
      <use x="354.427734" xlink:href="#DejaVuSans-97"/>
      <use x="415.707031" xlink:href="#DejaVuSans-108"/>
      <use x="443.490234" xlink:href="#DejaVuSans-32"/>
      <use x="475.277344" xlink:href="#DejaVuSans-101"/>
      <use x="536.800781" xlink:href="#DejaVuSans-110"/>
      <use x="600.179688" xlink:href="#DejaVuSans-116"/>
      <use x="639.388672" xlink:href="#DejaVuSans-114"/>
      <use x="680.470703" xlink:href="#DejaVuSans-111"/>
      <use x="741.652344" xlink:href="#DejaVuSans-112"/>
      <use x="805.128906" xlink:href="#DejaVuSans-121"/>
     </g>
     <!-- estimation error -->
     <g style="fill:#262626;" transform="translate(29.7555 107.57625)rotate(-90)scale(0.12 -0.12)">
      <use xlink:href="#DejaVuSans-101"/>
      <use x="61.523438" xlink:href="#DejaVuSans-115"/>
      <use x="113.623047" xlink:href="#DejaVuSans-116"/>
      <use x="152.832031" xlink:href="#DejaVuSans-105"/>
      <use x="180.615234" xlink:href="#DejaVuSans-109"/>
      <use x="278.027344" xlink:href="#DejaVuSans-97"/>
      <use x="339.306641" xlink:href="#DejaVuSans-116"/>
      <use x="378.515625" xlink:href="#DejaVuSans-105"/>
      <use x="406.298828" xlink:href="#DejaVuSans-111"/>
      <use x="467.480469" xlink:href="#DejaVuSans-110"/>
      <use x="530.859375" xlink:href="#DejaVuSans-32"/>
      <use x="562.646484" xlink:href="#DejaVuSans-101"/>
      <use x="624.169922" xlink:href="#DejaVuSans-114"/>
      <use x="665.267578" xlink:href="#DejaVuSans-114"/>
      <use x="706.349609" xlink:href="#DejaVuSans-111"/>
      <use x="767.53125" xlink:href="#DejaVuSans-114"/>
     </g>
    </g>
   </g>
   <g id="LineCollection_1">
    <path clip-path="url(#pe035c5fe21)" d="M 68.162104 95.924996 
L 68.162104 94.725654 
" style="fill:none;stroke:#edd1cb;stroke-linecap:round;stroke-width:1.5;"/>
    <path clip-path="url(#pe035c5fe21)" d="M 92.200614 92.255 
L 92.200614 89.619483 
" style="fill:none;stroke:#edd1cb;stroke-linecap:round;stroke-width:1.5;"/>
    <path clip-path="url(#pe035c5fe21)" d="M 116.239125 92.316965 
L 116.239125 89.759811 
" style="fill:none;stroke:#edd1cb;stroke-linecap:round;stroke-width:1.5;"/>
    <path clip-path="url(#pe035c5fe21)" d="M 140.277635 91.878303 
L 140.277635 88.584135 
" style="fill:none;stroke:#edd1cb;stroke-linecap:round;stroke-width:1.5;"/>
    <path clip-path="url(#pe035c5fe21)" d="M 164.316146 91.323427 
L 164.316146 87.763903 
" style="fill:none;stroke:#edd1cb;stroke-linecap:round;stroke-width:1.5;"/>
    <path clip-path="url(#pe035c5fe21)" d="M 188.354656 91.161013 
L 188.354656 87.153529 
" style="fill:none;stroke:#edd1cb;stroke-linecap:round;stroke-width:1.5;"/>
    <path clip-path="url(#pe035c5fe21)" d="M 212.393167 91.157816 
L 212.393167 87.739337 
" style="fill:none;stroke:#edd1cb;stroke-linecap:round;stroke-width:1.5;"/>
    <path clip-path="url(#pe035c5fe21)" d="M 236.431678 89.397622 
L 236.431678 85.700376 
" style="fill:none;stroke:#edd1cb;stroke-linecap:round;stroke-width:1.5;"/>
   </g>
   <g id="LineCollection_2">
    <path clip-path="url(#pe035c5fe21)" d="M 68.162104 96.09599 
L 68.162104 94.837703 
" style="fill:none;stroke:#e1b1b4;stroke-linecap:round;stroke-width:1.5;"/>
    <path clip-path="url(#pe035c5fe21)" d="M 92.200614 88.685825 
L 92.200614 86.532358 
" style="fill:none;stroke:#e1b1b4;stroke-linecap:round;stroke-width:1.5;"/>
    <path clip-path="url(#pe035c5fe21)" d="M 116.239125 85.908449 
L 116.239125 83.175658 
" style="fill:none;stroke:#e1b1b4;stroke-linecap:round;stroke-width:1.5;"/>
    <path clip-path="url(#pe035c5fe21)" d="M 140.277635 84.535294 
L 140.277635 81.502216 
" style="fill:none;stroke:#e1b1b4;stroke-linecap:round;stroke-width:1.5;"/>
    <path clip-path="url(#pe035c5fe21)" d="M 164.316146 85.815174 
L 164.316146 81.898438 
" style="fill:none;stroke:#e1b1b4;stroke-linecap:round;stroke-width:1.5;"/>
    <path clip-path="url(#pe035c5fe21)" d="M 188.354656 84.375991 
L 188.354656 80.170248 
" style="fill:none;stroke:#e1b1b4;stroke-linecap:round;stroke-width:1.5;"/>
    <path clip-path="url(#pe035c5fe21)" d="M 212.393167 83.779327 
L 212.393167 79.920811 
" style="fill:none;stroke:#e1b1b4;stroke-linecap:round;stroke-width:1.5;"/>
    <path clip-path="url(#pe035c5fe21)" d="M 236.431678 81.796356 
L 236.431678 77.355628 
" style="fill:none;stroke:#e1b1b4;stroke-linecap:round;stroke-width:1.5;"/>
   </g>
   <g id="LineCollection_3">
    <path clip-path="url(#pe035c5fe21)" d="M 68.162104 96.140568 
L 68.162104 94.625041 
" style="fill:none;stroke:#cf91a3;stroke-linecap:round;stroke-width:1.5;"/>
    <path clip-path="url(#pe035c5fe21)" d="M 92.200614 84.738952 
L 92.200614 82.672577 
" style="fill:none;stroke:#cf91a3;stroke-linecap:round;stroke-width:1.5;"/>
    <path clip-path="url(#pe035c5fe21)" d="M 116.239125 80.8065 
L 116.239125 77.764137 
" style="fill:none;stroke:#cf91a3;stroke-linecap:round;stroke-width:1.5;"/>
    <path clip-path="url(#pe035c5fe21)" d="M 140.277635 79.961944 
L 140.277635 76.156832 
" style="fill:none;stroke:#cf91a3;stroke-linecap:round;stroke-width:1.5;"/>
    <path clip-path="url(#pe035c5fe21)" d="M 164.316146 78.114079 
L 164.316146 73.961383 
" style="fill:none;stroke:#cf91a3;stroke-linecap:round;stroke-width:1.5;"/>
    <path clip-path="url(#pe035c5fe21)" d="M 188.354656 74.707571 
L 188.354656 70.168207 
" style="fill:none;stroke:#cf91a3;stroke-linecap:round;stroke-width:1.5;"/>
    <path clip-path="url(#pe035c5fe21)" d="M 212.393167 77.087736 
L 212.393167 72.120793 
" style="fill:none;stroke:#cf91a3;stroke-linecap:round;stroke-width:1.5;"/>
    <path clip-path="url(#pe035c5fe21)" d="M 236.431678 76.98059 
L 236.431678 72.628551 
" style="fill:none;stroke:#cf91a3;stroke-linecap:round;stroke-width:1.5;"/>
   </g>
   <g id="LineCollection_4">
    <path clip-path="url(#pe035c5fe21)" d="M 68.162104 95.774542 
L 68.162104 94.568919 
" style="fill:none;stroke:#b97596;stroke-linecap:round;stroke-width:1.5;"/>
    <path clip-path="url(#pe035c5fe21)" d="M 92.200614 80.886106 
L 92.200614 78.385551 
" style="fill:none;stroke:#b97596;stroke-linecap:round;stroke-width:1.5;"/>
    <path clip-path="url(#pe035c5fe21)" d="M 116.239125 74.077767 
L 116.239125 71.620877 
" style="fill:none;stroke:#b97596;stroke-linecap:round;stroke-width:1.5;"/>
    <path clip-path="url(#pe035c5fe21)" d="M 140.277635 71.585581 
L 140.277635 68.31895 
" style="fill:none;stroke:#b97596;stroke-linecap:round;stroke-width:1.5;"/>
    <path clip-path="url(#pe035c5fe21)" d="M 164.316146 71.110509 
L 164.316146 66.838285 
" style="fill:none;stroke:#b97596;stroke-linecap:round;stroke-width:1.5;"/>
    <path clip-path="url(#pe035c5fe21)" d="M 188.354656 68.326575 
L 188.354656 63.786117 
" style="fill:none;stroke:#b97596;stroke-linecap:round;stroke-width:1.5;"/>
    <path clip-path="url(#pe035c5fe21)" d="M 212.393167 66.217322 
L 212.393167 61.554679 
" style="fill:none;stroke:#b97596;stroke-linecap:round;stroke-width:1.5;"/>
    <path clip-path="url(#pe035c5fe21)" d="M 236.431678 66.208568 
L 236.431678 61.536757 
" style="fill:none;stroke:#b97596;stroke-linecap:round;stroke-width:1.5;"/>
   </g>
   <g id="LineCollection_5">
    <path clip-path="url(#pe035c5fe21)" d="M 164.316146 61.701463 
L 164.316146 58.022101 
" style="fill:none;stroke:#995a88;stroke-linecap:round;stroke-width:1.5;"/>
   </g>
   <g id="LineCollection_6">
    <path clip-path="url(#pe035c5fe21)" d="M 68.162104 95.844918 
L 68.162104 94.55096 
" style="fill:none;stroke:#995a88;stroke-linecap:round;stroke-width:1.5;"/>
    <path clip-path="url(#pe035c5fe21)" d="M 92.200614 78.14742 
L 92.200614 76.026163 
" style="fill:none;stroke:#995a88;stroke-linecap:round;stroke-width:1.5;"/>
    <path clip-path="url(#pe035c5fe21)" d="M 116.239125 67.691726 
L 116.239125 64.760844 
" style="fill:none;stroke:#995a88;stroke-linecap:round;stroke-width:1.5;"/>
    <path clip-path="url(#pe035c5fe21)" d="M 140.277635 64.687965 
L 140.277635 60.60426 
" style="fill:none;stroke:#995a88;stroke-linecap:round;stroke-width:1.5;"/>
    <path clip-path="url(#pe035c5fe21)" d="M 188.354656 59.372855 
L 188.354656 54.628319 
" style="fill:none;stroke:#995a88;stroke-linecap:round;stroke-width:1.5;"/>
    <path clip-path="url(#pe035c5fe21)" d="M 212.393167 59.620462 
L 212.393167 54.642048 
" style="fill:none;stroke:#995a88;stroke-linecap:round;stroke-width:1.5;"/>
    <path clip-path="url(#pe035c5fe21)" d="M 236.431678 57.619082 
L 236.431678 52.317056 
" style="fill:none;stroke:#995a88;stroke-linecap:round;stroke-width:1.5;"/>
   </g>
   <g id="LineCollection_7">
    <path clip-path="url(#pe035c5fe21)" d="M 68.162104 95.420346 
L 68.162104 94.095486 
" style="fill:none;stroke:#774576;stroke-linecap:round;stroke-width:1.5;"/>
    <path clip-path="url(#pe035c5fe21)" d="M 92.200614 76.107116 
L 92.200614 74.060683 
" style="fill:none;stroke:#774576;stroke-linecap:round;stroke-width:1.5;"/>
    <path clip-path="url(#pe035c5fe21)" d="M 116.239125 63.055311 
L 116.239125 60.119312 
" style="fill:none;stroke:#774576;stroke-linecap:round;stroke-width:1.5;"/>
    <path clip-path="url(#pe035c5fe21)" d="M 140.277635 54.40296 
L 140.277635 50.618274 
" style="fill:none;stroke:#774576;stroke-linecap:round;stroke-width:1.5;"/>
    <path clip-path="url(#pe035c5fe21)" d="M 164.316146 54.316698 
L 164.316146 50.314363 
" style="fill:none;stroke:#774576;stroke-linecap:round;stroke-width:1.5;"/>
    <path clip-path="url(#pe035c5fe21)" d="M 188.354656 50.587489 
L 188.354656 46.700859 
" style="fill:none;stroke:#774576;stroke-linecap:round;stroke-width:1.5;"/>
    <path clip-path="url(#pe035c5fe21)" d="M 212.393167 49.482099 
L 212.393167 44.633492 
" style="fill:none;stroke:#774576;stroke-linecap:round;stroke-width:1.5;"/>
    <path clip-path="url(#pe035c5fe21)" d="M 236.431678 46.058898 
L 236.431678 41.383055 
" style="fill:none;stroke:#774576;stroke-linecap:round;stroke-width:1.5;"/>
   </g>
   <g id="LineCollection_8">
    <path clip-path="url(#pe035c5fe21)" d="M 68.162104 96.062567 
L 68.162104 94.537242 
" style="fill:none;stroke:#50305d;stroke-linecap:round;stroke-width:1.5;"/>
    <path clip-path="url(#pe035c5fe21)" d="M 92.200614 73.643558 
L 92.200614 71.451414 
" style="fill:none;stroke:#50305d;stroke-linecap:round;stroke-width:1.5;"/>
    <path clip-path="url(#pe035c5fe21)" d="M 116.239125 56.313801 
L 116.239125 52.612712 
" style="fill:none;stroke:#50305d;stroke-linecap:round;stroke-width:1.5;"/>
    <path clip-path="url(#pe035c5fe21)" d="M 140.277635 46.841489 
L 140.277635 42.771531 
" style="fill:none;stroke:#50305d;stroke-linecap:round;stroke-width:1.5;"/>
    <path clip-path="url(#pe035c5fe21)" d="M 164.316146 44.785414 
L 164.316146 40.34751 
" style="fill:none;stroke:#50305d;stroke-linecap:round;stroke-width:1.5;"/>
    <path clip-path="url(#pe035c5fe21)" d="M 188.354656 39.007542 
L 188.354656 34.686926 
" style="fill:none;stroke:#50305d;stroke-linecap:round;stroke-width:1.5;"/>
    <path clip-path="url(#pe035c5fe21)" d="M 212.393167 37.367215 
L 212.393167 32.947977 
" style="fill:none;stroke:#50305d;stroke-linecap:round;stroke-width:1.5;"/>
    <path clip-path="url(#pe035c5fe21)" d="M 236.431678 36.763901 
L 236.431678 31.687969 
" style="fill:none;stroke:#50305d;stroke-linecap:round;stroke-width:1.5;"/>
   </g>
   <g id="LineCollection_9">
    <path clip-path="url(#pe035c5fe21)" d="M 68.162104 95.833297 
L 68.162104 94.670181 
" style="fill:none;stroke:#2d1e3e;stroke-linecap:round;stroke-width:1.5;"/>
    <path clip-path="url(#pe035c5fe21)" d="M 92.200614 73.027445 
L 92.200614 70.291939 
" style="fill:none;stroke:#2d1e3e;stroke-linecap:round;stroke-width:1.5;"/>
    <path clip-path="url(#pe035c5fe21)" d="M 116.239125 51.427251 
L 116.239125 48.464587 
" style="fill:none;stroke:#2d1e3e;stroke-linecap:round;stroke-width:1.5;"/>
    <path clip-path="url(#pe035c5fe21)" d="M 140.277635 41.06448 
L 140.277635 37.312008 
" style="fill:none;stroke:#2d1e3e;stroke-linecap:round;stroke-width:1.5;"/>
    <path clip-path="url(#pe035c5fe21)" d="M 164.316146 36.991668 
L 164.316146 32.499333 
" style="fill:none;stroke:#2d1e3e;stroke-linecap:round;stroke-width:1.5;"/>
    <path clip-path="url(#pe035c5fe21)" d="M 188.354656 32.156243 
L 188.354656 27.903481 
" style="fill:none;stroke:#2d1e3e;stroke-linecap:round;stroke-width:1.5;"/>
    <path clip-path="url(#pe035c5fe21)" d="M 212.393167 29.040079 
L 212.393167 23.906402 
" style="fill:none;stroke:#2d1e3e;stroke-linecap:round;stroke-width:1.5;"/>
    <path clip-path="url(#pe035c5fe21)" d="M 236.431678 26.774916 
L 236.431678 21.976932 
" style="fill:none;stroke:#2d1e3e;stroke-linecap:round;stroke-width:1.5;"/>
   </g>
   <g id="line2d_7">
    <path clip-path="url(#pe035c5fe21)" d="M 68.162104 95.325595 
L 92.200614 90.9578 
L 116.239125 91.008897 
L 140.277635 90.223002 
L 164.316146 89.57157 
L 188.354656 89.244173 
L 212.393167 89.441704 
L 236.431678 87.534015 
" style="fill:none;stroke:#edd1cb;stroke-linecap:round;stroke-width:1.5;"/>
   </g>
   <g id="line2d_8">
    <path clip-path="url(#pe035c5fe21)" d="M 68.162104 95.444966 
L 92.200614 87.585223 
L 116.239125 84.55066 
L 140.277635 83.062408 
L 164.316146 83.812864 
L 188.354656 82.268025 
L 212.393167 81.778123 
L 236.431678 79.550885 
" style="fill:none;stroke:#e1b1b4;stroke-linecap:round;stroke-width:1.5;"/>
   </g>
   <g id="line2d_9">
    <path clip-path="url(#pe035c5fe21)" d="M 68.162104 95.398649 
L 92.200614 83.771454 
L 116.239125 79.176146 
L 140.277635 78.126331 
L 164.316146 76.00702 
L 188.354656 72.462996 
L 212.393167 74.564746 
L 236.431678 74.707213 
" style="fill:none;stroke:#cf91a3;stroke-linecap:round;stroke-width:1.5;"/>
   </g>
   <g id="line2d_10">
    <path clip-path="url(#pe035c5fe21)" d="M 68.162104 95.152029 
L 92.200614 79.561044 
L 116.239125 72.864069 
L 140.277635 69.901875 
L 164.316146 68.99913 
L 188.354656 66.190272 
L 212.393167 63.905803 
L 236.431678 63.889904 
" style="fill:none;stroke:#b97596;stroke-linecap:round;stroke-width:1.5;"/>
   </g>
   <g id="line2d_11">
    <path clip-path="url(#pe035c5fe21)" d="M 164.316146 59.813642 
" style="fill:none;stroke:#995a88;stroke-linecap:round;stroke-width:1.5;"/>
   </g>
   <g id="line2d_12">
    <path clip-path="url(#pe035c5fe21)" d="M 68.162104 95.185987 
L 92.200614 77.029919 
L 116.239125 66.176873 
L 140.277635 62.689531 
L 188.354656 56.945328 
L 212.393167 57.098065 
L 236.431678 55.025416 
" style="fill:none;stroke:#995a88;stroke-linecap:round;stroke-width:1.5;"/>
   </g>
   <g id="line2d_13">
    <path clip-path="url(#pe035c5fe21)" d="M 68.162104 94.794113 
L 92.200614 75.091079 
L 116.239125 61.499077 
L 140.277635 52.46057 
L 164.316146 52.253053 
L 188.354656 48.689328 
L 212.393167 47.040437 
L 236.431678 43.754751 
" style="fill:none;stroke:#774576;stroke-linecap:round;stroke-width:1.5;"/>
   </g>
   <g id="line2d_14">
    <path clip-path="url(#pe035c5fe21)" d="M 68.162104 95.357054 
L 92.200614 72.526075 
L 116.239125 54.463329 
L 140.277635 44.734978 
L 164.316146 42.591801 
L 188.354656 36.984012 
L 212.393167 35.079214 
L 236.431678 34.065275 
" style="fill:none;stroke:#50305d;stroke-linecap:round;stroke-width:1.5;"/>
   </g>
   <g id="line2d_15">
    <path clip-path="url(#pe035c5fe21)" d="M 68.162104 95.269892 
L 92.200614 71.665114 
L 116.239125 49.903392 
L 140.277635 39.164089 
L 164.316146 34.614914 
L 188.354656 30.040168 
L 212.393167 26.441991 
L 236.431678 24.11252 
" style="fill:none;stroke:#2d1e3e;stroke-linecap:round;stroke-width:1.5;"/>
   </g>
   <g id="line2d_16"/>
   <g id="line2d_17"/>
   <g id="line2d_18"/>
   <g id="line2d_19"/>
   <g id="line2d_20"/>
   <g id="line2d_21"/>
   <g id="line2d_22"/>
   <g id="line2d_23"/>
   <g id="line2d_24"/>
   <g id="line2d_25"/>
   <g id="line2d_26"/>
   <g id="line2d_27"/>
   <g id="line2d_28"/>
   <g id="line2d_29"/>
   <g id="patch_3">
    <path d="M 59.748625 99.84875 
L 59.748625 18.26875 
" style="fill:none;stroke:#cccccc;stroke-linecap:square;stroke-linejoin:miter;stroke-width:1.25;"/>
   </g>
   <g id="patch_4">
    <path d="M 59.748625 99.84875 
L 244.845156 99.84875 
" style="fill:none;stroke:#cccccc;stroke-linecap:square;stroke-linejoin:miter;stroke-width:1.25;"/>
   </g>
  </g>
  <g id="legend_1">
   <g id="line2d_30">
    <path d="M 249.161125 38.297656 
L 271.161125 38.297656 
" style="fill:none;"/>
   </g>
   <g id="line2d_31"/>
   <g id="text_9">
    <!-- sparsity -->
    <g style="fill:#262626;" transform="translate(279.961125 42.147656)scale(0.11 -0.11)">
     <use xlink:href="#DejaVuSans-115"/>
     <use x="52.099609" xlink:href="#DejaVuSans-112"/>
     <use x="115.576172" xlink:href="#DejaVuSans-97"/>
     <use x="176.855469" xlink:href="#DejaVuSans-114"/>
     <use x="217.96875" xlink:href="#DejaVuSans-115"/>
     <use x="270.068359" xlink:href="#DejaVuSans-105"/>
     <use x="297.851562" xlink:href="#DejaVuSans-116"/>
     <use x="337.060547" xlink:href="#DejaVuSans-121"/>
    </g>
   </g>
   <g id="line2d_32">
    <path d="M 249.161125 54.443594 
L 271.161125 54.443594 
" style="fill:none;stroke:#edd1cb;stroke-linecap:round;stroke-width:1.5;"/>
   </g>
   <g id="line2d_33"/>
   <g id="text_10">
    <!-- 2500 -->
    <g style="fill:#262626;" transform="translate(279.961125 58.293594)scale(0.11 -0.11)">
     <use xlink:href="#DejaVuSans-50"/>
     <use x="63.623047" xlink:href="#DejaVuSans-53"/>
     <use x="127.246094" xlink:href="#DejaVuSans-48"/>
     <use x="190.869141" xlink:href="#DejaVuSans-48"/>
    </g>
   </g>
   <g id="line2d_34">
    <path d="M 249.161125 70.589531 
L 271.161125 70.589531 
" style="fill:none;stroke:#cf91a3;stroke-linecap:round;stroke-width:1.5;"/>
   </g>
   <g id="line2d_35"/>
   <g id="text_11">
    <!-- 5000 -->
    <g style="fill:#262626;" transform="translate(279.961125 74.439531)scale(0.11 -0.11)">
     <use xlink:href="#DejaVuSans-53"/>
     <use x="63.623047" xlink:href="#DejaVuSans-48"/>
     <use x="127.246094" xlink:href="#DejaVuSans-48"/>
     <use x="190.869141" xlink:href="#DejaVuSans-48"/>
    </g>
   </g>
   <g id="line2d_36">
    <path d="M 249.161125 86.735469 
L 271.161125 86.735469 
" style="fill:none;stroke:#894f80;stroke-linecap:round;stroke-width:1.5;"/>
   </g>
   <g id="line2d_37"/>
   <g id="text_12">
    <!-- 7500 -->
    <defs>
     <path d="M 8.203125 72.90625 
L 55.078125 72.90625 
L 55.078125 68.703125 
L 28.609375 0 
L 18.3125 0 
L 43.21875 64.59375 
L 8.203125 64.59375 
z
" id="DejaVuSans-55"/>
    </defs>
    <g style="fill:#262626;" transform="translate(279.961125 90.585469)scale(0.11 -0.11)">
     <use xlink:href="#DejaVuSans-55"/>
     <use x="63.623047" xlink:href="#DejaVuSans-53"/>
     <use x="127.246094" xlink:href="#DejaVuSans-48"/>
     <use x="190.869141" xlink:href="#DejaVuSans-48"/>
    </g>
   </g>
   <g id="line2d_38">
    <path d="M 249.161125 102.881406 
L 271.161125 102.881406 
" style="fill:none;stroke:#2d1e3e;stroke-linecap:round;stroke-width:1.5;"/>
   </g>
   <g id="line2d_39"/>
   <g id="text_13">
    <!-- 10000 -->
    <g style="fill:#262626;" transform="translate(279.961125 106.731406)scale(0.11 -0.11)">
     <use xlink:href="#DejaVuSans-49"/>
     <use x="63.623047" xlink:href="#DejaVuSans-48"/>
     <use x="127.246094" xlink:href="#DejaVuSans-48"/>
     <use x="190.869141" xlink:href="#DejaVuSans-48"/>
     <use x="254.492188" xlink:href="#DejaVuSans-48"/>
    </g>
   </g>
  </g>
 </g>
 <defs>
  <clipPath id="pe035c5fe21">
   <rect height="81.58" width="185.096531" x="59.748625" y="18.26875"/>
  </clipPath>
 </defs>
</svg>
