<?xml version="1.0" encoding="utf-8" standalone="no"?>
<!DOCTYPE svg PUBLIC "-//W3C//DTD SVG 1.1//EN"
  "http://www.w3.org/Graphics/SVG/1.1/DTD/svg11.dtd">
<!-- Created with matplotlib (https://matplotlib.org/) -->
<svg height="130.393701pt" version="1.1" viewBox="0 0 359.710512 130.393701" width="359.710512pt" xmlns="http://www.w3.org/2000/svg" xmlns:xlink="http://www.w3.org/1999/xlink">
 <defs>
  <style type="text/css">
*{stroke-linecap:butt;stroke-linejoin:round;}
  </style>
 </defs>
 <g id="figure_1">
  <g id="patch_1">
   <path d="M 0 130.393701 
L 359.710512 130.393701 
L 359.710512 0 
L 0 0 
z
" style="fill:#ffffff;"/>
  </g>
  <g id="axes_1">
   <g id="patch_2">
    <path d="M 71.566563 88.725701 
L 296.308407 88.725701 
L 296.308407 10.368 
L 71.566563 10.368 
z
" style="fill:#ffffff;"/>
   </g>
   <g id="matplotlib.axis_1">
    <g id="xtick_1">
     <g id="line2d_1">
      <path clip-path="url(#p3a8999b811)" d="M 71.566563 88.725701 
L 71.566563 10.368 
" style="fill:none;stroke:#cccccc;stroke-linecap:round;stroke-width:0.8;"/>
     </g>
     <g id="text_1">
      <!-- 0.0000 -->
      <defs>
       <path d="M 31.78125 66.40625 
Q 24.171875 66.40625 20.328125 58.90625 
Q 16.5 51.421875 16.5 36.375 
Q 16.5 21.390625 20.328125 13.890625 
Q 24.171875 6.390625 31.78125 6.390625 
Q 39.453125 6.390625 43.28125 13.890625 
Q 47.125 21.390625 47.125 36.375 
Q 47.125 51.421875 43.28125 58.90625 
Q 39.453125 66.40625 31.78125 66.40625 
z
M 31.78125 74.21875 
Q 44.046875 74.21875 50.515625 64.515625 
Q 56.984375 54.828125 56.984375 36.375 
Q 56.984375 17.96875 50.515625 8.265625 
Q 44.046875 -1.421875 31.78125 -1.421875 
Q 19.53125 -1.421875 13.0625 8.265625 
Q 6.59375 17.96875 6.59375 36.375 
Q 6.59375 54.828125 13.0625 64.515625 
Q 19.53125 74.21875 31.78125 74.21875 
z
" id="DejaVuSans-48"/>
       <path d="M 10.6875 12.40625 
L 21 12.40625 
L 21 0 
L 10.6875 0 
z
" id="DejaVuSans-46"/>
      </defs>
      <g style="fill:#262626;" transform="translate(56.170688 103.712326)scale(0.088 -0.088)">
       <use xlink:href="#DejaVuSans-48"/>
       <use x="63.623047" xlink:href="#DejaVuSans-46"/>
       <use x="95.410156" xlink:href="#DejaVuSans-48"/>
       <use x="159.033203" xlink:href="#DejaVuSans-48"/>
       <use x="222.65625" xlink:href="#DejaVuSans-48"/>
       <use x="286.279297" xlink:href="#DejaVuSans-48"/>
      </g>
     </g>
    </g>
    <g id="xtick_2">
     <g id="line2d_2">
      <path clip-path="url(#p3a8999b811)" d="M 125.504606 88.725701 
L 125.504606 10.368 
" style="fill:none;stroke:#cccccc;stroke-linecap:round;stroke-width:0.8;"/>
     </g>
     <g id="text_2">
      <!-- 0.0005 -->
      <defs>
       <path d="M 10.796875 72.90625 
L 49.515625 72.90625 
L 49.515625 64.59375 
L 19.828125 64.59375 
L 19.828125 46.734375 
Q 21.96875 47.46875 24.109375 47.828125 
Q 26.265625 48.1875 28.421875 48.1875 
Q 40.625 48.1875 47.75 41.5 
Q 54.890625 34.8125 54.890625 23.390625 
Q 54.890625 11.625 47.5625 5.09375 
Q 40.234375 -1.421875 26.90625 -1.421875 
Q 22.3125 -1.421875 17.546875 -0.640625 
Q 12.796875 0.140625 7.71875 1.703125 
L 7.71875 11.625 
Q 12.109375 9.234375 16.796875 8.0625 
Q 21.484375 6.890625 26.703125 6.890625 
Q 35.15625 6.890625 40.078125 11.328125 
Q 45.015625 15.765625 45.015625 23.390625 
Q 45.015625 31 40.078125 35.4375 
Q 35.15625 39.890625 26.703125 39.890625 
Q 22.75 39.890625 18.8125 39.015625 
Q 14.890625 38.140625 10.796875 36.28125 
z
" id="DejaVuSans-53"/>
      </defs>
      <g style="fill:#262626;" transform="translate(110.108731 103.712326)scale(0.088 -0.088)">
       <use xlink:href="#DejaVuSans-48"/>
       <use x="63.623047" xlink:href="#DejaVuSans-46"/>
       <use x="95.410156" xlink:href="#DejaVuSans-48"/>
       <use x="159.033203" xlink:href="#DejaVuSans-48"/>
       <use x="222.65625" xlink:href="#DejaVuSans-48"/>
       <use x="286.279297" xlink:href="#DejaVuSans-53"/>
      </g>
     </g>
    </g>
    <g id="xtick_3">
     <g id="line2d_3">
      <path clip-path="url(#p3a8999b811)" d="M 179.442648 88.725701 
L 179.442648 10.368 
" style="fill:none;stroke:#cccccc;stroke-linecap:round;stroke-width:0.8;"/>
     </g>
     <g id="text_3">
      <!-- 0.0010 -->
      <defs>
       <path d="M 12.40625 8.296875 
L 28.515625 8.296875 
L 28.515625 63.921875 
L 10.984375 60.40625 
L 10.984375 69.390625 
L 28.421875 72.90625 
L 38.28125 72.90625 
L 38.28125 8.296875 
L 54.390625 8.296875 
L 54.390625 0 
L 12.40625 0 
z
" id="DejaVuSans-49"/>
      </defs>
      <g style="fill:#262626;" transform="translate(164.046773 103.712326)scale(0.088 -0.088)">
       <use xlink:href="#DejaVuSans-48"/>
       <use x="63.623047" xlink:href="#DejaVuSans-46"/>
       <use x="95.410156" xlink:href="#DejaVuSans-48"/>
       <use x="159.033203" xlink:href="#DejaVuSans-48"/>
       <use x="222.65625" xlink:href="#DejaVuSans-49"/>
       <use x="286.279297" xlink:href="#DejaVuSans-48"/>
      </g>
     </g>
    </g>
    <g id="xtick_4">
     <g id="line2d_4">
      <path clip-path="url(#p3a8999b811)" d="M 233.380691 88.725701 
L 233.380691 10.368 
" style="fill:none;stroke:#cccccc;stroke-linecap:round;stroke-width:0.8;"/>
     </g>
     <g id="text_4">
      <!-- 0.0015 -->
      <g style="fill:#262626;" transform="translate(217.984816 103.712326)scale(0.088 -0.088)">
       <use xlink:href="#DejaVuSans-48"/>
       <use x="63.623047" xlink:href="#DejaVuSans-46"/>
       <use x="95.410156" xlink:href="#DejaVuSans-48"/>
       <use x="159.033203" xlink:href="#DejaVuSans-48"/>
       <use x="222.65625" xlink:href="#DejaVuSans-49"/>
       <use x="286.279297" xlink:href="#DejaVuSans-53"/>
      </g>
     </g>
    </g>
    <g id="xtick_5">
     <g id="line2d_5">
      <path clip-path="url(#p3a8999b811)" d="M 287.318733 88.725701 
L 287.318733 10.368 
" style="fill:none;stroke:#cccccc;stroke-linecap:round;stroke-width:0.8;"/>
     </g>
     <g id="text_5">
      <!-- 0.0020 -->
      <defs>
       <path d="M 19.1875 8.296875 
L 53.609375 8.296875 
L 53.609375 0 
L 7.328125 0 
L 7.328125 8.296875 
Q 12.9375 14.109375 22.625 23.890625 
Q 32.328125 33.6875 34.8125 36.53125 
Q 39.546875 41.84375 41.421875 45.53125 
Q 43.3125 49.21875 43.3125 52.78125 
Q 43.3125 58.59375 39.234375 62.25 
Q 35.15625 65.921875 28.609375 65.921875 
Q 23.96875 65.921875 18.8125 64.3125 
Q 13.671875 62.703125 7.8125 59.421875 
L 7.8125 69.390625 
Q 13.765625 71.78125 18.9375 73 
Q 24.125 74.21875 28.421875 74.21875 
Q 39.75 74.21875 46.484375 68.546875 
Q 53.21875 62.890625 53.21875 53.421875 
Q 53.21875 48.921875 51.53125 44.890625 
Q 49.859375 40.875 45.40625 35.40625 
Q 44.1875 33.984375 37.640625 27.21875 
Q 31.109375 20.453125 19.1875 8.296875 
z
" id="DejaVuSans-50"/>
      </defs>
      <g style="fill:#262626;" transform="translate(271.922858 103.712326)scale(0.088 -0.088)">
       <use xlink:href="#DejaVuSans-48"/>
       <use x="63.623047" xlink:href="#DejaVuSans-46"/>
       <use x="95.410156" xlink:href="#DejaVuSans-48"/>
       <use x="159.033203" xlink:href="#DejaVuSans-48"/>
       <use x="222.65625" xlink:href="#DejaVuSans-50"/>
       <use x="286.279297" xlink:href="#DejaVuSans-48"/>
      </g>
     </g>
    </g>
    <g id="text_6">
     <!-- $1/N_s$ -->
     <defs>
      <path d="M 25.390625 72.90625 
L 33.6875 72.90625 
L 8.296875 -9.28125 
L 0 -9.28125 
z
" id="DejaVuSans-47"/>
      <path d="M 16.890625 72.90625 
L 30.171875 72.90625 
L 50.296875 10.40625 
L 62.5 72.90625 
L 72.125 72.90625 
L 57.90625 0 
L 44.578125 0 
L 24.515625 62.890625 
L 12.3125 0 
L 2.6875 0 
z
" id="DejaVuSans-Oblique-78"/>
      <path d="M 50 53.078125 
L 48.296875 44.578125 
Q 44.734375 46.53125 40.765625 47.5 
Q 36.8125 48.484375 32.625 48.484375 
Q 25.53125 48.484375 21.453125 46.0625 
Q 17.390625 43.65625 17.390625 39.5 
Q 17.390625 34.671875 26.859375 32.078125 
Q 27.59375 31.890625 27.9375 31.78125 
L 30.8125 30.90625 
Q 39.796875 28.421875 42.796875 25.6875 
Q 45.796875 22.953125 45.796875 18.21875 
Q 45.796875 9.515625 38.890625 4.046875 
Q 31.984375 -1.421875 20.796875 -1.421875 
Q 16.453125 -1.421875 11.671875 -0.578125 
Q 6.890625 0.25 1.125 2 
L 2.875 11.28125 
Q 7.8125 8.734375 12.59375 7.421875 
Q 17.390625 6.109375 21.78125 6.109375 
Q 28.375 6.109375 32.5 8.9375 
Q 36.625 11.765625 36.625 16.109375 
Q 36.625 20.796875 25.78125 23.6875 
L 24.859375 23.921875 
L 21.78125 24.703125 
Q 14.9375 26.515625 11.765625 29.46875 
Q 8.59375 32.421875 8.59375 37.015625 
Q 8.59375 45.75 15.15625 50.875 
Q 21.734375 56 33.015625 56 
Q 37.453125 56 41.671875 55.265625 
Q 45.90625 54.546875 50 53.078125 
z
" id="DejaVuSans-Oblique-115"/>
     </defs>
     <g style="fill:#262626;" transform="translate(173.761485 116.836951)scale(0.096 -0.096)">
      <use transform="translate(0 0.09375)" xlink:href="#DejaVuSans-49"/>
      <use transform="translate(63.623047 0.09375)" xlink:href="#DejaVuSans-47"/>
      <use transform="translate(97.314453 0.09375)" xlink:href="#DejaVuSans-Oblique-78"/>
      <use transform="translate(172.119141 -16.3125)scale(0.7)" xlink:href="#DejaVuSans-Oblique-115"/>
     </g>
    </g>
   </g>
   <g id="matplotlib.axis_2">
    <g id="ytick_1">
     <g id="line2d_6">
      <path clip-path="url(#p3a8999b811)" d="M 71.566563 88.725701 
L 296.308407 88.725701 
" style="fill:none;stroke:#cccccc;stroke-linecap:round;stroke-width:0.8;"/>
     </g>
     <g id="text_7">
      <!-- 0.00% -->
      <defs>
       <path d="M 72.703125 32.078125 
Q 68.453125 32.078125 66.03125 28.46875 
Q 63.625 24.859375 63.625 18.40625 
Q 63.625 12.0625 66.03125 8.421875 
Q 68.453125 4.78125 72.703125 4.78125 
Q 76.859375 4.78125 79.265625 8.421875 
Q 81.6875 12.0625 81.6875 18.40625 
Q 81.6875 24.8125 79.265625 28.4375 
Q 76.859375 32.078125 72.703125 32.078125 
z
M 72.703125 38.28125 
Q 80.421875 38.28125 84.953125 32.90625 
Q 89.5 27.546875 89.5 18.40625 
Q 89.5 9.28125 84.9375 3.921875 
Q 80.375 -1.421875 72.703125 -1.421875 
Q 64.890625 -1.421875 60.34375 3.921875 
Q 55.8125 9.28125 55.8125 18.40625 
Q 55.8125 27.59375 60.375 32.9375 
Q 64.9375 38.28125 72.703125 38.28125 
z
M 22.3125 68.015625 
Q 18.109375 68.015625 15.6875 64.375 
Q 13.28125 60.75 13.28125 54.390625 
Q 13.28125 47.953125 15.671875 44.328125 
Q 18.0625 40.71875 22.3125 40.71875 
Q 26.5625 40.71875 28.96875 44.328125 
Q 31.390625 47.953125 31.390625 54.390625 
Q 31.390625 60.6875 28.953125 64.34375 
Q 26.515625 68.015625 22.3125 68.015625 
z
M 66.40625 74.21875 
L 74.21875 74.21875 
L 28.609375 -1.421875 
L 20.796875 -1.421875 
z
M 22.3125 74.21875 
Q 30.03125 74.21875 34.609375 68.875 
Q 39.203125 63.53125 39.203125 54.390625 
Q 39.203125 45.171875 34.640625 39.84375 
Q 30.078125 34.515625 22.3125 34.515625 
Q 14.546875 34.515625 10.03125 39.859375 
Q 5.515625 45.21875 5.515625 54.390625 
Q 5.515625 63.484375 10.046875 68.84375 
Q 14.59375 74.21875 22.3125 74.21875 
z
" id="DejaVuSans-37"/>
      </defs>
      <g style="fill:#262626;" transform="translate(35.311438 92.069013)scale(0.088 -0.088)">
       <use xlink:href="#DejaVuSans-48"/>
       <use x="63.623047" xlink:href="#DejaVuSans-46"/>
       <use x="95.410156" xlink:href="#DejaVuSans-48"/>
       <use x="159.033203" xlink:href="#DejaVuSans-48"/>
       <use x="222.65625" xlink:href="#DejaVuSans-37"/>
      </g>
     </g>
    </g>
    <g id="ytick_2">
     <g id="line2d_7">
      <path clip-path="url(#p3a8999b811)" d="M 71.566563 57.38262 
L 296.308407 57.38262 
" style="fill:none;stroke:#cccccc;stroke-linecap:round;stroke-width:0.8;"/>
     </g>
     <g id="text_8">
      <!-- 1.00% -->
      <g style="fill:#262626;" transform="translate(35.311438 60.725933)scale(0.088 -0.088)">
       <use xlink:href="#DejaVuSans-49"/>
       <use x="63.623047" xlink:href="#DejaVuSans-46"/>
       <use x="95.410156" xlink:href="#DejaVuSans-48"/>
       <use x="159.033203" xlink:href="#DejaVuSans-48"/>
       <use x="222.65625" xlink:href="#DejaVuSans-37"/>
      </g>
     </g>
    </g>
    <g id="ytick_3">
     <g id="line2d_8">
      <path clip-path="url(#p3a8999b811)" d="M 71.566563 26.03954 
L 296.308407 26.03954 
" style="fill:none;stroke:#cccccc;stroke-linecap:round;stroke-width:0.8;"/>
     </g>
     <g id="text_9">
      <!-- 2.00% -->
      <g style="fill:#262626;" transform="translate(35.311438 29.382853)scale(0.088 -0.088)">
       <use xlink:href="#DejaVuSans-50"/>
       <use x="63.623047" xlink:href="#DejaVuSans-46"/>
       <use x="95.410156" xlink:href="#DejaVuSans-48"/>
       <use x="159.033203" xlink:href="#DejaVuSans-48"/>
       <use x="222.65625" xlink:href="#DejaVuSans-37"/>
      </g>
     </g>
    </g>
    <g id="text_10">
     <!-- relative error -->
     <defs>
      <path d="M 41.109375 46.296875 
Q 39.59375 47.171875 37.8125 47.578125 
Q 36.03125 48 33.890625 48 
Q 26.265625 48 22.1875 43.046875 
Q 18.109375 38.09375 18.109375 28.8125 
L 18.109375 0 
L 9.078125 0 
L 9.078125 54.6875 
L 18.109375 54.6875 
L 18.109375 46.1875 
Q 20.953125 51.171875 25.484375 53.578125 
Q 30.03125 56 36.53125 56 
Q 37.453125 56 38.578125 55.875 
Q 39.703125 55.765625 41.0625 55.515625 
z
" id="DejaVuSans-114"/>
      <path d="M 56.203125 29.59375 
L 56.203125 25.203125 
L 14.890625 25.203125 
Q 15.484375 15.921875 20.484375 11.0625 
Q 25.484375 6.203125 34.421875 6.203125 
Q 39.59375 6.203125 44.453125 7.46875 
Q 49.3125 8.734375 54.109375 11.28125 
L 54.109375 2.78125 
Q 49.265625 0.734375 44.1875 -0.34375 
Q 39.109375 -1.421875 33.890625 -1.421875 
Q 20.796875 -1.421875 13.15625 6.1875 
Q 5.515625 13.8125 5.515625 26.8125 
Q 5.515625 40.234375 12.765625 48.109375 
Q 20.015625 56 32.328125 56 
Q 43.359375 56 49.78125 48.890625 
Q 56.203125 41.796875 56.203125 29.59375 
z
M 47.21875 32.234375 
Q 47.125 39.59375 43.09375 43.984375 
Q 39.0625 48.390625 32.421875 48.390625 
Q 24.90625 48.390625 20.390625 44.140625 
Q 15.875 39.890625 15.1875 32.171875 
z
" id="DejaVuSans-101"/>
      <path d="M 9.421875 75.984375 
L 18.40625 75.984375 
L 18.40625 0 
L 9.421875 0 
z
" id="DejaVuSans-108"/>
      <path d="M 34.28125 27.484375 
Q 23.390625 27.484375 19.1875 25 
Q 14.984375 22.515625 14.984375 16.5 
Q 14.984375 11.71875 18.140625 8.90625 
Q 21.296875 6.109375 26.703125 6.109375 
Q 34.1875 6.109375 38.703125 11.40625 
Q 43.21875 16.703125 43.21875 25.484375 
L 43.21875 27.484375 
z
M 52.203125 31.203125 
L 52.203125 0 
L 43.21875 0 
L 43.21875 8.296875 
Q 40.140625 3.328125 35.546875 0.953125 
Q 30.953125 -1.421875 24.3125 -1.421875 
Q 15.921875 -1.421875 10.953125 3.296875 
Q 6 8.015625 6 15.921875 
Q 6 25.140625 12.171875 29.828125 
Q 18.359375 34.515625 30.609375 34.515625 
L 43.21875 34.515625 
L 43.21875 35.40625 
Q 43.21875 41.609375 39.140625 45 
Q 35.0625 48.390625 27.6875 48.390625 
Q 23 48.390625 18.546875 47.265625 
Q 14.109375 46.140625 10.015625 43.890625 
L 10.015625 52.203125 
Q 14.9375 54.109375 19.578125 55.046875 
Q 24.21875 56 28.609375 56 
Q 40.484375 56 46.34375 49.84375 
Q 52.203125 43.703125 52.203125 31.203125 
z
" id="DejaVuSans-97"/>
      <path d="M 18.3125 70.21875 
L 18.3125 54.6875 
L 36.8125 54.6875 
L 36.8125 47.703125 
L 18.3125 47.703125 
L 18.3125 18.015625 
Q 18.3125 11.328125 20.140625 9.421875 
Q 21.96875 7.515625 27.59375 7.515625 
L 36.8125 7.515625 
L 36.8125 0 
L 27.59375 0 
Q 17.1875 0 13.234375 3.875 
Q 9.28125 7.765625 9.28125 18.015625 
L 9.28125 47.703125 
L 2.6875 47.703125 
L 2.6875 54.6875 
L 9.28125 54.6875 
L 9.28125 70.21875 
z
" id="DejaVuSans-116"/>
      <path d="M 9.421875 54.6875 
L 18.40625 54.6875 
L 18.40625 0 
L 9.421875 0 
z
M 9.421875 75.984375 
L 18.40625 75.984375 
L 18.40625 64.59375 
L 9.421875 64.59375 
z
" id="DejaVuSans-105"/>
      <path d="M 2.984375 54.6875 
L 12.5 54.6875 
L 29.59375 8.796875 
L 46.6875 54.6875 
L 56.203125 54.6875 
L 35.6875 0 
L 23.484375 0 
z
" id="DejaVuSans-118"/>
      <path id="DejaVuSans-32"/>
      <path d="M 30.609375 48.390625 
Q 23.390625 48.390625 19.1875 42.75 
Q 14.984375 37.109375 14.984375 27.296875 
Q 14.984375 17.484375 19.15625 11.84375 
Q 23.34375 6.203125 30.609375 6.203125 
Q 37.796875 6.203125 41.984375 11.859375 
Q 46.1875 17.53125 46.1875 27.296875 
Q 46.1875 37.015625 41.984375 42.703125 
Q 37.796875 48.390625 30.609375 48.390625 
z
M 30.609375 56 
Q 42.328125 56 49.015625 48.375 
Q 55.71875 40.765625 55.71875 27.296875 
Q 55.71875 13.875 49.015625 6.21875 
Q 42.328125 -1.421875 30.609375 -1.421875 
Q 18.84375 -1.421875 12.171875 6.21875 
Q 5.515625 13.875 5.515625 27.296875 
Q 5.515625 40.765625 12.171875 48.375 
Q 18.84375 56 30.609375 56 
z
" id="DejaVuSans-111"/>
     </defs>
     <g style="fill:#262626;" transform="translate(29.314938 81.09035)rotate(-90)scale(0.096 -0.096)">
      <use xlink:href="#DejaVuSans-114"/>
      <use x="41.082031" xlink:href="#DejaVuSans-101"/>
      <use x="102.605469" xlink:href="#DejaVuSans-108"/>
      <use x="130.388672" xlink:href="#DejaVuSans-97"/>
      <use x="191.667969" xlink:href="#DejaVuSans-116"/>
      <use x="230.876953" xlink:href="#DejaVuSans-105"/>
      <use x="258.660156" xlink:href="#DejaVuSans-118"/>
      <use x="317.839844" xlink:href="#DejaVuSans-101"/>
      <use x="379.363281" xlink:href="#DejaVuSans-32"/>
      <use x="411.150391" xlink:href="#DejaVuSans-101"/>
      <use x="472.673828" xlink:href="#DejaVuSans-114"/>
      <use x="513.771484" xlink:href="#DejaVuSans-114"/>
      <use x="554.853516" xlink:href="#DejaVuSans-111"/>
      <use x="616.035156" xlink:href="#DejaVuSans-114"/>
     </g>
    </g>
   </g>
   <g id="PathCollection_1">
    <defs>
     <path d="M 0 3.535534 
C 0.937635 3.535534 1.836992 3.163008 2.5 2.5 
C 3.163008 1.836992 3.535534 0.937635 3.535534 0 
C 3.535534 -0.937635 3.163008 -1.836992 2.5 -2.5 
C 1.836992 -3.163008 0.937635 -3.535534 0 -3.535534 
C -0.937635 -3.535534 -1.836992 -3.163008 -2.5 -2.5 
C -3.163008 -1.836992 -3.535534 -0.937635 -3.535534 0 
C -3.535534 0.937635 -3.163008 1.836992 -2.5 2.5 
C -1.836992 3.163008 -0.937635 3.535534 0 3.535534 
z
" id="m02d6221ad4" style="stroke:#edd1cb;stroke-width:0.8;"/>
    </defs>
    <g clip-path="url(#p3a8999b811)">
     <use style="fill:#edd1cb;stroke:#edd1cb;stroke-width:0.8;" x="179.442648" xlink:href="#m02d6221ad4" y="88.834209"/>
     <use style="fill:#edd1cb;stroke:#edd1cb;stroke-width:0.8;" x="194.994578" xlink:href="#m02d6221ad4" y="89.546246"/>
     <use style="fill:#edd1cb;stroke:#edd1cb;stroke-width:0.8;" x="210.403223" xlink:href="#m02d6221ad4" y="88.400457"/>
     <use style="fill:#edd1cb;stroke:#edd1cb;stroke-width:0.8;" x="225.675256" xlink:href="#m02d6221ad4" y="87.980913"/>
     <use style="fill:#edd1cb;stroke:#edd1cb;stroke-width:0.8;" x="241.183049" xlink:href="#m02d6221ad4" y="87.488084"/>
     <use style="fill:#edd1cb;stroke:#edd1cb;stroke-width:0.8;" x="256.602729" xlink:href="#m02d6221ad4" y="88.633566"/>
     <use style="fill:#edd1cb;stroke:#edd1cb;stroke-width:0.8;" x="272.079732" xlink:href="#m02d6221ad4" y="88.339663"/>
     <use style="fill:#edd1cb;stroke:#edd1cb;stroke-width:0.8;" x="287.318733" xlink:href="#m02d6221ad4" y="89.33231"/>
    </g>
   </g>
   <g id="PathCollection_2">
    <defs>
     <path d="M 0 3.535534 
C 0.937635 3.535534 1.836992 3.163008 2.5 2.5 
C 3.163008 1.836992 3.535534 0.937635 3.535534 0 
C 3.535534 -0.937635 3.163008 -1.836992 2.5 -2.5 
C 1.836992 -3.163008 0.937635 -3.535534 0 -3.535534 
C -0.937635 -3.535534 -1.836992 -3.163008 -2.5 -2.5 
C -3.163008 -1.836992 -3.535534 -0.937635 -3.535534 0 
C -3.535534 0.937635 -3.163008 1.836992 -2.5 2.5 
C -1.836992 3.163008 -0.937635 3.535534 0 3.535534 
z
" id="m342822cd21" style="stroke:#e1b1b4;stroke-width:0.8;"/>
    </defs>
    <g clip-path="url(#p3a8999b811)">
     <use style="fill:#e1b1b4;stroke:#e1b1b4;stroke-width:0.8;" x="179.442648" xlink:href="#m342822cd21" y="86.296929"/>
     <use style="fill:#e1b1b4;stroke:#e1b1b4;stroke-width:0.8;" x="194.994578" xlink:href="#m342822cd21" y="85.678207"/>
     <use style="fill:#e1b1b4;stroke:#e1b1b4;stroke-width:0.8;" x="210.403223" xlink:href="#m342822cd21" y="86.118966"/>
     <use style="fill:#e1b1b4;stroke:#e1b1b4;stroke-width:0.8;" x="225.675256" xlink:href="#m342822cd21" y="86.140442"/>
     <use style="fill:#e1b1b4;stroke:#e1b1b4;stroke-width:0.8;" x="241.183049" xlink:href="#m342822cd21" y="86.102228"/>
     <use style="fill:#e1b1b4;stroke:#e1b1b4;stroke-width:0.8;" x="256.602729" xlink:href="#m342822cd21" y="85.192913"/>
     <use style="fill:#e1b1b4;stroke:#e1b1b4;stroke-width:0.8;" x="272.079732" xlink:href="#m342822cd21" y="84.404597"/>
     <use style="fill:#e1b1b4;stroke:#e1b1b4;stroke-width:0.8;" x="287.318733" xlink:href="#m342822cd21" y="84.595902"/>
    </g>
   </g>
   <g id="PathCollection_3">
    <defs>
     <path d="M 0 3.535534 
C 0.937635 3.535534 1.836992 3.163008 2.5 2.5 
C 3.163008 1.836992 3.535534 0.937635 3.535534 0 
C 3.535534 -0.937635 3.163008 -1.836992 2.5 -2.5 
C 1.836992 -3.163008 0.937635 -3.535534 0 -3.535534 
C -0.937635 -3.535534 -1.836992 -3.163008 -2.5 -2.5 
C -3.163008 -1.836992 -3.535534 -0.937635 -3.535534 0 
C -3.535534 0.937635 -3.163008 1.836992 -2.5 2.5 
C -1.836992 3.163008 -0.937635 3.535534 0 3.535534 
z
" id="m592b5786f8" style="stroke:#cf91a3;stroke-width:0.8;"/>
    </defs>
    <g clip-path="url(#p3a8999b811)">
     <use style="fill:#cf91a3;stroke:#cf91a3;stroke-width:0.8;" x="179.442648" xlink:href="#m592b5786f8" y="77.788518"/>
     <use style="fill:#cf91a3;stroke:#cf91a3;stroke-width:0.8;" x="194.994578" xlink:href="#m592b5786f8" y="77.044604"/>
     <use style="fill:#cf91a3;stroke:#cf91a3;stroke-width:0.8;" x="210.403223" xlink:href="#m592b5786f8" y="77.002467"/>
     <use style="fill:#cf91a3;stroke:#cf91a3;stroke-width:0.8;" x="225.675256" xlink:href="#m592b5786f8" y="76.555342"/>
     <use style="fill:#cf91a3;stroke:#cf91a3;stroke-width:0.8;" x="241.183049" xlink:href="#m592b5786f8" y="76.144436"/>
     <use style="fill:#cf91a3;stroke:#cf91a3;stroke-width:0.8;" x="256.602729" xlink:href="#m592b5786f8" y="75.601255"/>
     <use style="fill:#cf91a3;stroke:#cf91a3;stroke-width:0.8;" x="272.079732" xlink:href="#m592b5786f8" y="75.362845"/>
     <use style="fill:#cf91a3;stroke:#cf91a3;stroke-width:0.8;" x="287.318733" xlink:href="#m592b5786f8" y="74.844496"/>
    </g>
   </g>
   <g id="PathCollection_4">
    <defs>
     <path d="M 0 3.535534 
C 0.937635 3.535534 1.836992 3.163008 2.5 2.5 
C 3.163008 1.836992 3.535534 0.937635 3.535534 0 
C 3.535534 -0.937635 3.163008 -1.836992 2.5 -2.5 
C 1.836992 -3.163008 0.937635 -3.535534 0 -3.535534 
C -0.937635 -3.535534 -1.836992 -3.163008 -2.5 -2.5 
C -3.163008 -1.836992 -3.535534 -0.937635 -3.535534 0 
C -3.535534 0.937635 -3.163008 1.836992 -2.5 2.5 
C -1.836992 3.163008 -0.937635 3.535534 0 3.535534 
z
" id="mc2a31a2849" style="stroke:#b77495;stroke-width:0.8;"/>
    </defs>
    <g clip-path="url(#p3a8999b811)">
     <use style="fill:#b77495;stroke:#b77495;stroke-width:0.8;" x="179.442648" xlink:href="#mc2a31a2849" y="67.385228"/>
     <use style="fill:#b77495;stroke:#b77495;stroke-width:0.8;" x="194.994578" xlink:href="#mc2a31a2849" y="66.187163"/>
     <use style="fill:#b77495;stroke:#b77495;stroke-width:0.8;" x="210.403223" xlink:href="#mc2a31a2849" y="66.234866"/>
     <use style="fill:#b77495;stroke:#b77495;stroke-width:0.8;" x="225.675256" xlink:href="#mc2a31a2849" y="65.361311"/>
     <use style="fill:#b77495;stroke:#b77495;stroke-width:0.8;" x="241.183049" xlink:href="#mc2a31a2849" y="64.581466"/>
     <use style="fill:#b77495;stroke:#b77495;stroke-width:0.8;" x="256.602729" xlink:href="#mc2a31a2849" y="64.331648"/>
     <use style="fill:#b77495;stroke:#b77495;stroke-width:0.8;" x="272.079732" xlink:href="#mc2a31a2849" y="63.651538"/>
     <use style="fill:#b77495;stroke:#b77495;stroke-width:0.8;" x="287.318733" xlink:href="#mc2a31a2849" y="63.796228"/>
    </g>
   </g>
   <g id="PathCollection_5">
    <defs>
     <path d="M 0 3.535534 
C 0.937635 3.535534 1.836992 3.163008 2.5 2.5 
C 3.163008 1.836992 3.535534 0.937635 3.535534 0 
C 3.535534 -0.937635 3.163008 -1.836992 2.5 -2.5 
C 1.836992 -3.163008 0.937635 -3.535534 0 -3.535534 
C -0.937635 -3.535534 -1.836992 -3.163008 -2.5 -2.5 
C -3.163008 -1.836992 -3.535534 -0.937635 -3.535534 0 
C -3.535534 0.937635 -3.163008 1.836992 -2.5 2.5 
C -1.836992 3.163008 -0.937635 3.535534 0 3.535534 
z
" id="m04a5613ac5" style="stroke:#9a5b88;stroke-width:0.8;"/>
    </defs>
    <g clip-path="url(#p3a8999b811)">
     <use style="fill:#9a5b88;stroke:#9a5b88;stroke-width:0.8;" x="179.442648" xlink:href="#m04a5613ac5" y="55.537129"/>
     <use style="fill:#9a5b88;stroke:#9a5b88;stroke-width:0.8;" x="194.994578" xlink:href="#m04a5613ac5" y="54.424939"/>
     <use style="fill:#9a5b88;stroke:#9a5b88;stroke-width:0.8;" x="210.403223" xlink:href="#m04a5613ac5" y="53.792711"/>
     <use style="fill:#9a5b88;stroke:#9a5b88;stroke-width:0.8;" x="225.675256" xlink:href="#m04a5613ac5" y="53.279843"/>
     <use style="fill:#9a5b88;stroke:#9a5b88;stroke-width:0.8;" x="241.183049" xlink:href="#m04a5613ac5" y="52.641967"/>
     <use style="fill:#9a5b88;stroke:#9a5b88;stroke-width:0.8;" x="256.602729" xlink:href="#m04a5613ac5" y="52.639228"/>
     <use style="fill:#9a5b88;stroke:#9a5b88;stroke-width:0.8;" x="272.079732" xlink:href="#m04a5613ac5" y="51.766534"/>
     <use style="fill:#9a5b88;stroke:#9a5b88;stroke-width:0.8;" x="287.318733" xlink:href="#m04a5613ac5" y="50.758954"/>
    </g>
   </g>
   <g id="PathCollection_6">
    <defs>
     <path d="M 0 3.535534 
C 0.937635 3.535534 1.836992 3.163008 2.5 2.5 
C 3.163008 1.836992 3.535534 0.937635 3.535534 0 
C 3.535534 -0.937635 3.163008 -1.836992 2.5 -2.5 
C 1.836992 -3.163008 0.937635 -3.535534 0 -3.535534 
C -0.937635 -3.535534 -1.836992 -3.163008 -2.5 -2.5 
C -3.163008 -1.836992 -3.535534 -0.937635 -3.535534 0 
C -3.535534 0.937635 -3.163008 1.836992 -2.5 2.5 
C -1.836992 3.163008 -0.937635 3.535534 0 3.535534 
z
" id="md2e12c1444" style="stroke:#774576;stroke-width:0.8;"/>
    </defs>
    <g clip-path="url(#p3a8999b811)">
     <use style="fill:#774576;stroke:#774576;stroke-width:0.8;" x="179.442648" xlink:href="#md2e12c1444" y="45.420753"/>
     <use style="fill:#774576;stroke:#774576;stroke-width:0.8;" x="194.994578" xlink:href="#md2e12c1444" y="44.284705"/>
     <use style="fill:#774576;stroke:#774576;stroke-width:0.8;" x="210.403223" xlink:href="#md2e12c1444" y="43.310231"/>
     <use style="fill:#774576;stroke:#774576;stroke-width:0.8;" x="225.675256" xlink:href="#md2e12c1444" y="42.313455"/>
     <use style="fill:#774576;stroke:#774576;stroke-width:0.8;" x="241.183049" xlink:href="#md2e12c1444" y="41.689948"/>
     <use style="fill:#774576;stroke:#774576;stroke-width:0.8;" x="256.602729" xlink:href="#md2e12c1444" y="40.699861"/>
     <use style="fill:#774576;stroke:#774576;stroke-width:0.8;" x="272.079732" xlink:href="#md2e12c1444" y="40.698527"/>
     <use style="fill:#774576;stroke:#774576;stroke-width:0.8;" x="287.318733" xlink:href="#md2e12c1444" y="39.95911"/>
    </g>
   </g>
   <g id="PathCollection_7">
    <defs>
     <path d="M 0 3.535534 
C 0.937635 3.535534 1.836992 3.163008 2.5 2.5 
C 3.163008 1.836992 3.535534 0.937635 3.535534 0 
C 3.535534 -0.937635 3.163008 -1.836992 2.5 -2.5 
C 1.836992 -3.163008 0.937635 -3.535534 0 -3.535534 
C -0.937635 -3.535534 -1.836992 -3.163008 -2.5 -2.5 
C -3.163008 -1.836992 -3.535534 -0.937635 -3.535534 0 
C -3.535534 0.937635 -3.163008 1.836992 -2.5 2.5 
C -1.836992 3.163008 -0.937635 3.535534 0 3.535534 
z
" id="m0e23073935" style="stroke:#52315f;stroke-width:0.8;"/>
    </defs>
    <g clip-path="url(#p3a8999b811)">
     <use style="fill:#52315f;stroke:#52315f;stroke-width:0.8;" x="179.442648" xlink:href="#m0e23073935" y="35.90028"/>
     <use style="fill:#52315f;stroke:#52315f;stroke-width:0.8;" x="194.994578" xlink:href="#m0e23073935" y="34.107592"/>
     <use style="fill:#52315f;stroke:#52315f;stroke-width:0.8;" x="210.403223" xlink:href="#m0e23073935" y="33.003439"/>
     <use style="fill:#52315f;stroke:#52315f;stroke-width:0.8;" x="225.675256" xlink:href="#m0e23073935" y="32.355928"/>
     <use style="fill:#52315f;stroke:#52315f;stroke-width:0.8;" x="241.183049" xlink:href="#m0e23073935" y="32.201154"/>
     <use style="fill:#52315f;stroke:#52315f;stroke-width:0.8;" x="256.602729" xlink:href="#m0e23073935" y="31.204514"/>
     <use style="fill:#52315f;stroke:#52315f;stroke-width:0.8;" x="272.079732" xlink:href="#m0e23073935" y="30.117094"/>
     <use style="fill:#52315f;stroke:#52315f;stroke-width:0.8;" x="287.318733" xlink:href="#m0e23073935" y="29.727491"/>
    </g>
   </g>
   <g id="PathCollection_8">
    <defs>
     <path d="M 0 3.535534 
C 0.937635 3.535534 1.836992 3.163008 2.5 2.5 
C 3.163008 1.836992 3.535534 0.937635 3.535534 0 
C 3.535534 -0.937635 3.163008 -1.836992 2.5 -2.5 
C 1.836992 -3.163008 0.937635 -3.535534 0 -3.535534 
C -0.937635 -3.535534 -1.836992 -3.163008 -2.5 -2.5 
C -3.163008 -1.836992 -3.535534 -0.937635 -3.535534 0 
C -3.535534 0.937635 -3.163008 1.836992 -2.5 2.5 
C -1.836992 3.163008 -0.937635 3.535534 0 3.535534 
z
" id="m60188ac959" style="stroke:#2d1e3e;stroke-width:0.8;"/>
    </defs>
    <g clip-path="url(#p3a8999b811)">
     <use style="fill:#2d1e3e;stroke:#2d1e3e;stroke-width:0.8;" x="179.442648" xlink:href="#m60188ac959" y="27.657434"/>
     <use style="fill:#2d1e3e;stroke:#2d1e3e;stroke-width:0.8;" x="194.994578" xlink:href="#m60188ac959" y="25.918224"/>
     <use style="fill:#2d1e3e;stroke:#2d1e3e;stroke-width:0.8;" x="210.403223" xlink:href="#m60188ac959" y="25.476109"/>
     <use style="fill:#2d1e3e;stroke:#2d1e3e;stroke-width:0.8;" x="225.675256" xlink:href="#m60188ac959" y="25.033164"/>
     <use style="fill:#2d1e3e;stroke:#2d1e3e;stroke-width:0.8;" x="241.183049" xlink:href="#m60188ac959" y="22.669787"/>
     <use style="fill:#2d1e3e;stroke:#2d1e3e;stroke-width:0.8;" x="256.602729" xlink:href="#m60188ac959" y="22.245951"/>
     <use style="fill:#2d1e3e;stroke:#2d1e3e;stroke-width:0.8;" x="272.079732" xlink:href="#m60188ac959" y="22.468011"/>
     <use style="fill:#2d1e3e;stroke:#2d1e3e;stroke-width:0.8;" x="287.318733" xlink:href="#m60188ac959" y="20.824409"/>
    </g>
   </g>
   <g id="line2d_9">
    <path clip-path="url(#p3a8999b811)" d="M -1 88.993645 
L 3.250732 88.985955 
L 27.474938 88.942126 
L 51.699144 88.898297 
L 75.92335 88.854468 
L 100.147557 88.810639 
L 124.371763 88.76681 
L 148.595969 88.722981 
L 172.820175 88.679152 
L 197.044381 88.635323 
L 221.268587 88.591494 
L 245.492794 88.547665 
L 269.717 88.503836 
L 293.941206 88.460007 
L 318.165412 88.416178 
L 342.389618 88.372349 
L 360.710512 88.339201 
" style="fill:none;stroke:#edd1cb;stroke-linecap:round;stroke-width:1.8;"/>
   </g>
   <g id="line2d_10">
    <path clip-path="url(#p3a8999b811)" d="M -1 89.387707 
L 3.250732 89.318425 
L 27.474938 88.923602 
L 51.699144 88.528779 
L 75.92335 88.133956 
L 100.147557 87.739133 
L 124.371763 87.34431 
L 148.595969 86.949487 
L 172.820175 86.554664 
L 197.044381 86.159841 
L 221.268587 85.765018 
L 245.492794 85.370195 
L 269.717 84.975372 
L 293.941206 84.580549 
L 318.165412 84.185726 
L 342.389618 83.790903 
L 360.710512 83.492296 
" style="fill:none;stroke:#e1b1b4;stroke-linecap:round;stroke-width:1.8;"/>
   </g>
   <g id="line2d_11">
    <path clip-path="url(#p3a8999b811)" d="M -1 82.383897 
L 3.250732 82.273471 
L 27.474938 81.644171 
L 51.699144 81.014871 
L 75.92335 80.385571 
L 100.147557 79.756271 
L 124.371763 79.126971 
L 148.595969 78.497671 
L 172.820175 77.868371 
L 197.044381 77.239071 
L 221.268587 76.609771 
L 245.492794 75.980471 
L 269.717 75.351171 
L 293.941206 74.721871 
L 318.165412 74.09257 
L 342.389618 73.46327 
L 360.710512 72.987327 
" style="fill:none;stroke:#cf91a3;stroke-linecap:round;stroke-width:1.8;"/>
   </g>
   <g id="line2d_12">
    <path clip-path="url(#p3a8999b811)" d="M -1 73.214239 
L 3.250732 73.068783 
L 27.474938 72.239856 
L 51.699144 71.41093 
L 75.92335 70.582003 
L 100.147557 69.753077 
L 124.371763 68.92415 
L 148.595969 68.095223 
L 172.820175 67.266297 
L 197.044381 66.43737 
L 221.268587 65.608444 
L 245.492794 64.779517 
L 269.717 63.95059 
L 293.941206 63.121664 
L 318.165412 62.292737 
L 342.389618 61.46381 
L 360.710512 60.836889 
" style="fill:none;stroke:#b77495;stroke-linecap:round;stroke-width:1.8;"/>
   </g>
   <g id="line2d_13">
    <path clip-path="url(#p3a8999b811)" d="M -1 62.311687 
L 3.250732 62.144776 
L 27.474938 61.193576 
L 51.699144 60.242376 
L 75.92335 59.291176 
L 100.147557 58.339976 
L 124.371763 57.388775 
L 148.595969 56.437575 
L 172.820175 55.486375 
L 197.044381 54.535175 
L 221.268587 53.583975 
L 245.492794 52.632775 
L 269.717 51.681575 
L 293.941206 50.730375 
L 318.165412 49.779175 
L 342.389618 48.827975 
L 360.710512 48.108577 
" style="fill:none;stroke:#9a5b88;stroke-linecap:round;stroke-width:1.8;"/>
   </g>
   <g id="line2d_14">
    <path clip-path="url(#p3a8999b811)" d="M -1 53.999651 
L 3.250732 53.787487 
L 27.474938 52.5784 
L 51.699144 51.369312 
L 75.92335 50.160225 
L 100.147557 48.951137 
L 124.371763 47.74205 
L 148.595969 46.532963 
L 172.820175 45.323875 
L 197.044381 44.114788 
L 221.268587 42.9057 
L 245.492794 41.696613 
L 269.717 40.487525 
L 293.941206 39.278438 
L 318.165412 38.069351 
L 342.389618 36.860263 
L 360.710512 35.945824 
" style="fill:none;stroke:#774576;stroke-linecap:round;stroke-width:1.8;"/>
   </g>
   <g id="line2d_15">
    <path clip-path="url(#p3a8999b811)" d="M -1 44.773537 
L 3.250732 44.547889 
L 27.474938 43.261956 
L 51.699144 41.976024 
L 75.92335 40.690091 
L 100.147557 39.404158 
L 124.371763 38.118226 
L 148.595969 36.832293 
L 172.820175 35.546361 
L 197.044381 34.260428 
L 221.268587 32.974495 
L 245.492794 31.688563 
L 269.717 30.40263 
L 293.941206 29.116697 
L 318.165412 27.830765 
L 342.389618 26.544832 
L 360.710512 25.572275 
" style="fill:none;stroke:#52315f;stroke-linecap:round;stroke-width:1.8;"/>
   </g>
   <g id="line2d_16">
    <path clip-path="url(#p3a8999b811)" d="M -1 38.007183 
L 3.250732 37.753901 
L 27.474938 36.310492 
L 51.699144 34.867082 
L 75.92335 33.423673 
L 100.147557 31.980263 
L 124.371763 30.536853 
L 148.595969 29.093444 
L 172.820175 27.650034 
L 197.044381 26.206625 
L 221.268587 24.763215 
L 245.492794 23.319806 
L 269.717 21.876396 
L 293.941206 20.432986 
L 318.165412 18.989577 
L 342.389618 17.546167 
L 360.710512 16.454509 
" style="fill:none;stroke:#2d1e3e;stroke-linecap:round;stroke-width:1.8;"/>
   </g>
   <g id="patch_3">
    <path d="M 71.566563 88.725701 
L 71.566563 10.368 
" style="fill:none;stroke:#cccccc;stroke-linecap:square;stroke-linejoin:miter;"/>
   </g>
   <g id="patch_4">
    <path d="M 71.566563 88.725701 
L 296.308407 88.725701 
" style="fill:none;stroke:#cccccc;stroke-linecap:square;stroke-linejoin:miter;"/>
   </g>
  </g>
  <g id="legend_1">
   <g id="text_11">
    <!-- sparsity -->
    <defs>
     <path d="M 44.28125 53.078125 
L 44.28125 44.578125 
Q 40.484375 46.53125 36.375 47.5 
Q 32.28125 48.484375 27.875 48.484375 
Q 21.1875 48.484375 17.84375 46.4375 
Q 14.5 44.390625 14.5 40.28125 
Q 14.5 37.15625 16.890625 35.375 
Q 19.28125 33.59375 26.515625 31.984375 
L 29.59375 31.296875 
Q 39.15625 29.25 43.1875 25.515625 
Q 47.21875 21.78125 47.21875 15.09375 
Q 47.21875 7.46875 41.1875 3.015625 
Q 35.15625 -1.421875 24.609375 -1.421875 
Q 20.21875 -1.421875 15.453125 -0.5625 
Q 10.6875 0.296875 5.421875 2 
L 5.421875 11.28125 
Q 10.40625 8.6875 15.234375 7.390625 
Q 20.0625 6.109375 24.8125 6.109375 
Q 31.15625 6.109375 34.5625 8.28125 
Q 37.984375 10.453125 37.984375 14.40625 
Q 37.984375 18.0625 35.515625 20.015625 
Q 33.0625 21.96875 24.703125 23.78125 
L 21.578125 24.515625 
Q 13.234375 26.265625 9.515625 29.90625 
Q 5.8125 33.546875 5.8125 39.890625 
Q 5.8125 47.609375 11.28125 51.796875 
Q 16.75 56 26.8125 56 
Q 31.78125 56 36.171875 55.265625 
Q 40.578125 54.546875 44.28125 53.078125 
z
" id="DejaVuSans-115"/>
     <path d="M 18.109375 8.203125 
L 18.109375 -20.796875 
L 9.078125 -20.796875 
L 9.078125 54.6875 
L 18.109375 54.6875 
L 18.109375 46.390625 
Q 20.953125 51.265625 25.265625 53.625 
Q 29.59375 56 35.59375 56 
Q 45.5625 56 51.78125 48.09375 
Q 58.015625 40.1875 58.015625 27.296875 
Q 58.015625 14.40625 51.78125 6.484375 
Q 45.5625 -1.421875 35.59375 -1.421875 
Q 29.59375 -1.421875 25.265625 0.953125 
Q 20.953125 3.328125 18.109375 8.203125 
z
M 48.6875 27.296875 
Q 48.6875 37.203125 44.609375 42.84375 
Q 40.53125 48.484375 33.40625 48.484375 
Q 26.265625 48.484375 22.1875 42.84375 
Q 18.109375 37.203125 18.109375 27.296875 
Q 18.109375 17.390625 22.1875 11.75 
Q 26.265625 6.109375 33.40625 6.109375 
Q 40.53125 6.109375 44.609375 11.75 
Q 48.6875 17.390625 48.6875 27.296875 
z
" id="DejaVuSans-112"/>
     <path d="M 32.171875 -5.078125 
Q 28.375 -14.84375 24.75 -17.8125 
Q 21.140625 -20.796875 15.09375 -20.796875 
L 7.90625 -20.796875 
L 7.90625 -13.28125 
L 13.1875 -13.28125 
Q 16.890625 -13.28125 18.9375 -11.515625 
Q 21 -9.765625 23.484375 -3.21875 
L 25.09375 0.875 
L 2.984375 54.6875 
L 12.5 54.6875 
L 29.59375 11.921875 
L 46.6875 54.6875 
L 56.203125 54.6875 
z
" id="DejaVuSans-121"/>
    </defs>
    <g style="fill:#262626;" transform="translate(309.306649 15.7815)scale(0.0816 -0.0816)">
     <use xlink:href="#DejaVuSans-115"/>
     <use x="52.099609" xlink:href="#DejaVuSans-112"/>
     <use x="115.576172" xlink:href="#DejaVuSans-97"/>
     <use x="176.855469" xlink:href="#DejaVuSans-114"/>
     <use x="217.96875" xlink:href="#DejaVuSans-115"/>
     <use x="270.068359" xlink:href="#DejaVuSans-105"/>
     <use x="297.851562" xlink:href="#DejaVuSans-116"/>
     <use x="337.060547" xlink:href="#DejaVuSans-121"/>
    </g>
   </g>
   <g id="PathCollection_9">
    <g>
     <use style="fill:#edd1cb;stroke:#edd1cb;stroke-width:0.8;" x="307.955512" xlink:href="#m02d6221ad4" y="26.25515"/>
    </g>
   </g>
   <g id="text_12">
    <!-- 500 -->
    <g style="fill:#262626;" transform="translate(323.795512 28.56515)scale(0.088 -0.088)">
     <use xlink:href="#DejaVuSans-53"/>
     <use x="63.623047" xlink:href="#DejaVuSans-48"/>
     <use x="127.246094" xlink:href="#DejaVuSans-48"/>
    </g>
   </g>
   <g id="PathCollection_10">
    <g>
     <use style="fill:#e1b1b4;stroke:#e1b1b4;stroke-width:0.8;" x="307.955512" xlink:href="#m342822cd21" y="39.1719"/>
    </g>
   </g>
   <g id="text_13">
    <!-- 3285 -->
    <defs>
     <path d="M 40.578125 39.3125 
Q 47.65625 37.796875 51.625 33 
Q 55.609375 28.21875 55.609375 21.1875 
Q 55.609375 10.40625 48.1875 4.484375 
Q 40.765625 -1.421875 27.09375 -1.421875 
Q 22.515625 -1.421875 17.65625 -0.515625 
Q 12.796875 0.390625 7.625 2.203125 
L 7.625 11.71875 
Q 11.71875 9.328125 16.59375 8.109375 
Q 21.484375 6.890625 26.8125 6.890625 
Q 36.078125 6.890625 40.9375 10.546875 
Q 45.796875 14.203125 45.796875 21.1875 
Q 45.796875 27.640625 41.28125 31.265625 
Q 36.765625 34.90625 28.71875 34.90625 
L 20.21875 34.90625 
L 20.21875 43.015625 
L 29.109375 43.015625 
Q 36.375 43.015625 40.234375 45.921875 
Q 44.09375 48.828125 44.09375 54.296875 
Q 44.09375 59.90625 40.109375 62.90625 
Q 36.140625 65.921875 28.71875 65.921875 
Q 24.65625 65.921875 20.015625 65.03125 
Q 15.375 64.15625 9.8125 62.3125 
L 9.8125 71.09375 
Q 15.4375 72.65625 20.34375 73.4375 
Q 25.25 74.21875 29.59375 74.21875 
Q 40.828125 74.21875 47.359375 69.109375 
Q 53.90625 64.015625 53.90625 55.328125 
Q 53.90625 49.265625 50.4375 45.09375 
Q 46.96875 40.921875 40.578125 39.3125 
z
" id="DejaVuSans-51"/>
     <path d="M 31.78125 34.625 
Q 24.75 34.625 20.71875 30.859375 
Q 16.703125 27.09375 16.703125 20.515625 
Q 16.703125 13.921875 20.71875 10.15625 
Q 24.75 6.390625 31.78125 6.390625 
Q 38.8125 6.390625 42.859375 10.171875 
Q 46.921875 13.96875 46.921875 20.515625 
Q 46.921875 27.09375 42.890625 30.859375 
Q 38.875 34.625 31.78125 34.625 
z
M 21.921875 38.8125 
Q 15.578125 40.375 12.03125 44.71875 
Q 8.5 49.078125 8.5 55.328125 
Q 8.5 64.0625 14.71875 69.140625 
Q 20.953125 74.21875 31.78125 74.21875 
Q 42.671875 74.21875 48.875 69.140625 
Q 55.078125 64.0625 55.078125 55.328125 
Q 55.078125 49.078125 51.53125 44.71875 
Q 48 40.375 41.703125 38.8125 
Q 48.828125 37.15625 52.796875 32.3125 
Q 56.78125 27.484375 56.78125 20.515625 
Q 56.78125 9.90625 50.3125 4.234375 
Q 43.84375 -1.421875 31.78125 -1.421875 
Q 19.734375 -1.421875 13.25 4.234375 
Q 6.78125 9.90625 6.78125 20.515625 
Q 6.78125 27.484375 10.78125 32.3125 
Q 14.796875 37.15625 21.921875 38.8125 
z
M 18.3125 54.390625 
Q 18.3125 48.734375 21.84375 45.5625 
Q 25.390625 42.390625 31.78125 42.390625 
Q 38.140625 42.390625 41.71875 45.5625 
Q 45.3125 48.734375 45.3125 54.390625 
Q 45.3125 60.0625 41.71875 63.234375 
Q 38.140625 66.40625 31.78125 66.40625 
Q 25.390625 66.40625 21.84375 63.234375 
Q 18.3125 60.0625 18.3125 54.390625 
z
" id="DejaVuSans-56"/>
    </defs>
    <g style="fill:#262626;" transform="translate(323.795512 41.4819)scale(0.088 -0.088)">
     <use xlink:href="#DejaVuSans-51"/>
     <use x="63.623047" xlink:href="#DejaVuSans-50"/>
     <use x="127.246094" xlink:href="#DejaVuSans-56"/>
     <use x="190.869141" xlink:href="#DejaVuSans-53"/>
    </g>
   </g>
   <g id="PathCollection_11">
    <g>
     <use style="fill:#cf91a3;stroke:#cf91a3;stroke-width:0.8;" x="307.955512" xlink:href="#m592b5786f8" y="52.08865"/>
    </g>
   </g>
   <g id="text_14">
    <!-- 6071 -->
    <defs>
     <path d="M 33.015625 40.375 
Q 26.375 40.375 22.484375 35.828125 
Q 18.609375 31.296875 18.609375 23.390625 
Q 18.609375 15.53125 22.484375 10.953125 
Q 26.375 6.390625 33.015625 6.390625 
Q 39.65625 6.390625 43.53125 10.953125 
Q 47.40625 15.53125 47.40625 23.390625 
Q 47.40625 31.296875 43.53125 35.828125 
Q 39.65625 40.375 33.015625 40.375 
z
M 52.59375 71.296875 
L 52.59375 62.3125 
Q 48.875 64.0625 45.09375 64.984375 
Q 41.3125 65.921875 37.59375 65.921875 
Q 27.828125 65.921875 22.671875 59.328125 
Q 17.53125 52.734375 16.796875 39.40625 
Q 19.671875 43.65625 24.015625 45.921875 
Q 28.375 48.1875 33.59375 48.1875 
Q 44.578125 48.1875 50.953125 41.515625 
Q 57.328125 34.859375 57.328125 23.390625 
Q 57.328125 12.15625 50.6875 5.359375 
Q 44.046875 -1.421875 33.015625 -1.421875 
Q 20.359375 -1.421875 13.671875 8.265625 
Q 6.984375 17.96875 6.984375 36.375 
Q 6.984375 53.65625 15.1875 63.9375 
Q 23.390625 74.21875 37.203125 74.21875 
Q 40.921875 74.21875 44.703125 73.484375 
Q 48.484375 72.75 52.59375 71.296875 
z
" id="DejaVuSans-54"/>
     <path d="M 8.203125 72.90625 
L 55.078125 72.90625 
L 55.078125 68.703125 
L 28.609375 0 
L 18.3125 0 
L 43.21875 64.59375 
L 8.203125 64.59375 
z
" id="DejaVuSans-55"/>
    </defs>
    <g style="fill:#262626;" transform="translate(323.795512 54.39865)scale(0.088 -0.088)">
     <use xlink:href="#DejaVuSans-54"/>
     <use x="63.623047" xlink:href="#DejaVuSans-48"/>
     <use x="127.246094" xlink:href="#DejaVuSans-55"/>
     <use x="190.869141" xlink:href="#DejaVuSans-49"/>
    </g>
   </g>
   <g id="PathCollection_12">
    <g>
     <use style="fill:#b77495;stroke:#b77495;stroke-width:0.8;" x="307.955512" xlink:href="#mc2a31a2849" y="65.0054"/>
    </g>
   </g>
   <g id="text_15">
    <!-- 8857 -->
    <g style="fill:#262626;" transform="translate(323.795512 67.3154)scale(0.088 -0.088)">
     <use xlink:href="#DejaVuSans-56"/>
     <use x="63.623047" xlink:href="#DejaVuSans-56"/>
     <use x="127.246094" xlink:href="#DejaVuSans-53"/>
     <use x="190.869141" xlink:href="#DejaVuSans-55"/>
    </g>
   </g>
   <g id="PathCollection_13">
    <g>
     <use style="fill:#9a5b88;stroke:#9a5b88;stroke-width:0.8;" x="307.955512" xlink:href="#m04a5613ac5" y="77.92215"/>
    </g>
   </g>
   <g id="text_16">
    <!-- 11642 -->
    <defs>
     <path d="M 37.796875 64.3125 
L 12.890625 25.390625 
L 37.796875 25.390625 
z
M 35.203125 72.90625 
L 47.609375 72.90625 
L 47.609375 25.390625 
L 58.015625 25.390625 
L 58.015625 17.1875 
L 47.609375 17.1875 
L 47.609375 0 
L 37.796875 0 
L 37.796875 17.1875 
L 4.890625 17.1875 
L 4.890625 26.703125 
z
" id="DejaVuSans-52"/>
    </defs>
    <g style="fill:#262626;" transform="translate(323.795512 80.23215)scale(0.088 -0.088)">
     <use xlink:href="#DejaVuSans-49"/>
     <use x="63.623047" xlink:href="#DejaVuSans-49"/>
     <use x="127.246094" xlink:href="#DejaVuSans-54"/>
     <use x="190.869141" xlink:href="#DejaVuSans-52"/>
     <use x="254.492188" xlink:href="#DejaVuSans-50"/>
    </g>
   </g>
   <g id="PathCollection_14">
    <g>
     <use style="fill:#774576;stroke:#774576;stroke-width:0.8;" x="307.955512" xlink:href="#md2e12c1444" y="90.8389"/>
    </g>
   </g>
   <g id="text_17">
    <!-- 14428 -->
    <g style="fill:#262626;" transform="translate(323.795512 93.1489)scale(0.088 -0.088)">
     <use xlink:href="#DejaVuSans-49"/>
     <use x="63.623047" xlink:href="#DejaVuSans-52"/>
     <use x="127.246094" xlink:href="#DejaVuSans-52"/>
     <use x="190.869141" xlink:href="#DejaVuSans-50"/>
     <use x="254.492188" xlink:href="#DejaVuSans-56"/>
    </g>
   </g>
   <g id="PathCollection_15">
    <g>
     <use style="fill:#52315f;stroke:#52315f;stroke-width:0.8;" x="307.955512" xlink:href="#m0e23073935" y="103.75565"/>
    </g>
   </g>
   <g id="text_18">
    <!-- 17214 -->
    <g style="fill:#262626;" transform="translate(323.795512 106.06565)scale(0.088 -0.088)">
     <use xlink:href="#DejaVuSans-49"/>
     <use x="63.623047" xlink:href="#DejaVuSans-55"/>
     <use x="127.246094" xlink:href="#DejaVuSans-50"/>
     <use x="190.869141" xlink:href="#DejaVuSans-49"/>
     <use x="254.492188" xlink:href="#DejaVuSans-52"/>
    </g>
   </g>
   <g id="PathCollection_16">
    <g>
     <use style="fill:#2d1e3e;stroke:#2d1e3e;stroke-width:0.8;" x="307.955512" xlink:href="#m60188ac959" y="116.6724"/>
    </g>
   </g>
   <g id="text_19">
    <!-- 20000 -->
    <g style="fill:#262626;" transform="translate(323.795512 118.9824)scale(0.088 -0.088)">
     <use xlink:href="#DejaVuSans-50"/>
     <use x="63.623047" xlink:href="#DejaVuSans-48"/>
     <use x="127.246094" xlink:href="#DejaVuSans-48"/>
     <use x="190.869141" xlink:href="#DejaVuSans-48"/>
     <use x="254.492188" xlink:href="#DejaVuSans-48"/>
    </g>
   </g>
  </g>
 </g>
 <defs>
  <clipPath id="p3a8999b811">
   <rect height="78.357701" width="224.741843" x="71.566563" y="10.368"/>
  </clipPath>
 </defs>
</svg>
