<?xml version="1.0" encoding="utf-8" standalone="no"?>
<!DOCTYPE svg PUBLIC "-//W3C//DTD SVG 1.1//EN"
  "http://www.w3.org/Graphics/SVG/1.1/DTD/svg11.dtd">
<!-- Created with matplotlib (https://matplotlib.org/) -->
<svg height="170.685144pt" version="1.1" viewBox="0 0 360.312199 170.685144" width="360.312199pt" xmlns="http://www.w3.org/2000/svg" xmlns:xlink="http://www.w3.org/1999/xlink">
 <defs>
  <style type="text/css">
*{stroke-linecap:butt;stroke-linejoin:round;}
  </style>
 </defs>
 <g id="figure_1">
  <g id="patch_1">
   <path d="M 0 170.685144 
L 360.312199 170.685144 
L 360.312199 -0 
L 0 -0 
z
" style="fill:#ffffff;"/>
  </g>
  <g id="axes_1">
   <g id="patch_2">
    <path d="M 56.746125 67.288131 
L 285.872447 67.288131 
L 285.872447 10.198869 
L 56.746125 10.198869 
z
" style="fill:#ffffff;"/>
   </g>
   <g id="matplotlib.axis_1">
    <g id="xtick_1">
     <g id="line2d_1">
      <path clip-path="url(#p0626fc0bc7)" d="M 56.746125 67.288131 
L 56.746125 10.198869 
" style="fill:none;stroke:#cccccc;stroke-linecap:round;stroke-width:0.8;"/>
     </g>
    </g>
    <g id="xtick_2">
     <g id="line2d_2">
      <path clip-path="url(#p0626fc0bc7)" d="M 98.405456 67.288131 
L 98.405456 10.198869 
" style="fill:none;stroke:#cccccc;stroke-linecap:round;stroke-width:0.8;"/>
     </g>
    </g>
    <g id="xtick_3">
     <g id="line2d_3">
      <path clip-path="url(#p0626fc0bc7)" d="M 140.064787 67.288131 
L 140.064787 10.198869 
" style="fill:none;stroke:#cccccc;stroke-linecap:round;stroke-width:0.8;"/>
     </g>
    </g>
    <g id="xtick_4">
     <g id="line2d_4">
      <path clip-path="url(#p0626fc0bc7)" d="M 181.724119 67.288131 
L 181.724119 10.198869 
" style="fill:none;stroke:#cccccc;stroke-linecap:round;stroke-width:0.8;"/>
     </g>
    </g>
    <g id="xtick_5">
     <g id="line2d_5">
      <path clip-path="url(#p0626fc0bc7)" d="M 223.38345 67.288131 
L 223.38345 10.198869 
" style="fill:none;stroke:#cccccc;stroke-linecap:round;stroke-width:0.8;"/>
     </g>
    </g>
    <g id="xtick_6">
     <g id="line2d_6">
      <path clip-path="url(#p0626fc0bc7)" d="M 265.042781 67.288131 
L 265.042781 10.198869 
" style="fill:none;stroke:#cccccc;stroke-linecap:round;stroke-width:0.8;"/>
     </g>
    </g>
   </g>
   <g id="matplotlib.axis_2">
    <g id="ytick_1">
     <g id="line2d_7">
      <path clip-path="url(#p0626fc0bc7)" d="M 56.746125 53.015816 
L 285.872447 53.015816 
" style="fill:none;stroke:#cccccc;stroke-linecap:round;stroke-width:0.8;"/>
     </g>
     <g id="text_1">
      <!-- 0.00% -->
      <defs>
       <path d="M 31.78125 66.40625 
Q 24.171875 66.40625 20.328125 58.90625 
Q 16.5 51.421875 16.5 36.375 
Q 16.5 21.390625 20.328125 13.890625 
Q 24.171875 6.390625 31.78125 6.390625 
Q 39.453125 6.390625 43.28125 13.890625 
Q 47.125 21.390625 47.125 36.375 
Q 47.125 51.421875 43.28125 58.90625 
Q 39.453125 66.40625 31.78125 66.40625 
z
M 31.78125 74.21875 
Q 44.046875 74.21875 50.515625 64.515625 
Q 56.984375 54.828125 56.984375 36.375 
Q 56.984375 17.96875 50.515625 8.265625 
Q 44.046875 -1.421875 31.78125 -1.421875 
Q 19.53125 -1.421875 13.0625 8.265625 
Q 6.59375 17.96875 6.59375 36.375 
Q 6.59375 54.828125 13.0625 64.515625 
Q 19.53125 74.21875 31.78125 74.21875 
z
" id="DejaVuSans-48"/>
       <path d="M 10.6875 12.40625 
L 21 12.40625 
L 21 0 
L 10.6875 0 
z
" id="DejaVuSans-46"/>
       <path d="M 72.703125 32.078125 
Q 68.453125 32.078125 66.03125 28.46875 
Q 63.625 24.859375 63.625 18.40625 
Q 63.625 12.0625 66.03125 8.421875 
Q 68.453125 4.78125 72.703125 4.78125 
Q 76.859375 4.78125 79.265625 8.421875 
Q 81.6875 12.0625 81.6875 18.40625 
Q 81.6875 24.8125 79.265625 28.4375 
Q 76.859375 32.078125 72.703125 32.078125 
z
M 72.703125 38.28125 
Q 80.421875 38.28125 84.953125 32.90625 
Q 89.5 27.546875 89.5 18.40625 
Q 89.5 9.28125 84.9375 3.921875 
Q 80.375 -1.421875 72.703125 -1.421875 
Q 64.890625 -1.421875 60.34375 3.921875 
Q 55.8125 9.28125 55.8125 18.40625 
Q 55.8125 27.59375 60.375 32.9375 
Q 64.9375 38.28125 72.703125 38.28125 
z
M 22.3125 68.015625 
Q 18.109375 68.015625 15.6875 64.375 
Q 13.28125 60.75 13.28125 54.390625 
Q 13.28125 47.953125 15.671875 44.328125 
Q 18.0625 40.71875 22.3125 40.71875 
Q 26.5625 40.71875 28.96875 44.328125 
Q 31.390625 47.953125 31.390625 54.390625 
Q 31.390625 60.6875 28.953125 64.34375 
Q 26.515625 68.015625 22.3125 68.015625 
z
M 66.40625 74.21875 
L 74.21875 74.21875 
L 28.609375 -1.421875 
L 20.796875 -1.421875 
z
M 22.3125 74.21875 
Q 30.03125 74.21875 34.609375 68.875 
Q 39.203125 63.53125 39.203125 54.390625 
Q 39.203125 45.171875 34.640625 39.84375 
Q 30.078125 34.515625 22.3125 34.515625 
Q 14.546875 34.515625 10.03125 39.859375 
Q 5.515625 45.21875 5.515625 54.390625 
Q 5.515625 63.484375 10.046875 68.84375 
Q 14.59375 74.21875 22.3125 74.21875 
z
" id="DejaVuSans-37"/>
      </defs>
      <g style="fill:#262626;" transform="translate(20.491 56.359128)scale(0.088 -0.088)">
       <use xlink:href="#DejaVuSans-48"/>
       <use x="63.623047" xlink:href="#DejaVuSans-46"/>
       <use x="95.410156" xlink:href="#DejaVuSans-48"/>
       <use x="159.033203" xlink:href="#DejaVuSans-48"/>
       <use x="222.65625" xlink:href="#DejaVuSans-37"/>
      </g>
     </g>
    </g>
    <g id="ytick_2">
     <g id="line2d_8">
      <path clip-path="url(#p0626fc0bc7)" d="M 56.746125 24.471184 
L 285.872447 24.471184 
" style="fill:none;stroke:#cccccc;stroke-linecap:round;stroke-width:0.8;"/>
     </g>
     <g id="text_2">
      <!-- 1.00% -->
      <defs>
       <path d="M 12.40625 8.296875 
L 28.515625 8.296875 
L 28.515625 63.921875 
L 10.984375 60.40625 
L 10.984375 69.390625 
L 28.421875 72.90625 
L 38.28125 72.90625 
L 38.28125 8.296875 
L 54.390625 8.296875 
L 54.390625 0 
L 12.40625 0 
z
" id="DejaVuSans-49"/>
      </defs>
      <g style="fill:#262626;" transform="translate(20.491 27.814497)scale(0.088 -0.088)">
       <use xlink:href="#DejaVuSans-49"/>
       <use x="63.623047" xlink:href="#DejaVuSans-46"/>
       <use x="95.410156" xlink:href="#DejaVuSans-48"/>
       <use x="159.033203" xlink:href="#DejaVuSans-48"/>
       <use x="222.65625" xlink:href="#DejaVuSans-37"/>
      </g>
     </g>
    </g>
    <g id="text_3">
     <!-- relative error -->
     <defs>
      <path d="M 41.109375 46.296875 
Q 39.59375 47.171875 37.8125 47.578125 
Q 36.03125 48 33.890625 48 
Q 26.265625 48 22.1875 43.046875 
Q 18.109375 38.09375 18.109375 28.8125 
L 18.109375 0 
L 9.078125 0 
L 9.078125 54.6875 
L 18.109375 54.6875 
L 18.109375 46.1875 
Q 20.953125 51.171875 25.484375 53.578125 
Q 30.03125 56 36.53125 56 
Q 37.453125 56 38.578125 55.875 
Q 39.703125 55.765625 41.0625 55.515625 
z
" id="DejaVuSans-114"/>
      <path d="M 56.203125 29.59375 
L 56.203125 25.203125 
L 14.890625 25.203125 
Q 15.484375 15.921875 20.484375 11.0625 
Q 25.484375 6.203125 34.421875 6.203125 
Q 39.59375 6.203125 44.453125 7.46875 
Q 49.3125 8.734375 54.109375 11.28125 
L 54.109375 2.78125 
Q 49.265625 0.734375 44.1875 -0.34375 
Q 39.109375 -1.421875 33.890625 -1.421875 
Q 20.796875 -1.421875 13.15625 6.1875 
Q 5.515625 13.8125 5.515625 26.8125 
Q 5.515625 40.234375 12.765625 48.109375 
Q 20.015625 56 32.328125 56 
Q 43.359375 56 49.78125 48.890625 
Q 56.203125 41.796875 56.203125 29.59375 
z
M 47.21875 32.234375 
Q 47.125 39.59375 43.09375 43.984375 
Q 39.0625 48.390625 32.421875 48.390625 
Q 24.90625 48.390625 20.390625 44.140625 
Q 15.875 39.890625 15.1875 32.171875 
z
" id="DejaVuSans-101"/>
      <path d="M 9.421875 75.984375 
L 18.40625 75.984375 
L 18.40625 0 
L 9.421875 0 
z
" id="DejaVuSans-108"/>
      <path d="M 34.28125 27.484375 
Q 23.390625 27.484375 19.1875 25 
Q 14.984375 22.515625 14.984375 16.5 
Q 14.984375 11.71875 18.140625 8.90625 
Q 21.296875 6.109375 26.703125 6.109375 
Q 34.1875 6.109375 38.703125 11.40625 
Q 43.21875 16.703125 43.21875 25.484375 
L 43.21875 27.484375 
z
M 52.203125 31.203125 
L 52.203125 0 
L 43.21875 0 
L 43.21875 8.296875 
Q 40.140625 3.328125 35.546875 0.953125 
Q 30.953125 -1.421875 24.3125 -1.421875 
Q 15.921875 -1.421875 10.953125 3.296875 
Q 6 8.015625 6 15.921875 
Q 6 25.140625 12.171875 29.828125 
Q 18.359375 34.515625 30.609375 34.515625 
L 43.21875 34.515625 
L 43.21875 35.40625 
Q 43.21875 41.609375 39.140625 45 
Q 35.0625 48.390625 27.6875 48.390625 
Q 23 48.390625 18.546875 47.265625 
Q 14.109375 46.140625 10.015625 43.890625 
L 10.015625 52.203125 
Q 14.9375 54.109375 19.578125 55.046875 
Q 24.21875 56 28.609375 56 
Q 40.484375 56 46.34375 49.84375 
Q 52.203125 43.703125 52.203125 31.203125 
z
" id="DejaVuSans-97"/>
      <path d="M 18.3125 70.21875 
L 18.3125 54.6875 
L 36.8125 54.6875 
L 36.8125 47.703125 
L 18.3125 47.703125 
L 18.3125 18.015625 
Q 18.3125 11.328125 20.140625 9.421875 
Q 21.96875 7.515625 27.59375 7.515625 
L 36.8125 7.515625 
L 36.8125 0 
L 27.59375 0 
Q 17.1875 0 13.234375 3.875 
Q 9.28125 7.765625 9.28125 18.015625 
L 9.28125 47.703125 
L 2.6875 47.703125 
L 2.6875 54.6875 
L 9.28125 54.6875 
L 9.28125 70.21875 
z
" id="DejaVuSans-116"/>
      <path d="M 9.421875 54.6875 
L 18.40625 54.6875 
L 18.40625 0 
L 9.421875 0 
z
M 9.421875 75.984375 
L 18.40625 75.984375 
L 18.40625 64.59375 
L 9.421875 64.59375 
z
" id="DejaVuSans-105"/>
      <path d="M 2.984375 54.6875 
L 12.5 54.6875 
L 29.59375 8.796875 
L 46.6875 54.6875 
L 56.203125 54.6875 
L 35.6875 0 
L 23.484375 0 
z
" id="DejaVuSans-118"/>
      <path id="DejaVuSans-32"/>
      <path d="M 30.609375 48.390625 
Q 23.390625 48.390625 19.1875 42.75 
Q 14.984375 37.109375 14.984375 27.296875 
Q 14.984375 17.484375 19.15625 11.84375 
Q 23.34375 6.203125 30.609375 6.203125 
Q 37.796875 6.203125 41.984375 11.859375 
Q 46.1875 17.53125 46.1875 27.296875 
Q 46.1875 37.015625 41.984375 42.703125 
Q 37.796875 48.390625 30.609375 48.390625 
z
M 30.609375 56 
Q 42.328125 56 49.015625 48.375 
Q 55.71875 40.765625 55.71875 27.296875 
Q 55.71875 13.875 49.015625 6.21875 
Q 42.328125 -1.421875 30.609375 -1.421875 
Q 18.84375 -1.421875 12.171875 6.21875 
Q 5.515625 13.875 5.515625 27.296875 
Q 5.515625 40.765625 12.171875 48.375 
Q 18.84375 56 30.609375 56 
z
" id="DejaVuSans-111"/>
     </defs>
     <g style="fill:#262626;" transform="translate(14.4945 70.287)rotate(-90)scale(0.096 -0.096)">
      <use xlink:href="#DejaVuSans-114"/>
      <use x="41.082031" xlink:href="#DejaVuSans-101"/>
      <use x="102.605469" xlink:href="#DejaVuSans-108"/>
      <use x="130.388672" xlink:href="#DejaVuSans-97"/>
      <use x="191.667969" xlink:href="#DejaVuSans-116"/>
      <use x="230.876953" xlink:href="#DejaVuSans-105"/>
      <use x="258.660156" xlink:href="#DejaVuSans-118"/>
      <use x="317.839844" xlink:href="#DejaVuSans-101"/>
      <use x="379.363281" xlink:href="#DejaVuSans-32"/>
      <use x="411.150391" xlink:href="#DejaVuSans-101"/>
      <use x="472.673828" xlink:href="#DejaVuSans-114"/>
      <use x="513.771484" xlink:href="#DejaVuSans-114"/>
      <use x="554.853516" xlink:href="#DejaVuSans-111"/>
      <use x="616.035156" xlink:href="#DejaVuSans-114"/>
     </g>
    </g>
   </g>
   <g id="PathCollection_1">
    <defs>
     <path d="M 0 2.4 
C 0.636487 2.4 1.246992 2.147121 1.697056 1.697056 
C 2.147121 1.246992 2.4 0.636487 2.4 0 
C 2.4 -0.636487 2.147121 -1.246992 1.697056 -1.697056 
C 1.246992 -2.147121 0.636487 -2.4 0 -2.4 
C -0.636487 -2.4 -1.246992 -2.147121 -1.697056 -1.697056 
C -2.147121 -1.246992 -2.4 -0.636487 -2.4 0 
C -2.4 0.636487 -2.147121 1.246992 -1.697056 1.697056 
C -1.246992 2.147121 -0.636487 2.4 0 2.4 
z
" id="m397cec51b4" style="stroke:#4878d0;stroke-opacity:0.8;"/>
    </defs>
    <g clip-path="url(#p0626fc0bc7)">
     <use style="fill:#4878d0;fill-opacity:0.8;stroke:#4878d0;stroke-opacity:0.8;" x="265.042781" xlink:href="#m397cec51b4" y="52.824855"/>
     <use style="fill:#4878d0;fill-opacity:0.8;stroke:#4878d0;stroke-opacity:0.8;" x="255.123893" xlink:href="#m397cec51b4" y="52.914045"/>
     <use style="fill:#4878d0;fill-opacity:0.8;stroke:#4878d0;stroke-opacity:0.8;" x="242.725282" xlink:href="#m397cec51b4" y="52.683857"/>
     <use style="fill:#4878d0;fill-opacity:0.8;stroke:#4878d0;stroke-opacity:0.8;" x="230.326672" xlink:href="#m397cec51b4" y="51.836613"/>
     <use style="fill:#4878d0;fill-opacity:0.8;stroke:#4878d0;stroke-opacity:0.8;" x="219.477888" xlink:href="#m397cec51b4" y="52.280296"/>
     <use style="fill:#4878d0;fill-opacity:0.8;stroke:#4878d0;stroke-opacity:0.8;" x="207.685731" xlink:href="#m397cec51b4" y="53.09873"/>
     <use style="fill:#4878d0;fill-opacity:0.8;stroke:#4878d0;stroke-opacity:0.8;" x="195.610562" xlink:href="#m397cec51b4" y="53.196775"/>
     <use style="fill:#4878d0;fill-opacity:0.8;stroke:#4878d0;stroke-opacity:0.8;" x="184.535485" xlink:href="#m397cec51b4" y="52.836934"/>
     <use style="fill:#4878d0;fill-opacity:0.8;stroke:#4878d0;stroke-opacity:0.8;" x="172.466489" xlink:href="#m397cec51b4" y="53.139858"/>
     <use style="fill:#4878d0;fill-opacity:0.8;stroke:#4878d0;stroke-opacity:0.8;" x="160.894453" xlink:href="#m397cec51b4" y="52.624748"/>
    </g>
   </g>
   <g id="PathCollection_2">
    <defs>
     <path d="M 0 2.4 
C 0.636487 2.4 1.246992 2.147121 1.697056 1.697056 
C 2.147121 1.246992 2.4 0.636487 2.4 0 
C 2.4 -0.636487 2.147121 -1.246992 1.697056 -1.697056 
C 1.246992 -2.147121 0.636487 -2.4 0 -2.4 
C -0.636487 -2.4 -1.246992 -2.147121 -1.697056 -1.697056 
C -2.147121 -1.246992 -2.4 -0.636487 -2.4 0 
C -2.4 0.636487 -2.147121 1.246992 -1.697056 1.697056 
C -1.246992 2.147121 -0.636487 2.4 0 2.4 
z
" id="m9834696f9e" style="stroke:#ee854a;stroke-opacity:0.8;"/>
    </defs>
    <g clip-path="url(#p0626fc0bc7)">
     <use style="fill:#ee854a;fill-opacity:0.8;stroke:#ee854a;stroke-opacity:0.8;" x="265.042781" xlink:href="#m9834696f9e" y="43.072524"/>
     <use style="fill:#ee854a;fill-opacity:0.8;stroke:#ee854a;stroke-opacity:0.8;" x="255.123893" xlink:href="#m9834696f9e" y="43.661265"/>
     <use style="fill:#ee854a;fill-opacity:0.8;stroke:#ee854a;stroke-opacity:0.8;" x="242.725282" xlink:href="#m9834696f9e" y="42.770979"/>
     <use style="fill:#ee854a;fill-opacity:0.8;stroke:#ee854a;stroke-opacity:0.8;" x="230.326672" xlink:href="#m9834696f9e" y="43.384047"/>
     <use style="fill:#ee854a;fill-opacity:0.8;stroke:#ee854a;stroke-opacity:0.8;" x="219.477888" xlink:href="#m9834696f9e" y="43.370444"/>
     <use style="fill:#ee854a;fill-opacity:0.8;stroke:#ee854a;stroke-opacity:0.8;" x="207.685731" xlink:href="#m9834696f9e" y="42.903098"/>
     <use style="fill:#ee854a;fill-opacity:0.8;stroke:#ee854a;stroke-opacity:0.8;" x="195.610562" xlink:href="#m9834696f9e" y="42.933277"/>
     <use style="fill:#ee854a;fill-opacity:0.8;stroke:#ee854a;stroke-opacity:0.8;" x="184.535485" xlink:href="#m9834696f9e" y="43.010041"/>
     <use style="fill:#ee854a;fill-opacity:0.8;stroke:#ee854a;stroke-opacity:0.8;" x="172.466489" xlink:href="#m9834696f9e" y="43.052542"/>
     <use style="fill:#ee854a;fill-opacity:0.8;stroke:#ee854a;stroke-opacity:0.8;" x="160.894453" xlink:href="#m9834696f9e" y="42.986979"/>
    </g>
   </g>
   <g id="PathCollection_3">
    <defs>
     <path d="M 0 2.4 
C 0.636487 2.4 1.246992 2.147121 1.697056 1.697056 
C 2.147121 1.246992 2.4 0.636487 2.4 0 
C 2.4 -0.636487 2.147121 -1.246992 1.697056 -1.697056 
C 1.246992 -2.147121 0.636487 -2.4 0 -2.4 
C -0.636487 -2.4 -1.246992 -2.147121 -1.697056 -1.697056 
C -2.147121 -1.246992 -2.4 -0.636487 -2.4 0 
C -2.4 0.636487 -2.147121 1.246992 -1.697056 1.697056 
C -1.246992 2.147121 -0.636487 2.4 0 2.4 
z
" id="m0caafe1df8" style="stroke:#6acc64;stroke-opacity:0.8;"/>
    </defs>
    <g clip-path="url(#p0626fc0bc7)">
     <use style="fill:#6acc64;fill-opacity:0.8;stroke:#6acc64;stroke-opacity:0.8;" x="265.042781" xlink:href="#m0caafe1df8" y="24.449164"/>
     <use style="fill:#6acc64;fill-opacity:0.8;stroke:#6acc64;stroke-opacity:0.8;" x="255.123893" xlink:href="#m0caafe1df8" y="23.451908"/>
     <use style="fill:#6acc64;fill-opacity:0.8;stroke:#6acc64;stroke-opacity:0.8;" x="242.725282" xlink:href="#m0caafe1df8" y="24.055357"/>
     <use style="fill:#6acc64;fill-opacity:0.8;stroke:#6acc64;stroke-opacity:0.8;" x="230.326672" xlink:href="#m0caafe1df8" y="24.331708"/>
     <use style="fill:#6acc64;fill-opacity:0.8;stroke:#6acc64;stroke-opacity:0.8;" x="219.477888" xlink:href="#m0caafe1df8" y="23.820449"/>
     <use style="fill:#6acc64;fill-opacity:0.8;stroke:#6acc64;stroke-opacity:0.8;" x="207.685731" xlink:href="#m0caafe1df8" y="24.483219"/>
     <use style="fill:#6acc64;fill-opacity:0.8;stroke:#6acc64;stroke-opacity:0.8;" x="195.610562" xlink:href="#m0caafe1df8" y="23.263344"/>
     <use style="fill:#6acc64;fill-opacity:0.8;stroke:#6acc64;stroke-opacity:0.8;" x="184.535485" xlink:href="#m0caafe1df8" y="24.309425"/>
     <use style="fill:#6acc64;fill-opacity:0.8;stroke:#6acc64;stroke-opacity:0.8;" x="172.466489" xlink:href="#m0caafe1df8" y="24.001349"/>
     <use style="fill:#6acc64;fill-opacity:0.8;stroke:#6acc64;stroke-opacity:0.8;" x="160.894453" xlink:href="#m0caafe1df8" y="23.798669"/>
    </g>
   </g>
   <g id="line2d_9">
    <path clip-path="url(#p0626fc0bc7)" d="M -1 53.34397 
L 3.707526 53.330788 
L 9.602205 53.314283 
L 15.496883 53.297778 
L 21.391562 53.281272 
L 27.286241 53.264767 
L 33.180919 53.248262 
L 39.075598 53.231756 
L 44.970276 53.215251 
L 50.864955 53.198746 
L 56.759634 53.18224 
L 62.654312 53.165735 
L 68.548991 53.149229 
L 74.44367 53.132724 
L 80.338348 53.116219 
L 86.233027 53.099713 
L 92.127705 53.083208 
L 98.022384 53.066703 
L 103.917063 53.050197 
L 109.811741 53.033692 
L 115.70642 53.017186 
L 121.601098 53.000681 
L 127.495777 52.984176 
L 133.390456 52.96767 
L 139.285134 52.951165 
L 145.179813 52.93466 
L 151.074492 52.918154 
L 156.96917 52.901649 
L 162.863849 52.885144 
L 168.758527 52.868638 
L 174.653206 52.852133 
L 180.547885 52.835627 
L 186.442563 52.819122 
L 192.337242 52.802617 
L 198.23192 52.786111 
L 204.126599 52.769606 
L 210.021278 52.753101 
L 215.915956 52.736595 
L 221.810635 52.72009 
L 227.705314 52.703585 
L 233.599992 52.687079 
L 239.494671 52.670574 
L 245.389349 52.654068 
L 251.284028 52.637563 
L 257.178707 52.621058 
L 263.073385 52.604552 
L 268.968064 52.588047 
L 274.862742 52.571542 
L 280.757421 52.555036 
L 286.6521 52.538531 
L 292.546778 52.522026 
L 298.441457 52.50552 
L 304.336136 52.489015 
L 310.230814 52.472509 
L 316.125493 52.456004 
L 322.020171 52.439499 
L 327.91485 52.422993 
L 333.809529 52.406488 
L 339.704207 52.389983 
L 345.598886 52.373477 
L 351.493564 52.356972 
L 357.388243 52.340466 
L 361.312199 52.329479 
" style="fill:none;stroke:#4878d0;stroke-linecap:round;stroke-width:1.8;"/>
   </g>
   <g id="line2d_10">
    <path clip-path="url(#p0626fc0bc7)" d="M -1 42.476124 
L 3.707526 42.490141 
L 9.602205 42.507694 
L 15.496883 42.525247 
L 21.391562 42.5428 
L 27.286241 42.560353 
L 33.180919 42.577906 
L 39.075598 42.595459 
L 44.970276 42.613011 
L 50.864955 42.630564 
L 56.759634 42.648117 
L 62.654312 42.66567 
L 68.548991 42.683223 
L 74.44367 42.700776 
L 80.338348 42.718329 
L 86.233027 42.735882 
L 92.127705 42.753434 
L 98.022384 42.770987 
L 103.917063 42.78854 
L 109.811741 42.806093 
L 115.70642 42.823646 
L 121.601098 42.841199 
L 127.495777 42.858752 
L 133.390456 42.876304 
L 139.285134 42.893857 
L 145.179813 42.91141 
L 151.074492 42.928963 
L 156.96917 42.946516 
L 162.863849 42.964069 
L 168.758527 42.981622 
L 174.653206 42.999175 
L 180.547885 43.016727 
L 186.442563 43.03428 
L 192.337242 43.051833 
L 198.23192 43.069386 
L 204.126599 43.086939 
L 210.021278 43.104492 
L 215.915956 43.122045 
L 221.810635 43.139597 
L 227.705314 43.15715 
L 233.599992 43.174703 
L 239.494671 43.192256 
L 245.389349 43.209809 
L 251.284028 43.227362 
L 257.178707 43.244915 
L 263.073385 43.262467 
L 268.968064 43.28002 
L 274.862742 43.297573 
L 280.757421 43.315126 
L 286.6521 43.332679 
L 292.546778 43.350232 
L 298.441457 43.367785 
L 304.336136 43.385338 
L 310.230814 43.40289 
L 316.125493 43.420443 
L 322.020171 43.437996 
L 327.91485 43.455549 
L 333.809529 43.473102 
L 339.704207 43.490655 
L 345.598886 43.508208 
L 351.493564 43.52576 
L 357.388243 43.543313 
L 361.312199 43.554998 
" style="fill:none;stroke:#ee854a;stroke-linecap:round;stroke-width:1.8;"/>
   </g>
   <g id="line2d_11">
    <path clip-path="url(#p0626fc0bc7)" d="M -1 23.644402 
L 3.707526 23.652132 
L 9.602205 23.661812 
L 15.496883 23.671492 
L 21.391562 23.681172 
L 27.286241 23.690852 
L 33.180919 23.700532 
L 39.075598 23.710212 
L 44.970276 23.719891 
L 50.864955 23.729571 
L 56.759634 23.739251 
L 62.654312 23.748931 
L 68.548991 23.758611 
L 74.44367 23.768291 
L 80.338348 23.777971 
L 86.233027 23.787651 
L 92.127705 23.797331 
L 98.022384 23.807011 
L 103.917063 23.816691 
L 109.811741 23.82637 
L 115.70642 23.83605 
L 121.601098 23.84573 
L 127.495777 23.85541 
L 133.390456 23.86509 
L 139.285134 23.87477 
L 145.179813 23.88445 
L 151.074492 23.89413 
L 156.96917 23.90381 
L 162.863849 23.91349 
L 168.758527 23.92317 
L 174.653206 23.932849 
L 180.547885 23.942529 
L 186.442563 23.952209 
L 192.337242 23.961889 
L 198.23192 23.971569 
L 204.126599 23.981249 
L 210.021278 23.990929 
L 215.915956 24.000609 
L 221.810635 24.010289 
L 227.705314 24.019969 
L 233.599992 24.029649 
L 239.494671 24.039328 
L 245.389349 24.049008 
L 251.284028 24.058688 
L 257.178707 24.068368 
L 263.073385 24.078048 
L 268.968064 24.087728 
L 274.862742 24.097408 
L 280.757421 24.107088 
L 286.6521 24.116768 
L 292.546778 24.126448 
L 298.441457 24.136128 
L 304.336136 24.145807 
L 310.230814 24.155487 
L 316.125493 24.165167 
L 322.020171 24.174847 
L 327.91485 24.184527 
L 333.809529 24.194207 
L 339.704207 24.203887 
L 345.598886 24.213567 
L 351.493564 24.223247 
L 357.388243 24.232927 
L 361.312199 24.23937 
" style="fill:none;stroke:#6acc64;stroke-linecap:round;stroke-width:1.8;"/>
   </g>
   <g id="patch_3">
    <path d="M 56.746125 67.288131 
L 56.746125 10.198869 
" style="fill:none;stroke:#cccccc;stroke-linecap:square;stroke-linejoin:miter;"/>
   </g>
   <g id="patch_4">
    <path d="M 56.746125 67.288131 
L 285.872447 67.288131 
" style="fill:none;stroke:#cccccc;stroke-linecap:square;stroke-linejoin:miter;"/>
   </g>
  </g>
  <g id="axes_2">
   <g id="patch_5">
    <path d="M 56.746125 133.377394 
L 285.872447 133.377394 
L 285.872447 76.288131 
L 56.746125 76.288131 
z
" style="fill:#ffffff;"/>
   </g>
   <g id="matplotlib.axis_3">
    <g id="xtick_7">
     <g id="line2d_12">
      <path clip-path="url(#pbfec99953b)" d="M 56.746125 133.377394 
L 56.746125 76.288131 
" style="fill:none;stroke:#cccccc;stroke-linecap:round;stroke-width:0.8;"/>
     </g>
     <g id="text_4">
      <!-- 0.000 -->
      <g style="fill:#262626;" transform="translate(44.14975 148.364019)scale(0.088 -0.088)">
       <use xlink:href="#DejaVuSans-48"/>
       <use x="63.623047" xlink:href="#DejaVuSans-46"/>
       <use x="95.410156" xlink:href="#DejaVuSans-48"/>
       <use x="159.033203" xlink:href="#DejaVuSans-48"/>
       <use x="222.65625" xlink:href="#DejaVuSans-48"/>
      </g>
     </g>
    </g>
    <g id="xtick_8">
     <g id="line2d_13">
      <path clip-path="url(#pbfec99953b)" d="M 98.405456 133.377394 
L 98.405456 76.288131 
" style="fill:none;stroke:#cccccc;stroke-linecap:round;stroke-width:0.8;"/>
     </g>
     <g id="text_5">
      <!-- 0.002 -->
      <defs>
       <path d="M 19.1875 8.296875 
L 53.609375 8.296875 
L 53.609375 0 
L 7.328125 0 
L 7.328125 8.296875 
Q 12.9375 14.109375 22.625 23.890625 
Q 32.328125 33.6875 34.8125 36.53125 
Q 39.546875 41.84375 41.421875 45.53125 
Q 43.3125 49.21875 43.3125 52.78125 
Q 43.3125 58.59375 39.234375 62.25 
Q 35.15625 65.921875 28.609375 65.921875 
Q 23.96875 65.921875 18.8125 64.3125 
Q 13.671875 62.703125 7.8125 59.421875 
L 7.8125 69.390625 
Q 13.765625 71.78125 18.9375 73 
Q 24.125 74.21875 28.421875 74.21875 
Q 39.75 74.21875 46.484375 68.546875 
Q 53.21875 62.890625 53.21875 53.421875 
Q 53.21875 48.921875 51.53125 44.890625 
Q 49.859375 40.875 45.40625 35.40625 
Q 44.1875 33.984375 37.640625 27.21875 
Q 31.109375 20.453125 19.1875 8.296875 
z
" id="DejaVuSans-50"/>
      </defs>
      <g style="fill:#262626;" transform="translate(85.809081 148.364019)scale(0.088 -0.088)">
       <use xlink:href="#DejaVuSans-48"/>
       <use x="63.623047" xlink:href="#DejaVuSans-46"/>
       <use x="95.410156" xlink:href="#DejaVuSans-48"/>
       <use x="159.033203" xlink:href="#DejaVuSans-48"/>
       <use x="222.65625" xlink:href="#DejaVuSans-50"/>
      </g>
     </g>
    </g>
    <g id="xtick_9">
     <g id="line2d_14">
      <path clip-path="url(#pbfec99953b)" d="M 140.064787 133.377394 
L 140.064787 76.288131 
" style="fill:none;stroke:#cccccc;stroke-linecap:round;stroke-width:0.8;"/>
     </g>
     <g id="text_6">
      <!-- 0.004 -->
      <defs>
       <path d="M 37.796875 64.3125 
L 12.890625 25.390625 
L 37.796875 25.390625 
z
M 35.203125 72.90625 
L 47.609375 72.90625 
L 47.609375 25.390625 
L 58.015625 25.390625 
L 58.015625 17.1875 
L 47.609375 17.1875 
L 47.609375 0 
L 37.796875 0 
L 37.796875 17.1875 
L 4.890625 17.1875 
L 4.890625 26.703125 
z
" id="DejaVuSans-52"/>
      </defs>
      <g style="fill:#262626;" transform="translate(127.468412 148.364019)scale(0.088 -0.088)">
       <use xlink:href="#DejaVuSans-48"/>
       <use x="63.623047" xlink:href="#DejaVuSans-46"/>
       <use x="95.410156" xlink:href="#DejaVuSans-48"/>
       <use x="159.033203" xlink:href="#DejaVuSans-48"/>
       <use x="222.65625" xlink:href="#DejaVuSans-52"/>
      </g>
     </g>
    </g>
    <g id="xtick_10">
     <g id="line2d_15">
      <path clip-path="url(#pbfec99953b)" d="M 181.724119 133.377394 
L 181.724119 76.288131 
" style="fill:none;stroke:#cccccc;stroke-linecap:round;stroke-width:0.8;"/>
     </g>
     <g id="text_7">
      <!-- 0.006 -->
      <defs>
       <path d="M 33.015625 40.375 
Q 26.375 40.375 22.484375 35.828125 
Q 18.609375 31.296875 18.609375 23.390625 
Q 18.609375 15.53125 22.484375 10.953125 
Q 26.375 6.390625 33.015625 6.390625 
Q 39.65625 6.390625 43.53125 10.953125 
Q 47.40625 15.53125 47.40625 23.390625 
Q 47.40625 31.296875 43.53125 35.828125 
Q 39.65625 40.375 33.015625 40.375 
z
M 52.59375 71.296875 
L 52.59375 62.3125 
Q 48.875 64.0625 45.09375 64.984375 
Q 41.3125 65.921875 37.59375 65.921875 
Q 27.828125 65.921875 22.671875 59.328125 
Q 17.53125 52.734375 16.796875 39.40625 
Q 19.671875 43.65625 24.015625 45.921875 
Q 28.375 48.1875 33.59375 48.1875 
Q 44.578125 48.1875 50.953125 41.515625 
Q 57.328125 34.859375 57.328125 23.390625 
Q 57.328125 12.15625 50.6875 5.359375 
Q 44.046875 -1.421875 33.015625 -1.421875 
Q 20.359375 -1.421875 13.671875 8.265625 
Q 6.984375 17.96875 6.984375 36.375 
Q 6.984375 53.65625 15.1875 63.9375 
Q 23.390625 74.21875 37.203125 74.21875 
Q 40.921875 74.21875 44.703125 73.484375 
Q 48.484375 72.75 52.59375 71.296875 
z
" id="DejaVuSans-54"/>
      </defs>
      <g style="fill:#262626;" transform="translate(169.127744 148.364019)scale(0.088 -0.088)">
       <use xlink:href="#DejaVuSans-48"/>
       <use x="63.623047" xlink:href="#DejaVuSans-46"/>
       <use x="95.410156" xlink:href="#DejaVuSans-48"/>
       <use x="159.033203" xlink:href="#DejaVuSans-48"/>
       <use x="222.65625" xlink:href="#DejaVuSans-54"/>
      </g>
     </g>
    </g>
    <g id="xtick_11">
     <g id="line2d_16">
      <path clip-path="url(#pbfec99953b)" d="M 223.38345 133.377394 
L 223.38345 76.288131 
" style="fill:none;stroke:#cccccc;stroke-linecap:round;stroke-width:0.8;"/>
     </g>
     <g id="text_8">
      <!-- 0.008 -->
      <defs>
       <path d="M 31.78125 34.625 
Q 24.75 34.625 20.71875 30.859375 
Q 16.703125 27.09375 16.703125 20.515625 
Q 16.703125 13.921875 20.71875 10.15625 
Q 24.75 6.390625 31.78125 6.390625 
Q 38.8125 6.390625 42.859375 10.171875 
Q 46.921875 13.96875 46.921875 20.515625 
Q 46.921875 27.09375 42.890625 30.859375 
Q 38.875 34.625 31.78125 34.625 
z
M 21.921875 38.8125 
Q 15.578125 40.375 12.03125 44.71875 
Q 8.5 49.078125 8.5 55.328125 
Q 8.5 64.0625 14.71875 69.140625 
Q 20.953125 74.21875 31.78125 74.21875 
Q 42.671875 74.21875 48.875 69.140625 
Q 55.078125 64.0625 55.078125 55.328125 
Q 55.078125 49.078125 51.53125 44.71875 
Q 48 40.375 41.703125 38.8125 
Q 48.828125 37.15625 52.796875 32.3125 
Q 56.78125 27.484375 56.78125 20.515625 
Q 56.78125 9.90625 50.3125 4.234375 
Q 43.84375 -1.421875 31.78125 -1.421875 
Q 19.734375 -1.421875 13.25 4.234375 
Q 6.78125 9.90625 6.78125 20.515625 
Q 6.78125 27.484375 10.78125 32.3125 
Q 14.796875 37.15625 21.921875 38.8125 
z
M 18.3125 54.390625 
Q 18.3125 48.734375 21.84375 45.5625 
Q 25.390625 42.390625 31.78125 42.390625 
Q 38.140625 42.390625 41.71875 45.5625 
Q 45.3125 48.734375 45.3125 54.390625 
Q 45.3125 60.0625 41.71875 63.234375 
Q 38.140625 66.40625 31.78125 66.40625 
Q 25.390625 66.40625 21.84375 63.234375 
Q 18.3125 60.0625 18.3125 54.390625 
z
" id="DejaVuSans-56"/>
      </defs>
      <g style="fill:#262626;" transform="translate(210.787075 148.364019)scale(0.088 -0.088)">
       <use xlink:href="#DejaVuSans-48"/>
       <use x="63.623047" xlink:href="#DejaVuSans-46"/>
       <use x="95.410156" xlink:href="#DejaVuSans-48"/>
       <use x="159.033203" xlink:href="#DejaVuSans-48"/>
       <use x="222.65625" xlink:href="#DejaVuSans-56"/>
      </g>
     </g>
    </g>
    <g id="xtick_12">
     <g id="line2d_17">
      <path clip-path="url(#pbfec99953b)" d="M 265.042781 133.377394 
L 265.042781 76.288131 
" style="fill:none;stroke:#cccccc;stroke-linecap:round;stroke-width:0.8;"/>
     </g>
     <g id="text_9">
      <!-- 0.010 -->
      <g style="fill:#262626;" transform="translate(252.446406 148.364019)scale(0.088 -0.088)">
       <use xlink:href="#DejaVuSans-48"/>
       <use x="63.623047" xlink:href="#DejaVuSans-46"/>
       <use x="95.410156" xlink:href="#DejaVuSans-48"/>
       <use x="159.033203" xlink:href="#DejaVuSans-49"/>
       <use x="222.65625" xlink:href="#DejaVuSans-48"/>
      </g>
     </g>
    </g>
    <g id="text_10">
     <!-- $1/N_x$ -->
     <defs>
      <path d="M 25.390625 72.90625 
L 33.6875 72.90625 
L 8.296875 -9.28125 
L 0 -9.28125 
z
" id="DejaVuSans-47"/>
      <path d="M 16.890625 72.90625 
L 30.171875 72.90625 
L 50.296875 10.40625 
L 62.5 72.90625 
L 72.125 72.90625 
L 57.90625 0 
L 44.578125 0 
L 24.515625 62.890625 
L 12.3125 0 
L 2.6875 0 
z
" id="DejaVuSans-Oblique-78"/>
      <path d="M 60.015625 54.6875 
L 34.90625 27.875 
L 50.296875 0 
L 39.984375 0 
L 28.421875 21.6875 
L 8.296875 0 
L -2.59375 0 
L 24.3125 28.8125 
L 10.015625 54.6875 
L 20.3125 54.6875 
L 30.8125 34.90625 
L 49.125 54.6875 
z
" id="DejaVuSans-Oblique-120"/>
     </defs>
     <g style="fill:#262626;" transform="translate(160.893286 161.488644)scale(0.096 -0.096)">
      <use transform="translate(0 0.09375)" xlink:href="#DejaVuSans-49"/>
      <use transform="translate(63.623047 0.09375)" xlink:href="#DejaVuSans-47"/>
      <use transform="translate(97.314453 0.09375)" xlink:href="#DejaVuSans-Oblique-78"/>
      <use transform="translate(172.119141 -16.3125)scale(0.7)" xlink:href="#DejaVuSans-Oblique-120"/>
     </g>
    </g>
   </g>
   <g id="matplotlib.axis_4">
    <g id="ytick_3">
     <g id="line2d_18">
      <path clip-path="url(#pbfec99953b)" d="M 56.746125 127.034143 
L 285.872447 127.034143 
" style="fill:none;stroke:#cccccc;stroke-linecap:round;stroke-width:0.8;"/>
     </g>
     <g id="text_11">
      <!-- 0 -->
      <g style="fill:#262626;" transform="translate(42.847125 130.377455)scale(0.088 -0.088)">
       <use xlink:href="#DejaVuSans-48"/>
      </g>
     </g>
    </g>
    <g id="ytick_4">
     <g id="line2d_19">
      <path clip-path="url(#pbfec99953b)" d="M 56.746125 95.317886 
L 285.872447 95.317886 
" style="fill:none;stroke:#cccccc;stroke-linecap:round;stroke-width:0.8;"/>
     </g>
     <g id="text_12">
      <!-- 1 -->
      <g style="fill:#262626;" transform="translate(42.847125 98.661198)scale(0.088 -0.088)">
       <use xlink:href="#DejaVuSans-49"/>
      </g>
     </g>
    </g>
    <g id="text_13">
     <!-- variance -->
     <defs>
      <path d="M 54.890625 33.015625 
L 54.890625 0 
L 45.90625 0 
L 45.90625 32.71875 
Q 45.90625 40.484375 42.875 44.328125 
Q 39.84375 48.1875 33.796875 48.1875 
Q 26.515625 48.1875 22.3125 43.546875 
Q 18.109375 38.921875 18.109375 30.90625 
L 18.109375 0 
L 9.078125 0 
L 9.078125 54.6875 
L 18.109375 54.6875 
L 18.109375 46.1875 
Q 21.34375 51.125 25.703125 53.5625 
Q 30.078125 56 35.796875 56 
Q 45.21875 56 50.046875 50.171875 
Q 54.890625 44.34375 54.890625 33.015625 
z
" id="DejaVuSans-110"/>
      <path d="M 48.78125 52.59375 
L 48.78125 44.1875 
Q 44.96875 46.296875 41.140625 47.34375 
Q 37.3125 48.390625 33.40625 48.390625 
Q 24.65625 48.390625 19.8125 42.84375 
Q 14.984375 37.3125 14.984375 27.296875 
Q 14.984375 17.28125 19.8125 11.734375 
Q 24.65625 6.203125 33.40625 6.203125 
Q 37.3125 6.203125 41.140625 7.25 
Q 44.96875 8.296875 48.78125 10.40625 
L 48.78125 2.09375 
Q 45.015625 0.34375 40.984375 -0.53125 
Q 36.96875 -1.421875 32.421875 -1.421875 
Q 20.0625 -1.421875 12.78125 6.34375 
Q 5.515625 14.109375 5.515625 27.296875 
Q 5.515625 40.671875 12.859375 48.328125 
Q 20.21875 56 33.015625 56 
Q 37.15625 56 41.109375 55.140625 
Q 45.0625 54.296875 48.78125 52.59375 
z
" id="DejaVuSans-99"/>
     </defs>
     <g style="fill:#262626;" transform="translate(36.850625 125.498263)rotate(-90)scale(0.096 -0.096)">
      <use xlink:href="#DejaVuSans-118"/>
      <use x="59.179688" xlink:href="#DejaVuSans-97"/>
      <use x="120.458984" xlink:href="#DejaVuSans-114"/>
      <use x="161.572266" xlink:href="#DejaVuSans-105"/>
      <use x="189.355469" xlink:href="#DejaVuSans-97"/>
      <use x="250.634766" xlink:href="#DejaVuSans-110"/>
      <use x="314.013672" xlink:href="#DejaVuSans-99"/>
      <use x="368.994141" xlink:href="#DejaVuSans-101"/>
     </g>
    </g>
   </g>
   <g id="PathCollection_4">
    <g clip-path="url(#pbfec99953b)">
     <use style="fill:#4878d0;fill-opacity:0.8;stroke:#4878d0;stroke-opacity:0.8;" x="265.042781" xlink:href="#m397cec51b4" y="98.205051"/>
     <use style="fill:#4878d0;fill-opacity:0.8;stroke:#4878d0;stroke-opacity:0.8;" x="255.123893" xlink:href="#m397cec51b4" y="98.064725"/>
     <use style="fill:#4878d0;fill-opacity:0.8;stroke:#4878d0;stroke-opacity:0.8;" x="242.725282" xlink:href="#m397cec51b4" y="100.604537"/>
     <use style="fill:#4878d0;fill-opacity:0.8;stroke:#4878d0;stroke-opacity:0.8;" x="230.326672" xlink:href="#m397cec51b4" y="99.718076"/>
     <use style="fill:#4878d0;fill-opacity:0.8;stroke:#4878d0;stroke-opacity:0.8;" x="219.477888" xlink:href="#m397cec51b4" y="100.133418"/>
     <use style="fill:#4878d0;fill-opacity:0.8;stroke:#4878d0;stroke-opacity:0.8;" x="207.685731" xlink:href="#m397cec51b4" y="105.111432"/>
     <use style="fill:#4878d0;fill-opacity:0.8;stroke:#4878d0;stroke-opacity:0.8;" x="195.610562" xlink:href="#m397cec51b4" y="101.612879"/>
     <use style="fill:#4878d0;fill-opacity:0.8;stroke:#4878d0;stroke-opacity:0.8;" x="184.535485" xlink:href="#m397cec51b4" y="109.284842"/>
     <use style="fill:#4878d0;fill-opacity:0.8;stroke:#4878d0;stroke-opacity:0.8;" x="172.466489" xlink:href="#m397cec51b4" y="110.934729"/>
     <use style="fill:#4878d0;fill-opacity:0.8;stroke:#4878d0;stroke-opacity:0.8;" x="160.894453" xlink:href="#m397cec51b4" y="110.825308"/>
    </g>
   </g>
   <g id="PathCollection_5">
    <g clip-path="url(#pbfec99953b)">
     <use style="fill:#ee854a;fill-opacity:0.8;stroke:#ee854a;stroke-opacity:0.8;" x="265.042781" xlink:href="#m9834696f9e" y="91.861638"/>
     <use style="fill:#ee854a;fill-opacity:0.8;stroke:#ee854a;stroke-opacity:0.8;" x="255.123893" xlink:href="#m9834696f9e" y="95.244993"/>
     <use style="fill:#ee854a;fill-opacity:0.8;stroke:#ee854a;stroke-opacity:0.8;" x="242.725282" xlink:href="#m9834696f9e" y="89.13785"/>
     <use style="fill:#ee854a;fill-opacity:0.8;stroke:#ee854a;stroke-opacity:0.8;" x="230.326672" xlink:href="#m9834696f9e" y="101.451293"/>
     <use style="fill:#ee854a;fill-opacity:0.8;stroke:#ee854a;stroke-opacity:0.8;" x="219.477888" xlink:href="#m9834696f9e" y="97.373953"/>
     <use style="fill:#ee854a;fill-opacity:0.8;stroke:#ee854a;stroke-opacity:0.8;" x="207.685731" xlink:href="#m9834696f9e" y="104.412028"/>
     <use style="fill:#ee854a;fill-opacity:0.8;stroke:#ee854a;stroke-opacity:0.8;" x="195.610562" xlink:href="#m9834696f9e" y="102.644179"/>
     <use style="fill:#ee854a;fill-opacity:0.8;stroke:#ee854a;stroke-opacity:0.8;" x="184.535485" xlink:href="#m9834696f9e" y="104.854492"/>
     <use style="fill:#ee854a;fill-opacity:0.8;stroke:#ee854a;stroke-opacity:0.8;" x="172.466489" xlink:href="#m9834696f9e" y="106.601616"/>
     <use style="fill:#ee854a;fill-opacity:0.8;stroke:#ee854a;stroke-opacity:0.8;" x="160.894453" xlink:href="#m9834696f9e" y="110.861004"/>
    </g>
   </g>
   <g id="PathCollection_6">
    <g clip-path="url(#pbfec99953b)">
     <use style="fill:#6acc64;fill-opacity:0.8;stroke:#6acc64;stroke-opacity:0.8;" x="265.042781" xlink:href="#m0caafe1df8" y="84.35281"/>
     <use style="fill:#6acc64;fill-opacity:0.8;stroke:#6acc64;stroke-opacity:0.8;" x="255.123893" xlink:href="#m0caafe1df8" y="98.585894"/>
     <use style="fill:#6acc64;fill-opacity:0.8;stroke:#6acc64;stroke-opacity:0.8;" x="242.725282" xlink:href="#m0caafe1df8" y="89.257194"/>
     <use style="fill:#6acc64;fill-opacity:0.8;stroke:#6acc64;stroke-opacity:0.8;" x="230.326672" xlink:href="#m0caafe1df8" y="90.978035"/>
     <use style="fill:#6acc64;fill-opacity:0.8;stroke:#6acc64;stroke-opacity:0.8;" x="219.477888" xlink:href="#m0caafe1df8" y="93.735764"/>
     <use style="fill:#6acc64;fill-opacity:0.8;stroke:#6acc64;stroke-opacity:0.8;" x="207.685731" xlink:href="#m0caafe1df8" y="95.689474"/>
     <use style="fill:#6acc64;fill-opacity:0.8;stroke:#6acc64;stroke-opacity:0.8;" x="195.610562" xlink:href="#m0caafe1df8" y="98.611195"/>
     <use style="fill:#6acc64;fill-opacity:0.8;stroke:#6acc64;stroke-opacity:0.8;" x="184.535485" xlink:href="#m0caafe1df8" y="100.143588"/>
     <use style="fill:#6acc64;fill-opacity:0.8;stroke:#6acc64;stroke-opacity:0.8;" x="172.466489" xlink:href="#m0caafe1df8" y="104.227614"/>
     <use style="fill:#6acc64;fill-opacity:0.8;stroke:#6acc64;stroke-opacity:0.8;" x="160.894453" xlink:href="#m0caafe1df8" y="107.252942"/>
    </g>
   </g>
   <g id="line2d_20">
    <path clip-path="url(#pbfec99953b)" d="M -1 132.169691 
L 2.233857 131.736473 
L 8.718003 130.867837 
L 15.202149 129.999201 
L 21.686296 129.130565 
L 28.170442 128.26193 
L 34.654589 127.393294 
L 41.138735 126.524658 
L 47.622882 125.656022 
L 54.107028 124.787386 
L 60.591175 123.91875 
L 67.075321 123.050114 
L 73.559468 122.181478 
L 80.043614 121.312842 
L 86.527761 120.444206 
L 93.011907 119.57557 
L 99.496054 118.706934 
L 105.9802 117.838298 
L 112.464347 116.969662 
L 118.948493 116.101026 
L 125.43264 115.23239 
L 131.916786 114.363755 
L 138.400933 113.495119 
L 144.885079 112.626483 
L 151.369225 111.757847 
L 157.853372 110.889211 
L 164.337518 110.020575 
L 170.821665 109.151939 
L 177.305811 108.283303 
L 183.789958 107.414667 
L 190.274104 106.546031 
L 196.758251 105.677395 
L 203.242397 104.808759 
L 209.726544 103.940123 
L 216.21069 103.071487 
L 222.694837 102.202851 
L 229.178983 101.334216 
L 235.66313 100.46558 
L 242.147276 99.596944 
L 248.631423 98.728308 
L 255.115569 97.859672 
L 261.599716 96.991036 
L 268.083862 96.1224 
L 274.568009 95.253764 
L 281.052155 94.385128 
L 287.536302 93.516492 
L 294.020448 92.647856 
L 300.504594 91.77922 
L 306.988741 90.910584 
L 313.472887 90.041948 
L 319.957034 89.173312 
L 326.44118 88.304676 
L 332.925327 87.436041 
L 339.409473 86.567405 
L 345.89362 85.698769 
L 352.377766 84.830133 
L 358.861913 83.961497 
L 361.312199 83.633249 
" style="fill:none;stroke:#4878d0;stroke-linecap:round;stroke-width:1.8;"/>
   </g>
   <g id="line2d_21">
    <path clip-path="url(#pbfec99953b)" d="M -1 138.352443 
L 2.233857 137.780634 
L 8.718003 136.634111 
L 15.202149 135.487587 
L 21.686296 134.341064 
L 28.170442 133.19454 
L 34.654589 132.048017 
L 41.138735 130.901494 
L 47.622882 129.75497 
L 54.107028 128.608447 
L 60.591175 127.461923 
L 67.075321 126.3154 
L 73.559468 125.168876 
L 80.043614 124.022353 
L 86.527761 122.87583 
L 93.011907 121.729306 
L 99.496054 120.582783 
L 105.9802 119.436259 
L 112.464347 118.289736 
L 118.948493 117.143213 
L 125.43264 115.996689 
L 131.916786 114.850166 
L 138.400933 113.703642 
L 144.885079 112.557119 
L 151.369225 111.410596 
L 157.853372 110.264072 
L 164.337518 109.117549 
L 170.821665 107.971025 
L 177.305811 106.824502 
L 183.789958 105.677979 
L 190.274104 104.531455 
L 196.758251 103.384932 
L 203.242397 102.238408 
L 209.726544 101.091885 
L 216.21069 99.945361 
L 222.694837 98.798838 
L 229.178983 97.652315 
L 235.66313 96.505791 
L 242.147276 95.359268 
L 248.631423 94.212744 
L 255.115569 93.066221 
L 261.599716 91.919698 
L 268.083862 90.773174 
L 274.568009 89.626651 
L 281.052155 88.480127 
L 287.536302 87.333604 
L 294.020448 86.187081 
L 300.504594 85.040557 
L 306.988741 83.894034 
L 313.472887 82.74751 
L 319.957034 81.600987 
L 326.44118 80.454464 
L 332.925327 79.30794 
L 339.409473 78.161417 
L 345.89362 77.014893 
L 352.377766 75.86837 
L 358.861913 74.721847 
L 361.312199 74.288588 
" style="fill:none;stroke:#ee854a;stroke-linecap:round;stroke-width:1.8;"/>
   </g>
   <g id="line2d_22">
    <path clip-path="url(#pbfec99953b)" d="M -1 132.28889 
L 2.233857 131.745781 
L 8.718003 130.656805 
L 15.202149 129.567828 
L 21.686296 128.478851 
L 28.170442 127.389875 
L 34.654589 126.300898 
L 41.138735 125.211921 
L 47.622882 124.122945 
L 54.107028 123.033968 
L 60.591175 121.944991 
L 67.075321 120.856014 
L 73.559468 119.767038 
L 80.043614 118.678061 
L 86.527761 117.589084 
L 93.011907 116.500108 
L 99.496054 115.411131 
L 105.9802 114.322154 
L 112.464347 113.233178 
L 118.948493 112.144201 
L 125.43264 111.055224 
L 131.916786 109.966248 
L 138.400933 108.877271 
L 144.885079 107.788294 
L 151.369225 106.699318 
L 157.853372 105.610341 
L 164.337518 104.521364 
L 170.821665 103.432387 
L 177.305811 102.343411 
L 183.789958 101.254434 
L 190.274104 100.165457 
L 196.758251 99.076481 
L 203.242397 97.987504 
L 209.726544 96.898527 
L 216.21069 95.809551 
L 222.694837 94.720574 
L 229.178983 93.631597 
L 235.66313 92.542621 
L 242.147276 91.453644 
L 248.631423 90.364667 
L 255.115569 89.275691 
L 261.599716 88.186714 
L 268.083862 87.097737 
L 274.568009 86.00876 
L 281.052155 84.919784 
L 287.536302 83.830807 
L 294.020448 82.74183 
L 300.504594 81.652854 
L 306.988741 80.563877 
L 313.472887 79.4749 
L 319.957034 78.385924 
L 326.44118 77.296947 
L 332.925327 76.20797 
L 339.409473 75.118994 
L 345.89362 74.030017 
L 352.377766 72.94104 
L 358.861913 71.852064 
L 361.312199 71.440551 
" style="fill:none;stroke:#6acc64;stroke-linecap:round;stroke-width:1.8;"/>
   </g>
   <g id="patch_6">
    <path d="M 56.746125 133.377394 
L 56.746125 76.288131 
" style="fill:none;stroke:#cccccc;stroke-linecap:square;stroke-linejoin:miter;"/>
   </g>
   <g id="patch_7">
    <path d="M 56.746125 133.377394 
L 285.872447 133.377394 
" style="fill:none;stroke:#cccccc;stroke-linecap:square;stroke-linejoin:miter;"/>
   </g>
  </g>
  <g id="legend_1">
   <g id="text_14">
    <!-- sparsity -->
    <defs>
     <path d="M 44.28125 53.078125 
L 44.28125 44.578125 
Q 40.484375 46.53125 36.375 47.5 
Q 32.28125 48.484375 27.875 48.484375 
Q 21.1875 48.484375 17.84375 46.4375 
Q 14.5 44.390625 14.5 40.28125 
Q 14.5 37.15625 16.890625 35.375 
Q 19.28125 33.59375 26.515625 31.984375 
L 29.59375 31.296875 
Q 39.15625 29.25 43.1875 25.515625 
Q 47.21875 21.78125 47.21875 15.09375 
Q 47.21875 7.46875 41.1875 3.015625 
Q 35.15625 -1.421875 24.609375 -1.421875 
Q 20.21875 -1.421875 15.453125 -0.5625 
Q 10.6875 0.296875 5.421875 2 
L 5.421875 11.28125 
Q 10.40625 8.6875 15.234375 7.390625 
Q 20.0625 6.109375 24.8125 6.109375 
Q 31.15625 6.109375 34.5625 8.28125 
Q 37.984375 10.453125 37.984375 14.40625 
Q 37.984375 18.0625 35.515625 20.015625 
Q 33.0625 21.96875 24.703125 23.78125 
L 21.578125 24.515625 
Q 13.234375 26.265625 9.515625 29.90625 
Q 5.8125 33.546875 5.8125 39.890625 
Q 5.8125 47.609375 11.28125 51.796875 
Q 16.75 56 26.8125 56 
Q 31.78125 56 36.171875 55.265625 
Q 40.578125 54.546875 44.28125 53.078125 
z
" id="DejaVuSans-115"/>
     <path d="M 18.109375 8.203125 
L 18.109375 -20.796875 
L 9.078125 -20.796875 
L 9.078125 54.6875 
L 18.109375 54.6875 
L 18.109375 46.390625 
Q 20.953125 51.265625 25.265625 53.625 
Q 29.59375 56 35.59375 56 
Q 45.5625 56 51.78125 48.09375 
Q 58.015625 40.1875 58.015625 27.296875 
Q 58.015625 14.40625 51.78125 6.484375 
Q 45.5625 -1.421875 35.59375 -1.421875 
Q 29.59375 -1.421875 25.265625 0.953125 
Q 20.953125 3.328125 18.109375 8.203125 
z
M 48.6875 27.296875 
Q 48.6875 37.203125 44.609375 42.84375 
Q 40.53125 48.484375 33.40625 48.484375 
Q 26.265625 48.484375 22.1875 42.84375 
Q 18.109375 37.203125 18.109375 27.296875 
Q 18.109375 17.390625 22.1875 11.75 
Q 26.265625 6.109375 33.40625 6.109375 
Q 40.53125 6.109375 44.609375 11.75 
Q 48.6875 17.390625 48.6875 27.296875 
z
" id="DejaVuSans-112"/>
     <path d="M 32.171875 -5.078125 
Q 28.375 -14.84375 24.75 -17.8125 
Q 21.140625 -20.796875 15.09375 -20.796875 
L 7.90625 -20.796875 
L 7.90625 -13.28125 
L 13.1875 -13.28125 
Q 16.890625 -13.28125 18.9375 -11.515625 
Q 21 -9.765625 23.484375 -3.21875 
L 25.09375 0.875 
L 2.984375 54.6875 
L 12.5 54.6875 
L 29.59375 11.921875 
L 46.6875 54.6875 
L 56.203125 54.6875 
z
" id="DejaVuSans-121"/>
    </defs>
    <g style="fill:#262626;" transform="translate(305.710462 68.219097)scale(0.0816 -0.0816)">
     <use xlink:href="#DejaVuSans-115"/>
     <use x="52.099609" xlink:href="#DejaVuSans-112"/>
     <use x="115.576172" xlink:href="#DejaVuSans-97"/>
     <use x="176.855469" xlink:href="#DejaVuSans-114"/>
     <use x="217.96875" xlink:href="#DejaVuSans-115"/>
     <use x="270.068359" xlink:href="#DejaVuSans-105"/>
     <use x="297.851562" xlink:href="#DejaVuSans-116"/>
     <use x="337.060547" xlink:href="#DejaVuSans-121"/>
    </g>
   </g>
   <g id="PathCollection_7">
    <g>
     <use style="fill:#4878d0;fill-opacity:0.8;stroke:#4878d0;stroke-opacity:0.8;" x="300.161449" xlink:href="#m397cec51b4" y="78.692747"/>
    </g>
   </g>
   <g id="text_15">
    <!-- 500.0 -->
    <defs>
     <path d="M 10.796875 72.90625 
L 49.515625 72.90625 
L 49.515625 64.59375 
L 19.828125 64.59375 
L 19.828125 46.734375 
Q 21.96875 47.46875 24.109375 47.828125 
Q 26.265625 48.1875 28.421875 48.1875 
Q 40.625 48.1875 47.75 41.5 
Q 54.890625 34.8125 54.890625 23.390625 
Q 54.890625 11.625 47.5625 5.09375 
Q 40.234375 -1.421875 26.90625 -1.421875 
Q 22.3125 -1.421875 17.546875 -0.640625 
Q 12.796875 0.140625 7.71875 1.703125 
L 7.71875 11.625 
Q 12.109375 9.234375 16.796875 8.0625 
Q 21.484375 6.890625 26.703125 6.890625 
Q 35.15625 6.890625 40.078125 11.328125 
Q 45.015625 15.765625 45.015625 23.390625 
Q 45.015625 31 40.078125 35.4375 
Q 35.15625 39.890625 26.703125 39.890625 
Q 22.75 39.890625 18.8125 39.015625 
Q 14.890625 38.140625 10.796875 36.28125 
z
" id="DejaVuSans-53"/>
    </defs>
    <g style="fill:#262626;" transform="translate(316.001449 81.002747)scale(0.088 -0.088)">
     <use xlink:href="#DejaVuSans-53"/>
     <use x="63.623047" xlink:href="#DejaVuSans-48"/>
     <use x="127.246094" xlink:href="#DejaVuSans-48"/>
     <use x="190.869141" xlink:href="#DejaVuSans-46"/>
     <use x="222.65625" xlink:href="#DejaVuSans-48"/>
    </g>
   </g>
   <g id="PathCollection_8">
    <g>
     <use style="fill:#ee854a;fill-opacity:0.8;stroke:#ee854a;stroke-opacity:0.8;" x="300.161449" xlink:href="#m9834696f9e" y="91.609497"/>
    </g>
   </g>
   <g id="text_16">
    <!-- 5250.0 -->
    <g style="fill:#262626;" transform="translate(316.001449 93.919497)scale(0.088 -0.088)">
     <use xlink:href="#DejaVuSans-53"/>
     <use x="63.623047" xlink:href="#DejaVuSans-50"/>
     <use x="127.246094" xlink:href="#DejaVuSans-53"/>
     <use x="190.869141" xlink:href="#DejaVuSans-48"/>
     <use x="254.492188" xlink:href="#DejaVuSans-46"/>
     <use x="286.279297" xlink:href="#DejaVuSans-48"/>
    </g>
   </g>
   <g id="PathCollection_9">
    <g>
     <use style="fill:#6acc64;fill-opacity:0.8;stroke:#6acc64;stroke-opacity:0.8;" x="300.161449" xlink:href="#m0caafe1df8" y="104.526247"/>
    </g>
   </g>
   <g id="text_17">
    <!-- 10000.0 -->
    <g style="fill:#262626;" transform="translate(316.001449 106.836247)scale(0.088 -0.088)">
     <use xlink:href="#DejaVuSans-49"/>
     <use x="63.623047" xlink:href="#DejaVuSans-48"/>
     <use x="127.246094" xlink:href="#DejaVuSans-48"/>
     <use x="190.869141" xlink:href="#DejaVuSans-48"/>
     <use x="254.492188" xlink:href="#DejaVuSans-48"/>
     <use x="318.115234" xlink:href="#DejaVuSans-46"/>
     <use x="349.902344" xlink:href="#DejaVuSans-48"/>
    </g>
   </g>
  </g>
 </g>
 <defs>
  <clipPath id="p0626fc0bc7">
   <rect height="57.089263" width="229.126322" x="56.746125" y="10.198869"/>
  </clipPath>
  <clipPath id="pbfec99953b">
   <rect height="57.089263" width="229.126322" x="56.746125" y="76.288131"/>
  </clipPath>
 </defs>
</svg>
