<?xml version="1.0" encoding="utf-8" standalone="no"?>
<!DOCTYPE svg PUBLIC "-//W3C//DTD SVG 1.1//EN"
  "http://www.w3.org/Graphics/SVG/1.1/DTD/svg11.dtd">
<!-- Created with matplotlib (https://matplotlib.org/) -->
<svg height="171.738582pt" version="1.1" viewBox="0 0 359.245789 171.738582" width="359.245789pt" xmlns="http://www.w3.org/2000/svg" xmlns:xlink="http://www.w3.org/1999/xlink">
 <defs>
  <style type="text/css">
*{stroke-linecap:butt;stroke-linejoin:round;}
  </style>
 </defs>
 <g id="figure_1">
  <g id="patch_1">
   <path d="M 0 171.738582 
L 359.245789 171.738582 
L 359.245789 0 
L 0 0 
z
" style="fill:#ffffff;"/>
  </g>
  <g id="axes_1">
   <g id="patch_2">
    <path d="M 59.645313 68.099319 
L 288.491586 68.099319 
L 288.491586 12.016306 
L 59.645313 12.016306 
z
" style="fill:#ffffff;"/>
   </g>
   <g id="PathCollection_1">
    <defs>
     <path d="M 0 3 
C 0.795609 3 1.55874 2.683901 2.12132 2.12132 
C 2.683901 1.55874 3 0.795609 3 0 
C 3 -0.795609 2.683901 -1.55874 2.12132 -2.12132 
C 1.55874 -2.683901 0.795609 -3 0 -3 
C -0.795609 -3 -1.55874 -2.683901 -2.12132 -2.12132 
C -2.683901 -1.55874 -3 -0.795609 -3 0 
C -3 0.795609 -2.683901 1.55874 -2.12132 2.12132 
C -1.55874 2.683901 -0.795609 3 0 3 
z
" id="m0efbf31e4f" style="stroke:#1f77b4;stroke-opacity:0.8;"/>
    </defs>
    <g clip-path="url(#pea835d7a60)">
     <use style="fill:#1f77b4;fill-opacity:0.8;stroke:#1f77b4;stroke-opacity:0.8;" x="267.687379" xlink:href="#m0efbf31e4f" y="57.951379"/>
     <use style="fill:#1f77b4;fill-opacity:0.8;stroke:#1f77b4;stroke-opacity:0.8;" x="257.780614" xlink:href="#m0efbf31e4f" y="57.113101"/>
     <use style="fill:#1f77b4;fill-opacity:0.8;stroke:#1f77b4;stroke-opacity:0.8;" x="245.397158" xlink:href="#m0efbf31e4f" y="56.621435"/>
     <use style="fill:#1f77b4;fill-opacity:0.8;stroke:#1f77b4;stroke-opacity:0.8;" x="233.013702" xlink:href="#m0efbf31e4f" y="55.724315"/>
     <use style="fill:#1f77b4;fill-opacity:0.8;stroke:#1f77b4;stroke-opacity:0.8;" x="222.178177" xlink:href="#m0efbf31e4f" y="57.535104"/>
     <use style="fill:#1f77b4;fill-opacity:0.8;stroke:#1f77b4;stroke-opacity:0.8;" x="210.400433" xlink:href="#m0efbf31e4f" y="55.678776"/>
     <use style="fill:#1f77b4;fill-opacity:0.8;stroke:#1f77b4;stroke-opacity:0.8;" x="198.340024" xlink:href="#m0efbf31e4f" y="56.408077"/>
     <use style="fill:#1f77b4;fill-opacity:0.8;stroke:#1f77b4;stroke-opacity:0.8;" x="187.278482" xlink:href="#m0efbf31e4f" y="56.516003"/>
     <use style="fill:#1f77b4;fill-opacity:0.8;stroke:#1f77b4;stroke-opacity:0.8;" x="175.224239" xlink:href="#m0efbf31e4f" y="57.645932"/>
     <use style="fill:#1f77b4;fill-opacity:0.8;stroke:#1f77b4;stroke-opacity:0.8;" x="163.666346" xlink:href="#m0efbf31e4f" y="57.595993"/>
    </g>
   </g>
   <g id="PolyCollection_1">
    <path clip-path="url(#pea835d7a60)" d="M -136.208344 49.826426 
L -136.208344 62.618492 
L -129.099552 62.492135 
L -121.99076 62.365778 
L -114.881968 62.239421 
L -107.773176 62.113064 
L -100.664384 61.986707 
L -93.555591 61.86035 
L -86.446799 61.733993 
L -79.338007 61.607636 
L -72.229215 61.481279 
L -65.120423 61.354922 
L -58.011631 61.228565 
L -50.902839 61.102208 
L -43.794047 60.975851 
L -36.685255 60.849494 
L -29.576463 60.723344 
L -22.467671 60.605316 
L -15.358879 60.494535 
L -8.250087 60.383754 
L -1.141295 60.260059 
L 5.967497 60.131325 
L 13.076289 60.008604 
L 20.185081 59.889739 
L 27.293873 59.770874 
L 34.402665 59.652009 
L 41.511457 59.53283 
L 48.62025 59.413389 
L 55.729042 59.293949 
L 62.837834 59.174508 
L 69.946626 59.055068 
L 77.055418 58.935898 
L 84.16421 58.817082 
L 91.273002 58.704153 
L 98.381794 58.579048 
L 105.490586 58.460229 
L 112.599378 58.340511 
L 119.70817 58.205027 
L 126.816962 58.101397 
L 133.925754 57.983156 
L 141.034546 57.851396 
L 148.143338 57.745415 
L 155.25213 57.64398 
L 162.360922 57.537082 
L 169.469714 57.44181 
L 176.578506 57.385913 
L 183.687298 57.35949 
L 190.796091 57.326437 
L 197.904883 57.314471 
L 205.013675 57.302518 
L 212.122467 57.304451 
L 219.231259 57.317517 
L 226.340051 57.341834 
L 233.448843 57.376098 
L 240.557635 57.416302 
L 247.666427 57.444679 
L 254.775219 57.506657 
L 261.884011 57.564264 
L 268.992803 57.647737 
L 276.101595 57.735191 
L 283.210387 57.849643 
L 290.319179 57.95371 
L 297.427971 58.06354 
L 304.536763 58.199659 
L 311.645555 58.30195 
L 318.754347 58.4625 
L 325.863139 58.609375 
L 332.971932 58.730837 
L 340.080724 58.8523 
L 347.189516 58.991323 
L 354.298308 59.128563 
L 361.4071 59.25078 
L 368.515892 59.370859 
L 375.624684 59.484217 
L 382.733476 59.611443 
L 389.842268 59.732046 
L 396.95106 59.852635 
L 404.059852 59.980559 
L 411.168644 60.130737 
L 418.277436 60.277163 
L 425.386228 60.405358 
L 432.49502 60.540706 
L 439.603812 60.68849 
L 446.712604 60.833191 
L 453.821396 60.951283 
L 460.930188 61.068947 
L 468.03898 61.186609 
L 475.147773 61.321551 
L 482.256565 61.458565 
L 489.365357 61.595561 
L 496.474149 61.732557 
L 503.582941 61.869554 
L 510.691733 61.993387 
L 517.800525 62.116889 
L 524.909317 62.240391 
L 532.018109 62.369328 
L 539.126901 62.503228 
L 546.235693 62.637015 
L 553.344485 62.770801 
L 560.453277 62.904588 
L 567.562069 63.038375 
L 567.562069 50.404158 
L 567.562069 50.404158 
L 560.453277 50.525027 
L 553.344485 50.645896 
L 546.235693 50.766765 
L 539.126901 50.887634 
L 532.018109 51.013043 
L 524.909317 51.139382 
L 517.800525 51.265721 
L 510.691733 51.39206 
L 503.582941 51.518399 
L 496.474149 51.64476 
L 489.365357 51.770357 
L 482.256565 51.891976 
L 475.147773 52.013596 
L 468.03898 52.135216 
L 460.930188 52.256836 
L 453.821396 52.378455 
L 446.712604 52.500075 
L 439.603812 52.626509 
L 432.49502 52.753097 
L 425.386228 52.879686 
L 418.277436 53.006274 
L 411.168644 53.132863 
L 404.059852 53.259451 
L 396.95106 53.37897 
L 389.842268 53.495991 
L 382.733476 53.613013 
L 375.624684 53.730035 
L 368.515892 53.847057 
L 361.4071 53.964078 
L 354.298308 54.0811 
L 347.189516 54.200853 
L 340.080724 54.322227 
L 332.971932 54.443602 
L 325.863139 54.564976 
L 318.754347 54.68635 
L 311.645555 54.807834 
L 304.536763 54.928848 
L 297.427971 55.051177 
L 290.319179 55.172518 
L 283.210387 55.293859 
L 276.101595 55.415351 
L 268.992803 55.530674 
L 261.884011 55.63098 
L 254.775219 55.740737 
L 247.666427 55.865658 
L 240.557635 55.990756 
L 233.448843 56.094851 
L 226.340051 56.200335 
L 219.231259 56.244081 
L 212.122467 56.267468 
L 205.013675 56.167755 
L 197.904883 56.059726 
L 190.796091 55.931927 
L 183.687298 55.813778 
L 176.578506 55.6957 
L 169.469714 55.577776 
L 162.360922 55.459851 
L 155.25213 55.337662 
L 148.143338 55.220867 
L 141.034546 55.103727 
L 133.925754 54.964317 
L 126.816962 54.814075 
L 119.70817 54.663833 
L 112.599378 54.513926 
L 105.490586 54.384328 
L 98.381794 54.268484 
L 91.273002 54.141119 
L 84.16421 53.995294 
L 77.055418 53.84957 
L 69.946626 53.703847 
L 62.837834 53.567652 
L 55.729042 53.44164 
L 48.62025 53.315936 
L 41.511457 53.190263 
L 34.402665 53.06459 
L 27.293873 52.938916 
L 20.185081 52.813243 
L 13.076289 52.687569 
L 5.967497 52.55224 
L -1.141295 52.408049 
L -8.250087 52.263859 
L -15.358879 52.119668 
L -22.467671 51.975478 
L -29.576463 51.831287 
L -36.685255 51.687096 
L -43.794047 51.552221 
L -50.902839 51.419215 
L -58.011631 51.286306 
L -65.120423 51.153566 
L -72.229215 51.020826 
L -79.338007 50.888087 
L -86.446799 50.755347 
L -93.555591 50.622607 
L -100.664384 50.489867 
L -107.773176 50.357128 
L -114.881968 50.224388 
L -121.99076 50.091689 
L -129.099552 49.959057 
L -136.208344 49.826426 
z
" style="fill:#1f77b4;fill-opacity:0.15;"/>
   </g>
   <g id="PathCollection_2">
    <defs>
     <path d="M 0 3 
C 0.795609 3 1.55874 2.683901 2.12132 2.12132 
C 2.683901 1.55874 3 0.795609 3 0 
C 3 -0.795609 2.683901 -1.55874 2.12132 -2.12132 
C 1.55874 -2.683901 0.795609 -3 0 -3 
C -0.795609 -3 -1.55874 -2.683901 -2.12132 -2.12132 
C -2.683901 -1.55874 -3 -0.795609 -3 0 
C -3 0.795609 -2.683901 1.55874 -2.12132 2.12132 
C -1.55874 2.683901 -0.795609 3 0 3 
z
" id="m04a40bd691" style="stroke:#ff7f0e;stroke-opacity:0.8;"/>
    </defs>
    <g clip-path="url(#pea835d7a60)">
     <use style="fill:#ff7f0e;fill-opacity:0.8;stroke:#ff7f0e;stroke-opacity:0.8;" x="267.687379" xlink:href="#m04a40bd691" y="41.170188"/>
     <use style="fill:#ff7f0e;fill-opacity:0.8;stroke:#ff7f0e;stroke-opacity:0.8;" x="257.780614" xlink:href="#m04a40bd691" y="41.458473"/>
     <use style="fill:#ff7f0e;fill-opacity:0.8;stroke:#ff7f0e;stroke-opacity:0.8;" x="245.397158" xlink:href="#m04a40bd691" y="41.790178"/>
     <use style="fill:#ff7f0e;fill-opacity:0.8;stroke:#ff7f0e;stroke-opacity:0.8;" x="233.013702" xlink:href="#m04a40bd691" y="41.03019"/>
     <use style="fill:#ff7f0e;fill-opacity:0.8;stroke:#ff7f0e;stroke-opacity:0.8;" x="222.178177" xlink:href="#m04a40bd691" y="40.86788"/>
     <use style="fill:#ff7f0e;fill-opacity:0.8;stroke:#ff7f0e;stroke-opacity:0.8;" x="210.400433" xlink:href="#m04a40bd691" y="41.599095"/>
     <use style="fill:#ff7f0e;fill-opacity:0.8;stroke:#ff7f0e;stroke-opacity:0.8;" x="198.340024" xlink:href="#m04a40bd691" y="40.676757"/>
     <use style="fill:#ff7f0e;fill-opacity:0.8;stroke:#ff7f0e;stroke-opacity:0.8;" x="187.278482" xlink:href="#m04a40bd691" y="41.037515"/>
     <use style="fill:#ff7f0e;fill-opacity:0.8;stroke:#ff7f0e;stroke-opacity:0.8;" x="175.224239" xlink:href="#m04a40bd691" y="41.001312"/>
     <use style="fill:#ff7f0e;fill-opacity:0.8;stroke:#ff7f0e;stroke-opacity:0.8;" x="163.666346" xlink:href="#m04a40bd691" y="41.313204"/>
    </g>
   </g>
   <g id="PolyCollection_2">
    <path clip-path="url(#pea835d7a60)" d="M -136.208344 37.757874 
L -136.208344 41.732619 
L -129.099552 41.718256 
L -121.99076 41.703892 
L -114.881968 41.690517 
L -107.773176 41.677538 
L -100.664384 41.664559 
L -93.555591 41.65158 
L -86.446799 41.638601 
L -79.338007 41.625622 
L -72.229215 41.612643 
L -65.120423 41.599117 
L -58.011631 41.586745 
L -50.902839 41.573942 
L -43.794047 41.561139 
L -36.685255 41.548336 
L -29.576463 41.535315 
L -22.467671 41.522284 
L -15.358879 41.509252 
L -8.250087 41.496221 
L -1.141295 41.483189 
L 5.967497 41.470014 
L 13.076289 41.453906 
L 20.185081 41.443999 
L 27.293873 41.431336 
L 34.402665 41.421069 
L 41.511457 41.409714 
L 48.62025 41.398146 
L 55.729042 41.385464 
L 62.837834 41.3751 
L 69.946626 41.367568 
L 77.055418 41.361027 
L 84.16421 41.353979 
L 91.273002 41.346194 
L 98.381794 41.336651 
L 105.490586 41.332639 
L 112.599378 41.331834 
L 119.70817 41.329822 
L 126.816962 41.313701 
L 133.925754 41.309909 
L 141.034546 41.31033 
L 148.143338 41.310167 
L 155.25213 41.299547 
L 162.360922 41.29703 
L 169.469714 41.296022 
L 176.578506 41.30772 
L 183.687298 41.312075 
L 190.796091 41.319574 
L 197.904883 41.335213 
L 205.013675 41.342491 
L 212.122467 41.372857 
L 219.231259 41.403928 
L 226.340051 41.435348 
L 233.448843 41.47868 
L 240.557635 41.522141 
L 247.666427 41.573805 
L 254.775219 41.63045 
L 261.884011 41.684967 
L 268.992803 41.74447 
L 276.101595 41.797336 
L 283.210387 41.875462 
L 290.319179 41.93868 
L 297.427971 42.001783 
L 304.536763 42.078377 
L 311.645555 42.150373 
L 318.754347 42.213311 
L 325.863139 42.278327 
L 332.971932 42.346566 
L 340.080724 42.411819 
L 347.189516 42.477317 
L 354.298308 42.542815 
L 361.4071 42.608313 
L 368.515892 42.673811 
L 375.624684 42.739309 
L 382.733476 42.804807 
L 389.842268 42.870182 
L 396.95106 42.93543 
L 404.059852 43.000678 
L 411.168644 43.065926 
L 418.277436 43.131174 
L 425.386228 43.196422 
L 432.49502 43.26167 
L 439.603812 43.326918 
L 446.712604 43.392166 
L 453.821396 43.457414 
L 460.930188 43.522662 
L 468.03898 43.58791 
L 475.147773 43.653158 
L 482.256565 43.718257 
L 489.365357 43.780176 
L 496.474149 43.842374 
L 503.582941 43.908741 
L 510.691733 43.975107 
L 517.800525 44.041474 
L 524.909317 44.107841 
L 532.018109 44.174207 
L 539.126901 44.241232 
L 546.235693 44.307285 
L 553.344485 44.37386 
L 560.453277 44.440434 
L 567.562069 44.507009 
L 567.562069 40.454455 
L 567.562069 40.454455 
L 560.453277 40.465838 
L 553.344485 40.47722 
L 546.235693 40.488603 
L 539.126901 40.500106 
L 532.018109 40.512766 
L 524.909317 40.525452 
L 517.800525 40.53814 
L 510.691733 40.550828 
L 503.582941 40.56354 
L 496.474149 40.576485 
L 489.365357 40.58943 
L 482.256565 40.602375 
L 475.147773 40.61532 
L 468.03898 40.628265 
L 460.930188 40.64121 
L 453.821396 40.654155 
L 446.712604 40.6671 
L 439.603812 40.680045 
L 432.49502 40.692989 
L 425.386228 40.705934 
L 418.277436 40.718879 
L 411.168644 40.731824 
L 404.059852 40.744769 
L 396.95106 40.757714 
L 389.842268 40.772679 
L 382.733476 40.788539 
L 375.624684 40.801105 
L 368.515892 40.81367 
L 361.4071 40.823951 
L 354.298308 40.835416 
L 347.189516 40.848427 
L 340.080724 40.863136 
L 332.971932 40.876497 
L 325.863139 40.889063 
L 318.754347 40.901628 
L 311.645555 40.914194 
L 304.536763 40.926759 
L 297.427971 40.938978 
L 290.319179 40.945501 
L 283.210387 40.956075 
L 276.101595 40.967847 
L 268.992803 40.972196 
L 261.884011 40.984746 
L 254.775219 40.985555 
L 247.666427 40.983893 
L 240.557635 40.992764 
L 233.448843 41.007853 
L 226.340051 41.002299 
L 219.231259 40.984133 
L 212.122467 40.971485 
L 205.013675 40.935004 
L 197.904883 40.887357 
L 190.796091 40.835953 
L 183.687298 40.771695 
L 176.578506 40.714706 
L 169.469714 40.653728 
L 162.360922 40.583983 
L 155.25213 40.523283 
L 148.143338 40.462635 
L 141.034546 40.399676 
L 133.925754 40.336491 
L 126.816962 40.273747 
L 119.70817 40.214154 
L 112.599378 40.151605 
L 105.490586 40.089057 
L 98.381794 40.025731 
L 91.273002 39.963139 
L 84.16421 39.89801 
L 77.055418 39.832777 
L 69.946626 39.758259 
L 62.837834 39.687628 
L 55.729042 39.628015 
L 48.62025 39.568402 
L 41.511457 39.50606 
L 34.402665 39.440922 
L 27.293873 39.375784 
L 20.185081 39.305989 
L 13.076289 39.22978 
L 5.967497 39.162664 
L -1.141295 39.09963 
L -8.250087 39.036595 
L -15.358879 38.968693 
L -22.467671 38.896847 
L -29.576463 38.825 
L -36.685255 38.753153 
L -43.794047 38.681306 
L -50.902839 38.60946 
L -58.011631 38.537613 
L -65.120423 38.465766 
L -72.229215 38.393919 
L -79.338007 38.323788 
L -86.446799 38.256854 
L -93.555591 38.190975 
L -100.664384 38.122884 
L -107.773176 38.051711 
L -114.881968 37.975651 
L -121.99076 37.90294 
L -129.099552 37.83031 
L -136.208344 37.757874 
z
" style="fill:#ff7f0e;fill-opacity:0.15;"/>
   </g>
   <g id="PathCollection_3">
    <defs>
     <path d="M 0 3 
C 0.795609 3 1.55874 2.683901 2.12132 2.12132 
C 2.683901 1.55874 3 0.795609 3 0 
C 3 -0.795609 2.683901 -1.55874 2.12132 -2.12132 
C 1.55874 -2.683901 0.795609 -3 0 -3 
C -0.795609 -3 -1.55874 -2.683901 -2.12132 -2.12132 
C -2.683901 -1.55874 -3 -0.795609 -3 0 
C -3 0.795609 -2.683901 1.55874 -2.12132 2.12132 
C -1.55874 2.683901 -0.795609 3 0 3 
z
" id="m8b8deecf18" style="stroke:#2ca02c;stroke-opacity:0.8;"/>
    </defs>
    <g clip-path="url(#pea835d7a60)">
     <use style="fill:#2ca02c;fill-opacity:0.8;stroke:#2ca02c;stroke-opacity:0.8;" x="267.687379" xlink:href="#m8b8deecf18" y="25.663509"/>
     <use style="fill:#2ca02c;fill-opacity:0.8;stroke:#2ca02c;stroke-opacity:0.8;" x="257.780614" xlink:href="#m8b8deecf18" y="25.376866"/>
     <use style="fill:#2ca02c;fill-opacity:0.8;stroke:#2ca02c;stroke-opacity:0.8;" x="245.397158" xlink:href="#m8b8deecf18" y="24.823689"/>
     <use style="fill:#2ca02c;fill-opacity:0.8;stroke:#2ca02c;stroke-opacity:0.8;" x="233.013702" xlink:href="#m8b8deecf18" y="25.448928"/>
     <use style="fill:#2ca02c;fill-opacity:0.8;stroke:#2ca02c;stroke-opacity:0.8;" x="222.178177" xlink:href="#m8b8deecf18" y="25.422997"/>
     <use style="fill:#2ca02c;fill-opacity:0.8;stroke:#2ca02c;stroke-opacity:0.8;" x="210.400433" xlink:href="#m8b8deecf18" y="25.143889"/>
     <use style="fill:#2ca02c;fill-opacity:0.8;stroke:#2ca02c;stroke-opacity:0.8;" x="198.340024" xlink:href="#m8b8deecf18" y="25.381503"/>
     <use style="fill:#2ca02c;fill-opacity:0.8;stroke:#2ca02c;stroke-opacity:0.8;" x="187.278482" xlink:href="#m8b8deecf18" y="25.259955"/>
     <use style="fill:#2ca02c;fill-opacity:0.8;stroke:#2ca02c;stroke-opacity:0.8;" x="175.224239" xlink:href="#m8b8deecf18" y="25.62723"/>
     <use style="fill:#2ca02c;fill-opacity:0.8;stroke:#2ca02c;stroke-opacity:0.8;" x="163.666346" xlink:href="#m8b8deecf18" y="25.36786"/>
    </g>
   </g>
   <g id="PolyCollection_3">
    <path clip-path="url(#pea835d7a60)" d="M -136.208344 23.955999 
L -136.208344 27.549865 
L -129.099552 27.50321 
L -121.99076 27.456555 
L -114.881968 27.409899 
L -107.773176 27.363244 
L -100.664384 27.316589 
L -93.555591 27.269926 
L -86.446799 27.223224 
L -79.338007 27.176522 
L -72.229215 27.129821 
L -65.120423 27.083119 
L -58.011631 27.036417 
L -50.902839 26.989715 
L -43.794047 26.940827 
L -36.685255 26.896446 
L -29.576463 26.849858 
L -22.467671 26.800482 
L -15.358879 26.749596 
L -8.250087 26.698709 
L -1.141295 26.647847 
L 5.967497 26.603492 
L 13.076289 26.559138 
L 20.185081 26.514784 
L 27.293873 26.470413 
L 34.402665 26.426029 
L 41.511457 26.380535 
L 48.62025 26.33281 
L 55.729042 26.289017 
L 62.837834 26.24658 
L 69.946626 26.204074 
L 77.055418 26.160231 
L 84.16421 26.115981 
L 91.273002 26.071731 
L 98.381794 26.027481 
L 105.490586 25.983171 
L 112.599378 25.93872 
L 119.70817 25.886877 
L 126.816962 25.83578 
L 133.925754 25.79172 
L 141.034546 25.752309 
L 148.143338 25.713062 
L 155.25213 25.67014 
L 162.360922 25.624327 
L 169.469714 25.581406 
L 176.578506 25.534859 
L 183.687298 25.510204 
L 190.796091 25.488003 
L 197.904883 25.480092 
L 205.013675 25.474872 
L 212.122467 25.482784 
L 219.231259 25.487676 
L 226.340051 25.492257 
L 233.448843 25.506108 
L 240.557635 25.519005 
L 247.666427 25.536032 
L 254.775219 25.557233 
L 261.884011 25.576188 
L 268.992803 25.5985 
L 276.101595 25.62144 
L 283.210387 25.644453 
L 290.319179 25.668976 
L 297.427971 25.694227 
L 304.536763 25.721901 
L 311.645555 25.746609 
L 318.754347 25.770235 
L 325.863139 25.793074 
L 332.971932 25.817453 
L 340.080724 25.841673 
L 347.189516 25.864793 
L 354.298308 25.891171 
L 361.4071 25.91774 
L 368.515892 25.94427 
L 375.624684 25.970796 
L 382.733476 25.996318 
L 389.842268 26.023362 
L 396.95106 26.048521 
L 404.059852 26.07368 
L 411.168644 26.098839 
L 418.277436 26.13026 
L 425.386228 26.157001 
L 432.49502 26.186796 
L 439.603812 26.216973 
L 446.712604 26.247087 
L 453.821396 26.277182 
L 460.930188 26.307263 
L 468.03898 26.333733 
L 475.147773 26.360822 
L 482.256565 26.390215 
L 489.365357 26.419609 
L 496.474149 26.447232 
L 503.582941 26.474804 
L 510.691733 26.502376 
L 517.800525 26.529948 
L 524.909317 26.55752 
L 532.018109 26.585092 
L 539.126901 26.612663 
L 546.235693 26.640235 
L 553.344485 26.667807 
L 560.453277 26.695379 
L 567.562069 26.722951 
L 567.562069 22.853511 
L 567.562069 22.853511 
L 560.453277 22.900781 
L 553.344485 22.94805 
L 546.235693 22.995319 
L 539.126901 23.042588 
L 532.018109 23.089857 
L 524.909317 23.137127 
L 517.800525 23.184396 
L 510.691733 23.231665 
L 503.582941 23.278934 
L 496.474149 23.326204 
L 489.365357 23.373473 
L 482.256565 23.420742 
L 475.147773 23.468011 
L 468.03898 23.51528 
L 460.930188 23.56255 
L 453.821396 23.609826 
L 446.712604 23.658774 
L 439.603812 23.70922 
L 432.49502 23.759667 
L 425.386228 23.810121 
L 418.277436 23.860581 
L 411.168644 23.911041 
L 404.059852 23.9615 
L 396.95106 24.01196 
L 389.842268 24.058942 
L 382.733476 24.105356 
L 375.624684 24.151771 
L 368.515892 24.198185 
L 361.4071 24.244599 
L 354.298308 24.291013 
L 347.189516 24.337427 
L 340.080724 24.383841 
L 332.971932 24.430255 
L 325.863139 24.476726 
L 318.754347 24.529957 
L 311.645555 24.587095 
L 304.536763 24.633344 
L 297.427971 24.679596 
L 290.319179 24.723468 
L 283.210387 24.772311 
L 276.101595 24.816771 
L 268.992803 24.86007 
L 261.884011 24.90337 
L 254.775219 24.949947 
L 247.666427 24.999627 
L 240.557635 25.046557 
L 233.448843 25.08807 
L 226.340051 25.129191 
L 219.231259 25.169276 
L 212.122467 25.201062 
L 205.013675 25.218567 
L 197.904883 25.212343 
L 190.796091 25.194157 
L 183.687298 25.175169 
L 176.578506 25.15134 
L 169.469714 25.127566 
L 162.360922 25.097833 
L 155.25213 25.080517 
L 148.143338 25.051007 
L 141.034546 25.02707 
L 133.925754 24.994646 
L 126.816962 24.965619 
L 119.70817 24.939885 
L 112.599378 24.914206 
L 105.490586 24.888526 
L 98.381794 24.861154 
L 91.273002 24.835544 
L 84.16421 24.809934 
L 77.055418 24.784324 
L 69.946626 24.75871 
L 62.837834 24.72733 
L 55.729042 24.69595 
L 48.62025 24.66457 
L 41.511457 24.633316 
L 34.402665 24.602137 
L 27.293873 24.573268 
L 20.185081 24.549135 
L 13.076289 24.525781 
L 5.967497 24.502428 
L -1.141295 24.479074 
L -8.250087 24.455721 
L -15.358879 24.429426 
L -22.467671 24.401533 
L -29.576463 24.37364 
L -36.685255 24.345747 
L -43.794047 24.317854 
L -50.902839 24.28996 
L -58.011631 24.262067 
L -65.120423 24.234174 
L -72.229215 24.206281 
L -79.338007 24.178394 
L -86.446799 24.150547 
L -93.555591 24.122701 
L -100.664384 24.094855 
L -107.773176 24.06701 
L -114.881968 24.039257 
L -121.99076 24.011505 
L -129.099552 23.983752 
L -136.208344 23.955999 
z
" style="fill:#2ca02c;fill-opacity:0.15;"/>
   </g>
   <g id="matplotlib.axis_1">
    <g id="xtick_1">
     <g id="line2d_1">
      <defs>
       <path d="M 0 0 
L 0 3.5 
" id="m6f38dd1a0a" style="stroke:#000000;stroke-width:0.8;"/>
      </defs>
      <g>
       <use style="stroke:#000000;stroke-width:0.8;" x="59.645313" xlink:href="#m6f38dd1a0a" y="68.099319"/>
      </g>
     </g>
    </g>
    <g id="xtick_2">
     <g id="line2d_2">
      <g>
       <use style="stroke:#000000;stroke-width:0.8;" x="101.253726" xlink:href="#m6f38dd1a0a" y="68.099319"/>
      </g>
     </g>
    </g>
    <g id="xtick_3">
     <g id="line2d_3">
      <g>
       <use style="stroke:#000000;stroke-width:0.8;" x="142.862139" xlink:href="#m6f38dd1a0a" y="68.099319"/>
      </g>
     </g>
    </g>
    <g id="xtick_4">
     <g id="line2d_4">
      <g>
       <use style="stroke:#000000;stroke-width:0.8;" x="184.470553" xlink:href="#m6f38dd1a0a" y="68.099319"/>
      </g>
     </g>
    </g>
    <g id="xtick_5">
     <g id="line2d_5">
      <g>
       <use style="stroke:#000000;stroke-width:0.8;" x="226.078966" xlink:href="#m6f38dd1a0a" y="68.099319"/>
      </g>
     </g>
    </g>
    <g id="xtick_6">
     <g id="line2d_6">
      <g>
       <use style="stroke:#000000;stroke-width:0.8;" x="267.687379" xlink:href="#m6f38dd1a0a" y="68.099319"/>
      </g>
     </g>
    </g>
   </g>
   <g id="matplotlib.axis_2">
    <g id="ytick_1">
     <g id="line2d_7">
      <defs>
       <path d="M 0 0 
L -3.5 0 
" id="md046dbc517" style="stroke:#000000;stroke-width:0.8;"/>
      </defs>
      <g>
       <use style="stroke:#000000;stroke-width:0.8;" x="59.645313" xlink:href="#md046dbc517" y="56.882716"/>
      </g>
     </g>
     <g id="text_1">
      <!-- 0.00% -->
      <defs>
       <path d="M 31.78125 66.40625 
Q 24.171875 66.40625 20.328125 58.90625 
Q 16.5 51.421875 16.5 36.375 
Q 16.5 21.390625 20.328125 13.890625 
Q 24.171875 6.390625 31.78125 6.390625 
Q 39.453125 6.390625 43.28125 13.890625 
Q 47.125 21.390625 47.125 36.375 
Q 47.125 51.421875 43.28125 58.90625 
Q 39.453125 66.40625 31.78125 66.40625 
z
M 31.78125 74.21875 
Q 44.046875 74.21875 50.515625 64.515625 
Q 56.984375 54.828125 56.984375 36.375 
Q 56.984375 17.96875 50.515625 8.265625 
Q 44.046875 -1.421875 31.78125 -1.421875 
Q 19.53125 -1.421875 13.0625 8.265625 
Q 6.59375 17.96875 6.59375 36.375 
Q 6.59375 54.828125 13.0625 64.515625 
Q 19.53125 74.21875 31.78125 74.21875 
z
" id="DejaVuSans-48"/>
       <path d="M 10.6875 12.40625 
L 21 12.40625 
L 21 0 
L 10.6875 0 
z
" id="DejaVuSans-46"/>
       <path d="M 72.703125 32.078125 
Q 68.453125 32.078125 66.03125 28.46875 
Q 63.625 24.859375 63.625 18.40625 
Q 63.625 12.0625 66.03125 8.421875 
Q 68.453125 4.78125 72.703125 4.78125 
Q 76.859375 4.78125 79.265625 8.421875 
Q 81.6875 12.0625 81.6875 18.40625 
Q 81.6875 24.8125 79.265625 28.4375 
Q 76.859375 32.078125 72.703125 32.078125 
z
M 72.703125 38.28125 
Q 80.421875 38.28125 84.953125 32.90625 
Q 89.5 27.546875 89.5 18.40625 
Q 89.5 9.28125 84.9375 3.921875 
Q 80.375 -1.421875 72.703125 -1.421875 
Q 64.890625 -1.421875 60.34375 3.921875 
Q 55.8125 9.28125 55.8125 18.40625 
Q 55.8125 27.59375 60.375 32.9375 
Q 64.9375 38.28125 72.703125 38.28125 
z
M 22.3125 68.015625 
Q 18.109375 68.015625 15.6875 64.375 
Q 13.28125 60.75 13.28125 54.390625 
Q 13.28125 47.953125 15.671875 44.328125 
Q 18.0625 40.71875 22.3125 40.71875 
Q 26.5625 40.71875 28.96875 44.328125 
Q 31.390625 47.953125 31.390625 54.390625 
Q 31.390625 60.6875 28.953125 64.34375 
Q 26.515625 68.015625 22.3125 68.015625 
z
M 66.40625 74.21875 
L 74.21875 74.21875 
L 28.609375 -1.421875 
L 20.796875 -1.421875 
z
M 22.3125 74.21875 
Q 30.03125 74.21875 34.609375 68.875 
Q 39.203125 63.53125 39.203125 54.390625 
Q 39.203125 45.171875 34.640625 39.84375 
Q 30.078125 34.515625 22.3125 34.515625 
Q 14.546875 34.515625 10.03125 39.859375 
Q 5.515625 45.21875 5.515625 54.390625 
Q 5.515625 63.484375 10.046875 68.84375 
Q 14.59375 74.21875 22.3125 74.21875 
z
" id="DejaVuSans-37"/>
      </defs>
      <g transform="translate(20.878125 60.681935)scale(0.1 -0.1)">
       <use xlink:href="#DejaVuSans-48"/>
       <use x="63.623047" xlink:href="#DejaVuSans-46"/>
       <use x="95.410156" xlink:href="#DejaVuSans-48"/>
       <use x="159.033203" xlink:href="#DejaVuSans-48"/>
       <use x="222.65625" xlink:href="#DejaVuSans-37"/>
      </g>
     </g>
    </g>
    <g id="ytick_2">
     <g id="line2d_8">
      <g>
       <use style="stroke:#000000;stroke-width:0.8;" x="59.645313" xlink:href="#md046dbc517" y="12.016306"/>
      </g>
     </g>
     <g id="text_2">
      <!-- 2.00% -->
      <defs>
       <path d="M 19.1875 8.296875 
L 53.609375 8.296875 
L 53.609375 0 
L 7.328125 0 
L 7.328125 8.296875 
Q 12.9375 14.109375 22.625 23.890625 
Q 32.328125 33.6875 34.8125 36.53125 
Q 39.546875 41.84375 41.421875 45.53125 
Q 43.3125 49.21875 43.3125 52.78125 
Q 43.3125 58.59375 39.234375 62.25 
Q 35.15625 65.921875 28.609375 65.921875 
Q 23.96875 65.921875 18.8125 64.3125 
Q 13.671875 62.703125 7.8125 59.421875 
L 7.8125 69.390625 
Q 13.765625 71.78125 18.9375 73 
Q 24.125 74.21875 28.421875 74.21875 
Q 39.75 74.21875 46.484375 68.546875 
Q 53.21875 62.890625 53.21875 53.421875 
Q 53.21875 48.921875 51.53125 44.890625 
Q 49.859375 40.875 45.40625 35.40625 
Q 44.1875 33.984375 37.640625 27.21875 
Q 31.109375 20.453125 19.1875 8.296875 
z
" id="DejaVuSans-50"/>
      </defs>
      <g transform="translate(20.878125 15.815525)scale(0.1 -0.1)">
       <use xlink:href="#DejaVuSans-50"/>
       <use x="63.623047" xlink:href="#DejaVuSans-46"/>
       <use x="95.410156" xlink:href="#DejaVuSans-48"/>
       <use x="159.033203" xlink:href="#DejaVuSans-48"/>
       <use x="222.65625" xlink:href="#DejaVuSans-37"/>
      </g>
     </g>
    </g>
    <g id="text_3">
     <!-- relative error -->
     <defs>
      <path d="M 41.109375 46.296875 
Q 39.59375 47.171875 37.8125 47.578125 
Q 36.03125 48 33.890625 48 
Q 26.265625 48 22.1875 43.046875 
Q 18.109375 38.09375 18.109375 28.8125 
L 18.109375 0 
L 9.078125 0 
L 9.078125 54.6875 
L 18.109375 54.6875 
L 18.109375 46.1875 
Q 20.953125 51.171875 25.484375 53.578125 
Q 30.03125 56 36.53125 56 
Q 37.453125 56 38.578125 55.875 
Q 39.703125 55.765625 41.0625 55.515625 
z
" id="DejaVuSans-114"/>
      <path d="M 56.203125 29.59375 
L 56.203125 25.203125 
L 14.890625 25.203125 
Q 15.484375 15.921875 20.484375 11.0625 
Q 25.484375 6.203125 34.421875 6.203125 
Q 39.59375 6.203125 44.453125 7.46875 
Q 49.3125 8.734375 54.109375 11.28125 
L 54.109375 2.78125 
Q 49.265625 0.734375 44.1875 -0.34375 
Q 39.109375 -1.421875 33.890625 -1.421875 
Q 20.796875 -1.421875 13.15625 6.1875 
Q 5.515625 13.8125 5.515625 26.8125 
Q 5.515625 40.234375 12.765625 48.109375 
Q 20.015625 56 32.328125 56 
Q 43.359375 56 49.78125 48.890625 
Q 56.203125 41.796875 56.203125 29.59375 
z
M 47.21875 32.234375 
Q 47.125 39.59375 43.09375 43.984375 
Q 39.0625 48.390625 32.421875 48.390625 
Q 24.90625 48.390625 20.390625 44.140625 
Q 15.875 39.890625 15.1875 32.171875 
z
" id="DejaVuSans-101"/>
      <path d="M 9.421875 75.984375 
L 18.40625 75.984375 
L 18.40625 0 
L 9.421875 0 
z
" id="DejaVuSans-108"/>
      <path d="M 34.28125 27.484375 
Q 23.390625 27.484375 19.1875 25 
Q 14.984375 22.515625 14.984375 16.5 
Q 14.984375 11.71875 18.140625 8.90625 
Q 21.296875 6.109375 26.703125 6.109375 
Q 34.1875 6.109375 38.703125 11.40625 
Q 43.21875 16.703125 43.21875 25.484375 
L 43.21875 27.484375 
z
M 52.203125 31.203125 
L 52.203125 0 
L 43.21875 0 
L 43.21875 8.296875 
Q 40.140625 3.328125 35.546875 0.953125 
Q 30.953125 -1.421875 24.3125 -1.421875 
Q 15.921875 -1.421875 10.953125 3.296875 
Q 6 8.015625 6 15.921875 
Q 6 25.140625 12.171875 29.828125 
Q 18.359375 34.515625 30.609375 34.515625 
L 43.21875 34.515625 
L 43.21875 35.40625 
Q 43.21875 41.609375 39.140625 45 
Q 35.0625 48.390625 27.6875 48.390625 
Q 23 48.390625 18.546875 47.265625 
Q 14.109375 46.140625 10.015625 43.890625 
L 10.015625 52.203125 
Q 14.9375 54.109375 19.578125 55.046875 
Q 24.21875 56 28.609375 56 
Q 40.484375 56 46.34375 49.84375 
Q 52.203125 43.703125 52.203125 31.203125 
z
" id="DejaVuSans-97"/>
      <path d="M 18.3125 70.21875 
L 18.3125 54.6875 
L 36.8125 54.6875 
L 36.8125 47.703125 
L 18.3125 47.703125 
L 18.3125 18.015625 
Q 18.3125 11.328125 20.140625 9.421875 
Q 21.96875 7.515625 27.59375 7.515625 
L 36.8125 7.515625 
L 36.8125 0 
L 27.59375 0 
Q 17.1875 0 13.234375 3.875 
Q 9.28125 7.765625 9.28125 18.015625 
L 9.28125 47.703125 
L 2.6875 47.703125 
L 2.6875 54.6875 
L 9.28125 54.6875 
L 9.28125 70.21875 
z
" id="DejaVuSans-116"/>
      <path d="M 9.421875 54.6875 
L 18.40625 54.6875 
L 18.40625 0 
L 9.421875 0 
z
M 9.421875 75.984375 
L 18.40625 75.984375 
L 18.40625 64.59375 
L 9.421875 64.59375 
z
" id="DejaVuSans-105"/>
      <path d="M 2.984375 54.6875 
L 12.5 54.6875 
L 29.59375 8.796875 
L 46.6875 54.6875 
L 56.203125 54.6875 
L 35.6875 0 
L 23.484375 0 
z
" id="DejaVuSans-118"/>
      <path id="DejaVuSans-32"/>
      <path d="M 30.609375 48.390625 
Q 23.390625 48.390625 19.1875 42.75 
Q 14.984375 37.109375 14.984375 27.296875 
Q 14.984375 17.484375 19.15625 11.84375 
Q 23.34375 6.203125 30.609375 6.203125 
Q 37.796875 6.203125 41.984375 11.859375 
Q 46.1875 17.53125 46.1875 27.296875 
Q 46.1875 37.015625 41.984375 42.703125 
Q 37.796875 48.390625 30.609375 48.390625 
z
M 30.609375 56 
Q 42.328125 56 49.015625 48.375 
Q 55.71875 40.765625 55.71875 27.296875 
Q 55.71875 13.875 49.015625 6.21875 
Q 42.328125 -1.421875 30.609375 -1.421875 
Q 18.84375 -1.421875 12.171875 6.21875 
Q 5.515625 13.875 5.515625 27.296875 
Q 5.515625 40.765625 12.171875 48.375 
Q 18.84375 56 30.609375 56 
z
" id="DejaVuSans-111"/>
     </defs>
     <g transform="translate(14.798437 72.915625)rotate(-90)scale(0.1 -0.1)">
      <use xlink:href="#DejaVuSans-114"/>
      <use x="41.082031" xlink:href="#DejaVuSans-101"/>
      <use x="102.605469" xlink:href="#DejaVuSans-108"/>
      <use x="130.388672" xlink:href="#DejaVuSans-97"/>
      <use x="191.667969" xlink:href="#DejaVuSans-116"/>
      <use x="230.876953" xlink:href="#DejaVuSans-105"/>
      <use x="258.660156" xlink:href="#DejaVuSans-118"/>
      <use x="317.839844" xlink:href="#DejaVuSans-101"/>
      <use x="379.363281" xlink:href="#DejaVuSans-32"/>
      <use x="411.150391" xlink:href="#DejaVuSans-101"/>
      <use x="472.673828" xlink:href="#DejaVuSans-114"/>
      <use x="513.771484" xlink:href="#DejaVuSans-114"/>
      <use x="554.853516" xlink:href="#DejaVuSans-111"/>
      <use x="616.035156" xlink:href="#DejaVuSans-114"/>
     </g>
    </g>
   </g>
   <g id="line2d_9">
    <path clip-path="url(#pea835d7a60)" d="M -1 56.903992 
L 5.967497 56.90319 
L 13.076289 56.902372 
L 20.185081 56.901554 
L 27.293873 56.900736 
L 34.402665 56.899918 
L 41.511457 56.8991 
L 48.62025 56.898282 
L 55.729042 56.897464 
L 62.837834 56.896646 
L 69.946626 56.895828 
L 77.055418 56.89501 
L 84.16421 56.894192 
L 91.273002 56.893375 
L 98.381794 56.892557 
L 105.490586 56.891739 
L 112.599378 56.890921 
L 119.70817 56.890103 
L 126.816962 56.889285 
L 133.925754 56.888467 
L 141.034546 56.887649 
L 148.143338 56.886831 
L 155.25213 56.886013 
L 162.360922 56.885195 
L 169.469714 56.884377 
L 176.578506 56.883559 
L 183.687298 56.882741 
L 190.796091 56.881923 
L 197.904883 56.881105 
L 205.013675 56.880287 
L 212.122467 56.879469 
L 219.231259 56.878651 
L 226.340051 56.877833 
L 233.448843 56.877015 
L 240.557635 56.876197 
L 247.666427 56.875379 
L 254.775219 56.874561 
L 261.884011 56.873743 
L 268.992803 56.872925 
L 276.101595 56.872107 
L 283.210387 56.871289 
L 290.319179 56.870471 
L 297.427971 56.869653 
L 304.536763 56.868835 
L 311.645555 56.868017 
L 318.754347 56.867199 
L 325.863139 56.866381 
L 332.971932 56.865563 
L 340.080724 56.864745 
L 347.189516 56.863927 
L 354.298308 56.863109 
L 360.245789 56.862425 
" style="fill:none;stroke:#1f77b4;stroke-linecap:square;stroke-width:2.25;"/>
   </g>
   <g id="line2d_10">
    <path clip-path="url(#pea835d7a60)" d="M -1 40.504615 
L 5.967497 40.526755 
L 13.076289 40.549345 
L 20.185081 40.571934 
L 27.293873 40.594524 
L 34.402665 40.617113 
L 41.511457 40.639703 
L 48.62025 40.662292 
L 55.729042 40.684882 
L 62.837834 40.707471 
L 69.946626 40.730061 
L 77.055418 40.75265 
L 84.16421 40.77524 
L 91.273002 40.797829 
L 98.381794 40.820418 
L 105.490586 40.843008 
L 112.599378 40.865597 
L 119.70817 40.888187 
L 126.816962 40.910776 
L 133.925754 40.933366 
L 141.034546 40.955955 
L 148.143338 40.978545 
L 155.25213 41.001134 
L 162.360922 41.023724 
L 169.469714 41.046313 
L 176.578506 41.068903 
L 183.687298 41.091492 
L 190.796091 41.114082 
L 197.904883 41.136671 
L 205.013675 41.159261 
L 212.122467 41.18185 
L 219.231259 41.20444 
L 226.340051 41.227029 
L 233.448843 41.249619 
L 240.557635 41.272208 
L 247.666427 41.294798 
L 254.775219 41.317387 
L 261.884011 41.339977 
L 268.992803 41.362566 
L 276.101595 41.385156 
L 283.210387 41.407745 
L 290.319179 41.430335 
L 297.427971 41.452924 
L 304.536763 41.475514 
L 311.645555 41.498103 
L 318.754347 41.520693 
L 325.863139 41.543282 
L 332.971932 41.565872 
L 340.080724 41.588461 
L 347.189516 41.611051 
L 354.298308 41.63364 
L 360.245789 41.65254 
" style="fill:none;stroke:#ff7f0e;stroke-linecap:square;stroke-width:2.25;"/>
   </g>
   <g id="line2d_11">
    <path clip-path="url(#pea835d7a60)" d="M -1 25.450057 
L 5.967497 25.446898 
L 13.076289 25.443676 
L 20.185081 25.440453 
L 27.293873 25.437231 
L 34.402665 25.434008 
L 41.511457 25.430785 
L 48.62025 25.427563 
L 55.729042 25.42434 
L 62.837834 25.421118 
L 69.946626 25.417895 
L 77.055418 25.414673 
L 84.16421 25.41145 
L 91.273002 25.408228 
L 98.381794 25.405005 
L 105.490586 25.401782 
L 112.599378 25.39856 
L 119.70817 25.395337 
L 126.816962 25.392115 
L 133.925754 25.388892 
L 141.034546 25.38567 
L 148.143338 25.382447 
L 155.25213 25.379225 
L 162.360922 25.376002 
L 169.469714 25.372779 
L 176.578506 25.369557 
L 183.687298 25.366334 
L 190.796091 25.363112 
L 197.904883 25.359889 
L 205.013675 25.356667 
L 212.122467 25.353444 
L 219.231259 25.350222 
L 226.340051 25.346999 
L 233.448843 25.343777 
L 240.557635 25.340554 
L 247.666427 25.337331 
L 254.775219 25.334109 
L 261.884011 25.330886 
L 268.992803 25.327664 
L 276.101595 25.324441 
L 283.210387 25.321219 
L 290.319179 25.317996 
L 297.427971 25.314774 
L 304.536763 25.311551 
L 311.645555 25.308328 
L 318.754347 25.305106 
L 325.863139 25.301883 
L 332.971932 25.298661 
L 340.080724 25.295438 
L 347.189516 25.292216 
L 354.298308 25.288993 
L 360.245789 25.286297 
" style="fill:none;stroke:#2ca02c;stroke-linecap:square;stroke-width:2.25;"/>
   </g>
   <g id="patch_3">
    <path d="M 59.645313 68.099319 
L 59.645313 12.016306 
" style="fill:none;stroke:#000000;stroke-linecap:square;stroke-linejoin:miter;stroke-width:0.8;"/>
   </g>
   <g id="patch_4">
    <path d="M 59.645313 68.099319 
L 288.491586 68.099319 
" style="fill:none;stroke:#000000;stroke-linecap:square;stroke-linejoin:miter;stroke-width:0.8;"/>
   </g>
  </g>
  <g id="axes_2">
   <g id="patch_5">
    <path d="M 59.645313 134.182332 
L 288.491586 134.182332 
L 288.491586 78.099319 
L 59.645313 78.099319 
z
" style="fill:#ffffff;"/>
   </g>
   <g id="PathCollection_4">
    <g clip-path="url(#pebee4a07d2)">
     <use style="fill:#1f77b4;fill-opacity:0.8;stroke:#1f77b4;stroke-opacity:0.8;" x="267.687379" xlink:href="#m0efbf31e4f" y="126.512649"/>
     <use style="fill:#1f77b4;fill-opacity:0.8;stroke:#1f77b4;stroke-opacity:0.8;" x="257.780614" xlink:href="#m0efbf31e4f" y="126.296642"/>
     <use style="fill:#1f77b4;fill-opacity:0.8;stroke:#1f77b4;stroke-opacity:0.8;" x="245.397158" xlink:href="#m0efbf31e4f" y="126.371967"/>
     <use style="fill:#1f77b4;fill-opacity:0.8;stroke:#1f77b4;stroke-opacity:0.8;" x="233.013702" xlink:href="#m0efbf31e4f" y="126.457537"/>
     <use style="fill:#1f77b4;fill-opacity:0.8;stroke:#1f77b4;stroke-opacity:0.8;" x="222.178177" xlink:href="#m0efbf31e4f" y="126.658275"/>
     <use style="fill:#1f77b4;fill-opacity:0.8;stroke:#1f77b4;stroke-opacity:0.8;" x="210.400433" xlink:href="#m0efbf31e4f" y="126.887569"/>
     <use style="fill:#1f77b4;fill-opacity:0.8;stroke:#1f77b4;stroke-opacity:0.8;" x="198.340024" xlink:href="#m0efbf31e4f" y="126.878309"/>
     <use style="fill:#1f77b4;fill-opacity:0.8;stroke:#1f77b4;stroke-opacity:0.8;" x="187.278482" xlink:href="#m0efbf31e4f" y="127.112941"/>
     <use style="fill:#1f77b4;fill-opacity:0.8;stroke:#1f77b4;stroke-opacity:0.8;" x="175.224239" xlink:href="#m0efbf31e4f" y="126.924806"/>
     <use style="fill:#1f77b4;fill-opacity:0.8;stroke:#1f77b4;stroke-opacity:0.8;" x="163.666346" xlink:href="#m0efbf31e4f" y="127.100881"/>
    </g>
   </g>
   <g id="PolyCollection_4">
    <path clip-path="url(#pebee4a07d2)" d="M -171.396864 128.885902 
L -171.396864 131.036285 
L -163.577193 130.948969 
L -155.757522 130.861653 
L -147.937851 130.774337 
L -140.118179 130.687021 
L -132.298508 130.599705 
L -124.478837 130.512389 
L -116.659166 130.425074 
L -108.839494 130.337758 
L -101.019823 130.250442 
L -93.200152 130.163126 
L -85.380481 130.07581 
L -77.560809 129.988494 
L -69.741138 129.90117 
L -61.921467 129.813836 
L -54.101796 129.726503 
L -46.282124 129.63917 
L -38.462453 129.551837 
L -30.642782 129.464504 
L -22.823111 129.377171 
L -15.003439 129.289838 
L -7.183768 129.202505 
L 0.635903 129.115172 
L 8.455574 129.027838 
L 16.275246 128.940505 
L 24.094917 128.853172 
L 31.914588 128.765839 
L 39.734259 128.678506 
L 47.553931 128.591173 
L 55.373602 128.50384 
L 63.193273 128.416507 
L 71.012944 128.329174 
L 78.832616 128.24184 
L 86.652287 128.154507 
L 94.471958 128.067174 
L 102.29163 127.983307 
L 110.111301 127.900089 
L 117.930972 127.816872 
L 125.750643 127.733591 
L 133.570315 127.649526 
L 141.389986 127.564706 
L 149.209657 127.4766 
L 157.029328 127.39325 
L 164.849 127.306294 
L 172.668671 127.214727 
L 180.488342 127.133952 
L 188.308013 127.052801 
L 196.127685 126.970844 
L 203.947356 126.892066 
L 211.767027 126.82488 
L 219.586698 126.770395 
L 227.40637 126.71915 
L 235.226041 126.671025 
L 243.045712 126.623482 
L 250.865383 126.574118 
L 258.685055 126.526096 
L 266.504726 126.48122 
L 274.324397 126.435824 
L 282.144068 126.391789 
L 289.96374 126.347044 
L 297.783411 126.302771 
L 305.603082 126.256818 
L 313.422753 126.213275 
L 321.242425 126.167513 
L 329.062096 126.126701 
L 336.881767 126.08178 
L 344.701438 126.037553 
L 352.52111 125.993377 
L 360.340781 125.949168 
L 368.160452 125.906639 
L 375.980123 125.865402 
L 383.799795 125.824165 
L 391.619466 125.782929 
L 399.439137 125.741692 
L 407.258808 125.700455 
L 415.07848 125.658246 
L 422.898151 125.615146 
L 430.717822 125.572045 
L 438.537493 125.531642 
L 446.357165 125.492668 
L 454.176836 125.451683 
L 461.996507 125.407997 
L 469.816179 125.362945 
L 477.63585 125.317893 
L 485.455521 125.272813 
L 493.275192 125.227733 
L 501.094864 125.183754 
L 508.914535 125.140784 
L 516.734206 125.100046 
L 524.553877 125.058452 
L 532.373549 125.014476 
L 540.19322 124.970499 
L 548.012891 124.926498 
L 555.832562 124.882464 
L 563.652234 124.838656 
L 571.471905 124.795467 
L 579.291576 124.752278 
L 587.111247 124.70909 
L 594.930919 124.665901 
L 602.75059 124.622713 
L 602.75059 122.417859 
L 602.75059 122.417859 
L 594.930919 122.505398 
L 587.111247 122.592936 
L 579.291576 122.680474 
L 571.471905 122.768013 
L 563.652234 122.855551 
L 555.832562 122.94309 
L 548.012891 123.030628 
L 540.19322 123.118167 
L 532.373549 123.205705 
L 524.553877 123.293243 
L 516.734206 123.380782 
L 508.914535 123.46832 
L 501.094864 123.555859 
L 493.275192 123.643397 
L 485.455521 123.730939 
L 477.63585 123.818519 
L 469.816179 123.906099 
L 461.996507 123.993679 
L 454.176836 124.080327 
L 446.357165 124.166461 
L 438.537493 124.252594 
L 430.717822 124.338728 
L 422.898151 124.424862 
L 415.07848 124.510995 
L 407.258808 124.597129 
L 399.439137 124.683263 
L 391.619466 124.769397 
L 383.799795 124.857723 
L 375.980123 124.944702 
L 368.160452 125.030402 
L 360.340781 125.116102 
L 352.52111 125.201814 
L 344.701438 125.288684 
L 336.881767 125.377162 
L 329.062096 125.46382 
L 321.242425 125.549506 
L 313.422753 125.63319 
L 305.603082 125.716081 
L 297.783411 125.80453 
L 289.96374 125.892331 
L 282.144068 125.981958 
L 274.324397 126.0679 
L 266.504726 126.152879 
L 258.685055 126.241183 
L 250.865383 126.32205 
L 243.045712 126.40601 
L 235.226041 126.482587 
L 227.40637 126.554383 
L 219.586698 126.620008 
L 211.767027 126.68233 
L 203.947356 126.74362 
L 196.127685 126.799867 
L 188.308013 126.855095 
L 180.488342 126.904424 
L 172.668671 126.953988 
L 164.849 126.999337 
L 157.029328 127.049179 
L 149.209657 127.099316 
L 141.389986 127.143 
L 133.570315 127.186106 
L 125.750643 127.233722 
L 117.930972 127.278004 
L 110.111301 127.323836 
L 102.29163 127.369473 
L 94.471958 127.411875 
L 86.652287 127.453174 
L 78.832616 127.494875 
L 71.012944 127.535858 
L 63.193273 127.578292 
L 55.373602 127.622848 
L 47.553931 127.667474 
L 39.734259 127.7121 
L 31.914588 127.757557 
L 24.094917 127.802864 
L 16.275246 127.845024 
L 8.455574 127.886216 
L 0.635903 127.927641 
L -7.183768 127.975309 
L -15.003439 128.022976 
L -22.823111 128.068414 
L -30.642782 128.112922 
L -38.462453 128.15613 
L -46.282124 128.199101 
L -54.101796 128.24147 
L -61.921467 128.28322 
L -69.741138 128.32497 
L -77.560809 128.36672 
L -85.380481 128.40847 
L -93.200152 128.45022 
L -101.019823 128.49197 
L -108.839494 128.53372 
L -116.659166 128.576248 
L -124.478837 128.620448 
L -132.298508 128.664647 
L -140.118179 128.70889 
L -147.937851 128.753143 
L -155.757522 128.797396 
L -163.577193 128.841649 
L -171.396864 128.885902 
z
" style="fill:#1f77b4;fill-opacity:0.15;"/>
   </g>
   <g id="PathCollection_5">
    <g clip-path="url(#pebee4a07d2)">
     <use style="fill:#ff7f0e;fill-opacity:0.8;stroke:#ff7f0e;stroke-opacity:0.8;" x="267.687379" xlink:href="#m04a40bd691" y="111.609137"/>
     <use style="fill:#ff7f0e;fill-opacity:0.8;stroke:#ff7f0e;stroke-opacity:0.8;" x="257.780614" xlink:href="#m04a40bd691" y="110.171971"/>
     <use style="fill:#ff7f0e;fill-opacity:0.8;stroke:#ff7f0e;stroke-opacity:0.8;" x="245.397158" xlink:href="#m04a40bd691" y="108.712119"/>
     <use style="fill:#ff7f0e;fill-opacity:0.8;stroke:#ff7f0e;stroke-opacity:0.8;" x="233.013702" xlink:href="#m04a40bd691" y="113.876562"/>
     <use style="fill:#ff7f0e;fill-opacity:0.8;stroke:#ff7f0e;stroke-opacity:0.8;" x="222.178177" xlink:href="#m04a40bd691" y="111.390245"/>
     <use style="fill:#ff7f0e;fill-opacity:0.8;stroke:#ff7f0e;stroke-opacity:0.8;" x="210.400433" xlink:href="#m04a40bd691" y="113.048671"/>
     <use style="fill:#ff7f0e;fill-opacity:0.8;stroke:#ff7f0e;stroke-opacity:0.8;" x="198.340024" xlink:href="#m04a40bd691" y="117.471886"/>
     <use style="fill:#ff7f0e;fill-opacity:0.8;stroke:#ff7f0e;stroke-opacity:0.8;" x="187.278482" xlink:href="#m04a40bd691" y="116.382657"/>
     <use style="fill:#ff7f0e;fill-opacity:0.8;stroke:#ff7f0e;stroke-opacity:0.8;" x="175.224239" xlink:href="#m04a40bd691" y="117.272344"/>
     <use style="fill:#ff7f0e;fill-opacity:0.8;stroke:#ff7f0e;stroke-opacity:0.8;" x="163.666346" xlink:href="#m04a40bd691" y="117.41869"/>
    </g>
   </g>
   <g id="PolyCollection_5">
    <path clip-path="url(#pebee4a07d2)" d="M -171.396864 136.464812 
L -171.396864 158.866344 
L -163.577193 157.930986 
L -155.757522 156.995627 
L -147.937851 156.06373 
L -140.118179 155.141076 
L -132.298508 154.218422 
L -124.478837 153.295768 
L -116.659166 152.373114 
L -108.839494 151.45046 
L -101.019823 150.527806 
L -93.200152 149.605152 
L -85.380481 148.682498 
L -77.560809 147.759845 
L -69.741138 146.837191 
L -61.921467 145.914537 
L -54.101796 144.991883 
L -46.282124 144.069229 
L -38.462453 143.146575 
L -30.642782 142.223921 
L -22.823111 141.301267 
L -15.003439 140.378613 
L -7.183768 139.456158 
L 0.635903 138.534546 
L 8.455574 137.612934 
L 16.275246 136.691322 
L 24.094917 135.769709 
L 31.914588 134.848097 
L 39.734259 133.979974 
L 47.553931 133.153583 
L 55.373602 132.291735 
L 63.193273 131.395555 
L 71.012944 130.482824 
L 78.832616 129.553242 
L 86.652287 128.679194 
L 94.471958 127.805146 
L 102.29163 126.852681 
L 110.111301 125.877277 
L 117.930972 124.906282 
L 125.750643 124.047079 
L 133.570315 123.214459 
L 141.389986 122.280135 
L 149.209657 121.314113 
L 157.029328 120.452286 
L 164.849 119.532279 
L 172.668671 118.666773 
L 180.488342 117.859296 
L 188.308013 117.118039 
L 196.127685 116.434814 
L 203.947356 115.702364 
L 211.767027 115.074862 
L 219.586698 114.467564 
L 227.40637 113.894503 
L 235.226041 113.346023 
L 243.045712 112.813846 
L 250.865383 112.324892 
L 258.685055 111.839485 
L 266.504726 111.353211 
L 274.324397 110.864608 
L 282.144068 110.386908 
L 289.96374 109.903453 
L 297.783411 109.441813 
L 305.603082 108.996081 
L 313.422753 108.491367 
L 321.242425 107.976686 
L 329.062096 107.480486 
L 336.881767 106.998681 
L 344.701438 106.5351 
L 352.52111 106.091028 
L 360.340781 105.61404 
L 368.160452 105.152892 
L 375.980123 104.701776 
L 383.799795 104.253484 
L 391.619466 103.783768 
L 399.439137 103.312211 
L 407.258808 102.882323 
L 415.07848 102.405809 
L 422.898151 101.928075 
L 430.717822 101.503611 
L 438.537493 101.027698 
L 446.357165 100.550947 
L 454.176836 100.077361 
L 461.996507 99.615542 
L 469.816179 99.153724 
L 477.63585 98.683722 
L 485.455521 98.225786 
L 493.275192 97.751948 
L 501.094864 97.27811 
L 508.914535 96.804272 
L 516.734206 96.330433 
L 524.553877 95.892305 
L 532.373549 95.462871 
L 540.19322 95.002917 
L 548.012891 94.541809 
L 555.832562 94.080149 
L 563.652234 93.618489 
L 571.471905 93.156829 
L 579.291576 92.695169 
L 587.111247 92.262413 
L 594.930919 91.80984 
L 602.75059 91.338906 
L 602.75059 66.740797 
L 602.75059 66.740797 
L 594.930919 67.667307 
L 587.111247 68.593816 
L 579.291576 69.520326 
L 571.471905 70.446836 
L 563.652234 71.373346 
L 555.832562 72.299856 
L 548.012891 73.226366 
L 540.19322 74.152876 
L 532.373549 75.079386 
L 524.553877 76.005896 
L 516.734206 76.932406 
L 508.914535 77.858915 
L 501.094864 78.785425 
L 493.275192 79.711935 
L 485.455521 80.638445 
L 477.63585 81.564955 
L 469.816179 82.491465 
L 461.996507 83.417975 
L 454.176836 84.344485 
L 446.357165 85.270995 
L 438.537493 86.197505 
L 430.717822 87.124014 
L 422.898151 88.040052 
L 415.07848 88.955955 
L 407.258808 89.871857 
L 399.439137 90.787759 
L 391.619466 91.704127 
L 383.799795 92.620594 
L 375.980123 93.552701 
L 368.160452 94.512231 
L 360.340781 95.462651 
L 352.52111 96.389113 
L 344.701438 97.315623 
L 336.881767 98.242133 
L 329.062096 99.168643 
L 321.242425 100.095769 
L 313.422753 101.044852 
L 305.603082 102.008992 
L 297.783411 102.973132 
L 289.96374 103.939052 
L 282.144068 104.886354 
L 274.324397 105.825173 
L 266.504726 106.760509 
L 258.685055 107.659172 
L 250.865383 108.580098 
L 243.045712 109.590413 
L 235.226041 110.582316 
L 227.40637 111.426229 
L 219.586698 112.285534 
L 211.767027 113.06718 
L 203.947356 113.763302 
L 196.127685 114.39815 
L 188.308013 114.946307 
L 180.488342 115.508512 
L 172.668671 116.015772 
L 164.849 116.507482 
L 157.029328 117.021043 
L 149.209657 117.510635 
L 141.389986 117.968979 
L 133.570315 118.442233 
L 125.750643 118.916082 
L 117.930972 119.389931 
L 110.111301 119.831291 
L 102.29163 120.310479 
L 94.471958 120.787394 
L 86.652287 121.261722 
L 78.832616 121.726164 
L 71.012944 122.195124 
L 63.193273 122.65588 
L 55.373602 123.116753 
L 47.553931 123.587832 
L 39.734259 124.067245 
L 31.914588 124.543957 
L 24.094917 125.020302 
L 16.275246 125.471594 
L 8.455574 125.916046 
L 0.635903 126.373728 
L -7.183768 126.837798 
L -15.003439 127.275322 
L -22.823111 127.725959 
L -30.642782 128.181503 
L -38.462453 128.641687 
L -46.282124 129.101871 
L -54.101796 129.562054 
L -61.921467 130.022238 
L -69.741138 130.482422 
L -77.560809 130.942606 
L -85.380481 131.40279 
L -93.200152 131.862974 
L -101.019823 132.323158 
L -108.839494 132.783342 
L -116.659166 133.243525 
L -124.478837 133.703709 
L -132.298508 134.163893 
L -140.118179 134.624077 
L -147.937851 135.084261 
L -155.757522 135.544445 
L -163.577193 136.004629 
L -171.396864 136.464812 
z
" style="fill:#ff7f0e;fill-opacity:0.15;"/>
   </g>
   <g id="PathCollection_6">
    <g clip-path="url(#pebee4a07d2)">
     <use style="fill:#2ca02c;fill-opacity:0.8;stroke:#2ca02c;stroke-opacity:0.8;" x="267.687379" xlink:href="#m8b8deecf18" y="87.692334"/>
     <use style="fill:#2ca02c;fill-opacity:0.8;stroke:#2ca02c;stroke-opacity:0.8;" x="257.780614" xlink:href="#m8b8deecf18" y="83.700277"/>
     <use style="fill:#2ca02c;fill-opacity:0.8;stroke:#2ca02c;stroke-opacity:0.8;" x="245.397158" xlink:href="#m8b8deecf18" y="88.418866"/>
     <use style="fill:#2ca02c;fill-opacity:0.8;stroke:#2ca02c;stroke-opacity:0.8;" x="233.013702" xlink:href="#m8b8deecf18" y="92.307168"/>
     <use style="fill:#2ca02c;fill-opacity:0.8;stroke:#2ca02c;stroke-opacity:0.8;" x="222.178177" xlink:href="#m8b8deecf18" y="87.034"/>
     <use style="fill:#2ca02c;fill-opacity:0.8;stroke:#2ca02c;stroke-opacity:0.8;" x="210.400433" xlink:href="#m8b8deecf18" y="102.821325"/>
     <use style="fill:#2ca02c;fill-opacity:0.8;stroke:#2ca02c;stroke-opacity:0.8;" x="198.340024" xlink:href="#m8b8deecf18" y="97.750166"/>
     <use style="fill:#2ca02c;fill-opacity:0.8;stroke:#2ca02c;stroke-opacity:0.8;" x="187.278482" xlink:href="#m8b8deecf18" y="101.123496"/>
     <use style="fill:#2ca02c;fill-opacity:0.8;stroke:#2ca02c;stroke-opacity:0.8;" x="175.224239" xlink:href="#m8b8deecf18" y="104.038018"/>
     <use style="fill:#2ca02c;fill-opacity:0.8;stroke:#2ca02c;stroke-opacity:0.8;" x="163.666346" xlink:href="#m8b8deecf18" y="109.492055"/>
    </g>
   </g>
   <g id="PolyCollection_6">
    <path clip-path="url(#pebee4a07d2)" d="M -171.396864 161.693642 
L -171.396864 206.384476 
L -163.577193 204.215102 
L -155.757522 202.044357 
L -147.937851 199.873613 
L -140.118179 197.702868 
L -132.298508 195.532123 
L -124.478837 193.256141 
L -116.659166 190.971009 
L -108.839494 188.68403 
L -101.019823 186.396035 
L -93.200152 184.108039 
L -85.380481 181.820662 
L -77.560809 179.593736 
L -69.741138 177.366809 
L -61.921467 175.139883 
L -54.101796 172.912499 
L -46.282124 170.620088 
L -38.462453 168.279637 
L -30.642782 165.938914 
L -22.823111 163.596834 
L -15.003439 161.254189 
L -7.183768 158.934885 
L 0.635903 156.644967 
L 8.455574 154.35505 
L 16.275246 152.001513 
L 24.094917 149.727028 
L 31.914588 147.491165 
L 39.734259 145.235447 
L 47.553931 142.996398 
L 55.373602 140.738016 
L 63.193273 138.612041 
L 71.012944 136.419277 
L 78.832616 134.163359 
L 86.652287 131.901361 
L 94.471958 129.616054 
L 102.29163 127.335236 
L 110.111301 125.051479 
L 117.930972 122.769045 
L 125.750643 120.508895 
L 133.570315 118.554643 
L 141.389986 116.442744 
L 149.209657 114.314547 
L 157.029328 112.184248 
L 164.849 110.090899 
L 172.668671 108.168587 
L 180.488342 106.147306 
L 188.308013 104.14565 
L 196.127685 102.30997 
L 203.947356 100.452579 
L 211.767027 98.689012 
L 219.586698 96.959025 
L 227.40637 95.290717 
L 235.226041 93.689831 
L 243.045712 92.092244 
L 250.865383 90.525948 
L 258.685055 88.988131 
L 266.504726 87.435161 
L 274.324397 85.957317 
L 282.144068 84.418527 
L 289.96374 83.014945 
L 297.783411 81.579645 
L 305.603082 80.153578 
L 313.422753 78.82582 
L 321.242425 77.415356 
L 329.062096 75.958084 
L 336.881767 74.530399 
L 344.701438 73.158937 
L 352.52111 71.73096 
L 360.340781 70.320352 
L 368.160452 68.846385 
L 375.980123 67.430743 
L 383.799795 66.051594 
L 391.619466 64.664545 
L 399.439137 63.298195 
L 407.258808 61.923336 
L 415.07848 60.546832 
L 422.898151 59.163314 
L 430.717822 57.725094 
L 438.537493 56.286873 
L 446.357165 54.876274 
L 454.176836 53.581961 
L 461.996507 52.281641 
L 469.816179 50.876702 
L 477.63585 49.471713 
L 485.455521 48.066724 
L 493.275192 46.661734 
L 501.094864 45.271782 
L 508.914535 43.958184 
L 516.734206 42.644585 
L 524.553877 41.283181 
L 532.373549 39.908818 
L 540.19322 38.534455 
L 548.012891 37.160092 
L 555.832562 35.78648 
L 563.652234 34.446077 
L 571.471905 33.104165 
L 579.291576 31.739841 
L 587.111247 30.392897 
L 594.930919 29.045952 
L 602.75059 27.699007 
L 602.75059 -18.489216 
L 602.75059 -18.489216 
L 594.930919 -16.232861 
L 587.111247 -13.976507 
L 579.291576 -11.720152 
L 571.471905 -9.463798 
L 563.652234 -7.207443 
L 555.832562 -4.951089 
L 548.012891 -2.694628 
L 540.19322 -0.437864 
L 532.373549 1.818901 
L 524.553877 4.090434 
L 516.734206 6.372052 
L 508.914535 8.65367 
L 501.094864 10.935288 
L 493.275192 13.216932 
L 485.455521 15.498793 
L 477.63585 17.780655 
L 469.816179 20.062516 
L 461.996507 22.344378 
L 454.176836 24.626239 
L 446.357165 26.9081 
L 438.537493 29.192307 
L 430.717822 31.477489 
L 422.898151 33.806973 
L 415.07848 36.052064 
L 407.258808 38.324188 
L 399.439137 40.605506 
L 391.619466 42.886825 
L 383.799795 45.168143 
L 375.980123 47.4444 
L 368.160452 49.668185 
L 360.340781 51.886686 
L 352.52111 54.117666 
L 344.701438 56.347975 
L 336.881767 58.692922 
L 329.062096 60.984962 
L 321.242425 63.199353 
L 313.422753 65.413743 
L 305.603082 67.628133 
L 297.783411 69.842523 
L 289.96374 72.047853 
L 282.144068 74.278801 
L 274.324397 76.55777 
L 266.504726 78.845759 
L 258.685055 81.129209 
L 250.865383 83.422306 
L 243.045712 85.607347 
L 235.226041 87.66673 
L 227.40637 89.829982 
L 219.586698 91.882568 
L 211.767027 93.789155 
L 203.947356 95.587367 
L 196.127685 97.363018 
L 188.308013 99.022745 
L 180.488342 100.517619 
L 172.668671 101.953016 
L 164.849 103.3215 
L 157.029328 104.772562 
L 149.209657 106.106343 
L 141.389986 107.590777 
L 133.570315 108.969305 
L 125.750643 110.298346 
L 117.930972 111.627387 
L 110.111301 112.956788 
L 102.29163 114.287724 
L 94.471958 115.618659 
L 86.652287 116.945053 
L 78.832616 118.314635 
L 71.012944 119.719984 
L 63.193273 120.999691 
L 55.373602 122.279399 
L 47.553931 123.632603 
L 39.734259 125.055615 
L 31.914588 126.478044 
L 24.094917 127.797538 
L 16.275246 129.117032 
L 8.455574 130.437577 
L 0.635903 131.759249 
L -7.183768 133.115666 
L -15.003439 134.529533 
L -22.823111 135.9434 
L -30.642782 137.357267 
L -38.462453 138.771133 
L -46.282124 140.185 
L -54.101796 141.598867 
L -61.921467 143.013533 
L -69.741138 144.42837 
L -77.560809 145.843207 
L -85.380481 147.258044 
L -93.200152 148.652584 
L -101.019823 149.95669 
L -108.839494 151.260796 
L -116.659166 152.564902 
L -124.478837 153.869007 
L -132.298508 155.173113 
L -140.118179 156.477219 
L -147.937851 157.781325 
L -155.757522 159.08543 
L -163.577193 160.389536 
L -171.396864 161.693642 
z
" style="fill:#2ca02c;fill-opacity:0.15;"/>
   </g>
   <g id="matplotlib.axis_3">
    <g id="xtick_7">
     <g id="line2d_12">
      <g>
       <use style="stroke:#000000;stroke-width:0.8;" x="59.645313" xlink:href="#m6f38dd1a0a" y="134.182332"/>
      </g>
     </g>
     <g id="text_4">
      <!-- 0.000 -->
      <g transform="translate(45.33125 148.780769)scale(0.1 -0.1)">
       <use xlink:href="#DejaVuSans-48"/>
       <use x="63.623047" xlink:href="#DejaVuSans-46"/>
       <use x="95.410156" xlink:href="#DejaVuSans-48"/>
       <use x="159.033203" xlink:href="#DejaVuSans-48"/>
       <use x="222.65625" xlink:href="#DejaVuSans-48"/>
      </g>
     </g>
    </g>
    <g id="xtick_8">
     <g id="line2d_13">
      <g>
       <use style="stroke:#000000;stroke-width:0.8;" x="101.253726" xlink:href="#m6f38dd1a0a" y="134.182332"/>
      </g>
     </g>
     <g id="text_5">
      <!-- 0.002 -->
      <g transform="translate(86.939663 148.780769)scale(0.1 -0.1)">
       <use xlink:href="#DejaVuSans-48"/>
       <use x="63.623047" xlink:href="#DejaVuSans-46"/>
       <use x="95.410156" xlink:href="#DejaVuSans-48"/>
       <use x="159.033203" xlink:href="#DejaVuSans-48"/>
       <use x="222.65625" xlink:href="#DejaVuSans-50"/>
      </g>
     </g>
    </g>
    <g id="xtick_9">
     <g id="line2d_14">
      <g>
       <use style="stroke:#000000;stroke-width:0.8;" x="142.862139" xlink:href="#m6f38dd1a0a" y="134.182332"/>
      </g>
     </g>
     <g id="text_6">
      <!-- 0.004 -->
      <defs>
       <path d="M 37.796875 64.3125 
L 12.890625 25.390625 
L 37.796875 25.390625 
z
M 35.203125 72.90625 
L 47.609375 72.90625 
L 47.609375 25.390625 
L 58.015625 25.390625 
L 58.015625 17.1875 
L 47.609375 17.1875 
L 47.609375 0 
L 37.796875 0 
L 37.796875 17.1875 
L 4.890625 17.1875 
L 4.890625 26.703125 
z
" id="DejaVuSans-52"/>
      </defs>
      <g transform="translate(128.548077 148.780769)scale(0.1 -0.1)">
       <use xlink:href="#DejaVuSans-48"/>
       <use x="63.623047" xlink:href="#DejaVuSans-46"/>
       <use x="95.410156" xlink:href="#DejaVuSans-48"/>
       <use x="159.033203" xlink:href="#DejaVuSans-48"/>
       <use x="222.65625" xlink:href="#DejaVuSans-52"/>
      </g>
     </g>
    </g>
    <g id="xtick_10">
     <g id="line2d_15">
      <g>
       <use style="stroke:#000000;stroke-width:0.8;" x="184.470553" xlink:href="#m6f38dd1a0a" y="134.182332"/>
      </g>
     </g>
     <g id="text_7">
      <!-- 0.006 -->
      <defs>
       <path d="M 33.015625 40.375 
Q 26.375 40.375 22.484375 35.828125 
Q 18.609375 31.296875 18.609375 23.390625 
Q 18.609375 15.53125 22.484375 10.953125 
Q 26.375 6.390625 33.015625 6.390625 
Q 39.65625 6.390625 43.53125 10.953125 
Q 47.40625 15.53125 47.40625 23.390625 
Q 47.40625 31.296875 43.53125 35.828125 
Q 39.65625 40.375 33.015625 40.375 
z
M 52.59375 71.296875 
L 52.59375 62.3125 
Q 48.875 64.0625 45.09375 64.984375 
Q 41.3125 65.921875 37.59375 65.921875 
Q 27.828125 65.921875 22.671875 59.328125 
Q 17.53125 52.734375 16.796875 39.40625 
Q 19.671875 43.65625 24.015625 45.921875 
Q 28.375 48.1875 33.59375 48.1875 
Q 44.578125 48.1875 50.953125 41.515625 
Q 57.328125 34.859375 57.328125 23.390625 
Q 57.328125 12.15625 50.6875 5.359375 
Q 44.046875 -1.421875 33.015625 -1.421875 
Q 20.359375 -1.421875 13.671875 8.265625 
Q 6.984375 17.96875 6.984375 36.375 
Q 6.984375 53.65625 15.1875 63.9375 
Q 23.390625 74.21875 37.203125 74.21875 
Q 40.921875 74.21875 44.703125 73.484375 
Q 48.484375 72.75 52.59375 71.296875 
z
" id="DejaVuSans-54"/>
      </defs>
      <g transform="translate(170.15649 148.780769)scale(0.1 -0.1)">
       <use xlink:href="#DejaVuSans-48"/>
       <use x="63.623047" xlink:href="#DejaVuSans-46"/>
       <use x="95.410156" xlink:href="#DejaVuSans-48"/>
       <use x="159.033203" xlink:href="#DejaVuSans-48"/>
       <use x="222.65625" xlink:href="#DejaVuSans-54"/>
      </g>
     </g>
    </g>
    <g id="xtick_11">
     <g id="line2d_16">
      <g>
       <use style="stroke:#000000;stroke-width:0.8;" x="226.078966" xlink:href="#m6f38dd1a0a" y="134.182332"/>
      </g>
     </g>
     <g id="text_8">
      <!-- 0.008 -->
      <defs>
       <path d="M 31.78125 34.625 
Q 24.75 34.625 20.71875 30.859375 
Q 16.703125 27.09375 16.703125 20.515625 
Q 16.703125 13.921875 20.71875 10.15625 
Q 24.75 6.390625 31.78125 6.390625 
Q 38.8125 6.390625 42.859375 10.171875 
Q 46.921875 13.96875 46.921875 20.515625 
Q 46.921875 27.09375 42.890625 30.859375 
Q 38.875 34.625 31.78125 34.625 
z
M 21.921875 38.8125 
Q 15.578125 40.375 12.03125 44.71875 
Q 8.5 49.078125 8.5 55.328125 
Q 8.5 64.0625 14.71875 69.140625 
Q 20.953125 74.21875 31.78125 74.21875 
Q 42.671875 74.21875 48.875 69.140625 
Q 55.078125 64.0625 55.078125 55.328125 
Q 55.078125 49.078125 51.53125 44.71875 
Q 48 40.375 41.703125 38.8125 
Q 48.828125 37.15625 52.796875 32.3125 
Q 56.78125 27.484375 56.78125 20.515625 
Q 56.78125 9.90625 50.3125 4.234375 
Q 43.84375 -1.421875 31.78125 -1.421875 
Q 19.734375 -1.421875 13.25 4.234375 
Q 6.78125 9.90625 6.78125 20.515625 
Q 6.78125 27.484375 10.78125 32.3125 
Q 14.796875 37.15625 21.921875 38.8125 
z
M 18.3125 54.390625 
Q 18.3125 48.734375 21.84375 45.5625 
Q 25.390625 42.390625 31.78125 42.390625 
Q 38.140625 42.390625 41.71875 45.5625 
Q 45.3125 48.734375 45.3125 54.390625 
Q 45.3125 60.0625 41.71875 63.234375 
Q 38.140625 66.40625 31.78125 66.40625 
Q 25.390625 66.40625 21.84375 63.234375 
Q 18.3125 60.0625 18.3125 54.390625 
z
" id="DejaVuSans-56"/>
      </defs>
      <g transform="translate(211.764904 148.780769)scale(0.1 -0.1)">
       <use xlink:href="#DejaVuSans-48"/>
       <use x="63.623047" xlink:href="#DejaVuSans-46"/>
       <use x="95.410156" xlink:href="#DejaVuSans-48"/>
       <use x="159.033203" xlink:href="#DejaVuSans-48"/>
       <use x="222.65625" xlink:href="#DejaVuSans-56"/>
      </g>
     </g>
    </g>
    <g id="xtick_12">
     <g id="line2d_17">
      <g>
       <use style="stroke:#000000;stroke-width:0.8;" x="267.687379" xlink:href="#m6f38dd1a0a" y="134.182332"/>
      </g>
     </g>
     <g id="text_9">
      <!-- 0.010 -->
      <defs>
       <path d="M 12.40625 8.296875 
L 28.515625 8.296875 
L 28.515625 63.921875 
L 10.984375 60.40625 
L 10.984375 69.390625 
L 28.421875 72.90625 
L 38.28125 72.90625 
L 38.28125 8.296875 
L 54.390625 8.296875 
L 54.390625 0 
L 12.40625 0 
z
" id="DejaVuSans-49"/>
      </defs>
      <g transform="translate(253.373317 148.780769)scale(0.1 -0.1)">
       <use xlink:href="#DejaVuSans-48"/>
       <use x="63.623047" xlink:href="#DejaVuSans-46"/>
       <use x="95.410156" xlink:href="#DejaVuSans-48"/>
       <use x="159.033203" xlink:href="#DejaVuSans-49"/>
       <use x="222.65625" xlink:href="#DejaVuSans-48"/>
      </g>
     </g>
    </g>
    <g id="text_10">
     <!-- $1/N_x$ -->
     <defs>
      <path d="M 25.390625 72.90625 
L 33.6875 72.90625 
L 8.296875 -9.28125 
L 0 -9.28125 
z
" id="DejaVuSans-47"/>
      <path d="M 16.890625 72.90625 
L 30.171875 72.90625 
L 50.296875 10.40625 
L 62.5 72.90625 
L 72.125 72.90625 
L 57.90625 0 
L 44.578125 0 
L 24.515625 62.890625 
L 12.3125 0 
L 2.6875 0 
z
" id="DejaVuSans-Oblique-78"/>
      <path d="M 60.015625 54.6875 
L 34.90625 27.875 
L 50.296875 0 
L 39.984375 0 
L 28.421875 21.6875 
L 8.296875 0 
L -2.59375 0 
L 24.3125 28.8125 
L 10.015625 54.6875 
L 20.3125 54.6875 
L 30.8125 34.90625 
L 49.125 54.6875 
z
" id="DejaVuSans-Oblique-120"/>
     </defs>
     <g transform="translate(163.218449 162.458894)scale(0.1 -0.1)">
      <use transform="translate(0 0.09375)" xlink:href="#DejaVuSans-49"/>
      <use transform="translate(63.623047 0.09375)" xlink:href="#DejaVuSans-47"/>
      <use transform="translate(97.314453 0.09375)" xlink:href="#DejaVuSans-Oblique-78"/>
      <use transform="translate(172.119141 -16.3125)scale(0.7)" xlink:href="#DejaVuSans-Oblique-120"/>
     </g>
    </g>
   </g>
   <g id="matplotlib.axis_4">
    <g id="ytick_3">
     <g id="line2d_18">
      <g>
       <use style="stroke:#000000;stroke-width:0.8;" x="59.645313" xlink:href="#md046dbc517" y="127.950886"/>
      </g>
     </g>
     <g id="text_11">
      <!-- 0 -->
      <g transform="translate(46.282813 131.750104)scale(0.1 -0.1)">
       <use xlink:href="#DejaVuSans-48"/>
      </g>
     </g>
    </g>
    <g id="ytick_4">
     <g id="line2d_19">
      <g>
       <use style="stroke:#000000;stroke-width:0.8;" x="59.645313" xlink:href="#md046dbc517" y="96.793656"/>
      </g>
     </g>
     <g id="text_12">
      <!-- 1 -->
      <g transform="translate(46.282813 100.592875)scale(0.1 -0.1)">
       <use xlink:href="#DejaVuSans-49"/>
      </g>
     </g>
    </g>
    <g id="text_13">
     <!-- variance -->
     <defs>
      <path d="M 54.890625 33.015625 
L 54.890625 0 
L 45.90625 0 
L 45.90625 32.71875 
Q 45.90625 40.484375 42.875 44.328125 
Q 39.84375 48.1875 33.796875 48.1875 
Q 26.515625 48.1875 22.3125 43.546875 
Q 18.109375 38.921875 18.109375 30.90625 
L 18.109375 0 
L 9.078125 0 
L 9.078125 54.6875 
L 18.109375 54.6875 
L 18.109375 46.1875 
Q 21.34375 51.125 25.703125 53.5625 
Q 30.078125 56 35.796875 56 
Q 45.21875 56 50.046875 50.171875 
Q 54.890625 44.34375 54.890625 33.015625 
z
" id="DejaVuSans-110"/>
      <path d="M 48.78125 52.59375 
L 48.78125 44.1875 
Q 44.96875 46.296875 41.140625 47.34375 
Q 37.3125 48.390625 33.40625 48.390625 
Q 24.65625 48.390625 19.8125 42.84375 
Q 14.984375 37.3125 14.984375 27.296875 
Q 14.984375 17.28125 19.8125 11.734375 
Q 24.65625 6.203125 33.40625 6.203125 
Q 37.3125 6.203125 41.140625 7.25 
Q 44.96875 8.296875 48.78125 10.40625 
L 48.78125 2.09375 
Q 45.015625 0.34375 40.984375 -0.53125 
Q 36.96875 -1.421875 32.421875 -1.421875 
Q 20.0625 -1.421875 12.78125 6.34375 
Q 5.515625 14.109375 5.515625 27.296875 
Q 5.515625 40.671875 12.859375 48.328125 
Q 20.21875 56 33.015625 56 
Q 37.15625 56 41.109375 55.140625 
Q 45.0625 54.296875 48.78125 52.59375 
z
" id="DejaVuSans-99"/>
     </defs>
     <g transform="translate(40.203125 127.667388)rotate(-90)scale(0.1 -0.1)">
      <use xlink:href="#DejaVuSans-118"/>
      <use x="59.179688" xlink:href="#DejaVuSans-97"/>
      <use x="120.458984" xlink:href="#DejaVuSans-114"/>
      <use x="161.572266" xlink:href="#DejaVuSans-105"/>
      <use x="189.355469" xlink:href="#DejaVuSans-97"/>
      <use x="250.634766" xlink:href="#DejaVuSans-110"/>
      <use x="314.013672" xlink:href="#DejaVuSans-99"/>
      <use x="368.994141" xlink:href="#DejaVuSans-101"/>
     </g>
    </g>
   </g>
   <g id="line2d_20">
    <path clip-path="url(#pebee4a07d2)" d="M -1 128.405643 
L 0.635903 128.392942 
L 8.455574 128.332232 
L 16.275246 128.271522 
L 24.094917 128.210812 
L 31.914588 128.150102 
L 39.734259 128.089392 
L 47.553931 128.028682 
L 55.373602 127.967972 
L 63.193273 127.907262 
L 71.012944 127.846552 
L 78.832616 127.785842 
L 86.652287 127.725132 
L 94.471958 127.664422 
L 102.29163 127.603712 
L 110.111301 127.543002 
L 117.930972 127.482292 
L 125.750643 127.421582 
L 133.570315 127.360872 
L 141.389986 127.300162 
L 149.209657 127.239452 
L 157.029328 127.178742 
L 164.849 127.118032 
L 172.668671 127.057322 
L 180.488342 126.996612 
L 188.308013 126.935902 
L 196.127685 126.875192 
L 203.947356 126.814482 
L 211.767027 126.753772 
L 219.586698 126.693062 
L 227.40637 126.632352 
L 235.226041 126.571642 
L 243.045712 126.510932 
L 250.865383 126.450222 
L 258.685055 126.389512 
L 266.504726 126.328802 
L 274.324397 126.268092 
L 282.144068 126.207382 
L 289.96374 126.146672 
L 297.783411 126.085962 
L 305.603082 126.025252 
L 313.422753 125.964542 
L 321.242425 125.903832 
L 329.062096 125.843122 
L 336.881767 125.782412 
L 344.701438 125.721702 
L 352.52111 125.660992 
L 360.245789 125.601019 
" style="fill:none;stroke:#1f77b4;stroke-linecap:square;stroke-width:2.25;"/>
   </g>
   <g id="line2d_21">
    <path clip-path="url(#pebee4a07d2)" d="M -1 131.091714 
L 0.635903 130.960928 
L 8.455574 130.335767 
L 16.275246 129.710606 
L 24.094917 129.085444 
L 31.914588 128.460283 
L 39.734259 127.835121 
L 47.553931 127.20996 
L 55.373602 126.584799 
L 63.193273 125.959637 
L 71.012944 125.334476 
L 78.832616 124.709314 
L 86.652287 124.084153 
L 94.471958 123.458991 
L 102.29163 122.83383 
L 110.111301 122.208669 
L 117.930972 121.583507 
L 125.750643 120.958346 
L 133.570315 120.333184 
L 141.389986 119.708023 
L 149.209657 119.082862 
L 157.029328 118.4577 
L 164.849 117.832539 
L 172.668671 117.207377 
L 180.488342 116.582216 
L 188.308013 115.957054 
L 196.127685 115.331893 
L 203.947356 114.706732 
L 211.767027 114.08157 
L 219.586698 113.456409 
L 227.40637 112.831247 
L 235.226041 112.206086 
L 243.045712 111.580924 
L 250.865383 110.955763 
L 258.685055 110.330602 
L 266.504726 109.70544 
L 274.324397 109.080279 
L 282.144068 108.455117 
L 289.96374 107.829956 
L 297.783411 107.204795 
L 305.603082 106.579633 
L 313.422753 105.954472 
L 321.242425 105.32931 
L 329.062096 104.704149 
L 336.881767 104.078987 
L 344.701438 103.453826 
L 352.52111 102.828665 
L 360.245789 102.211098 
" style="fill:none;stroke:#ff7f0e;stroke-linecap:square;stroke-width:2.25;"/>
   </g>
   <g id="line2d_22">
    <path clip-path="url(#pebee4a07d2)" d="M -1 144.648845 
L 0.635903 144.278022 
L 8.455574 142.505473 
L 16.275246 140.732924 
L 24.094917 138.960375 
L 31.914588 137.187826 
L 39.734259 135.415277 
L 47.553931 133.642729 
L 55.373602 131.87018 
L 63.193273 130.097631 
L 71.012944 128.325082 
L 78.832616 126.552533 
L 86.652287 124.779984 
L 94.471958 123.007436 
L 102.29163 121.234887 
L 110.111301 119.462338 
L 117.930972 117.689789 
L 125.750643 115.91724 
L 133.570315 114.144691 
L 141.389986 112.372142 
L 149.209657 110.599594 
L 157.029328 108.827045 
L 164.849 107.054496 
L 172.668671 105.281947 
L 180.488342 103.509398 
L 188.308013 101.736849 
L 196.127685 99.9643 
L 203.947356 98.191752 
L 211.767027 96.419203 
L 219.586698 94.646654 
L 227.40637 92.874105 
L 235.226041 91.101556 
L 243.045712 89.329007 
L 250.865383 87.556459 
L 258.685055 85.78391 
L 266.504726 84.011361 
L 274.324397 82.238812 
L 282.144068 80.466263 
L 289.96374 78.693714 
L 297.783411 76.921165 
L 305.603082 75.148617 
L 313.422753 73.376068 
L 321.242425 71.603519 
L 329.062096 69.83097 
L 336.881767 68.058421 
L 344.701438 66.285872 
L 352.52111 64.513324 
L 360.245789 62.762307 
" style="fill:none;stroke:#2ca02c;stroke-linecap:square;stroke-width:2.25;"/>
   </g>
   <g id="patch_6">
    <path d="M 59.645313 134.182332 
L 59.645313 78.099319 
" style="fill:none;stroke:#000000;stroke-linecap:square;stroke-linejoin:miter;stroke-width:0.8;"/>
   </g>
   <g id="patch_7">
    <path d="M 59.645313 134.182332 
L 288.491586 134.182332 
" style="fill:none;stroke:#000000;stroke-linecap:square;stroke-linejoin:miter;stroke-width:0.8;"/>
   </g>
  </g>
  <g id="legend_1">
   <g id="text_14">
    <!-- dimensions -->
    <defs>
     <path d="M 45.40625 46.390625 
L 45.40625 75.984375 
L 54.390625 75.984375 
L 54.390625 0 
L 45.40625 0 
L 45.40625 8.203125 
Q 42.578125 3.328125 38.25 0.953125 
Q 33.9375 -1.421875 27.875 -1.421875 
Q 17.96875 -1.421875 11.734375 6.484375 
Q 5.515625 14.40625 5.515625 27.296875 
Q 5.515625 40.1875 11.734375 48.09375 
Q 17.96875 56 27.875 56 
Q 33.9375 56 38.25 53.625 
Q 42.578125 51.265625 45.40625 46.390625 
z
M 14.796875 27.296875 
Q 14.796875 17.390625 18.875 11.75 
Q 22.953125 6.109375 30.078125 6.109375 
Q 37.203125 6.109375 41.296875 11.75 
Q 45.40625 17.390625 45.40625 27.296875 
Q 45.40625 37.203125 41.296875 42.84375 
Q 37.203125 48.484375 30.078125 48.484375 
Q 22.953125 48.484375 18.875 42.84375 
Q 14.796875 37.203125 14.796875 27.296875 
z
" id="DejaVuSans-100"/>
     <path d="M 52 44.1875 
Q 55.375 50.25 60.0625 53.125 
Q 64.75 56 71.09375 56 
Q 79.640625 56 84.28125 50.015625 
Q 88.921875 44.046875 88.921875 33.015625 
L 88.921875 0 
L 79.890625 0 
L 79.890625 32.71875 
Q 79.890625 40.578125 77.09375 44.375 
Q 74.3125 48.1875 68.609375 48.1875 
Q 61.625 48.1875 57.5625 43.546875 
Q 53.515625 38.921875 53.515625 30.90625 
L 53.515625 0 
L 44.484375 0 
L 44.484375 32.71875 
Q 44.484375 40.625 41.703125 44.40625 
Q 38.921875 48.1875 33.109375 48.1875 
Q 26.21875 48.1875 22.15625 43.53125 
Q 18.109375 38.875 18.109375 30.90625 
L 18.109375 0 
L 9.078125 0 
L 9.078125 54.6875 
L 18.109375 54.6875 
L 18.109375 46.1875 
Q 21.1875 51.21875 25.484375 53.609375 
Q 29.78125 56 35.6875 56 
Q 41.65625 56 45.828125 52.96875 
Q 50 49.953125 52 44.1875 
z
" id="DejaVuSans-109"/>
     <path d="M 44.28125 53.078125 
L 44.28125 44.578125 
Q 40.484375 46.53125 36.375 47.5 
Q 32.28125 48.484375 27.875 48.484375 
Q 21.1875 48.484375 17.84375 46.4375 
Q 14.5 44.390625 14.5 40.28125 
Q 14.5 37.15625 16.890625 35.375 
Q 19.28125 33.59375 26.515625 31.984375 
L 29.59375 31.296875 
Q 39.15625 29.25 43.1875 25.515625 
Q 47.21875 21.78125 47.21875 15.09375 
Q 47.21875 7.46875 41.1875 3.015625 
Q 35.15625 -1.421875 24.609375 -1.421875 
Q 20.21875 -1.421875 15.453125 -0.5625 
Q 10.6875 0.296875 5.421875 2 
L 5.421875 11.28125 
Q 10.40625 8.6875 15.234375 7.390625 
Q 20.0625 6.109375 24.8125 6.109375 
Q 31.15625 6.109375 34.5625 8.28125 
Q 37.984375 10.453125 37.984375 14.40625 
Q 37.984375 18.0625 35.515625 20.015625 
Q 33.0625 21.96875 24.703125 23.78125 
L 21.578125 24.515625 
Q 13.234375 26.265625 9.515625 29.90625 
Q 5.8125 33.546875 5.8125 39.890625 
Q 5.8125 47.609375 11.28125 51.796875 
Q 16.75 56 26.8125 56 
Q 31.78125 56 36.171875 55.265625 
Q 40.578125 54.546875 44.28125 53.078125 
z
" id="DejaVuSans-115"/>
    </defs>
    <g transform="translate(293.234851 66.611478)scale(0.1 -0.1)">
     <use xlink:href="#DejaVuSans-100"/>
     <use x="63.476562" xlink:href="#DejaVuSans-105"/>
     <use x="91.259766" xlink:href="#DejaVuSans-109"/>
     <use x="188.671875" xlink:href="#DejaVuSans-101"/>
     <use x="250.195312" xlink:href="#DejaVuSans-110"/>
     <use x="313.574219" xlink:href="#DejaVuSans-115"/>
     <use x="365.673828" xlink:href="#DejaVuSans-105"/>
     <use x="393.457031" xlink:href="#DejaVuSans-111"/>
     <use x="454.638672" xlink:href="#DejaVuSans-110"/>
     <use x="518.017578" xlink:href="#DejaVuSans-115"/>
    </g>
   </g>
   <g id="PathCollection_7">
    <g>
     <use style="fill:#1f77b4;fill-opacity:0.8;stroke:#1f77b4;stroke-opacity:0.8;" x="308.19657" xlink:href="#m0efbf31e4f" y="78.664603"/>
    </g>
   </g>
   <g id="text_15">
    <!-- 10 -->
    <g transform="translate(326.19657 81.289603)scale(0.1 -0.1)">
     <use xlink:href="#DejaVuSans-49"/>
     <use x="63.623047" xlink:href="#DejaVuSans-48"/>
    </g>
   </g>
   <g id="PathCollection_8">
    <g>
     <use style="fill:#ff7f0e;fill-opacity:0.8;stroke:#ff7f0e;stroke-opacity:0.8;" x="308.19657" xlink:href="#m04a40bd691" y="93.342728"/>
    </g>
   </g>
   <g id="text_16">
    <!-- 100 -->
    <g transform="translate(326.19657 95.967728)scale(0.1 -0.1)">
     <use xlink:href="#DejaVuSans-49"/>
     <use x="63.623047" xlink:href="#DejaVuSans-48"/>
     <use x="127.246094" xlink:href="#DejaVuSans-48"/>
    </g>
   </g>
   <g id="PathCollection_9">
    <g>
     <use style="fill:#2ca02c;fill-opacity:0.8;stroke:#2ca02c;stroke-opacity:0.8;" x="308.19657" xlink:href="#m8b8deecf18" y="108.020853"/>
    </g>
   </g>
   <g id="text_17">
    <!-- 200 -->
    <g transform="translate(326.19657 110.645853)scale(0.1 -0.1)">
     <use xlink:href="#DejaVuSans-50"/>
     <use x="63.623047" xlink:href="#DejaVuSans-48"/>
     <use x="127.246094" xlink:href="#DejaVuSans-48"/>
    </g>
   </g>
  </g>
 </g>
 <defs>
  <clipPath id="pea835d7a60">
   <rect height="56.083013" width="228.846274" x="59.645313" y="12.016306"/>
  </clipPath>
  <clipPath id="pebee4a07d2">
   <rect height="56.083013" width="228.846274" x="59.645313" y="78.099319"/>
  </clipPath>
 </defs>
</svg>
