<?xml version="1.0" encoding="utf-8" standalone="no"?>
<!DOCTYPE svg PUBLIC "-//W3C//DTD SVG 1.1//EN"
  "http://www.w3.org/Graphics/SVG/1.1/DTD/svg11.dtd">
<!-- Created with matplotlib (https://matplotlib.org/) -->
<svg height="170.07874pt" version="1.1" viewBox="0 0 575.36122 170.07874" width="575.36122pt" xmlns="http://www.w3.org/2000/svg" xmlns:xlink="http://www.w3.org/1999/xlink">
 <defs>
  <style type="text/css">
*{stroke-linecap:butt;stroke-linejoin:round;}
  </style>
 </defs>
 <g id="figure_1">
  <g id="patch_1">
   <path d="M 0 170.07874 
L 575.36122 170.07874 
L 575.36122 0 
L 0 0 
z
" style="fill:#ffffff;"/>
  </g>
  <g id="axes_1">
   <g id="patch_2">
    <path d="M 70.251783 128.27874 
L 207.843245 128.27874 
L 207.843245 24.8 
L 70.251783 24.8 
z
" style="fill:#ffffff;"/>
   </g>
   <g id="matplotlib.axis_1">
    <g id="xtick_1">
     <g id="line2d_1">
      <path clip-path="url(#p676c48aa6a)" d="M 79.424547 128.27874 
L 79.424547 24.8 
" style="fill:none;stroke:#cccccc;stroke-linecap:round;stroke-width:0.8;"/>
     </g>
     <g id="text_1">
      <!-- 0.000 -->
      <defs>
       <path d="M 31.78125 66.40625 
Q 24.171875 66.40625 20.328125 58.90625 
Q 16.5 51.421875 16.5 36.375 
Q 16.5 21.390625 20.328125 13.890625 
Q 24.171875 6.390625 31.78125 6.390625 
Q 39.453125 6.390625 43.28125 13.890625 
Q 47.125 21.390625 47.125 36.375 
Q 47.125 51.421875 43.28125 58.90625 
Q 39.453125 66.40625 31.78125 66.40625 
z
M 31.78125 74.21875 
Q 44.046875 74.21875 50.515625 64.515625 
Q 56.984375 54.828125 56.984375 36.375 
Q 56.984375 17.96875 50.515625 8.265625 
Q 44.046875 -1.421875 31.78125 -1.421875 
Q 19.53125 -1.421875 13.0625 8.265625 
Q 6.59375 17.96875 6.59375 36.375 
Q 6.59375 54.828125 13.0625 64.515625 
Q 19.53125 74.21875 31.78125 74.21875 
z
" id="DejaVuSans-48"/>
       <path d="M 10.6875 12.40625 
L 21 12.40625 
L 21 0 
L 10.6875 0 
z
" id="DejaVuSans-46"/>
      </defs>
      <g style="fill:#262626;" transform="translate(65.110484 142.877178)scale(0.1 -0.1)">
       <use xlink:href="#DejaVuSans-48"/>
       <use x="63.623047" xlink:href="#DejaVuSans-46"/>
       <use x="95.410156" xlink:href="#DejaVuSans-48"/>
       <use x="159.033203" xlink:href="#DejaVuSans-48"/>
       <use x="222.65625" xlink:href="#DejaVuSans-48"/>
      </g>
     </g>
    </g>
    <g id="xtick_2">
     <g id="line2d_2">
      <path clip-path="url(#p676c48aa6a)" d="M 125.288368 128.27874 
L 125.288368 24.8 
" style="fill:none;stroke:#cccccc;stroke-linecap:round;stroke-width:0.8;"/>
     </g>
     <g id="text_2">
      <!-- 0.001 -->
      <defs>
       <path d="M 12.40625 8.296875 
L 28.515625 8.296875 
L 28.515625 63.921875 
L 10.984375 60.40625 
L 10.984375 69.390625 
L 28.421875 72.90625 
L 38.28125 72.90625 
L 38.28125 8.296875 
L 54.390625 8.296875 
L 54.390625 0 
L 12.40625 0 
z
" id="DejaVuSans-49"/>
      </defs>
      <g style="fill:#262626;" transform="translate(110.974305 142.877178)scale(0.1 -0.1)">
       <use xlink:href="#DejaVuSans-48"/>
       <use x="63.623047" xlink:href="#DejaVuSans-46"/>
       <use x="95.410156" xlink:href="#DejaVuSans-48"/>
       <use x="159.033203" xlink:href="#DejaVuSans-48"/>
       <use x="222.65625" xlink:href="#DejaVuSans-49"/>
      </g>
     </g>
    </g>
    <g id="xtick_3">
     <g id="line2d_3">
      <path clip-path="url(#p676c48aa6a)" d="M 171.152189 128.27874 
L 171.152189 24.8 
" style="fill:none;stroke:#cccccc;stroke-linecap:round;stroke-width:0.8;"/>
     </g>
     <g id="text_3">
      <!-- 0.002 -->
      <defs>
       <path d="M 19.1875 8.296875 
L 53.609375 8.296875 
L 53.609375 0 
L 7.328125 0 
L 7.328125 8.296875 
Q 12.9375 14.109375 22.625 23.890625 
Q 32.328125 33.6875 34.8125 36.53125 
Q 39.546875 41.84375 41.421875 45.53125 
Q 43.3125 49.21875 43.3125 52.78125 
Q 43.3125 58.59375 39.234375 62.25 
Q 35.15625 65.921875 28.609375 65.921875 
Q 23.96875 65.921875 18.8125 64.3125 
Q 13.671875 62.703125 7.8125 59.421875 
L 7.8125 69.390625 
Q 13.765625 71.78125 18.9375 73 
Q 24.125 74.21875 28.421875 74.21875 
Q 39.75 74.21875 46.484375 68.546875 
Q 53.21875 62.890625 53.21875 53.421875 
Q 53.21875 48.921875 51.53125 44.890625 
Q 49.859375 40.875 45.40625 35.40625 
Q 44.1875 33.984375 37.640625 27.21875 
Q 31.109375 20.453125 19.1875 8.296875 
z
" id="DejaVuSans-50"/>
      </defs>
      <g style="fill:#262626;" transform="translate(156.838126 142.877178)scale(0.1 -0.1)">
       <use xlink:href="#DejaVuSans-48"/>
       <use x="63.623047" xlink:href="#DejaVuSans-46"/>
       <use x="95.410156" xlink:href="#DejaVuSans-48"/>
       <use x="159.033203" xlink:href="#DejaVuSans-48"/>
       <use x="222.65625" xlink:href="#DejaVuSans-50"/>
      </g>
     </g>
    </g>
    <g id="text_4">
     <!-- 1/num_s -->
     <defs>
      <path d="M 25.390625 72.90625 
L 33.6875 72.90625 
L 8.296875 -9.28125 
L 0 -9.28125 
z
" id="DejaVuSans-47"/>
      <path d="M 54.890625 33.015625 
L 54.890625 0 
L 45.90625 0 
L 45.90625 32.71875 
Q 45.90625 40.484375 42.875 44.328125 
Q 39.84375 48.1875 33.796875 48.1875 
Q 26.515625 48.1875 22.3125 43.546875 
Q 18.109375 38.921875 18.109375 30.90625 
L 18.109375 0 
L 9.078125 0 
L 9.078125 54.6875 
L 18.109375 54.6875 
L 18.109375 46.1875 
Q 21.34375 51.125 25.703125 53.5625 
Q 30.078125 56 35.796875 56 
Q 45.21875 56 50.046875 50.171875 
Q 54.890625 44.34375 54.890625 33.015625 
z
" id="DejaVuSans-110"/>
      <path d="M 8.5 21.578125 
L 8.5 54.6875 
L 17.484375 54.6875 
L 17.484375 21.921875 
Q 17.484375 14.15625 20.5 10.265625 
Q 23.53125 6.390625 29.59375 6.390625 
Q 36.859375 6.390625 41.078125 11.03125 
Q 45.3125 15.671875 45.3125 23.6875 
L 45.3125 54.6875 
L 54.296875 54.6875 
L 54.296875 0 
L 45.3125 0 
L 45.3125 8.40625 
Q 42.046875 3.421875 37.71875 1 
Q 33.40625 -1.421875 27.6875 -1.421875 
Q 18.265625 -1.421875 13.375 4.4375 
Q 8.5 10.296875 8.5 21.578125 
z
M 31.109375 56 
z
" id="DejaVuSans-117"/>
      <path d="M 52 44.1875 
Q 55.375 50.25 60.0625 53.125 
Q 64.75 56 71.09375 56 
Q 79.640625 56 84.28125 50.015625 
Q 88.921875 44.046875 88.921875 33.015625 
L 88.921875 0 
L 79.890625 0 
L 79.890625 32.71875 
Q 79.890625 40.578125 77.09375 44.375 
Q 74.3125 48.1875 68.609375 48.1875 
Q 61.625 48.1875 57.5625 43.546875 
Q 53.515625 38.921875 53.515625 30.90625 
L 53.515625 0 
L 44.484375 0 
L 44.484375 32.71875 
Q 44.484375 40.625 41.703125 44.40625 
Q 38.921875 48.1875 33.109375 48.1875 
Q 26.21875 48.1875 22.15625 43.53125 
Q 18.109375 38.875 18.109375 30.90625 
L 18.109375 0 
L 9.078125 0 
L 9.078125 54.6875 
L 18.109375 54.6875 
L 18.109375 46.1875 
Q 21.1875 51.21875 25.484375 53.609375 
Q 29.78125 56 35.6875 56 
Q 41.65625 56 45.828125 52.96875 
Q 50 49.953125 52 44.1875 
z
" id="DejaVuSans-109"/>
      <path d="M 50.984375 -16.609375 
L 50.984375 -23.578125 
L -0.984375 -23.578125 
L -0.984375 -16.609375 
z
" id="DejaVuSans-95"/>
      <path d="M 44.28125 53.078125 
L 44.28125 44.578125 
Q 40.484375 46.53125 36.375 47.5 
Q 32.28125 48.484375 27.875 48.484375 
Q 21.1875 48.484375 17.84375 46.4375 
Q 14.5 44.390625 14.5 40.28125 
Q 14.5 37.15625 16.890625 35.375 
Q 19.28125 33.59375 26.515625 31.984375 
L 29.59375 31.296875 
Q 39.15625 29.25 43.1875 25.515625 
Q 47.21875 21.78125 47.21875 15.09375 
Q 47.21875 7.46875 41.1875 3.015625 
Q 35.15625 -1.421875 24.609375 -1.421875 
Q 20.21875 -1.421875 15.453125 -0.5625 
Q 10.6875 0.296875 5.421875 2 
L 5.421875 11.28125 
Q 10.40625 8.6875 15.234375 7.390625 
Q 20.0625 6.109375 24.8125 6.109375 
Q 31.15625 6.109375 34.5625 8.28125 
Q 37.984375 10.453125 37.984375 14.40625 
Q 37.984375 18.0625 35.515625 20.015625 
Q 33.0625 21.96875 24.703125 23.78125 
L 21.578125 24.515625 
Q 13.234375 26.265625 9.515625 29.90625 
Q 5.8125 33.546875 5.8125 39.890625 
Q 5.8125 47.609375 11.28125 51.796875 
Q 16.75 56 26.8125 56 
Q 31.78125 56 36.171875 55.265625 
Q 40.578125 54.546875 44.28125 53.078125 
z
" id="DejaVuSans-115"/>
     </defs>
     <g style="fill:#262626;" transform="translate(117.869389 156.277178)scale(0.1 -0.1)">
      <use xlink:href="#DejaVuSans-49"/>
      <use x="63.623047" xlink:href="#DejaVuSans-47"/>
      <use x="97.314453" xlink:href="#DejaVuSans-110"/>
      <use x="160.693359" xlink:href="#DejaVuSans-117"/>
      <use x="224.072266" xlink:href="#DejaVuSans-109"/>
      <use x="321.484375" xlink:href="#DejaVuSans-95"/>
      <use x="371.484375" xlink:href="#DejaVuSans-115"/>
     </g>
    </g>
   </g>
   <g id="matplotlib.axis_2">
    <g id="ytick_1">
     <g id="line2d_4">
      <path clip-path="url(#p676c48aa6a)" d="M 70.251783 112.600143 
L 207.843245 112.600143 
" style="fill:none;stroke:#cccccc;stroke-linecap:round;stroke-width:0.8;"/>
     </g>
     <g id="text_5">
      <!-- 0.00 -->
      <g style="fill:#262626;" transform="translate(40.986158 116.399362)scale(0.1 -0.1)">
       <use xlink:href="#DejaVuSans-48"/>
       <use x="63.623047" xlink:href="#DejaVuSans-46"/>
       <use x="95.410156" xlink:href="#DejaVuSans-48"/>
       <use x="159.033203" xlink:href="#DejaVuSans-48"/>
      </g>
     </g>
    </g>
    <g id="ytick_2">
     <g id="line2d_5">
      <path clip-path="url(#p676c48aa6a)" d="M 70.251783 81.242949 
L 207.843245 81.242949 
" style="fill:none;stroke:#cccccc;stroke-linecap:round;stroke-width:0.8;"/>
     </g>
     <g id="text_6">
      <!-- 0.01 -->
      <g style="fill:#262626;" transform="translate(40.986158 85.042168)scale(0.1 -0.1)">
       <use xlink:href="#DejaVuSans-48"/>
       <use x="63.623047" xlink:href="#DejaVuSans-46"/>
       <use x="95.410156" xlink:href="#DejaVuSans-48"/>
       <use x="159.033203" xlink:href="#DejaVuSans-49"/>
      </g>
     </g>
    </g>
    <g id="ytick_3">
     <g id="line2d_6">
      <path clip-path="url(#p676c48aa6a)" d="M 70.251783 49.885755 
L 207.843245 49.885755 
" style="fill:none;stroke:#cccccc;stroke-linecap:round;stroke-width:0.8;"/>
     </g>
     <g id="text_7">
      <!-- 0.02 -->
      <g style="fill:#262626;" transform="translate(40.986158 53.684974)scale(0.1 -0.1)">
       <use xlink:href="#DejaVuSans-48"/>
       <use x="63.623047" xlink:href="#DejaVuSans-46"/>
       <use x="95.410156" xlink:href="#DejaVuSans-48"/>
       <use x="159.033203" xlink:href="#DejaVuSans-50"/>
      </g>
     </g>
    </g>
    <g id="text_8">
     <!-- relative error -->
     <defs>
      <path d="M 41.109375 46.296875 
Q 39.59375 47.171875 37.8125 47.578125 
Q 36.03125 48 33.890625 48 
Q 26.265625 48 22.1875 43.046875 
Q 18.109375 38.09375 18.109375 28.8125 
L 18.109375 0 
L 9.078125 0 
L 9.078125 54.6875 
L 18.109375 54.6875 
L 18.109375 46.1875 
Q 20.953125 51.171875 25.484375 53.578125 
Q 30.03125 56 36.53125 56 
Q 37.453125 56 38.578125 55.875 
Q 39.703125 55.765625 41.0625 55.515625 
z
" id="DejaVuSans-114"/>
      <path d="M 56.203125 29.59375 
L 56.203125 25.203125 
L 14.890625 25.203125 
Q 15.484375 15.921875 20.484375 11.0625 
Q 25.484375 6.203125 34.421875 6.203125 
Q 39.59375 6.203125 44.453125 7.46875 
Q 49.3125 8.734375 54.109375 11.28125 
L 54.109375 2.78125 
Q 49.265625 0.734375 44.1875 -0.34375 
Q 39.109375 -1.421875 33.890625 -1.421875 
Q 20.796875 -1.421875 13.15625 6.1875 
Q 5.515625 13.8125 5.515625 26.8125 
Q 5.515625 40.234375 12.765625 48.109375 
Q 20.015625 56 32.328125 56 
Q 43.359375 56 49.78125 48.890625 
Q 56.203125 41.796875 56.203125 29.59375 
z
M 47.21875 32.234375 
Q 47.125 39.59375 43.09375 43.984375 
Q 39.0625 48.390625 32.421875 48.390625 
Q 24.90625 48.390625 20.390625 44.140625 
Q 15.875 39.890625 15.1875 32.171875 
z
" id="DejaVuSans-101"/>
      <path d="M 9.421875 75.984375 
L 18.40625 75.984375 
L 18.40625 0 
L 9.421875 0 
z
" id="DejaVuSans-108"/>
      <path d="M 34.28125 27.484375 
Q 23.390625 27.484375 19.1875 25 
Q 14.984375 22.515625 14.984375 16.5 
Q 14.984375 11.71875 18.140625 8.90625 
Q 21.296875 6.109375 26.703125 6.109375 
Q 34.1875 6.109375 38.703125 11.40625 
Q 43.21875 16.703125 43.21875 25.484375 
L 43.21875 27.484375 
z
M 52.203125 31.203125 
L 52.203125 0 
L 43.21875 0 
L 43.21875 8.296875 
Q 40.140625 3.328125 35.546875 0.953125 
Q 30.953125 -1.421875 24.3125 -1.421875 
Q 15.921875 -1.421875 10.953125 3.296875 
Q 6 8.015625 6 15.921875 
Q 6 25.140625 12.171875 29.828125 
Q 18.359375 34.515625 30.609375 34.515625 
L 43.21875 34.515625 
L 43.21875 35.40625 
Q 43.21875 41.609375 39.140625 45 
Q 35.0625 48.390625 27.6875 48.390625 
Q 23 48.390625 18.546875 47.265625 
Q 14.109375 46.140625 10.015625 43.890625 
L 10.015625 52.203125 
Q 14.9375 54.109375 19.578125 55.046875 
Q 24.21875 56 28.609375 56 
Q 40.484375 56 46.34375 49.84375 
Q 52.203125 43.703125 52.203125 31.203125 
z
" id="DejaVuSans-97"/>
      <path d="M 18.3125 70.21875 
L 18.3125 54.6875 
L 36.8125 54.6875 
L 36.8125 47.703125 
L 18.3125 47.703125 
L 18.3125 18.015625 
Q 18.3125 11.328125 20.140625 9.421875 
Q 21.96875 7.515625 27.59375 7.515625 
L 36.8125 7.515625 
L 36.8125 0 
L 27.59375 0 
Q 17.1875 0 13.234375 3.875 
Q 9.28125 7.765625 9.28125 18.015625 
L 9.28125 47.703125 
L 2.6875 47.703125 
L 2.6875 54.6875 
L 9.28125 54.6875 
L 9.28125 70.21875 
z
" id="DejaVuSans-116"/>
      <path d="M 9.421875 54.6875 
L 18.40625 54.6875 
L 18.40625 0 
L 9.421875 0 
z
M 9.421875 75.984375 
L 18.40625 75.984375 
L 18.40625 64.59375 
L 9.421875 64.59375 
z
" id="DejaVuSans-105"/>
      <path d="M 2.984375 54.6875 
L 12.5 54.6875 
L 29.59375 8.796875 
L 46.6875 54.6875 
L 56.203125 54.6875 
L 35.6875 0 
L 23.484375 0 
z
" id="DejaVuSans-118"/>
      <path id="DejaVuSans-32"/>
      <path d="M 30.609375 48.390625 
Q 23.390625 48.390625 19.1875 42.75 
Q 14.984375 37.109375 14.984375 27.296875 
Q 14.984375 17.484375 19.15625 11.84375 
Q 23.34375 6.203125 30.609375 6.203125 
Q 37.796875 6.203125 41.984375 11.859375 
Q 46.1875 17.53125 46.1875 27.296875 
Q 46.1875 37.015625 41.984375 42.703125 
Q 37.796875 48.390625 30.609375 48.390625 
z
M 30.609375 56 
Q 42.328125 56 49.015625 48.375 
Q 55.71875 40.765625 55.71875 27.296875 
Q 55.71875 13.875 49.015625 6.21875 
Q 42.328125 -1.421875 30.609375 -1.421875 
Q 18.84375 -1.421875 12.171875 6.21875 
Q 5.515625 13.875 5.515625 27.296875 
Q 5.515625 40.765625 12.171875 48.375 
Q 18.84375 56 30.609375 56 
z
" id="DejaVuSans-111"/>
     </defs>
     <g style="fill:#262626;" transform="translate(34.90647 109.397183)rotate(-90)scale(0.1 -0.1)">
      <use xlink:href="#DejaVuSans-114"/>
      <use x="41.082031" xlink:href="#DejaVuSans-101"/>
      <use x="102.605469" xlink:href="#DejaVuSans-108"/>
      <use x="130.388672" xlink:href="#DejaVuSans-97"/>
      <use x="191.667969" xlink:href="#DejaVuSans-116"/>
      <use x="230.876953" xlink:href="#DejaVuSans-105"/>
      <use x="258.660156" xlink:href="#DejaVuSans-118"/>
      <use x="317.839844" xlink:href="#DejaVuSans-101"/>
      <use x="379.363281" xlink:href="#DejaVuSans-32"/>
      <use x="411.150391" xlink:href="#DejaVuSans-101"/>
      <use x="472.673828" xlink:href="#DejaVuSans-114"/>
      <use x="513.771484" xlink:href="#DejaVuSans-114"/>
      <use x="554.853516" xlink:href="#DejaVuSans-111"/>
      <use x="616.035156" xlink:href="#DejaVuSans-114"/>
     </g>
    </g>
   </g>
   <g id="PathCollection_1">
    <defs>
     <path d="M 0 3.535534 
C 0.937635 3.535534 1.836992 3.163008 2.5 2.5 
C 3.163008 1.836992 3.535534 0.937635 3.535534 0 
C 3.535534 -0.937635 3.163008 -1.836992 2.5 -2.5 
C 1.836992 -3.163008 0.937635 -3.535534 0 -3.535534 
C -0.937635 -3.535534 -1.836992 -3.163008 -2.5 -2.5 
C -3.163008 -1.836992 -3.535534 -0.937635 -3.535534 0 
C -3.535534 0.937635 -3.163008 1.836992 -2.5 2.5 
C -1.836992 3.163008 -0.937635 3.535534 0 3.535534 
z
" id="m85320937f1" style="stroke:#4878d0;"/>
    </defs>
    <g clip-path="url(#p676c48aa6a)">
     <use style="fill:#4878d0;stroke:#4878d0;" x="136.754323" xlink:href="#m85320937f1" y="107.036351"/>
     <use style="fill:#4878d0;stroke:#4878d0;" x="143.930624" xlink:href="#m85320937f1" y="110.568228"/>
     <use style="fill:#4878d0;stroke:#4878d0;" x="151.086767" xlink:href="#m85320937f1" y="112.185234"/>
     <use style="fill:#4878d0;stroke:#4878d0;" x="158.363998" xlink:href="#m85320937f1" y="113.678646"/>
     <use style="fill:#4878d0;stroke:#4878d0;" x="165.472991" xlink:href="#m85320937f1" y="113.002429"/>
     <use style="fill:#4878d0;stroke:#4878d0;" x="172.643695" xlink:href="#m85320937f1" y="108.867074"/>
     <use style="fill:#4878d0;stroke:#4878d0;" x="179.783017" xlink:href="#m85320937f1" y="112.565359"/>
     <use style="fill:#4878d0;stroke:#4878d0;" x="187.086098" xlink:href="#m85320937f1" y="114.878818"/>
     <use style="fill:#4878d0;stroke:#4878d0;" x="194.084099" xlink:href="#m85320937f1" y="106.639249"/>
    </g>
   </g>
   <g id="PathCollection_2">
    <defs>
     <path d="M 0 3.535534 
C 0.937635 3.535534 1.836992 3.163008 2.5 2.5 
C 3.163008 1.836992 3.535534 0.937635 3.535534 0 
C 3.535534 -0.937635 3.163008 -1.836992 2.5 -2.5 
C 1.836992 -3.163008 0.937635 -3.535534 0 -3.535534 
C -0.937635 -3.535534 -1.836992 -3.163008 -2.5 -2.5 
C -3.163008 -1.836992 -3.535534 -0.937635 -3.535534 0 
C -3.535534 0.937635 -3.163008 1.836992 -2.5 2.5 
C -1.836992 3.163008 -0.937635 3.535534 0 3.535534 
z
" id="m95054d14b7" style="stroke:#ee854a;"/>
    </defs>
    <g clip-path="url(#p676c48aa6a)">
     <use style="fill:#ee854a;stroke:#ee854a;" x="136.754323" xlink:href="#m95054d14b7" y="111.72398"/>
     <use style="fill:#ee854a;stroke:#ee854a;" x="143.930624" xlink:href="#m95054d14b7" y="111.742266"/>
     <use style="fill:#ee854a;stroke:#ee854a;" x="151.086767" xlink:href="#m95054d14b7" y="112.0323"/>
     <use style="fill:#ee854a;stroke:#ee854a;" x="158.363998" xlink:href="#m95054d14b7" y="113.268662"/>
     <use style="fill:#ee854a;stroke:#ee854a;" x="165.472991" xlink:href="#m95054d14b7" y="112.793922"/>
     <use style="fill:#ee854a;stroke:#ee854a;" x="172.643695" xlink:href="#m95054d14b7" y="113.98601"/>
     <use style="fill:#ee854a;stroke:#ee854a;" x="179.783017" xlink:href="#m95054d14b7" y="112.871136"/>
     <use style="fill:#ee854a;stroke:#ee854a;" x="187.086098" xlink:href="#m95054d14b7" y="112.143806"/>
     <use style="fill:#ee854a;stroke:#ee854a;" x="194.084099" xlink:href="#m95054d14b7" y="109.979344"/>
    </g>
   </g>
   <g id="PathCollection_3">
    <defs>
     <path d="M 0 3.535534 
C 0.937635 3.535534 1.836992 3.163008 2.5 2.5 
C 3.163008 1.836992 3.535534 0.937635 3.535534 0 
C 3.535534 -0.937635 3.163008 -1.836992 2.5 -2.5 
C 1.836992 -3.163008 0.937635 -3.535534 0 -3.535534 
C -0.937635 -3.535534 -1.836992 -3.163008 -2.5 -2.5 
C -3.163008 -1.836992 -3.535534 -0.937635 -3.535534 0 
C -3.535534 0.937635 -3.163008 1.836992 -2.5 2.5 
C -1.836992 3.163008 -0.937635 3.535534 0 3.535534 
z
" id="m21f51bc93e" style="stroke:#6acc64;"/>
    </defs>
    <g clip-path="url(#p676c48aa6a)">
     <use style="fill:#6acc64;stroke:#6acc64;" x="136.754323" xlink:href="#m21f51bc93e" y="111.102494"/>
     <use style="fill:#6acc64;stroke:#6acc64;" x="143.930624" xlink:href="#m21f51bc93e" y="113.315917"/>
     <use style="fill:#6acc64;stroke:#6acc64;" x="151.086767" xlink:href="#m21f51bc93e" y="111.414816"/>
     <use style="fill:#6acc64;stroke:#6acc64;" x="158.363998" xlink:href="#m21f51bc93e" y="112.295073"/>
     <use style="fill:#6acc64;stroke:#6acc64;" x="165.472991" xlink:href="#m21f51bc93e" y="111.983005"/>
     <use style="fill:#6acc64;stroke:#6acc64;" x="172.643695" xlink:href="#m21f51bc93e" y="110.588504"/>
     <use style="fill:#6acc64;stroke:#6acc64;" x="179.783017" xlink:href="#m21f51bc93e" y="112.046097"/>
     <use style="fill:#6acc64;stroke:#6acc64;" x="187.086098" xlink:href="#m21f51bc93e" y="111.462349"/>
     <use style="fill:#6acc64;stroke:#6acc64;" x="194.084099" xlink:href="#m21f51bc93e" y="113.111889"/>
    </g>
   </g>
   <g id="PathCollection_4">
    <defs>
     <path d="M 0 3.535534 
C 0.937635 3.535534 1.836992 3.163008 2.5 2.5 
C 3.163008 1.836992 3.535534 0.937635 3.535534 0 
C 3.535534 -0.937635 3.163008 -1.836992 2.5 -2.5 
C 1.836992 -3.163008 0.937635 -3.535534 0 -3.535534 
C -0.937635 -3.535534 -1.836992 -3.163008 -2.5 -2.5 
C -3.163008 -1.836992 -3.535534 -0.937635 -3.535534 0 
C -3.535534 0.937635 -3.163008 1.836992 -2.5 2.5 
C -1.836992 3.163008 -0.937635 3.535534 0 3.535534 
z
" id="m5d342c4ffc" style="stroke:#d65f5f;"/>
    </defs>
    <g clip-path="url(#p676c48aa6a)">
     <use style="fill:#d65f5f;stroke:#d65f5f;" x="136.754323" xlink:href="#m5d342c4ffc" y="110.883005"/>
     <use style="fill:#d65f5f;stroke:#d65f5f;" x="143.930624" xlink:href="#m5d342c4ffc" y="109.812537"/>
     <use style="fill:#d65f5f;stroke:#d65f5f;" x="151.086767" xlink:href="#m5d342c4ffc" y="110.746346"/>
     <use style="fill:#d65f5f;stroke:#d65f5f;" x="158.363998" xlink:href="#m5d342c4ffc" y="109.819116"/>
     <use style="fill:#d65f5f;stroke:#d65f5f;" x="165.472991" xlink:href="#m5d342c4ffc" y="110.590141"/>
     <use style="fill:#d65f5f;stroke:#d65f5f;" x="172.643695" xlink:href="#m5d342c4ffc" y="110.860611"/>
     <use style="fill:#d65f5f;stroke:#d65f5f;" x="179.783017" xlink:href="#m5d342c4ffc" y="110.82284"/>
     <use style="fill:#d65f5f;stroke:#d65f5f;" x="187.086098" xlink:href="#m5d342c4ffc" y="109.494799"/>
     <use style="fill:#d65f5f;stroke:#d65f5f;" x="194.084099" xlink:href="#m5d342c4ffc" y="110.224691"/>
    </g>
   </g>
   <g id="line2d_7">
    <path clip-path="url(#p676c48aa6a)" d="M -1 108.178401 
L 13.915515 108.435412 
L 37.223776 108.83704 
L 60.532037 109.238668 
L 83.840298 109.640295 
L 107.148559 110.041923 
L 130.45682 110.443551 
L 153.765081 110.845179 
L 177.073342 111.246806 
L 200.381603 111.648434 
L 223.689864 112.050062 
L 246.998124 112.45169 
L 270.306385 112.853317 
L 293.614646 113.254945 
L 316.922907 113.656573 
L 340.231168 114.058201 
L 363.539429 114.459828 
L 386.84769 114.861456 
L 410.155951 115.263084 
L 433.464212 115.664712 
L 456.772473 116.066339 
L 480.080734 116.467967 
L 503.388995 116.869595 
L 526.697256 117.271223 
L 550.005517 117.67285 
L 573.313778 118.074478 
L 576.36122 118.126989 
" style="fill:none;stroke:#4878d0;stroke-linecap:round;stroke-width:2.25;"/>
   </g>
   <g id="line2d_8">
    <path clip-path="url(#p676c48aa6a)" d="M -1 113.575416 
L 13.915515 113.459559 
L 37.223776 113.278512 
L 60.532037 113.097465 
L 83.840298 112.916419 
L 107.148559 112.735372 
L 130.45682 112.554325 
L 153.765081 112.373278 
L 177.073342 112.192231 
L 200.381603 112.011184 
L 223.689864 111.830137 
L 246.998124 111.64909 
L 270.306385 111.468043 
L 293.614646 111.286996 
L 316.922907 111.105949 
L 340.231168 110.924902 
L 363.539429 110.743855 
L 386.84769 110.562808 
L 410.155951 110.381761 
L 433.464212 110.200714 
L 456.772473 110.019667 
L 480.080734 109.83862 
L 503.388995 109.657573 
L 526.697256 109.476527 
L 550.005517 109.29548 
L 573.313778 109.114433 
L 576.36122 109.090762 
" style="fill:none;stroke:#ee854a;stroke-linecap:round;stroke-width:2.25;"/>
   </g>
   <g id="line2d_9">
    <path clip-path="url(#p676c48aa6a)" d="M -1 111.144234 
L 13.915515 111.214143 
L 37.223776 111.323388 
L 60.532037 111.432633 
L 83.840298 111.541878 
L 107.148559 111.651123 
L 130.45682 111.760368 
L 153.765081 111.869613 
L 177.073342 111.978858 
L 200.381603 112.088103 
L 223.689864 112.197348 
L 246.998124 112.306593 
L 270.306385 112.415838 
L 293.614646 112.525083 
L 316.922907 112.634328 
L 340.231168 112.743573 
L 363.539429 112.852818 
L 386.84769 112.962063 
L 410.155951 113.071308 
L 433.464212 113.180553 
L 456.772473 113.289798 
L 480.080734 113.399043 
L 503.388995 113.508288 
L 526.697256 113.617533 
L 550.005517 113.726778 
L 573.313778 113.836023 
L 576.36122 113.850306 
" style="fill:none;stroke:#6acc64;stroke-linecap:round;stroke-width:2.25;"/>
   </g>
   <g id="line2d_10">
    <path clip-path="url(#p676c48aa6a)" d="M -1 111.293944 
L 13.915515 111.210403 
L 37.223776 111.079854 
L 60.532037 110.949305 
L 83.840298 110.818756 
L 107.148559 110.688207 
L 130.45682 110.557658 
L 153.765081 110.427109 
L 177.073342 110.29656 
L 200.381603 110.166011 
L 223.689864 110.035462 
L 246.998124 109.904913 
L 270.306385 109.774364 
L 293.614646 109.643815 
L 316.922907 109.513266 
L 340.231168 109.382717 
L 363.539429 109.252169 
L 386.84769 109.12162 
L 410.155951 108.991071 
L 433.464212 108.860522 
L 456.772473 108.729973 
L 480.080734 108.599424 
L 503.388995 108.468875 
L 526.697256 108.338326 
L 550.005517 108.207777 
L 573.313778 108.077228 
L 576.36122 108.060159 
" style="fill:none;stroke:#d65f5f;stroke-linecap:round;stroke-width:2.25;"/>
   </g>
   <g id="patch_3">
    <path d="M 70.251783 128.27874 
L 70.251783 24.8 
" style="fill:none;stroke:#cccccc;stroke-linecap:square;stroke-linejoin:miter;stroke-width:0.8;"/>
   </g>
   <g id="patch_4">
    <path d="M 70.251783 128.27874 
L 207.843245 128.27874 
" style="fill:none;stroke:#cccccc;stroke-linecap:square;stroke-linejoin:miter;stroke-width:0.8;"/>
   </g>
   <g id="text_9">
    <!-- dt = 8 -->
    <defs>
     <path d="M 45.40625 46.390625 
L 45.40625 75.984375 
L 54.390625 75.984375 
L 54.390625 0 
L 45.40625 0 
L 45.40625 8.203125 
Q 42.578125 3.328125 38.25 0.953125 
Q 33.9375 -1.421875 27.875 -1.421875 
Q 17.96875 -1.421875 11.734375 6.484375 
Q 5.515625 14.40625 5.515625 27.296875 
Q 5.515625 40.1875 11.734375 48.09375 
Q 17.96875 56 27.875 56 
Q 33.9375 56 38.25 53.625 
Q 42.578125 51.265625 45.40625 46.390625 
z
M 14.796875 27.296875 
Q 14.796875 17.390625 18.875 11.75 
Q 22.953125 6.109375 30.078125 6.109375 
Q 37.203125 6.109375 41.296875 11.75 
Q 45.40625 17.390625 45.40625 27.296875 
Q 45.40625 37.203125 41.296875 42.84375 
Q 37.203125 48.484375 30.078125 48.484375 
Q 22.953125 48.484375 18.875 42.84375 
Q 14.796875 37.203125 14.796875 27.296875 
z
" id="DejaVuSans-100"/>
     <path d="M 10.59375 45.40625 
L 73.1875 45.40625 
L 73.1875 37.203125 
L 10.59375 37.203125 
z
M 10.59375 25.484375 
L 73.1875 25.484375 
L 73.1875 17.1875 
L 10.59375 17.1875 
z
" id="DejaVuSans-61"/>
     <path d="M 31.78125 34.625 
Q 24.75 34.625 20.71875 30.859375 
Q 16.703125 27.09375 16.703125 20.515625 
Q 16.703125 13.921875 20.71875 10.15625 
Q 24.75 6.390625 31.78125 6.390625 
Q 38.8125 6.390625 42.859375 10.171875 
Q 46.921875 13.96875 46.921875 20.515625 
Q 46.921875 27.09375 42.890625 30.859375 
Q 38.875 34.625 31.78125 34.625 
z
M 21.921875 38.8125 
Q 15.578125 40.375 12.03125 44.71875 
Q 8.5 49.078125 8.5 55.328125 
Q 8.5 64.0625 14.71875 69.140625 
Q 20.953125 74.21875 31.78125 74.21875 
Q 42.671875 74.21875 48.875 69.140625 
Q 55.078125 64.0625 55.078125 55.328125 
Q 55.078125 49.078125 51.53125 44.71875 
Q 48 40.375 41.703125 38.8125 
Q 48.828125 37.15625 52.796875 32.3125 
Q 56.78125 27.484375 56.78125 20.515625 
Q 56.78125 9.90625 50.3125 4.234375 
Q 43.84375 -1.421875 31.78125 -1.421875 
Q 19.734375 -1.421875 13.25 4.234375 
Q 6.78125 9.90625 6.78125 20.515625 
Q 6.78125 27.484375 10.78125 32.3125 
Q 14.796875 37.15625 21.921875 38.8125 
z
M 18.3125 54.390625 
Q 18.3125 48.734375 21.84375 45.5625 
Q 25.390625 42.390625 31.78125 42.390625 
Q 38.140625 42.390625 41.71875 45.5625 
Q 45.3125 48.734375 45.3125 54.390625 
Q 45.3125 60.0625 41.71875 63.234375 
Q 38.140625 66.40625 31.78125 66.40625 
Q 25.390625 66.40625 21.84375 63.234375 
Q 18.3125 60.0625 18.3125 54.390625 
z
" id="DejaVuSans-56"/>
    </defs>
    <g style="fill:#262626;" transform="translate(123.36392 18.8)scale(0.1 -0.1)">
     <use xlink:href="#DejaVuSans-100"/>
     <use x="63.476562" xlink:href="#DejaVuSans-116"/>
     <use x="102.685547" xlink:href="#DejaVuSans-32"/>
     <use x="134.472656" xlink:href="#DejaVuSans-61"/>
     <use x="218.261719" xlink:href="#DejaVuSans-32"/>
     <use x="250.048828" xlink:href="#DejaVuSans-56"/>
    </g>
   </g>
  </g>
  <g id="axes_2">
   <g id="patch_5">
    <path d="M 218.571464 128.27874 
L 356.162927 128.27874 
L 356.162927 24.8 
L 218.571464 24.8 
z
" style="fill:#ffffff;"/>
   </g>
   <g id="matplotlib.axis_3">
    <g id="xtick_4">
     <g id="line2d_11">
      <path clip-path="url(#pa248f38d14)" d="M 227.744228 128.27874 
L 227.744228 24.8 
" style="fill:none;stroke:#cccccc;stroke-linecap:round;stroke-width:0.8;"/>
     </g>
     <g id="text_10">
      <!-- 0.000 -->
      <g style="fill:#262626;" transform="translate(213.430166 142.877178)scale(0.1 -0.1)">
       <use xlink:href="#DejaVuSans-48"/>
       <use x="63.623047" xlink:href="#DejaVuSans-46"/>
       <use x="95.410156" xlink:href="#DejaVuSans-48"/>
       <use x="159.033203" xlink:href="#DejaVuSans-48"/>
       <use x="222.65625" xlink:href="#DejaVuSans-48"/>
      </g>
     </g>
    </g>
    <g id="xtick_5">
     <g id="line2d_12">
      <path clip-path="url(#pa248f38d14)" d="M 273.608049 128.27874 
L 273.608049 24.8 
" style="fill:none;stroke:#cccccc;stroke-linecap:round;stroke-width:0.8;"/>
     </g>
     <g id="text_11">
      <!-- 0.001 -->
      <g style="fill:#262626;" transform="translate(259.293987 142.877178)scale(0.1 -0.1)">
       <use xlink:href="#DejaVuSans-48"/>
       <use x="63.623047" xlink:href="#DejaVuSans-46"/>
       <use x="95.410156" xlink:href="#DejaVuSans-48"/>
       <use x="159.033203" xlink:href="#DejaVuSans-48"/>
       <use x="222.65625" xlink:href="#DejaVuSans-49"/>
      </g>
     </g>
    </g>
    <g id="xtick_6">
     <g id="line2d_13">
      <path clip-path="url(#pa248f38d14)" d="M 319.47187 128.27874 
L 319.47187 24.8 
" style="fill:none;stroke:#cccccc;stroke-linecap:round;stroke-width:0.8;"/>
     </g>
     <g id="text_12">
      <!-- 0.002 -->
      <g style="fill:#262626;" transform="translate(305.157808 142.877178)scale(0.1 -0.1)">
       <use xlink:href="#DejaVuSans-48"/>
       <use x="63.623047" xlink:href="#DejaVuSans-46"/>
       <use x="95.410156" xlink:href="#DejaVuSans-48"/>
       <use x="159.033203" xlink:href="#DejaVuSans-48"/>
       <use x="222.65625" xlink:href="#DejaVuSans-50"/>
      </g>
     </g>
    </g>
    <g id="text_13">
     <!-- 1/num_s -->
     <g style="fill:#262626;" transform="translate(266.18907 156.277178)scale(0.1 -0.1)">
      <use xlink:href="#DejaVuSans-49"/>
      <use x="63.623047" xlink:href="#DejaVuSans-47"/>
      <use x="97.314453" xlink:href="#DejaVuSans-110"/>
      <use x="160.693359" xlink:href="#DejaVuSans-117"/>
      <use x="224.072266" xlink:href="#DejaVuSans-109"/>
      <use x="321.484375" xlink:href="#DejaVuSans-95"/>
      <use x="371.484375" xlink:href="#DejaVuSans-115"/>
     </g>
    </g>
   </g>
   <g id="matplotlib.axis_4">
    <g id="ytick_4">
     <g id="line2d_14">
      <path clip-path="url(#pa248f38d14)" d="M 218.571464 112.600143 
L 356.162927 112.600143 
" style="fill:none;stroke:#cccccc;stroke-linecap:round;stroke-width:0.8;"/>
     </g>
    </g>
    <g id="ytick_5">
     <g id="line2d_15">
      <path clip-path="url(#pa248f38d14)" d="M 218.571464 81.242949 
L 356.162927 81.242949 
" style="fill:none;stroke:#cccccc;stroke-linecap:round;stroke-width:0.8;"/>
     </g>
    </g>
    <g id="ytick_6">
     <g id="line2d_16">
      <path clip-path="url(#pa248f38d14)" d="M 218.571464 49.885755 
L 356.162927 49.885755 
" style="fill:none;stroke:#cccccc;stroke-linecap:round;stroke-width:0.8;"/>
     </g>
    </g>
   </g>
   <g id="PathCollection_5">
    <g clip-path="url(#pa248f38d14)">
     <use style="fill:#4878d0;stroke:#4878d0;" x="285.074004" xlink:href="#m85320937f1" y="114.191198"/>
     <use style="fill:#4878d0;stroke:#4878d0;" x="292.250305" xlink:href="#m85320937f1" y="114.594891"/>
     <use style="fill:#4878d0;stroke:#4878d0;" x="299.406448" xlink:href="#m85320937f1" y="109.15056"/>
     <use style="fill:#4878d0;stroke:#4878d0;" x="306.683679" xlink:href="#m85320937f1" y="111.999484"/>
     <use style="fill:#4878d0;stroke:#4878d0;" x="313.792673" xlink:href="#m85320937f1" y="114.204487"/>
     <use style="fill:#4878d0;stroke:#4878d0;" x="320.963376" xlink:href="#m85320937f1" y="107.107445"/>
     <use style="fill:#4878d0;stroke:#4878d0;" x="328.102699" xlink:href="#m85320937f1" y="112.266487"/>
     <use style="fill:#4878d0;stroke:#4878d0;" x="335.40578" xlink:href="#m85320937f1" y="109.177596"/>
     <use style="fill:#4878d0;stroke:#4878d0;" x="342.403781" xlink:href="#m85320937f1" y="112.895793"/>
    </g>
   </g>
   <g id="PathCollection_6">
    <g clip-path="url(#pa248f38d14)">
     <use style="fill:#ee854a;stroke:#ee854a;" x="285.074004" xlink:href="#m95054d14b7" y="103.642141"/>
     <use style="fill:#ee854a;stroke:#ee854a;" x="292.250305" xlink:href="#m95054d14b7" y="103.358784"/>
     <use style="fill:#ee854a;stroke:#ee854a;" x="299.406448" xlink:href="#m95054d14b7" y="102.466836"/>
     <use style="fill:#ee854a;stroke:#ee854a;" x="306.683679" xlink:href="#m95054d14b7" y="102.446812"/>
     <use style="fill:#ee854a;stroke:#ee854a;" x="313.792673" xlink:href="#m95054d14b7" y="101.883994"/>
     <use style="fill:#ee854a;stroke:#ee854a;" x="320.963376" xlink:href="#m95054d14b7" y="102.479894"/>
     <use style="fill:#ee854a;stroke:#ee854a;" x="328.102699" xlink:href="#m95054d14b7" y="102.234525"/>
     <use style="fill:#ee854a;stroke:#ee854a;" x="335.40578" xlink:href="#m95054d14b7" y="100.71463"/>
     <use style="fill:#ee854a;stroke:#ee854a;" x="342.403781" xlink:href="#m95054d14b7" y="101.621918"/>
    </g>
   </g>
   <g id="PathCollection_7">
    <g clip-path="url(#pa248f38d14)">
     <use style="fill:#6acc64;stroke:#6acc64;" x="285.074004" xlink:href="#m21f51bc93e" y="96.526893"/>
     <use style="fill:#6acc64;stroke:#6acc64;" x="292.250305" xlink:href="#m21f51bc93e" y="94.796738"/>
     <use style="fill:#6acc64;stroke:#6acc64;" x="299.406448" xlink:href="#m21f51bc93e" y="94.249915"/>
     <use style="fill:#6acc64;stroke:#6acc64;" x="306.683679" xlink:href="#m21f51bc93e" y="93.936858"/>
     <use style="fill:#6acc64;stroke:#6acc64;" x="313.792673" xlink:href="#m21f51bc93e" y="94.663469"/>
     <use style="fill:#6acc64;stroke:#6acc64;" x="320.963376" xlink:href="#m21f51bc93e" y="93.836256"/>
     <use style="fill:#6acc64;stroke:#6acc64;" x="328.102699" xlink:href="#m21f51bc93e" y="93.240662"/>
     <use style="fill:#6acc64;stroke:#6acc64;" x="335.40578" xlink:href="#m21f51bc93e" y="93.243021"/>
     <use style="fill:#6acc64;stroke:#6acc64;" x="342.403781" xlink:href="#m21f51bc93e" y="91.436311"/>
    </g>
   </g>
   <g id="PathCollection_8">
    <g clip-path="url(#pa248f38d14)">
     <use style="fill:#d65f5f;stroke:#d65f5f;" x="285.074004" xlink:href="#m5d342c4ffc" y="86.851335"/>
     <use style="fill:#d65f5f;stroke:#d65f5f;" x="292.250305" xlink:href="#m5d342c4ffc" y="86.901822"/>
     <use style="fill:#d65f5f;stroke:#d65f5f;" x="299.406448" xlink:href="#m5d342c4ffc" y="84.931788"/>
     <use style="fill:#d65f5f;stroke:#d65f5f;" x="306.683679" xlink:href="#m5d342c4ffc" y="84.656017"/>
     <use style="fill:#d65f5f;stroke:#d65f5f;" x="313.792673" xlink:href="#m5d342c4ffc" y="83.164252"/>
     <use style="fill:#d65f5f;stroke:#d65f5f;" x="320.963376" xlink:href="#m5d342c4ffc" y="84.898287"/>
     <use style="fill:#d65f5f;stroke:#d65f5f;" x="328.102699" xlink:href="#m5d342c4ffc" y="83.712066"/>
     <use style="fill:#d65f5f;stroke:#d65f5f;" x="335.40578" xlink:href="#m5d342c4ffc" y="83.275908"/>
     <use style="fill:#d65f5f;stroke:#d65f5f;" x="342.403781" xlink:href="#m5d342c4ffc" y="82.307289"/>
    </g>
   </g>
   <g id="line2d_17">
    <path clip-path="url(#pa248f38d14)" d="M -1 126.45958 
L 18.889391 125.529037 
L 44.528478 124.32949 
L 70.167565 123.129943 
L 95.806652 121.930395 
L 121.445739 120.730848 
L 147.084826 119.531301 
L 172.723914 118.331753 
L 198.363001 117.132206 
L 224.002088 115.932659 
L 249.641175 114.733111 
L 275.280262 113.533564 
L 300.919349 112.334017 
L 326.558436 111.134469 
L 352.197523 109.934922 
L 377.83661 108.735375 
L 403.475697 107.535827 
L 429.114784 106.33628 
L 454.753871 105.136733 
L 480.392958 103.937185 
L 506.032046 102.737638 
L 531.671133 101.538091 
L 557.31022 100.338543 
L 576.36122 99.447225 
" style="fill:none;stroke:#4878d0;stroke-linecap:round;stroke-width:2.25;"/>
   </g>
   <g id="line2d_18">
    <path clip-path="url(#pa248f38d14)" d="M -1 114.355473 
L 18.889391 113.594814 
L 44.528478 112.61426 
L 70.167565 111.633707 
L 95.806652 110.653154 
L 121.445739 109.672601 
L 147.084826 108.692048 
L 172.723914 107.711495 
L 198.363001 106.730942 
L 224.002088 105.750389 
L 249.641175 104.769836 
L 275.280262 103.789283 
L 300.919349 102.80873 
L 326.558436 101.828177 
L 352.197523 100.847624 
L 377.83661 99.867071 
L 403.475697 98.886518 
L 429.114784 97.905965 
L 454.753871 96.925412 
L 480.392958 95.944859 
L 506.032046 94.964306 
L 531.671133 93.983753 
L 557.31022 93.0032 
L 576.36122 92.274604 
" style="fill:none;stroke:#ee854a;stroke-linecap:round;stroke-width:2.25;"/>
   </g>
   <g id="line2d_19">
    <path clip-path="url(#pa248f38d14)" d="M -1 113.830994 
L 18.889391 112.577509 
L 44.528478 110.961662 
L 70.167565 109.345814 
L 95.806652 107.729967 
L 121.445739 106.11412 
L 147.084826 104.498273 
L 172.723914 102.882426 
L 198.363001 101.266578 
L 224.002088 99.650731 
L 249.641175 98.034884 
L 275.280262 96.419037 
L 300.919349 94.80319 
L 326.558436 93.187343 
L 352.197523 91.571495 
L 377.83661 89.955648 
L 403.475697 88.339801 
L 429.114784 86.723954 
L 454.753871 85.108107 
L 480.392958 83.492259 
L 506.032046 81.876412 
L 531.671133 80.260565 
L 557.31022 78.644718 
L 576.36122 77.44407 
" style="fill:none;stroke:#6acc64;stroke-linecap:round;stroke-width:2.25;"/>
   </g>
   <g id="line2d_20">
    <path clip-path="url(#pa248f38d14)" d="M -1 107.374841 
L 18.889391 105.93092 
L 44.528478 104.069586 
L 70.167565 102.208251 
L 95.806652 100.346917 
L 121.445739 98.485583 
L 147.084826 96.624248 
L 172.723914 94.762914 
L 198.363001 92.90158 
L 224.002088 91.040246 
L 249.641175 89.178911 
L 275.280262 87.317577 
L 300.919349 85.456243 
L 326.558436 83.594908 
L 352.197523 81.733574 
L 377.83661 79.87224 
L 403.475697 78.010905 
L 429.114784 76.149571 
L 454.753871 74.288237 
L 480.392958 72.426902 
L 506.032046 70.565568 
L 531.671133 68.704234 
L 557.31022 66.842899 
L 576.36122 65.459844 
" style="fill:none;stroke:#d65f5f;stroke-linecap:round;stroke-width:2.25;"/>
   </g>
   <g id="patch_6">
    <path d="M 218.571464 128.27874 
L 218.571464 24.8 
" style="fill:none;stroke:#cccccc;stroke-linecap:square;stroke-linejoin:miter;stroke-width:0.8;"/>
   </g>
   <g id="patch_7">
    <path d="M 218.571464 128.27874 
L 356.162927 128.27874 
" style="fill:none;stroke:#cccccc;stroke-linecap:square;stroke-linejoin:miter;stroke-width:0.8;"/>
   </g>
   <g id="text_14">
    <!-- dt = 32 -->
    <defs>
     <path d="M 40.578125 39.3125 
Q 47.65625 37.796875 51.625 33 
Q 55.609375 28.21875 55.609375 21.1875 
Q 55.609375 10.40625 48.1875 4.484375 
Q 40.765625 -1.421875 27.09375 -1.421875 
Q 22.515625 -1.421875 17.65625 -0.515625 
Q 12.796875 0.390625 7.625 2.203125 
L 7.625 11.71875 
Q 11.71875 9.328125 16.59375 8.109375 
Q 21.484375 6.890625 26.8125 6.890625 
Q 36.078125 6.890625 40.9375 10.546875 
Q 45.796875 14.203125 45.796875 21.1875 
Q 45.796875 27.640625 41.28125 31.265625 
Q 36.765625 34.90625 28.71875 34.90625 
L 20.21875 34.90625 
L 20.21875 43.015625 
L 29.109375 43.015625 
Q 36.375 43.015625 40.234375 45.921875 
Q 44.09375 48.828125 44.09375 54.296875 
Q 44.09375 59.90625 40.109375 62.90625 
Q 36.140625 65.921875 28.71875 65.921875 
Q 24.65625 65.921875 20.015625 65.03125 
Q 15.375 64.15625 9.8125 62.3125 
L 9.8125 71.09375 
Q 15.4375 72.65625 20.34375 73.4375 
Q 25.25 74.21875 29.59375 74.21875 
Q 40.828125 74.21875 47.359375 69.109375 
Q 53.90625 64.015625 53.90625 55.328125 
Q 53.90625 49.265625 50.4375 45.09375 
Q 46.96875 40.921875 40.578125 39.3125 
z
" id="DejaVuSans-51"/>
    </defs>
    <g style="fill:#262626;" transform="translate(268.502352 18.8)scale(0.1 -0.1)">
     <use xlink:href="#DejaVuSans-100"/>
     <use x="63.476562" xlink:href="#DejaVuSans-116"/>
     <use x="102.685547" xlink:href="#DejaVuSans-32"/>
     <use x="134.472656" xlink:href="#DejaVuSans-61"/>
     <use x="218.261719" xlink:href="#DejaVuSans-32"/>
     <use x="250.048828" xlink:href="#DejaVuSans-51"/>
     <use x="313.671875" xlink:href="#DejaVuSans-50"/>
    </g>
   </g>
  </g>
  <g id="axes_3">
   <g id="patch_8">
    <path d="M 366.891145 128.27874 
L 504.482608 128.27874 
L 504.482608 24.8 
L 366.891145 24.8 
z
" style="fill:#ffffff;"/>
   </g>
   <g id="matplotlib.axis_5">
    <g id="xtick_7">
     <g id="line2d_21">
      <path clip-path="url(#p40fac1f1d9)" d="M 376.06391 128.27874 
L 376.06391 24.8 
" style="fill:none;stroke:#cccccc;stroke-linecap:round;stroke-width:0.8;"/>
     </g>
     <g id="text_15">
      <!-- 0.000 -->
      <g style="fill:#262626;" transform="translate(361.749847 142.877178)scale(0.1 -0.1)">
       <use xlink:href="#DejaVuSans-48"/>
       <use x="63.623047" xlink:href="#DejaVuSans-46"/>
       <use x="95.410156" xlink:href="#DejaVuSans-48"/>
       <use x="159.033203" xlink:href="#DejaVuSans-48"/>
       <use x="222.65625" xlink:href="#DejaVuSans-48"/>
      </g>
     </g>
    </g>
    <g id="xtick_8">
     <g id="line2d_22">
      <path clip-path="url(#p40fac1f1d9)" d="M 421.927731 128.27874 
L 421.927731 24.8 
" style="fill:none;stroke:#cccccc;stroke-linecap:round;stroke-width:0.8;"/>
     </g>
     <g id="text_16">
      <!-- 0.001 -->
      <g style="fill:#262626;" transform="translate(407.613668 142.877178)scale(0.1 -0.1)">
       <use xlink:href="#DejaVuSans-48"/>
       <use x="63.623047" xlink:href="#DejaVuSans-46"/>
       <use x="95.410156" xlink:href="#DejaVuSans-48"/>
       <use x="159.033203" xlink:href="#DejaVuSans-48"/>
       <use x="222.65625" xlink:href="#DejaVuSans-49"/>
      </g>
     </g>
    </g>
    <g id="xtick_9">
     <g id="line2d_23">
      <path clip-path="url(#p40fac1f1d9)" d="M 467.791552 128.27874 
L 467.791552 24.8 
" style="fill:none;stroke:#cccccc;stroke-linecap:round;stroke-width:0.8;"/>
     </g>
     <g id="text_17">
      <!-- 0.002 -->
      <g style="fill:#262626;" transform="translate(453.477489 142.877178)scale(0.1 -0.1)">
       <use xlink:href="#DejaVuSans-48"/>
       <use x="63.623047" xlink:href="#DejaVuSans-46"/>
       <use x="95.410156" xlink:href="#DejaVuSans-48"/>
       <use x="159.033203" xlink:href="#DejaVuSans-48"/>
       <use x="222.65625" xlink:href="#DejaVuSans-50"/>
      </g>
     </g>
    </g>
    <g id="text_18">
     <!-- 1/num_s -->
     <g style="fill:#262626;" transform="translate(414.508752 156.277178)scale(0.1 -0.1)">
      <use xlink:href="#DejaVuSans-49"/>
      <use x="63.623047" xlink:href="#DejaVuSans-47"/>
      <use x="97.314453" xlink:href="#DejaVuSans-110"/>
      <use x="160.693359" xlink:href="#DejaVuSans-117"/>
      <use x="224.072266" xlink:href="#DejaVuSans-109"/>
      <use x="321.484375" xlink:href="#DejaVuSans-95"/>
      <use x="371.484375" xlink:href="#DejaVuSans-115"/>
     </g>
    </g>
   </g>
   <g id="matplotlib.axis_6">
    <g id="ytick_7">
     <g id="line2d_24">
      <path clip-path="url(#p40fac1f1d9)" d="M 366.891145 112.600143 
L 504.482608 112.600143 
" style="fill:none;stroke:#cccccc;stroke-linecap:round;stroke-width:0.8;"/>
     </g>
    </g>
    <g id="ytick_8">
     <g id="line2d_25">
      <path clip-path="url(#p40fac1f1d9)" d="M 366.891145 81.242949 
L 504.482608 81.242949 
" style="fill:none;stroke:#cccccc;stroke-linecap:round;stroke-width:0.8;"/>
     </g>
    </g>
    <g id="ytick_9">
     <g id="line2d_26">
      <path clip-path="url(#p40fac1f1d9)" d="M 366.891145 49.885755 
L 504.482608 49.885755 
" style="fill:none;stroke:#cccccc;stroke-linecap:round;stroke-width:0.8;"/>
     </g>
    </g>
   </g>
   <g id="PathCollection_9">
    <g clip-path="url(#p40fac1f1d9)">
     <use style="fill:#4878d0;stroke:#4878d0;" x="433.393686" xlink:href="#m85320937f1" y="111.249053"/>
     <use style="fill:#4878d0;stroke:#4878d0;" x="440.569987" xlink:href="#m85320937f1" y="114.186774"/>
     <use style="fill:#4878d0;stroke:#4878d0;" x="447.72613" xlink:href="#m85320937f1" y="107.717087"/>
     <use style="fill:#4878d0;stroke:#4878d0;" x="455.00336" xlink:href="#m85320937f1" y="110.670832"/>
     <use style="fill:#4878d0;stroke:#4878d0;" x="462.112354" xlink:href="#m85320937f1" y="109.166054"/>
     <use style="fill:#4878d0;stroke:#4878d0;" x="469.283058" xlink:href="#m85320937f1" y="111.045841"/>
     <use style="fill:#4878d0;stroke:#4878d0;" x="476.42238" xlink:href="#m85320937f1" y="110.827618"/>
     <use style="fill:#4878d0;stroke:#4878d0;" x="483.725461" xlink:href="#m85320937f1" y="113.804488"/>
     <use style="fill:#4878d0;stroke:#4878d0;" x="490.723462" xlink:href="#m85320937f1" y="110.391298"/>
    </g>
   </g>
   <g id="PathCollection_10">
    <g clip-path="url(#p40fac1f1d9)">
     <use style="fill:#ee854a;stroke:#ee854a;" x="433.393686" xlink:href="#m95054d14b7" y="83.138255"/>
     <use style="fill:#ee854a;stroke:#ee854a;" x="440.569987" xlink:href="#m95054d14b7" y="82.046499"/>
     <use style="fill:#ee854a;stroke:#ee854a;" x="447.72613" xlink:href="#m95054d14b7" y="82.15435"/>
     <use style="fill:#ee854a;stroke:#ee854a;" x="455.00336" xlink:href="#m95054d14b7" y="81.809253"/>
     <use style="fill:#ee854a;stroke:#ee854a;" x="462.112354" xlink:href="#m95054d14b7" y="80.310478"/>
     <use style="fill:#ee854a;stroke:#ee854a;" x="469.283058" xlink:href="#m95054d14b7" y="81.385509"/>
     <use style="fill:#ee854a;stroke:#ee854a;" x="476.42238" xlink:href="#m95054d14b7" y="79.473197"/>
     <use style="fill:#ee854a;stroke:#ee854a;" x="483.725461" xlink:href="#m95054d14b7" y="78.215902"/>
     <use style="fill:#ee854a;stroke:#ee854a;" x="490.723462" xlink:href="#m95054d14b7" y="77.498916"/>
    </g>
   </g>
   <g id="PathCollection_11">
    <g clip-path="url(#p40fac1f1d9)">
     <use style="fill:#6acc64;stroke:#6acc64;" x="433.393686" xlink:href="#m21f51bc93e" y="66.47995"/>
     <use style="fill:#6acc64;stroke:#6acc64;" x="440.569987" xlink:href="#m21f51bc93e" y="64.958548"/>
     <use style="fill:#6acc64;stroke:#6acc64;" x="447.72613" xlink:href="#m21f51bc93e" y="64.552053"/>
     <use style="fill:#6acc64;stroke:#6acc64;" x="455.00336" xlink:href="#m21f51bc93e" y="63.66225"/>
     <use style="fill:#6acc64;stroke:#6acc64;" x="462.112354" xlink:href="#m21f51bc93e" y="62.714063"/>
     <use style="fill:#6acc64;stroke:#6acc64;" x="469.283058" xlink:href="#m21f51bc93e" y="62.6321"/>
     <use style="fill:#6acc64;stroke:#6acc64;" x="476.42238" xlink:href="#m21f51bc93e" y="62.528681"/>
     <use style="fill:#6acc64;stroke:#6acc64;" x="483.725461" xlink:href="#m21f51bc93e" y="61.291826"/>
     <use style="fill:#6acc64;stroke:#6acc64;" x="490.723462" xlink:href="#m21f51bc93e" y="61.452702"/>
    </g>
   </g>
   <g id="PathCollection_12">
    <g clip-path="url(#p40fac1f1d9)">
     <use style="fill:#d65f5f;stroke:#d65f5f;" x="433.393686" xlink:href="#m5d342c4ffc" y="48.777993"/>
     <use style="fill:#d65f5f;stroke:#d65f5f;" x="440.569987" xlink:href="#m5d342c4ffc" y="47.836259"/>
     <use style="fill:#d65f5f;stroke:#d65f5f;" x="447.72613" xlink:href="#m5d342c4ffc" y="48.824523"/>
     <use style="fill:#d65f5f;stroke:#d65f5f;" x="455.00336" xlink:href="#m5d342c4ffc" y="47.383934"/>
     <use style="fill:#d65f5f;stroke:#d65f5f;" x="462.112354" xlink:href="#m5d342c4ffc" y="46.975493"/>
     <use style="fill:#d65f5f;stroke:#d65f5f;" x="469.283058" xlink:href="#m5d342c4ffc" y="45.545271"/>
     <use style="fill:#d65f5f;stroke:#d65f5f;" x="476.42238" xlink:href="#m5d342c4ffc" y="45.9246"/>
     <use style="fill:#d65f5f;stroke:#d65f5f;" x="483.725461" xlink:href="#m5d342c4ffc" y="45.13464"/>
     <use style="fill:#d65f5f;stroke:#d65f5f;" x="490.723462" xlink:href="#m5d342c4ffc" y="45.353137"/>
    </g>
   </g>
   <g id="line2d_27">
    <path clip-path="url(#p40fac1f1d9)" d="M -1 108.783297 
L 24.912139 108.907695 
L 53.115135 109.043091 
L 81.318131 109.178487 
L 109.521127 109.313883 
L 137.724122 109.449278 
L 165.927118 109.584674 
L 194.130114 109.72007 
L 222.33311 109.855466 
L 250.536106 109.990861 
L 278.739101 110.126257 
L 306.942097 110.261653 
L 335.145093 110.397049 
L 363.348089 110.532444 
L 391.551084 110.66784 
L 419.75408 110.803236 
L 447.957076 110.938632 
L 476.160072 111.074027 
L 504.363068 111.209423 
L 532.566063 111.344819 
L 560.769059 111.480215 
L 576.36122 111.555069 
" style="fill:none;stroke:#4878d0;stroke-linecap:round;stroke-width:2.25;"/>
   </g>
   <g id="line2d_28">
    <path clip-path="url(#p40fac1f1d9)" d="M -1 123.521444 
L 24.912139 121.123798 
L 53.115135 118.514179 
L 81.318131 115.904561 
L 109.521127 113.294942 
L 137.724122 110.685324 
L 165.927118 108.075705 
L 194.130114 105.466087 
L 222.33311 102.856468 
L 250.536106 100.24685 
L 278.739101 97.637231 
L 306.942097 95.027613 
L 335.145093 92.417994 
L 363.348089 89.808376 
L 391.551084 87.198757 
L 419.75408 84.589139 
L 447.957076 81.97952 
L 476.160072 79.369902 
L 504.363068 76.760283 
L 532.566063 74.150665 
L 560.769059 71.541046 
L 576.36122 70.098306 
" style="fill:none;stroke:#ee854a;stroke-linecap:round;stroke-width:2.25;"/>
   </g>
   <g id="line2d_29">
    <path clip-path="url(#p40fac1f1d9)" d="M -1 102.310559 
L 24.912139 100.131364 
L 53.115135 97.759509 
L 81.318131 95.387655 
L 109.521127 93.0158 
L 137.724122 90.643946 
L 165.927118 88.272091 
L 194.130114 85.900236 
L 222.33311 83.528382 
L 250.536106 81.156527 
L 278.739101 78.784673 
L 306.942097 76.412818 
L 335.145093 74.040964 
L 363.348089 71.669109 
L 391.551084 69.297254 
L 419.75408 66.9254 
L 447.957076 64.553545 
L 476.160072 62.181691 
L 504.363068 59.809836 
L 532.566063 57.437982 
L 560.769059 55.066127 
L 576.36122 53.754836 
" style="fill:none;stroke:#6acc64;stroke-linecap:round;stroke-width:2.25;"/>
   </g>
   <g id="line2d_30">
    <path clip-path="url(#p40fac1f1d9)" d="M -1 78.550209 
L 24.912139 76.77715 
L 53.115135 74.847337 
L 81.318131 72.917524 
L 109.521127 70.987711 
L 137.724122 69.057899 
L 165.927118 67.128086 
L 194.130114 65.198273 
L 222.33311 63.26846 
L 250.536106 61.338647 
L 278.739101 59.408834 
L 306.942097 57.479022 
L 335.145093 55.549209 
L 363.348089 53.619396 
L 391.551084 51.689583 
L 419.75408 49.75977 
L 447.957076 47.829958 
L 476.160072 45.900145 
L 504.363068 43.970332 
L 532.566063 42.040519 
L 560.769059 40.110706 
L 576.36122 39.0438 
" style="fill:none;stroke:#d65f5f;stroke-linecap:round;stroke-width:2.25;"/>
   </g>
   <g id="patch_9">
    <path d="M 366.891145 128.27874 
L 366.891145 24.8 
" style="fill:none;stroke:#cccccc;stroke-linecap:square;stroke-linejoin:miter;stroke-width:0.8;"/>
   </g>
   <g id="patch_10">
    <path d="M 366.891145 128.27874 
L 504.482608 128.27874 
" style="fill:none;stroke:#cccccc;stroke-linecap:square;stroke-linejoin:miter;stroke-width:0.8;"/>
   </g>
   <g id="text_19">
    <!-- dt = 64 -->
    <defs>
     <path d="M 33.015625 40.375 
Q 26.375 40.375 22.484375 35.828125 
Q 18.609375 31.296875 18.609375 23.390625 
Q 18.609375 15.53125 22.484375 10.953125 
Q 26.375 6.390625 33.015625 6.390625 
Q 39.65625 6.390625 43.53125 10.953125 
Q 47.40625 15.53125 47.40625 23.390625 
Q 47.40625 31.296875 43.53125 35.828125 
Q 39.65625 40.375 33.015625 40.375 
z
M 52.59375 71.296875 
L 52.59375 62.3125 
Q 48.875 64.0625 45.09375 64.984375 
Q 41.3125 65.921875 37.59375 65.921875 
Q 27.828125 65.921875 22.671875 59.328125 
Q 17.53125 52.734375 16.796875 39.40625 
Q 19.671875 43.65625 24.015625 45.921875 
Q 28.375 48.1875 33.59375 48.1875 
Q 44.578125 48.1875 50.953125 41.515625 
Q 57.328125 34.859375 57.328125 23.390625 
Q 57.328125 12.15625 50.6875 5.359375 
Q 44.046875 -1.421875 33.015625 -1.421875 
Q 20.359375 -1.421875 13.671875 8.265625 
Q 6.984375 17.96875 6.984375 36.375 
Q 6.984375 53.65625 15.1875 63.9375 
Q 23.390625 74.21875 37.203125 74.21875 
Q 40.921875 74.21875 44.703125 73.484375 
Q 48.484375 72.75 52.59375 71.296875 
z
" id="DejaVuSans-54"/>
     <path d="M 37.796875 64.3125 
L 12.890625 25.390625 
L 37.796875 25.390625 
z
M 35.203125 72.90625 
L 47.609375 72.90625 
L 47.609375 25.390625 
L 58.015625 25.390625 
L 58.015625 17.1875 
L 47.609375 17.1875 
L 47.609375 0 
L 37.796875 0 
L 37.796875 17.1875 
L 4.890625 17.1875 
L 4.890625 26.703125 
z
" id="DejaVuSans-52"/>
    </defs>
    <g style="fill:#262626;" transform="translate(416.822033 18.8)scale(0.1 -0.1)">
     <use xlink:href="#DejaVuSans-100"/>
     <use x="63.476562" xlink:href="#DejaVuSans-116"/>
     <use x="102.685547" xlink:href="#DejaVuSans-32"/>
     <use x="134.472656" xlink:href="#DejaVuSans-61"/>
     <use x="218.261719" xlink:href="#DejaVuSans-32"/>
     <use x="250.048828" xlink:href="#DejaVuSans-54"/>
     <use x="313.671875" xlink:href="#DejaVuSans-52"/>
    </g>
   </g>
  </g>
  <g id="legend_1">
   <g id="text_20">
    <!-- dimensions -->
    <g style="fill:#262626;" transform="translate(509.350283 58.442495)scale(0.1 -0.1)">
     <use xlink:href="#DejaVuSans-100"/>
     <use x="63.476562" xlink:href="#DejaVuSans-105"/>
     <use x="91.259766" xlink:href="#DejaVuSans-109"/>
     <use x="188.671875" xlink:href="#DejaVuSans-101"/>
     <use x="250.195312" xlink:href="#DejaVuSans-110"/>
     <use x="313.574219" xlink:href="#DejaVuSans-115"/>
     <use x="365.673828" xlink:href="#DejaVuSans-105"/>
     <use x="393.457031" xlink:href="#DejaVuSans-111"/>
     <use x="454.638672" xlink:href="#DejaVuSans-110"/>
     <use x="518.017578" xlink:href="#DejaVuSans-115"/>
    </g>
   </g>
   <g id="PathCollection_13">
    <g>
     <use style="fill:#4878d0;stroke:#4878d0;" x="524.312002" xlink:href="#m85320937f1" y="70.49562"/>
    </g>
   </g>
   <g id="text_21">
    <!-- 10 -->
    <g style="fill:#262626;" transform="translate(542.312002 73.12062)scale(0.1 -0.1)">
     <use xlink:href="#DejaVuSans-49"/>
     <use x="63.623047" xlink:href="#DejaVuSans-48"/>
    </g>
   </g>
   <g id="PathCollection_14">
    <g>
     <use style="fill:#ee854a;stroke:#ee854a;" x="524.312002" xlink:href="#m95054d14b7" y="85.173745"/>
    </g>
   </g>
   <g id="text_22">
    <!-- 150 -->
    <defs>
     <path d="M 10.796875 72.90625 
L 49.515625 72.90625 
L 49.515625 64.59375 
L 19.828125 64.59375 
L 19.828125 46.734375 
Q 21.96875 47.46875 24.109375 47.828125 
Q 26.265625 48.1875 28.421875 48.1875 
Q 40.625 48.1875 47.75 41.5 
Q 54.890625 34.8125 54.890625 23.390625 
Q 54.890625 11.625 47.5625 5.09375 
Q 40.234375 -1.421875 26.90625 -1.421875 
Q 22.3125 -1.421875 17.546875 -0.640625 
Q 12.796875 0.140625 7.71875 1.703125 
L 7.71875 11.625 
Q 12.109375 9.234375 16.796875 8.0625 
Q 21.484375 6.890625 26.703125 6.890625 
Q 35.15625 6.890625 40.078125 11.328125 
Q 45.015625 15.765625 45.015625 23.390625 
Q 45.015625 31 40.078125 35.4375 
Q 35.15625 39.890625 26.703125 39.890625 
Q 22.75 39.890625 18.8125 39.015625 
Q 14.890625 38.140625 10.796875 36.28125 
z
" id="DejaVuSans-53"/>
    </defs>
    <g style="fill:#262626;" transform="translate(542.312002 87.798745)scale(0.1 -0.1)">
     <use xlink:href="#DejaVuSans-49"/>
     <use x="63.623047" xlink:href="#DejaVuSans-53"/>
     <use x="127.246094" xlink:href="#DejaVuSans-48"/>
    </g>
   </g>
   <g id="PathCollection_15">
    <g>
     <use style="fill:#6acc64;stroke:#6acc64;" x="524.312002" xlink:href="#m21f51bc93e" y="99.85187"/>
    </g>
   </g>
   <g id="text_23">
    <!-- 250 -->
    <g style="fill:#262626;" transform="translate(542.312002 102.47687)scale(0.1 -0.1)">
     <use xlink:href="#DejaVuSans-50"/>
     <use x="63.623047" xlink:href="#DejaVuSans-53"/>
     <use x="127.246094" xlink:href="#DejaVuSans-48"/>
    </g>
   </g>
   <g id="PathCollection_16">
    <g>
     <use style="fill:#d65f5f;stroke:#d65f5f;" x="524.312002" xlink:href="#m5d342c4ffc" y="114.529995"/>
    </g>
   </g>
   <g id="text_24">
    <!-- 400 -->
    <g style="fill:#262626;" transform="translate(542.312002 117.154995)scale(0.1 -0.1)">
     <use xlink:href="#DejaVuSans-52"/>
     <use x="63.623047" xlink:href="#DejaVuSans-48"/>
     <use x="127.246094" xlink:href="#DejaVuSans-48"/>
    </g>
   </g>
  </g>
 </g>
 <defs>
  <clipPath id="p676c48aa6a">
   <rect height="103.47874" width="137.591463" x="70.251783" y="24.8"/>
  </clipPath>
  <clipPath id="pa248f38d14">
   <rect height="103.47874" width="137.591463" x="218.571464" y="24.8"/>
  </clipPath>
  <clipPath id="p40fac1f1d9">
   <rect height="103.47874" width="137.591463" x="366.891145" y="24.8"/>
  </clipPath>
 </defs>
</svg>
